<svg xmlns="http://www.w3.org/2000/svg" width="1200" height="900" viewBox="0 0 1200 900">
<defs>
<linearGradient id="sky" x1="0" y1="0" x2="0" y2="1">
<stop offset="0" stop-color="#f3b7a1"/><stop offset="0.55" stop-color="#e98b6f"/><stop offset="1" stop-color="#2b2140"/>
</linearGradient>
<radialGradient id="sun" cx="0.5" cy="0.5" r="0.5">
<stop offset="0" stop-color="#fff" stop-opacity="0.95"/><stop offset="0.4" stop-color="#e98b6f" stop-opacity="0.7"/><stop offset="1" stop-color="#e98b6f" stop-opacity="0"/>
</radialGradient>
<linearGradient id="water" x1="0" y1="0" x2="0" y2="1">
<stop offset="0" stop-color="#fff" stop-opacity="0.5"/><stop offset="1" stop-color="#fff" stop-opacity="0"/>
</linearGradient>
<linearGradient id="vig" x1="0" y1="0" x2="0" y2="1">
<stop offset="0" stop-color="#000" stop-opacity="0"/><stop offset="1" stop-color="#000" stop-opacity="0.45"/>
</linearGradient>
</defs>
<rect width="1200" height="900" fill="url(#sky)"/>
<circle cx="787" cy="206" r="108" fill="url(#sun)" opacity="0.9"/><rect x="-20" y="211" width="134" height="689" fill="#7a4a63" opacity="0.92"/><rect x="-12" y="223" width="6" height="9" fill="#e98b6f" opacity="0.73"/><rect x="42" y="223" width="6" height="9" fill="#e98b6f" opacity="0.68"/><rect x="69" y="223" width="6" height="9" fill="#e98b6f" opacity="0.69"/><rect x="95" y="223" width="6" height="9" fill="#e98b6f" opacity="0.66"/><rect x="-12" y="256" width="6" height="9" fill="#e98b6f" opacity="0.38"/><rect x="15" y="256" width="6" height="9" fill="#e98b6f" opacity="0.68"/><rect x="42" y="256" width="6" height="9" fill="#e98b6f" opacity="0.69"/><rect x="95" y="256" width="6" height="9" fill="#e98b6f" opacity="0.48"/><rect x="-12" y="288" width="6" height="9" fill="#e98b6f" opacity="0.68"/><rect x="15" y="288" width="6" height="9" fill="#e98b6f" opacity="0.69"/><rect x="42" y="288" width="6" height="9" fill="#e98b6f" opacity="0.66"/><rect x="-12" y="321" width="6" height="9" fill="#e98b6f" opacity="0.69"/><rect x="15" y="321" width="6" height="9" fill="#e98b6f" opacity="0.66"/><rect x="69" y="321" width="6" height="9" fill="#e98b6f" opacity="0.41"/><rect x="95" y="321" width="6" height="9" fill="#e98b6f" opacity="0.76"/><rect x="-12" y="354" width="6" height="9" fill="#e98b6f" opacity="0.66"/><rect x="15" y="354" width="6" height="9" fill="#e98b6f" opacity="0.48"/><rect x="69" y="354" width="6" height="9" fill="#e98b6f" opacity="0.76"/><rect x="95" y="354" width="6" height="9" fill="#e98b6f" opacity="0.44"/><rect x="15" y="386" width="6" height="9" fill="#e98b6f" opacity="0.41"/><rect x="42" y="386" width="6" height="9" fill="#e98b6f" opacity="0.76"/><rect x="-12" y="419" width="6" height="9" fill="#e98b6f" opacity="0.41"/><rect x="15" y="419" width="6" height="9" fill="#e98b6f" opacity="0.76"/><rect x="42" y="419" width="6" height="9" fill="#e98b6f" opacity="0.44"/><rect x="69" y="419" width="6" height="9" fill="#e98b6f" opacity="0.46"/><rect x="95" y="419" width="6" height="9" fill="#e98b6f" opacity="0.66"/><rect x="42" y="451" width="6" height="9" fill="#e98b6f" opacity="0.46"/><rect x="-12" y="484" width="6" height="9" fill="#e98b6f" opacity="0.44"/><rect x="69" y="484" width="6" height="9" fill="#e98b6f" opacity="0.69"/><rect x="95" y="484" width="6" height="9" fill="#e98b6f" opacity="0.83"/><rect x="15" y="516" width="6" height="9" fill="#e98b6f" opacity="0.66"/><rect x="42" y="516" width="6" height="9" fill="#e98b6f" opacity="0.69"/><rect x="69" y="549" width="6" height="9" fill="#e98b6f" opacity="0.42"/><rect x="95" y="549" width="6" height="9" fill="#e98b6f" opacity="0.74"/><rect x="108" y="191" width="129" height="709" fill="#2b2140" opacity="0.92"/><rect x="213" y="203" width="6" height="9" fill="#e98b6f" opacity="0.69"/><rect x="116" y="234" width="6" height="9" fill="#e98b6f" opacity="0.38"/><rect x="148" y="234" width="6" height="9" fill="#e98b6f" opacity="0.68"/><rect x="181" y="234" width="6" height="9" fill="#e98b6f" opacity="0.69"/><rect x="148" y="266" width="6" height="9" fill="#e98b6f" opacity="0.69"/><rect x="181" y="266" width="6" height="9" fill="#e98b6f" opacity="0.66"/><rect x="116" y="297" width="6" height="9" fill="#e98b6f" opacity="0.69"/><rect x="116" y="329" width="6" height="9" fill="#e98b6f" opacity="0.66"/><rect x="213" y="329" width="6" height="9" fill="#e98b6f" opacity="0.76"/><rect x="116" y="361" width="6" height="9" fill="#e98b6f" opacity="0.48"/><rect x="148" y="361" width="6" height="9" fill="#e98b6f" opacity="0.41"/><rect x="213" y="361" width="6" height="9" fill="#e98b6f" opacity="0.44"/><rect x="148" y="392" width="6" height="9" fill="#e98b6f" opacity="0.76"/><rect x="213" y="392" width="6" height="9" fill="#e98b6f" opacity="0.46"/><rect x="116" y="455" width="6" height="9" fill="#e98b6f" opacity="0.44"/><rect x="148" y="455" width="6" height="9" fill="#e98b6f" opacity="0.46"/><rect x="181" y="455" width="6" height="9" fill="#e98b6f" opacity="0.66"/><rect x="148" y="487" width="6" height="9" fill="#e98b6f" opacity="0.66"/><rect x="181" y="487" width="6" height="9" fill="#e98b6f" opacity="0.69"/><rect x="213" y="487" width="6" height="9" fill="#e98b6f" opacity="0.83"/><rect x="116" y="518" width="6" height="9" fill="#e98b6f" opacity="0.66"/><rect x="181" y="518" width="6" height="9" fill="#e98b6f" opacity="0.83"/><rect x="181" y="550" width="6" height="9" fill="#e98b6f" opacity="0.42"/><rect x="213" y="550" width="6" height="9" fill="#e98b6f" opacity="0.74"/><rect x="231" y="207" width="85" height="693" fill="#7a4a63" opacity="0.92"/><rect x="239" y="219" width="6" height="9" fill="#e98b6f" opacity="0.73"/><rect x="296" y="219" width="6" height="9" fill="#e98b6f" opacity="0.68"/><rect x="296" y="249" width="6" height="9" fill="#e98b6f" opacity="0.69"/><rect x="267" y="279" width="6" height="9" fill="#e98b6f" opacity="0.69"/><rect x="296" y="310" width="6" height="9" fill="#e98b6f" opacity="0.48"/><rect x="239" y="340" width="6" height="9" fill="#e98b6f" opacity="0.66"/><rect x="267" y="340" width="6" height="9" fill="#e98b6f" opacity="0.48"/><rect x="296" y="340" width="6" height="9" fill="#e98b6f" opacity="0.41"/><rect x="296" y="370" width="6" height="9" fill="#e98b6f" opacity="0.76"/><rect x="239" y="400" width="6" height="9" fill="#e98b6f" opacity="0.41"/><rect x="267" y="400" width="6" height="9" fill="#e98b6f" opacity="0.76"/><rect x="296" y="400" width="6" height="9" fill="#e98b6f" opacity="0.44"/><rect x="239" y="431" width="6" height="9" fill="#e98b6f" opacity="0.76"/><rect x="239" y="461" width="6" height="9" fill="#e98b6f" opacity="0.44"/><rect x="267" y="521" width="6" height="9" fill="#e98b6f" opacity="0.69"/><rect x="239" y="551" width="6" height="9" fill="#e98b6f" opacity="0.69"/><rect x="310" y="305" width="93" height="595" fill="#2b2140" opacity="0.92"/><rect x="349" y="317" width="6" height="9" fill="#e98b6f" opacity="0.38"/><rect x="318" y="350" width="6" height="9" fill="#e98b6f" opacity="0.38"/><rect x="318" y="383" width="6" height="9" fill="#e98b6f" opacity="0.68"/><rect x="349" y="383" width="6" height="9" fill="#e98b6f" opacity="0.69"/><rect x="380" y="383" width="6" height="9" fill="#e98b6f" opacity="0.66"/><rect x="318" y="449" width="6" height="9" fill="#e98b6f" opacity="0.66"/><rect x="380" y="449" width="6" height="9" fill="#e98b6f" opacity="0.41"/><rect x="318" y="482" width="6" height="9" fill="#e98b6f" opacity="0.48"/><rect x="380" y="482" width="6" height="9" fill="#e98b6f" opacity="0.76"/><rect x="318" y="515" width="6" height="9" fill="#e98b6f" opacity="0.41"/><rect x="349" y="515" width="6" height="9" fill="#e98b6f" opacity="0.76"/><rect x="349" y="549" width="6" height="9" fill="#e98b6f" opacity="0.44"/><rect x="380" y="549" width="6" height="9" fill="#e98b6f" opacity="0.46"/><rect x="397" y="306" width="149" height="594" fill="#7a4a63" opacity="0.92"/><rect x="435" y="318" width="6" height="9" fill="#e98b6f" opacity="0.38"/><rect x="494" y="318" width="6" height="9" fill="#e98b6f" opacity="0.69"/><rect x="524" y="318" width="6" height="9" fill="#e98b6f" opacity="0.66"/><rect x="524" y="351" width="6" height="9" fill="#e98b6f" opacity="0.48"/><rect x="405" y="384" width="6" height="9" fill="#e98b6f" opacity="0.68"/><rect x="435" y="384" width="6" height="9" fill="#e98b6f" opacity="0.69"/><rect x="405" y="417" width="6" height="9" fill="#e98b6f" opacity="0.69"/><rect x="465" y="417" width="6" height="9" fill="#e98b6f" opacity="0.48"/><rect x="405" y="450" width="6" height="9" fill="#e98b6f" opacity="0.66"/><rect x="435" y="450" width="6" height="9" fill="#e98b6f" opacity="0.48"/><rect x="494" y="450" width="6" height="9" fill="#e98b6f" opacity="0.76"/><rect x="524" y="450" width="6" height="9" fill="#e98b6f" opacity="0.44"/><rect x="465" y="483" width="6" height="9" fill="#e98b6f" opacity="0.76"/><rect x="524" y="483" width="6" height="9" fill="#e98b6f" opacity="0.46"/><rect x="405" y="516" width="6" height="9" fill="#e98b6f" opacity="0.41"/><rect x="465" y="516" width="6" height="9" fill="#e98b6f" opacity="0.44"/><rect x="494" y="516" width="6" height="9" fill="#e98b6f" opacity="0.46"/><rect x="524" y="516" width="6" height="9" fill="#e98b6f" opacity="0.66"/><rect x="465" y="549" width="6" height="9" fill="#e98b6f" opacity="0.46"/><rect x="540" y="385" width="136" height="515" fill="#2b2140" opacity="0.92"/><rect x="548" y="397" width="6" height="9" fill="#e98b6f" opacity="0.73"/><rect x="603" y="397" width="6" height="9" fill="#e98b6f" opacity="0.68"/><rect x="548" y="427" width="6" height="9" fill="#e98b6f" opacity="0.38"/><rect x="575" y="427" width="6" height="9" fill="#e98b6f" opacity="0.68"/><rect x="657" y="427" width="6" height="9" fill="#e98b6f" opacity="0.48"/><rect x="548" y="458" width="6" height="9" fill="#e98b6f" opacity="0.68"/><rect x="575" y="458" width="6" height="9" fill="#e98b6f" opacity="0.69"/><rect x="603" y="458" width="6" height="9" fill="#e98b6f" opacity="0.66"/><rect x="657" y="458" width="6" height="9" fill="#e98b6f" opacity="0.41"/><rect x="548" y="489" width="6" height="9" fill="#e98b6f" opacity="0.69"/><rect x="548" y="520" width="6" height="9" fill="#e98b6f" opacity="0.66"/><rect x="575" y="520" width="6" height="9" fill="#e98b6f" opacity="0.48"/><rect x="603" y="520" width="6" height="9" fill="#e98b6f" opacity="0.41"/><rect x="630" y="520" width="6" height="9" fill="#e98b6f" opacity="0.76"/><rect x="657" y="520" width="6" height="9" fill="#e98b6f" opacity="0.44"/><rect x="548" y="551" width="6" height="9" fill="#e98b6f" opacity="0.48"/><rect x="575" y="551" width="6" height="9" fill="#e98b6f" opacity="0.41"/><rect x="630" y="551" width="6" height="9" fill="#e98b6f" opacity="0.44"/><rect x="670" y="397" width="79" height="503" fill="#7a4a63" opacity="0.92"/><rect x="678" y="409" width="6" height="9" fill="#e98b6f" opacity="0.73"/><rect x="705" y="513" width="6" height="9" fill="#e98b6f" opacity="0.66"/><rect x="705" y="547" width="6" height="9" fill="#e98b6f" opacity="0.48"/><rect x="731" y="547" width="6" height="9" fill="#e98b6f" opacity="0.41"/><rect x="743" y="420" width="111" height="480" fill="#2b2140" opacity="0.92"/><rect x="751" y="432" width="6" height="9" fill="#e98b6f" opacity="0.73"/><rect x="779" y="432" width="6" height="9" fill="#e98b6f" opacity="0.38"/><rect x="835" y="432" width="6" height="9" fill="#e98b6f" opacity="0.69"/><rect x="751" y="470" width="6" height="9" fill="#e98b6f" opacity="0.38"/><rect x="779" y="470" width="6" height="9" fill="#e98b6f" opacity="0.68"/><rect x="835" y="470" width="6" height="9" fill="#e98b6f" opacity="0.66"/><rect x="835" y="507" width="6" height="9" fill="#e98b6f" opacity="0.48"/><rect x="807" y="544" width="6" height="9" fill="#e98b6f" opacity="0.48"/><rect x="835" y="544" width="6" height="9" fill="#e98b6f" opacity="0.41"/><rect x="848" y="246" width="99" height="654" fill="#7a4a63" opacity="0.92"/><rect x="856" y="258" width="6" height="9" fill="#e98b6f" opacity="0.73"/><rect x="889" y="258" width="6" height="9" fill="#e98b6f" opacity="0.38"/><rect x="922" y="258" width="6" height="9" fill="#e98b6f" opacity="0.68"/><rect x="889" y="291" width="6" height="9" fill="#e98b6f" opacity="0.68"/><rect x="922" y="291" width="6" height="9" fill="#e98b6f" opacity="0.69"/><rect x="856" y="355" width="6" height="9" fill="#e98b6f" opacity="0.69"/><rect x="889" y="388" width="6" height="9" fill="#e98b6f" opacity="0.48"/><rect x="922" y="388" width="6" height="9" fill="#e98b6f" opacity="0.41"/><rect x="856" y="420" width="6" height="9" fill="#e98b6f" opacity="0.48"/><rect x="922" y="420" width="6" height="9" fill="#e98b6f" opacity="0.76"/><rect x="889" y="452" width="6" height="9" fill="#e98b6f" opacity="0.76"/><rect x="922" y="452" width="6" height="9" fill="#e98b6f" opacity="0.44"/><rect x="922" y="485" width="6" height="9" fill="#e98b6f" opacity="0.46"/><rect x="856" y="517" width="6" height="9" fill="#e98b6f" opacity="0.44"/><rect x="889" y="517" width="6" height="9" fill="#e98b6f" opacity="0.46"/><rect x="922" y="517" width="6" height="9" fill="#e98b6f" opacity="0.66"/><rect x="856" y="549" width="6" height="9" fill="#e98b6f" opacity="0.46"/><rect x="922" y="549" width="6" height="9" fill="#e98b6f" opacity="0.69"/><rect x="941" y="148" width="85" height="752" fill="#2b2140" opacity="0.92"/><rect x="949" y="160" width="6" height="9" fill="#e98b6f" opacity="0.73"/><rect x="977" y="160" width="6" height="9" fill="#e98b6f" opacity="0.38"/><rect x="977" y="220" width="6" height="9" fill="#e98b6f" opacity="0.69"/><rect x="1006" y="220" width="6" height="9" fill="#e98b6f" opacity="0.66"/><rect x="949" y="250" width="6" height="9" fill="#e98b6f" opacity="0.69"/><rect x="977" y="250" width="6" height="9" fill="#e98b6f" opacity="0.66"/><rect x="1006" y="250" width="6" height="9" fill="#e98b6f" opacity="0.48"/><rect x="949" y="280" width="6" height="9" fill="#e98b6f" opacity="0.66"/><rect x="977" y="280" width="6" height="9" fill="#e98b6f" opacity="0.48"/><rect x="1006" y="310" width="6" height="9" fill="#e98b6f" opacity="0.76"/><rect x="949" y="341" width="6" height="9" fill="#e98b6f" opacity="0.41"/><rect x="949" y="401" width="6" height="9" fill="#e98b6f" opacity="0.44"/><rect x="977" y="401" width="6" height="9" fill="#e98b6f" opacity="0.46"/><rect x="1006" y="401" width="6" height="9" fill="#e98b6f" opacity="0.66"/><rect x="977" y="431" width="6" height="9" fill="#e98b6f" opacity="0.66"/><rect x="949" y="461" width="6" height="9" fill="#e98b6f" opacity="0.66"/><rect x="977" y="461" width="6" height="9" fill="#e98b6f" opacity="0.69"/><rect x="949" y="491" width="6" height="9" fill="#e98b6f" opacity="0.69"/><rect x="1006" y="491" width="6" height="9" fill="#e98b6f" opacity="0.42"/><rect x="949" y="521" width="6" height="9" fill="#e98b6f" opacity="0.83"/><rect x="1006" y="521" width="6" height="9" fill="#e98b6f" opacity="0.74"/><rect x="949" y="551" width="6" height="9" fill="#e98b6f" opacity="0.42"/><rect x="1006" y="551" width="6" height="9" fill="#e98b6f" opacity="0.74"/><rect x="1020" y="420" width="126" height="480" fill="#7a4a63" opacity="0.92"/><rect x="1028" y="432" width="6" height="9" fill="#e98b6f" opacity="0.73"/><rect x="1059" y="432" width="6" height="9" fill="#e98b6f" opacity="0.38"/><rect x="1122" y="432" width="6" height="9" fill="#e98b6f" opacity="0.69"/><rect x="1028" y="469" width="6" height="9" fill="#e98b6f" opacity="0.38"/><rect x="1091" y="469" width="6" height="9" fill="#e98b6f" opacity="0.69"/><rect x="1122" y="469" width="6" height="9" fill="#e98b6f" opacity="0.66"/><rect x="1028" y="507" width="6" height="9" fill="#e98b6f" opacity="0.68"/><rect x="1091" y="507" width="6" height="9" fill="#e98b6f" opacity="0.66"/><rect x="1122" y="507" width="6" height="9" fill="#e98b6f" opacity="0.48"/><rect x="1028" y="544" width="6" height="9" fill="#e98b6f" opacity="0.69"/><rect x="1091" y="544" width="6" height="9" fill="#e98b6f" opacity="0.48"/><rect x="1122" y="544" width="6" height="9" fill="#e98b6f" opacity="0.41"/><rect x="0" y="569.603366663403" width="1200" height="330.396633336597" fill="url(#water)" opacity="0.25"/>
<rect width="1200" height="900" fill="url(#vig)"/>
<text x="48" y="846" font-family="Georgia, serif" font-size="46" fill="#fff" opacity="0.92" letter-spacing="-1">Villa Serena</text>
<text x="50" y="804" font-family="Georgia, serif" font-size="20" fill="#c9a24b" opacity="0.9" letter-spacing="3">KASSORA</text>
</svg>