<svg xmlns="http://www.w3.org/2000/svg" width="1200" height="900" viewBox="0 0 1200 900">
<defs>
<linearGradient id="sky" x1="0" y1="0" x2="0" y2="1">
<stop offset="0" stop-color="#f3b7a1"/><stop offset="0.55" stop-color="#e98b6f"/><stop offset="1" stop-color="#2b2140"/>
</linearGradient>
<radialGradient id="sun" cx="0.5" cy="0.5" r="0.5">
<stop offset="0" stop-color="#fff" stop-opacity="0.95"/><stop offset="0.4" stop-color="#e98b6f" stop-opacity="0.7"/><stop offset="1" stop-color="#e98b6f" stop-opacity="0"/>
</radialGradient>
<linearGradient id="water" x1="0" y1="0" x2="0" y2="1">
<stop offset="0" stop-color="#fff" stop-opacity="0.5"/><stop offset="1" stop-color="#fff" stop-opacity="0"/>
</linearGradient>
<linearGradient id="vig" x1="0" y1="0" x2="0" y2="1">
<stop offset="0" stop-color="#000" stop-opacity="0"/><stop offset="1" stop-color="#000" stop-opacity="0.45"/>
</linearGradient>
</defs>
<rect width="1200" height="900" fill="url(#sky)"/>
<circle cx="835" cy="221" r="108" fill="url(#sun)" opacity="0.9"/><rect x="-20" y="158" width="153" height="742" fill="#7a4a63" opacity="0.92"/><rect x="-12" y="170" width="6" height="9" fill="#e98b6f" opacity="0.76"/><rect x="80" y="170" width="6" height="9" fill="#e98b6f" opacity="0.66"/><rect x="111" y="170" width="6" height="9" fill="#e98b6f" opacity="0.69"/><rect x="49" y="202" width="6" height="9" fill="#e98b6f" opacity="0.66"/><rect x="80" y="202" width="6" height="9" fill="#e98b6f" opacity="0.69"/><rect x="111" y="202" width="6" height="9" fill="#e98b6f" opacity="0.83"/><rect x="49" y="233" width="6" height="9" fill="#e98b6f" opacity="0.69"/><rect x="80" y="233" width="6" height="9" fill="#e98b6f" opacity="0.83"/><rect x="111" y="233" width="6" height="9" fill="#e98b6f" opacity="0.42"/><rect x="49" y="265" width="6" height="9" fill="#e98b6f" opacity="0.83"/><rect x="80" y="265" width="6" height="9" fill="#e98b6f" opacity="0.42"/><rect x="111" y="265" width="6" height="9" fill="#e98b6f" opacity="0.74"/><rect x="-12" y="297" width="6" height="9" fill="#e98b6f" opacity="0.69"/><rect x="111" y="297" width="6" height="9" fill="#e98b6f" opacity="0.74"/><rect x="-12" y="328" width="6" height="9" fill="#e98b6f" opacity="0.83"/><rect x="80" y="328" width="6" height="9" fill="#e98b6f" opacity="0.74"/><rect x="111" y="328" width="6" height="9" fill="#e98b6f" opacity="0.48"/><rect x="-12" y="360" width="6" height="9" fill="#e98b6f" opacity="0.42"/><rect x="19" y="360" width="6" height="9" fill="#e98b6f" opacity="0.74"/><rect x="49" y="360" width="6" height="9" fill="#e98b6f" opacity="0.74"/><rect x="-12" y="391" width="6" height="9" fill="#e98b6f" opacity="0.74"/><rect x="19" y="391" width="6" height="9" fill="#e98b6f" opacity="0.74"/><rect x="49" y="391" width="6" height="9" fill="#e98b6f" opacity="0.48"/><rect x="80" y="391" width="6" height="9" fill="#e98b6f" opacity="0.36"/><rect x="-12" y="423" width="6" height="9" fill="#e98b6f" opacity="0.74"/><rect x="49" y="423" width="6" height="9" fill="#e98b6f" opacity="0.36"/><rect x="111" y="423" width="6" height="9" fill="#e98b6f" opacity="0.79"/><rect x="19" y="454" width="6" height="9" fill="#e98b6f" opacity="0.36"/><rect x="49" y="454" width="6" height="9" fill="#e98b6f" opacity="0.37"/><rect x="19" y="486" width="6" height="9" fill="#e98b6f" opacity="0.37"/><rect x="49" y="486" width="6" height="9" fill="#e98b6f" opacity="0.79"/><rect x="80" y="486" width="6" height="9" fill="#e98b6f" opacity="0.72"/><rect x="111" y="486" width="6" height="9" fill="#e98b6f" opacity="0.58"/><rect x="-12" y="518" width="6" height="9" fill="#e98b6f" opacity="0.37"/><rect x="19" y="518" width="6" height="9" fill="#e98b6f" opacity="0.79"/><rect x="49" y="518" width="6" height="9" fill="#e98b6f" opacity="0.72"/><rect x="111" y="518" width="6" height="9" fill="#e98b6f" opacity="0.59"/><rect x="127" y="175" width="136" height="725" fill="#2b2140" opacity="0.92"/><rect x="163" y="187" width="6" height="9" fill="#e98b6f" opacity="0.44"/><rect x="190" y="187" width="6" height="9" fill="#e98b6f" opacity="0.46"/><rect x="217" y="187" width="6" height="9" fill="#e98b6f" opacity="0.66"/><rect x="244" y="187" width="6" height="9" fill="#e98b6f" opacity="0.69"/><rect x="135" y="217" width="6" height="9" fill="#e98b6f" opacity="0.44"/><rect x="163" y="217" width="6" height="9" fill="#e98b6f" opacity="0.46"/><rect x="190" y="217" width="6" height="9" fill="#e98b6f" opacity="0.66"/><rect x="244" y="217" width="6" height="9" fill="#e98b6f" opacity="0.83"/><rect x="135" y="247" width="6" height="9" fill="#e98b6f" opacity="0.46"/><rect x="163" y="247" width="6" height="9" fill="#e98b6f" opacity="0.66"/><rect x="217" y="247" width="6" height="9" fill="#e98b6f" opacity="0.83"/><rect x="163" y="277" width="6" height="9" fill="#e98b6f" opacity="0.69"/><rect x="190" y="277" width="6" height="9" fill="#e98b6f" opacity="0.83"/><rect x="217" y="277" width="6" height="9" fill="#e98b6f" opacity="0.42"/><rect x="163" y="307" width="6" height="9" fill="#e98b6f" opacity="0.83"/><rect x="190" y="307" width="6" height="9" fill="#e98b6f" opacity="0.42"/><rect x="217" y="307" width="6" height="9" fill="#e98b6f" opacity="0.74"/><rect x="244" y="307" width="6" height="9" fill="#e98b6f" opacity="0.74"/><rect x="135" y="338" width="6" height="9" fill="#e98b6f" opacity="0.83"/><rect x="190" y="338" width="6" height="9" fill="#e98b6f" opacity="0.74"/><rect x="244" y="338" width="6" height="9" fill="#e98b6f" opacity="0.48"/><rect x="163" y="368" width="6" height="9" fill="#e98b6f" opacity="0.74"/><rect x="190" y="398" width="6" height="9" fill="#e98b6f" opacity="0.48"/><rect x="217" y="398" width="6" height="9" fill="#e98b6f" opacity="0.36"/><rect x="244" y="398" width="6" height="9" fill="#e98b6f" opacity="0.37"/><rect x="135" y="428" width="6" height="9" fill="#e98b6f" opacity="0.74"/><rect x="163" y="428" width="6" height="9" fill="#e98b6f" opacity="0.48"/><rect x="190" y="428" width="6" height="9" fill="#e98b6f" opacity="0.36"/><rect x="244" y="428" width="6" height="9" fill="#e98b6f" opacity="0.79"/><rect x="135" y="459" width="6" height="9" fill="#e98b6f" opacity="0.48"/><rect x="190" y="459" width="6" height="9" fill="#e98b6f" opacity="0.37"/><rect x="217" y="459" width="6" height="9" fill="#e98b6f" opacity="0.79"/><rect x="163" y="489" width="6" height="9" fill="#e98b6f" opacity="0.37"/><rect x="190" y="489" width="6" height="9" fill="#e98b6f" opacity="0.79"/><rect x="135" y="519" width="6" height="9" fill="#e98b6f" opacity="0.37"/><rect x="163" y="519" width="6" height="9" fill="#e98b6f" opacity="0.79"/><rect x="190" y="519" width="6" height="9" fill="#e98b6f" opacity="0.72"/><rect x="244" y="519" width="6" height="9" fill="#e98b6f" opacity="0.59"/><rect x="257" y="272" width="95" height="628" fill="#7a4a63" opacity="0.92"/><rect x="297" y="284" width="6" height="9" fill="#e98b6f" opacity="0.44"/><rect x="329" y="284" width="6" height="9" fill="#e98b6f" opacity="0.46"/><rect x="265" y="318" width="6" height="9" fill="#e98b6f" opacity="0.44"/><rect x="297" y="318" width="6" height="9" fill="#e98b6f" opacity="0.46"/><rect x="329" y="318" width="6" height="9" fill="#e98b6f" opacity="0.66"/><rect x="265" y="351" width="6" height="9" fill="#e98b6f" opacity="0.46"/><rect x="329" y="351" width="6" height="9" fill="#e98b6f" opacity="0.69"/><rect x="329" y="384" width="6" height="9" fill="#e98b6f" opacity="0.83"/><rect x="265" y="417" width="6" height="9" fill="#e98b6f" opacity="0.69"/><rect x="265" y="450" width="6" height="9" fill="#e98b6f" opacity="0.83"/><rect x="297" y="450" width="6" height="9" fill="#e98b6f" opacity="0.42"/><rect x="329" y="450" width="6" height="9" fill="#e98b6f" opacity="0.74"/><rect x="265" y="483" width="6" height="9" fill="#e98b6f" opacity="0.42"/><rect x="329" y="483" width="6" height="9" fill="#e98b6f" opacity="0.74"/><rect x="297" y="516" width="6" height="9" fill="#e98b6f" opacity="0.74"/><rect x="346" y="274" width="105" height="626" fill="#2b2140" opacity="0.92"/><rect x="354" y="286" width="6" height="9" fill="#e98b6f" opacity="0.76"/><rect x="407" y="286" width="6" height="9" fill="#e98b6f" opacity="0.46"/><rect x="433" y="286" width="6" height="9" fill="#e98b6f" opacity="0.66"/><rect x="407" y="319" width="6" height="9" fill="#e98b6f" opacity="0.66"/><rect x="433" y="319" width="6" height="9" fill="#e98b6f" opacity="0.69"/><rect x="354" y="352" width="6" height="9" fill="#e98b6f" opacity="0.46"/><rect x="381" y="352" width="6" height="9" fill="#e98b6f" opacity="0.66"/><rect x="381" y="385" width="6" height="9" fill="#e98b6f" opacity="0.69"/><rect x="407" y="385" width="6" height="9" fill="#e98b6f" opacity="0.83"/><rect x="433" y="385" width="6" height="9" fill="#e98b6f" opacity="0.42"/><rect x="354" y="418" width="6" height="9" fill="#e98b6f" opacity="0.69"/><rect x="407" y="418" width="6" height="9" fill="#e98b6f" opacity="0.42"/><rect x="433" y="418" width="6" height="9" fill="#e98b6f" opacity="0.74"/><rect x="354" y="451" width="6" height="9" fill="#e98b6f" opacity="0.83"/><rect x="433" y="451" width="6" height="9" fill="#e98b6f" opacity="0.74"/><rect x="354" y="483" width="6" height="9" fill="#e98b6f" opacity="0.42"/><rect x="407" y="483" width="6" height="9" fill="#e98b6f" opacity="0.74"/><rect x="381" y="516" width="6" height="9" fill="#e98b6f" opacity="0.74"/><rect x="407" y="516" width="6" height="9" fill="#e98b6f" opacity="0.48"/><rect x="433" y="516" width="6" height="9" fill="#e98b6f" opacity="0.36"/><rect x="446" y="352" width="158" height="548" fill="#7a4a63" opacity="0.92"/><rect x="480" y="364" width="6" height="9" fill="#e98b6f" opacity="0.44"/><rect x="506" y="364" width="6" height="9" fill="#e98b6f" opacity="0.46"/><rect x="533" y="395" width="6" height="9" fill="#e98b6f" opacity="0.69"/><rect x="559" y="395" width="6" height="9" fill="#e98b6f" opacity="0.83"/><rect x="506" y="426" width="6" height="9" fill="#e98b6f" opacity="0.69"/><rect x="533" y="426" width="6" height="9" fill="#e98b6f" opacity="0.83"/><rect x="586" y="426" width="6" height="9" fill="#e98b6f" opacity="0.74"/><rect x="454" y="457" width="6" height="9" fill="#e98b6f" opacity="0.66"/><rect x="480" y="457" width="6" height="9" fill="#e98b6f" opacity="0.69"/><rect x="506" y="457" width="6" height="9" fill="#e98b6f" opacity="0.83"/><rect x="533" y="457" width="6" height="9" fill="#e98b6f" opacity="0.42"/><rect x="559" y="457" width="6" height="9" fill="#e98b6f" opacity="0.74"/><rect x="454" y="488" width="6" height="9" fill="#e98b6f" opacity="0.69"/><rect x="480" y="488" width="6" height="9" fill="#e98b6f" opacity="0.83"/><rect x="506" y="488" width="6" height="9" fill="#e98b6f" opacity="0.42"/><rect x="586" y="488" width="6" height="9" fill="#e98b6f" opacity="0.48"/><rect x="506" y="518" width="6" height="9" fill="#e98b6f" opacity="0.74"/><rect x="533" y="518" width="6" height="9" fill="#e98b6f" opacity="0.74"/><rect x="586" y="518" width="6" height="9" fill="#e98b6f" opacity="0.36"/><rect x="598" y="365" width="124" height="535" fill="#2b2140" opacity="0.92"/><rect x="637" y="377" width="6" height="9" fill="#e98b6f" opacity="0.44"/><rect x="699" y="377" width="6" height="9" fill="#e98b6f" opacity="0.66"/><rect x="606" y="411" width="6" height="9" fill="#e98b6f" opacity="0.44"/><rect x="637" y="411" width="6" height="9" fill="#e98b6f" opacity="0.46"/><rect x="699" y="411" width="6" height="9" fill="#e98b6f" opacity="0.69"/><rect x="637" y="446" width="6" height="9" fill="#e98b6f" opacity="0.66"/><rect x="668" y="446" width="6" height="9" fill="#e98b6f" opacity="0.69"/><rect x="699" y="446" width="6" height="9" fill="#e98b6f" opacity="0.83"/><rect x="668" y="480" width="6" height="9" fill="#e98b6f" opacity="0.83"/><rect x="699" y="480" width="6" height="9" fill="#e98b6f" opacity="0.42"/><rect x="606" y="515" width="6" height="9" fill="#e98b6f" opacity="0.69"/><rect x="637" y="515" width="6" height="9" fill="#e98b6f" opacity="0.83"/><rect x="668" y="515" width="6" height="9" fill="#e98b6f" opacity="0.42"/><rect x="699" y="515" width="6" height="9" fill="#e98b6f" opacity="0.74"/><rect x="716" y="388" width="107" height="512" fill="#7a4a63" opacity="0.92"/><rect x="777" y="400" width="6" height="9" fill="#e98b6f" opacity="0.46"/><rect x="724" y="437" width="6" height="9" fill="#e98b6f" opacity="0.44"/><rect x="777" y="437" width="6" height="9" fill="#e98b6f" opacity="0.66"/><rect x="750" y="475" width="6" height="9" fill="#e98b6f" opacity="0.66"/><rect x="724" y="512" width="6" height="9" fill="#e98b6f" opacity="0.66"/><rect x="777" y="512" width="6" height="9" fill="#e98b6f" opacity="0.83"/><rect x="817" y="214" width="122" height="686" fill="#2b2140" opacity="0.92"/><rect x="825" y="226" width="6" height="9" fill="#e98b6f" opacity="0.76"/><rect x="886" y="226" width="6" height="9" fill="#e98b6f" opacity="0.46"/><rect x="916" y="226" width="6" height="9" fill="#e98b6f" opacity="0.66"/><rect x="855" y="258" width="6" height="9" fill="#e98b6f" opacity="0.46"/><rect x="825" y="291" width="6" height="9" fill="#e98b6f" opacity="0.46"/><rect x="886" y="291" width="6" height="9" fill="#e98b6f" opacity="0.69"/><rect x="825" y="323" width="6" height="9" fill="#e98b6f" opacity="0.66"/><rect x="855" y="323" width="6" height="9" fill="#e98b6f" opacity="0.69"/><rect x="825" y="355" width="6" height="9" fill="#e98b6f" opacity="0.69"/><rect x="855" y="355" width="6" height="9" fill="#e98b6f" opacity="0.83"/><rect x="886" y="355" width="6" height="9" fill="#e98b6f" opacity="0.42"/><rect x="916" y="355" width="6" height="9" fill="#e98b6f" opacity="0.74"/><rect x="825" y="388" width="6" height="9" fill="#e98b6f" opacity="0.83"/><rect x="855" y="388" width="6" height="9" fill="#e98b6f" opacity="0.42"/><rect x="886" y="388" width="6" height="9" fill="#e98b6f" opacity="0.74"/><rect x="825" y="420" width="6" height="9" fill="#e98b6f" opacity="0.42"/><rect x="855" y="420" width="6" height="9" fill="#e98b6f" opacity="0.74"/><rect x="886" y="452" width="6" height="9" fill="#e98b6f" opacity="0.48"/><rect x="916" y="452" width="6" height="9" fill="#e98b6f" opacity="0.36"/><rect x="855" y="485" width="6" height="9" fill="#e98b6f" opacity="0.48"/><rect x="886" y="485" width="6" height="9" fill="#e98b6f" opacity="0.36"/><rect x="916" y="517" width="6" height="9" fill="#e98b6f" opacity="0.79"/><rect x="933" y="115" width="145" height="785" fill="#7a4a63" opacity="0.92"/><rect x="999" y="127" width="6" height="9" fill="#e98b6f" opacity="0.46"/><rect x="1057" y="127" width="6" height="9" fill="#e98b6f" opacity="0.69"/><rect x="941" y="158" width="6" height="9" fill="#e98b6f" opacity="0.44"/><rect x="970" y="188" width="6" height="9" fill="#e98b6f" opacity="0.66"/><rect x="999" y="188" width="6" height="9" fill="#e98b6f" opacity="0.69"/><rect x="1028" y="188" width="6" height="9" fill="#e98b6f" opacity="0.83"/><rect x="970" y="218" width="6" height="9" fill="#e98b6f" opacity="0.69"/><rect x="1057" y="218" width="6" height="9" fill="#e98b6f" opacity="0.74"/><rect x="941" y="248" width="6" height="9" fill="#e98b6f" opacity="0.69"/><rect x="970" y="248" width="6" height="9" fill="#e98b6f" opacity="0.83"/><rect x="1028" y="248" width="6" height="9" fill="#e98b6f" opacity="0.74"/><rect x="1057" y="278" width="6" height="9" fill="#e98b6f" opacity="0.48"/><rect x="941" y="308" width="6" height="9" fill="#e98b6f" opacity="0.42"/><rect x="970" y="308" width="6" height="9" fill="#e98b6f" opacity="0.74"/><rect x="941" y="338" width="6" height="9" fill="#e98b6f" opacity="0.74"/><rect x="999" y="338" width="6" height="9" fill="#e98b6f" opacity="0.48"/><rect x="1028" y="338" width="6" height="9" fill="#e98b6f" opacity="0.36"/><rect x="1057" y="338" width="6" height="9" fill="#e98b6f" opacity="0.37"/><rect x="941" y="368" width="6" height="9" fill="#e98b6f" opacity="0.74"/><rect x="970" y="368" width="6" height="9" fill="#e98b6f" opacity="0.48"/><rect x="999" y="368" width="6" height="9" fill="#e98b6f" opacity="0.36"/><rect x="1028" y="368" width="6" height="9" fill="#e98b6f" opacity="0.37"/><rect x="941" y="399" width="6" height="9" fill="#e98b6f" opacity="0.48"/><rect x="970" y="399" width="6" height="9" fill="#e98b6f" opacity="0.36"/><rect x="1028" y="399" width="6" height="9" fill="#e98b6f" opacity="0.79"/><rect x="1057" y="399" width="6" height="9" fill="#e98b6f" opacity="0.72"/><rect x="1057" y="459" width="6" height="9" fill="#e98b6f" opacity="0.59"/><rect x="941" y="489" width="6" height="9" fill="#e98b6f" opacity="0.79"/><rect x="970" y="489" width="6" height="9" fill="#e98b6f" opacity="0.72"/><rect x="999" y="489" width="6" height="9" fill="#e98b6f" opacity="0.58"/><rect x="1028" y="489" width="6" height="9" fill="#e98b6f" opacity="0.59"/><rect x="1057" y="489" width="6" height="9" fill="#e98b6f" opacity="0.48"/><rect x="941" y="519" width="6" height="9" fill="#e98b6f" opacity="0.72"/><rect x="970" y="519" width="6" height="9" fill="#e98b6f" opacity="0.58"/><rect x="999" y="519" width="6" height="9" fill="#e98b6f" opacity="0.59"/><rect x="1028" y="519" width="6" height="9" fill="#e98b6f" opacity="0.48"/><rect x="1057" y="519" width="6" height="9" fill="#e98b6f" opacity="0.50"/><rect x="1072" y="388" width="153" height="512" fill="#2b2140" opacity="0.92"/><rect x="1202" y="437" width="6" height="9" fill="#e98b6f" opacity="0.83"/><rect x="1080" y="474" width="6" height="9" fill="#e98b6f" opacity="0.46"/><rect x="1110" y="474" width="6" height="9" fill="#e98b6f" opacity="0.66"/><rect x="1141" y="474" width="6" height="9" fill="#e98b6f" opacity="0.69"/><rect x="1171" y="474" width="6" height="9" fill="#e98b6f" opacity="0.83"/><rect x="1202" y="474" width="6" height="9" fill="#e98b6f" opacity="0.42"/><rect x="1080" y="512" width="6" height="9" fill="#e98b6f" opacity="0.66"/><rect x="1110" y="512" width="6" height="9" fill="#e98b6f" opacity="0.69"/><rect x="1141" y="512" width="6" height="9" fill="#e98b6f" opacity="0.83"/><rect x="1171" y="512" width="6" height="9" fill="#e98b6f" opacity="0.42"/><rect x="1202" y="512" width="6" height="9" fill="#e98b6f" opacity="0.74"/><rect x="0" y="537.225520956621" width="1200" height="362.77447904337896" fill="url(#water)" opacity="0.25"/>
<rect width="1200" height="900" fill="url(#vig)"/>
<text x="48" y="846" font-family="Georgia, serif" font-size="46" fill="#fff" opacity="0.92" letter-spacing="-1">Villa Serena</text>
<text x="50" y="804" font-family="Georgia, serif" font-size="20" fill="#c9a24b" opacity="0.9" letter-spacing="3">KASSORA</text>
</svg>