<svg xmlns="http://www.w3.org/2000/svg" width="1200" height="900" viewBox="0 0 1200 900">
<defs>
<linearGradient id="sky" x1="0" y1="0" x2="0" y2="1">
<stop offset="0" stop-color="#f3b7a1"/><stop offset="0.55" stop-color="#e98b6f"/><stop offset="1" stop-color="#2b2140"/>
</linearGradient>
<radialGradient id="sun" cx="0.5" cy="0.5" r="0.5">
<stop offset="0" stop-color="#fff" stop-opacity="0.95"/><stop offset="0.4" stop-color="#e98b6f" stop-opacity="0.7"/><stop offset="1" stop-color="#e98b6f" stop-opacity="0"/>
</radialGradient>
<linearGradient id="water" x1="0" y1="0" x2="0" y2="1">
<stop offset="0" stop-color="#fff" stop-opacity="0.5"/><stop offset="1" stop-color="#fff" stop-opacity="0"/>
</linearGradient>
<linearGradient id="vig" x1="0" y1="0" x2="0" y2="1">
<stop offset="0" stop-color="#000" stop-opacity="0"/><stop offset="1" stop-color="#000" stop-opacity="0.45"/>
</linearGradient>
</defs>
<rect width="1200" height="900" fill="url(#sky)"/>
<circle cx="805" cy="259" r="108" fill="url(#sun)" opacity="0.9"/><rect x="-20" y="206" width="167" height="694" fill="#7a4a63" opacity="0.92"/><rect x="-12" y="218" width="6" height="9" fill="#e98b6f" opacity="0.74"/><rect x="16" y="218" width="6" height="9" fill="#e98b6f" opacity="0.58"/><rect x="44" y="218" width="6" height="9" fill="#e98b6f" opacity="0.70"/><rect x="99" y="218" width="6" height="9" fill="#e98b6f" opacity="0.68"/><rect x="127" y="218" width="6" height="9" fill="#e98b6f" opacity="0.61"/><rect x="-12" y="248" width="6" height="9" fill="#e98b6f" opacity="0.58"/><rect x="16" y="248" width="6" height="9" fill="#e98b6f" opacity="0.70"/><rect x="71" y="248" width="6" height="9" fill="#e98b6f" opacity="0.68"/><rect x="16" y="279" width="6" height="9" fill="#e98b6f" opacity="0.57"/><rect x="44" y="279" width="6" height="9" fill="#e98b6f" opacity="0.68"/><rect x="71" y="279" width="6" height="9" fill="#e98b6f" opacity="0.61"/><rect x="16" y="309" width="6" height="9" fill="#e98b6f" opacity="0.68"/><rect x="44" y="309" width="6" height="9" fill="#e98b6f" opacity="0.61"/><rect x="71" y="309" width="6" height="9" fill="#e98b6f" opacity="0.47"/><rect x="99" y="309" width="6" height="9" fill="#e98b6f" opacity="0.60"/><rect x="-12" y="340" width="6" height="9" fill="#e98b6f" opacity="0.68"/><rect x="44" y="340" width="6" height="9" fill="#e98b6f" opacity="0.47"/><rect x="99" y="340" width="6" height="9" fill="#e98b6f" opacity="0.45"/><rect x="16" y="370" width="6" height="9" fill="#e98b6f" opacity="0.47"/><rect x="44" y="401" width="6" height="9" fill="#e98b6f" opacity="0.45"/><rect x="71" y="401" width="6" height="9" fill="#e98b6f" opacity="0.35"/><rect x="99" y="401" width="6" height="9" fill="#e98b6f" opacity="0.75"/><rect x="127" y="401" width="6" height="9" fill="#e98b6f" opacity="0.79"/><rect x="-12" y="431" width="6" height="9" fill="#e98b6f" opacity="0.60"/><rect x="16" y="431" width="6" height="9" fill="#e98b6f" opacity="0.45"/><rect x="44" y="431" width="6" height="9" fill="#e98b6f" opacity="0.35"/><rect x="99" y="431" width="6" height="9" fill="#e98b6f" opacity="0.79"/><rect x="127" y="431" width="6" height="9" fill="#e98b6f" opacity="0.43"/><rect x="-12" y="462" width="6" height="9" fill="#e98b6f" opacity="0.45"/><rect x="44" y="462" width="6" height="9" fill="#e98b6f" opacity="0.75"/><rect x="71" y="462" width="6" height="9" fill="#e98b6f" opacity="0.79"/><rect x="127" y="462" width="6" height="9" fill="#e98b6f" opacity="0.61"/><rect x="16" y="492" width="6" height="9" fill="#e98b6f" opacity="0.75"/><rect x="44" y="492" width="6" height="9" fill="#e98b6f" opacity="0.79"/><rect x="127" y="492" width="6" height="9" fill="#e98b6f" opacity="0.47"/><rect x="-12" y="523" width="6" height="9" fill="#e98b6f" opacity="0.75"/><rect x="16" y="523" width="6" height="9" fill="#e98b6f" opacity="0.79"/><rect x="44" y="523" width="6" height="9" fill="#e98b6f" opacity="0.43"/><rect x="99" y="523" width="6" height="9" fill="#e98b6f" opacity="0.47"/><rect x="-12" y="553" width="6" height="9" fill="#e98b6f" opacity="0.79"/><rect x="44" y="553" width="6" height="9" fill="#e98b6f" opacity="0.61"/><rect x="127" y="553" width="6" height="9" fill="#e98b6f" opacity="0.48"/><rect x="141" y="293" width="134" height="607" fill="#2b2140" opacity="0.92"/><rect x="149" y="305" width="6" height="9" fill="#e98b6f" opacity="0.74"/><rect x="175" y="305" width="6" height="9" fill="#e98b6f" opacity="0.58"/><rect x="202" y="305" width="6" height="9" fill="#e98b6f" opacity="0.70"/><rect x="256" y="305" width="6" height="9" fill="#e98b6f" opacity="0.68"/><rect x="149" y="336" width="6" height="9" fill="#e98b6f" opacity="0.58"/><rect x="202" y="336" width="6" height="9" fill="#e98b6f" opacity="0.57"/><rect x="202" y="367" width="6" height="9" fill="#e98b6f" opacity="0.68"/><rect x="229" y="367" width="6" height="9" fill="#e98b6f" opacity="0.61"/><rect x="256" y="367" width="6" height="9" fill="#e98b6f" opacity="0.47"/><rect x="149" y="398" width="6" height="9" fill="#e98b6f" opacity="0.57"/><rect x="149" y="429" width="6" height="9" fill="#e98b6f" opacity="0.68"/><rect x="175" y="429" width="6" height="9" fill="#e98b6f" opacity="0.61"/><rect x="202" y="429" width="6" height="9" fill="#e98b6f" opacity="0.47"/><rect x="229" y="429" width="6" height="9" fill="#e98b6f" opacity="0.60"/><rect x="256" y="429" width="6" height="9" fill="#e98b6f" opacity="0.45"/><rect x="149" y="460" width="6" height="9" fill="#e98b6f" opacity="0.61"/><rect x="202" y="460" width="6" height="9" fill="#e98b6f" opacity="0.60"/><rect x="229" y="460" width="6" height="9" fill="#e98b6f" opacity="0.45"/><rect x="175" y="491" width="6" height="9" fill="#e98b6f" opacity="0.60"/><rect x="229" y="491" width="6" height="9" fill="#e98b6f" opacity="0.35"/><rect x="202" y="522" width="6" height="9" fill="#e98b6f" opacity="0.35"/><rect x="175" y="553" width="6" height="9" fill="#e98b6f" opacity="0.35"/><rect x="202" y="553" width="6" height="9" fill="#e98b6f" opacity="0.75"/><rect x="256" y="553" width="6" height="9" fill="#e98b6f" opacity="0.43"/><rect x="269" y="372" width="115" height="528" fill="#7a4a63" opacity="0.92"/><rect x="335" y="384" width="6" height="9" fill="#e98b6f" opacity="0.70"/><rect x="363" y="384" width="6" height="9" fill="#e98b6f" opacity="0.57"/><rect x="277" y="417" width="6" height="9" fill="#e98b6f" opacity="0.58"/><rect x="306" y="417" width="6" height="9" fill="#e98b6f" opacity="0.70"/><rect x="306" y="451" width="6" height="9" fill="#e98b6f" opacity="0.57"/><rect x="335" y="451" width="6" height="9" fill="#e98b6f" opacity="0.68"/><rect x="363" y="451" width="6" height="9" fill="#e98b6f" opacity="0.61"/><rect x="277" y="484" width="6" height="9" fill="#e98b6f" opacity="0.57"/><rect x="335" y="484" width="6" height="9" fill="#e98b6f" opacity="0.61"/><rect x="363" y="484" width="6" height="9" fill="#e98b6f" opacity="0.47"/><rect x="277" y="517" width="6" height="9" fill="#e98b6f" opacity="0.68"/><rect x="363" y="517" width="6" height="9" fill="#e98b6f" opacity="0.60"/><rect x="277" y="551" width="6" height="9" fill="#e98b6f" opacity="0.61"/><rect x="335" y="551" width="6" height="9" fill="#e98b6f" opacity="0.60"/><rect x="378" y="148" width="94" height="752" fill="#2b2140" opacity="0.92"/><rect x="449" y="190" width="6" height="9" fill="#e98b6f" opacity="0.57"/><rect x="386" y="221" width="6" height="9" fill="#e98b6f" opacity="0.70"/><rect x="418" y="221" width="6" height="9" fill="#e98b6f" opacity="0.57"/><rect x="449" y="221" width="6" height="9" fill="#e98b6f" opacity="0.68"/><rect x="386" y="251" width="6" height="9" fill="#e98b6f" opacity="0.57"/><rect x="418" y="251" width="6" height="9" fill="#e98b6f" opacity="0.68"/><rect x="449" y="251" width="6" height="9" fill="#e98b6f" opacity="0.61"/><rect x="449" y="281" width="6" height="9" fill="#e98b6f" opacity="0.47"/><rect x="386" y="311" width="6" height="9" fill="#e98b6f" opacity="0.61"/><rect x="418" y="311" width="6" height="9" fill="#e98b6f" opacity="0.47"/><rect x="449" y="311" width="6" height="9" fill="#e98b6f" opacity="0.60"/><rect x="386" y="342" width="6" height="9" fill="#e98b6f" opacity="0.47"/><rect x="418" y="342" width="6" height="9" fill="#e98b6f" opacity="0.60"/><rect x="386" y="372" width="6" height="9" fill="#e98b6f" opacity="0.60"/><rect x="386" y="402" width="6" height="9" fill="#e98b6f" opacity="0.45"/><rect x="418" y="432" width="6" height="9" fill="#e98b6f" opacity="0.75"/><rect x="386" y="463" width="6" height="9" fill="#e98b6f" opacity="0.75"/><rect x="418" y="463" width="6" height="9" fill="#e98b6f" opacity="0.79"/><rect x="418" y="493" width="6" height="9" fill="#e98b6f" opacity="0.43"/><rect x="449" y="493" width="6" height="9" fill="#e98b6f" opacity="0.61"/><rect x="449" y="523" width="6" height="9" fill="#e98b6f" opacity="0.47"/><rect x="386" y="554" width="6" height="9" fill="#e98b6f" opacity="0.61"/><rect x="418" y="554" width="6" height="9" fill="#e98b6f" opacity="0.47"/><rect x="449" y="554" width="6" height="9" fill="#e98b6f" opacity="0.45"/><rect x="466" y="265" width="108" height="635" fill="#7a4a63" opacity="0.92"/><rect x="474" y="277" width="6" height="9" fill="#e98b6f" opacity="0.74"/><rect x="501" y="277" width="6" height="9" fill="#e98b6f" opacity="0.58"/><rect x="555" y="277" width="6" height="9" fill="#e98b6f" opacity="0.57"/><rect x="501" y="308" width="6" height="9" fill="#e98b6f" opacity="0.70"/><rect x="528" y="308" width="6" height="9" fill="#e98b6f" opacity="0.57"/><rect x="555" y="308" width="6" height="9" fill="#e98b6f" opacity="0.68"/><rect x="528" y="338" width="6" height="9" fill="#e98b6f" opacity="0.68"/><rect x="555" y="338" width="6" height="9" fill="#e98b6f" opacity="0.61"/><rect x="474" y="369" width="6" height="9" fill="#e98b6f" opacity="0.57"/><rect x="501" y="369" width="6" height="9" fill="#e98b6f" opacity="0.68"/><rect x="528" y="369" width="6" height="9" fill="#e98b6f" opacity="0.61"/><rect x="555" y="369" width="6" height="9" fill="#e98b6f" opacity="0.47"/><rect x="474" y="400" width="6" height="9" fill="#e98b6f" opacity="0.68"/><rect x="501" y="400" width="6" height="9" fill="#e98b6f" opacity="0.61"/><rect x="528" y="400" width="6" height="9" fill="#e98b6f" opacity="0.47"/><rect x="555" y="400" width="6" height="9" fill="#e98b6f" opacity="0.60"/><rect x="474" y="430" width="6" height="9" fill="#e98b6f" opacity="0.61"/><rect x="501" y="430" width="6" height="9" fill="#e98b6f" opacity="0.47"/><rect x="528" y="430" width="6" height="9" fill="#e98b6f" opacity="0.60"/><rect x="474" y="461" width="6" height="9" fill="#e98b6f" opacity="0.47"/><rect x="528" y="461" width="6" height="9" fill="#e98b6f" opacity="0.45"/><rect x="555" y="461" width="6" height="9" fill="#e98b6f" opacity="0.35"/><rect x="501" y="492" width="6" height="9" fill="#e98b6f" opacity="0.45"/><rect x="528" y="522" width="6" height="9" fill="#e98b6f" opacity="0.75"/><rect x="555" y="522" width="6" height="9" fill="#e98b6f" opacity="0.79"/><rect x="528" y="553" width="6" height="9" fill="#e98b6f" opacity="0.79"/><rect x="568" y="378" width="112" height="522" fill="#2b2140" opacity="0.92"/><rect x="576" y="390" width="6" height="9" fill="#e98b6f" opacity="0.74"/><rect x="632" y="390" width="6" height="9" fill="#e98b6f" opacity="0.70"/><rect x="604" y="422" width="6" height="9" fill="#e98b6f" opacity="0.70"/><rect x="576" y="455" width="6" height="9" fill="#e98b6f" opacity="0.70"/><rect x="632" y="455" width="6" height="9" fill="#e98b6f" opacity="0.68"/><rect x="576" y="487" width="6" height="9" fill="#e98b6f" opacity="0.57"/><rect x="632" y="487" width="6" height="9" fill="#e98b6f" opacity="0.61"/><rect x="660" y="487" width="6" height="9" fill="#e98b6f" opacity="0.47"/><rect x="576" y="519" width="6" height="9" fill="#e98b6f" opacity="0.68"/><rect x="660" y="519" width="6" height="9" fill="#e98b6f" opacity="0.60"/><rect x="576" y="551" width="6" height="9" fill="#e98b6f" opacity="0.61"/><rect x="604" y="551" width="6" height="9" fill="#e98b6f" opacity="0.47"/><rect x="660" y="551" width="6" height="9" fill="#e98b6f" opacity="0.45"/><rect x="674" y="213" width="140" height="687" fill="#7a4a63" opacity="0.92"/><rect x="710" y="225" width="6" height="9" fill="#e98b6f" opacity="0.58"/><rect x="682" y="258" width="6" height="9" fill="#e98b6f" opacity="0.58"/><rect x="737" y="258" width="6" height="9" fill="#e98b6f" opacity="0.57"/><rect x="682" y="290" width="6" height="9" fill="#e98b6f" opacity="0.70"/><rect x="710" y="290" width="6" height="9" fill="#e98b6f" opacity="0.57"/><rect x="793" y="290" width="6" height="9" fill="#e98b6f" opacity="0.47"/><rect x="682" y="323" width="6" height="9" fill="#e98b6f" opacity="0.57"/><rect x="710" y="323" width="6" height="9" fill="#e98b6f" opacity="0.68"/><rect x="737" y="323" width="6" height="9" fill="#e98b6f" opacity="0.61"/><rect x="765" y="323" width="6" height="9" fill="#e98b6f" opacity="0.47"/><rect x="793" y="323" width="6" height="9" fill="#e98b6f" opacity="0.60"/><rect x="682" y="356" width="6" height="9" fill="#e98b6f" opacity="0.68"/><rect x="710" y="356" width="6" height="9" fill="#e98b6f" opacity="0.61"/><rect x="737" y="356" width="6" height="9" fill="#e98b6f" opacity="0.47"/><rect x="682" y="388" width="6" height="9" fill="#e98b6f" opacity="0.61"/><rect x="710" y="388" width="6" height="9" fill="#e98b6f" opacity="0.47"/><rect x="793" y="388" width="6" height="9" fill="#e98b6f" opacity="0.35"/><rect x="737" y="421" width="6" height="9" fill="#e98b6f" opacity="0.45"/><rect x="765" y="421" width="6" height="9" fill="#e98b6f" opacity="0.35"/><rect x="793" y="421" width="6" height="9" fill="#e98b6f" opacity="0.75"/><rect x="710" y="453" width="6" height="9" fill="#e98b6f" opacity="0.45"/><rect x="737" y="453" width="6" height="9" fill="#e98b6f" opacity="0.35"/><rect x="765" y="486" width="6" height="9" fill="#e98b6f" opacity="0.79"/><rect x="793" y="486" width="6" height="9" fill="#e98b6f" opacity="0.43"/><rect x="737" y="519" width="6" height="9" fill="#e98b6f" opacity="0.79"/><rect x="793" y="519" width="6" height="9" fill="#e98b6f" opacity="0.61"/><rect x="682" y="551" width="6" height="9" fill="#e98b6f" opacity="0.75"/><rect x="807" y="313" width="184" height="587" fill="#2b2140" opacity="0.92"/><rect x="815" y="325" width="6" height="9" fill="#e98b6f" opacity="0.74"/><rect x="842" y="357" width="6" height="9" fill="#e98b6f" opacity="0.70"/><rect x="868" y="357" width="6" height="9" fill="#e98b6f" opacity="0.57"/><rect x="894" y="357" width="6" height="9" fill="#e98b6f" opacity="0.68"/><rect x="973" y="357" width="6" height="9" fill="#e98b6f" opacity="0.60"/><rect x="842" y="390" width="6" height="9" fill="#e98b6f" opacity="0.57"/><rect x="920" y="390" width="6" height="9" fill="#e98b6f" opacity="0.47"/><rect x="947" y="390" width="6" height="9" fill="#e98b6f" opacity="0.60"/><rect x="973" y="390" width="6" height="9" fill="#e98b6f" opacity="0.45"/><rect x="815" y="422" width="6" height="9" fill="#e98b6f" opacity="0.57"/><rect x="842" y="422" width="6" height="9" fill="#e98b6f" opacity="0.68"/><rect x="894" y="422" width="6" height="9" fill="#e98b6f" opacity="0.47"/><rect x="947" y="422" width="6" height="9" fill="#e98b6f" opacity="0.45"/><rect x="920" y="454" width="6" height="9" fill="#e98b6f" opacity="0.45"/><rect x="947" y="454" width="6" height="9" fill="#e98b6f" opacity="0.35"/><rect x="815" y="487" width="6" height="9" fill="#e98b6f" opacity="0.61"/><rect x="842" y="487" width="6" height="9" fill="#e98b6f" opacity="0.47"/><rect x="947" y="487" width="6" height="9" fill="#e98b6f" opacity="0.75"/><rect x="815" y="519" width="6" height="9" fill="#e98b6f" opacity="0.47"/><rect x="868" y="519" width="6" height="9" fill="#e98b6f" opacity="0.45"/><rect x="894" y="519" width="6" height="9" fill="#e98b6f" opacity="0.35"/><rect x="920" y="519" width="6" height="9" fill="#e98b6f" opacity="0.75"/><rect x="947" y="519" width="6" height="9" fill="#e98b6f" opacity="0.79"/><rect x="815" y="551" width="6" height="9" fill="#e98b6f" opacity="0.60"/><rect x="842" y="551" width="6" height="9" fill="#e98b6f" opacity="0.45"/><rect x="868" y="551" width="6" height="9" fill="#e98b6f" opacity="0.35"/><rect x="894" y="551" width="6" height="9" fill="#e98b6f" opacity="0.75"/><rect x="947" y="551" width="6" height="9" fill="#e98b6f" opacity="0.43"/><rect x="973" y="551" width="6" height="9" fill="#e98b6f" opacity="0.61"/><rect x="985" y="438" width="118" height="462" fill="#7a4a63" opacity="0.92"/><rect x="993" y="483" width="6" height="9" fill="#e98b6f" opacity="0.58"/><rect x="1023" y="483" width="6" height="9" fill="#e98b6f" opacity="0.70"/><rect x="1053" y="483" width="6" height="9" fill="#e98b6f" opacity="0.57"/><rect x="1082" y="483" width="6" height="9" fill="#e98b6f" opacity="0.68"/><rect x="993" y="517" width="6" height="9" fill="#e98b6f" opacity="0.70"/><rect x="1023" y="517" width="6" height="9" fill="#e98b6f" opacity="0.57"/><rect x="1053" y="517" width="6" height="9" fill="#e98b6f" opacity="0.68"/><rect x="1082" y="517" width="6" height="9" fill="#e98b6f" opacity="0.61"/><rect x="993" y="550" width="6" height="9" fill="#e98b6f" opacity="0.57"/><rect x="0" y="571.8046476770977" width="1200" height="328.1953523229023" fill="url(#water)" opacity="0.25"/>
<rect width="1200" height="900" fill="url(#vig)"/>
<text x="48" y="846" font-family="Georgia, serif" font-size="46" fill="#fff" opacity="0.92" letter-spacing="-1">Capri Cliff Villa</text>
<text x="50" y="804" font-family="Georgia, serif" font-size="20" fill="#c9a24b" opacity="0.9" letter-spacing="3">KASSORA</text>
</svg>