<svg xmlns="http://www.w3.org/2000/svg" width="1200" height="900" viewBox="0 0 1200 900">
<defs>
<linearGradient id="sky" x1="0" y1="0" x2="0" y2="1">
<stop offset="0" stop-color="#f3b7a1"/><stop offset="0.55" stop-color="#e98b6f"/><stop offset="1" stop-color="#2b2140"/>
</linearGradient>
<radialGradient id="sun" cx="0.5" cy="0.5" r="0.5">
<stop offset="0" stop-color="#fff" stop-opacity="0.95"/><stop offset="0.4" stop-color="#e98b6f" stop-opacity="0.7"/><stop offset="1" stop-color="#e98b6f" stop-opacity="0"/>
</radialGradient>
<linearGradient id="water" x1="0" y1="0" x2="0" y2="1">
<stop offset="0" stop-color="#fff" stop-opacity="0.5"/><stop offset="1" stop-color="#fff" stop-opacity="0"/>
</linearGradient>
<linearGradient id="vig" x1="0" y1="0" x2="0" y2="1">
<stop offset="0" stop-color="#000" stop-opacity="0"/><stop offset="1" stop-color="#000" stop-opacity="0.45"/>
</linearGradient>
</defs>
<rect width="1200" height="900" fill="url(#sky)"/>
<circle cx="599" cy="226" r="108" fill="url(#sun)" opacity="0.9"/><rect x="-20" y="244" width="114" height="656" fill="#7a4a63" opacity="0.92"/><rect x="-12" y="256" width="6" height="9" fill="#e98b6f" opacity="0.60"/><rect x="74" y="256" width="6" height="9" fill="#e98b6f" opacity="0.75"/><rect x="-12" y="287" width="6" height="9" fill="#e98b6f" opacity="0.45"/><rect x="17" y="287" width="6" height="9" fill="#e98b6f" opacity="0.35"/><rect x="45" y="287" width="6" height="9" fill="#e98b6f" opacity="0.75"/><rect x="-12" y="318" width="6" height="9" fill="#e98b6f" opacity="0.35"/><rect x="17" y="318" width="6" height="9" fill="#e98b6f" opacity="0.75"/><rect x="45" y="318" width="6" height="9" fill="#e98b6f" opacity="0.79"/><rect x="-12" y="349" width="6" height="9" fill="#e98b6f" opacity="0.75"/><rect x="45" y="349" width="6" height="9" fill="#e98b6f" opacity="0.43"/><rect x="74" y="349" width="6" height="9" fill="#e98b6f" opacity="0.61"/><rect x="17" y="380" width="6" height="9" fill="#e98b6f" opacity="0.43"/><rect x="-12" y="442" width="6" height="9" fill="#e98b6f" opacity="0.61"/><rect x="17" y="442" width="6" height="9" fill="#e98b6f" opacity="0.47"/><rect x="74" y="442" width="6" height="9" fill="#e98b6f" opacity="0.48"/><rect x="17" y="472" width="6" height="9" fill="#e98b6f" opacity="0.45"/><rect x="45" y="472" width="6" height="9" fill="#e98b6f" opacity="0.48"/><rect x="74" y="472" width="6" height="9" fill="#e98b6f" opacity="0.81"/><rect x="88" y="323" width="137" height="577" fill="#2b2140" opacity="0.92"/><rect x="179" y="335" width="6" height="9" fill="#e98b6f" opacity="0.75"/><rect x="151" y="368" width="6" height="9" fill="#e98b6f" opacity="0.75"/><rect x="124" y="401" width="6" height="9" fill="#e98b6f" opacity="0.75"/><rect x="179" y="401" width="6" height="9" fill="#e98b6f" opacity="0.43"/><rect x="96" y="435" width="6" height="9" fill="#e98b6f" opacity="0.75"/><rect x="124" y="435" width="6" height="9" fill="#e98b6f" opacity="0.79"/><rect x="151" y="435" width="6" height="9" fill="#e98b6f" opacity="0.43"/><rect x="179" y="435" width="6" height="9" fill="#e98b6f" opacity="0.61"/><rect x="206" y="435" width="6" height="9" fill="#e98b6f" opacity="0.47"/><rect x="151" y="468" width="6" height="9" fill="#e98b6f" opacity="0.61"/><rect x="179" y="468" width="6" height="9" fill="#e98b6f" opacity="0.47"/><rect x="124" y="501" width="6" height="9" fill="#e98b6f" opacity="0.61"/><rect x="206" y="501" width="6" height="9" fill="#e98b6f" opacity="0.48"/><rect x="220" y="99" width="116" height="801" fill="#7a4a63" opacity="0.92"/><rect x="257" y="111" width="6" height="9" fill="#e98b6f" opacity="0.45"/><rect x="314" y="111" width="6" height="9" fill="#e98b6f" opacity="0.75"/><rect x="228" y="141" width="6" height="9" fill="#e98b6f" opacity="0.45"/><rect x="257" y="141" width="6" height="9" fill="#e98b6f" opacity="0.35"/><rect x="285" y="141" width="6" height="9" fill="#e98b6f" opacity="0.75"/><rect x="285" y="171" width="6" height="9" fill="#e98b6f" opacity="0.79"/><rect x="314" y="171" width="6" height="9" fill="#e98b6f" opacity="0.43"/><rect x="314" y="202" width="6" height="9" fill="#e98b6f" opacity="0.61"/><rect x="228" y="232" width="6" height="9" fill="#e98b6f" opacity="0.79"/><rect x="314" y="232" width="6" height="9" fill="#e98b6f" opacity="0.47"/><rect x="257" y="262" width="6" height="9" fill="#e98b6f" opacity="0.61"/><rect x="285" y="262" width="6" height="9" fill="#e98b6f" opacity="0.47"/><rect x="314" y="292" width="6" height="9" fill="#e98b6f" opacity="0.48"/><rect x="228" y="323" width="6" height="9" fill="#e98b6f" opacity="0.47"/><rect x="314" y="323" width="6" height="9" fill="#e98b6f" opacity="0.81"/><rect x="228" y="353" width="6" height="9" fill="#e98b6f" opacity="0.45"/><rect x="257" y="353" width="6" height="9" fill="#e98b6f" opacity="0.48"/><rect x="285" y="353" width="6" height="9" fill="#e98b6f" opacity="0.81"/><rect x="228" y="383" width="6" height="9" fill="#e98b6f" opacity="0.48"/><rect x="285" y="383" width="6" height="9" fill="#e98b6f" opacity="0.60"/><rect x="257" y="444" width="6" height="9" fill="#e98b6f" opacity="0.80"/><rect x="285" y="444" width="6" height="9" fill="#e98b6f" opacity="0.51"/><rect x="314" y="444" width="6" height="9" fill="#e98b6f" opacity="0.84"/><rect x="228" y="474" width="6" height="9" fill="#e98b6f" opacity="0.80"/><rect x="285" y="474" width="6" height="9" fill="#e98b6f" opacity="0.84"/><rect x="314" y="474" width="6" height="9" fill="#e98b6f" opacity="0.81"/><rect x="228" y="504" width="6" height="9" fill="#e98b6f" opacity="0.51"/><rect x="257" y="504" width="6" height="9" fill="#e98b6f" opacity="0.84"/><rect x="285" y="504" width="6" height="9" fill="#e98b6f" opacity="0.81"/><rect x="329" y="215" width="96" height="685" fill="#2b2140" opacity="0.92"/><rect x="369" y="258" width="6" height="9" fill="#e98b6f" opacity="0.35"/><rect x="401" y="258" width="6" height="9" fill="#e98b6f" opacity="0.75"/><rect x="337" y="289" width="6" height="9" fill="#e98b6f" opacity="0.35"/><rect x="401" y="289" width="6" height="9" fill="#e98b6f" opacity="0.79"/><rect x="337" y="320" width="6" height="9" fill="#e98b6f" opacity="0.75"/><rect x="369" y="320" width="6" height="9" fill="#e98b6f" opacity="0.79"/><rect x="401" y="320" width="6" height="9" fill="#e98b6f" opacity="0.43"/><rect x="337" y="350" width="6" height="9" fill="#e98b6f" opacity="0.79"/><rect x="369" y="381" width="6" height="9" fill="#e98b6f" opacity="0.61"/><rect x="401" y="381" width="6" height="9" fill="#e98b6f" opacity="0.47"/><rect x="337" y="412" width="6" height="9" fill="#e98b6f" opacity="0.61"/><rect x="401" y="412" width="6" height="9" fill="#e98b6f" opacity="0.45"/><rect x="369" y="442" width="6" height="9" fill="#e98b6f" opacity="0.45"/><rect x="401" y="442" width="6" height="9" fill="#e98b6f" opacity="0.48"/><rect x="369" y="473" width="6" height="9" fill="#e98b6f" opacity="0.48"/><rect x="337" y="504" width="6" height="9" fill="#e98b6f" opacity="0.48"/><rect x="369" y="504" width="6" height="9" fill="#e98b6f" opacity="0.81"/><rect x="401" y="504" width="6" height="9" fill="#e98b6f" opacity="0.60"/><rect x="419" y="329" width="145" height="571" fill="#7a4a63" opacity="0.92"/><rect x="427" y="341" width="6" height="9" fill="#e98b6f" opacity="0.60"/><rect x="543" y="341" width="6" height="9" fill="#e98b6f" opacity="0.79"/><rect x="456" y="373" width="6" height="9" fill="#e98b6f" opacity="0.35"/><rect x="427" y="405" width="6" height="9" fill="#e98b6f" opacity="0.35"/><rect x="514" y="405" width="6" height="9" fill="#e98b6f" opacity="0.43"/><rect x="543" y="405" width="6" height="9" fill="#e98b6f" opacity="0.61"/><rect x="485" y="438" width="6" height="9" fill="#e98b6f" opacity="0.43"/><rect x="514" y="438" width="6" height="9" fill="#e98b6f" opacity="0.61"/><rect x="543" y="438" width="6" height="9" fill="#e98b6f" opacity="0.47"/><rect x="427" y="470" width="6" height="9" fill="#e98b6f" opacity="0.79"/><rect x="456" y="470" width="6" height="9" fill="#e98b6f" opacity="0.43"/><rect x="485" y="470" width="6" height="9" fill="#e98b6f" opacity="0.61"/><rect x="514" y="470" width="6" height="9" fill="#e98b6f" opacity="0.47"/><rect x="543" y="470" width="6" height="9" fill="#e98b6f" opacity="0.45"/><rect x="485" y="502" width="6" height="9" fill="#e98b6f" opacity="0.47"/><rect x="514" y="502" width="6" height="9" fill="#e98b6f" opacity="0.45"/><rect x="558" y="164" width="146" height="736" fill="#2b2140" opacity="0.92"/><rect x="624" y="176" width="6" height="9" fill="#e98b6f" opacity="0.35"/><rect x="683" y="176" width="6" height="9" fill="#e98b6f" opacity="0.79"/><rect x="566" y="208" width="6" height="9" fill="#e98b6f" opacity="0.45"/><rect x="624" y="208" width="6" height="9" fill="#e98b6f" opacity="0.75"/><rect x="654" y="208" width="6" height="9" fill="#e98b6f" opacity="0.79"/><rect x="595" y="241" width="6" height="9" fill="#e98b6f" opacity="0.75"/><rect x="624" y="241" width="6" height="9" fill="#e98b6f" opacity="0.79"/><rect x="654" y="241" width="6" height="9" fill="#e98b6f" opacity="0.43"/><rect x="566" y="274" width="6" height="9" fill="#e98b6f" opacity="0.75"/><rect x="654" y="274" width="6" height="9" fill="#e98b6f" opacity="0.61"/><rect x="566" y="306" width="6" height="9" fill="#e98b6f" opacity="0.79"/><rect x="624" y="306" width="6" height="9" fill="#e98b6f" opacity="0.61"/><rect x="654" y="306" width="6" height="9" fill="#e98b6f" opacity="0.47"/><rect x="683" y="306" width="6" height="9" fill="#e98b6f" opacity="0.45"/><rect x="624" y="339" width="6" height="9" fill="#e98b6f" opacity="0.47"/><rect x="654" y="339" width="6" height="9" fill="#e98b6f" opacity="0.45"/><rect x="595" y="371" width="6" height="9" fill="#e98b6f" opacity="0.47"/><rect x="624" y="371" width="6" height="9" fill="#e98b6f" opacity="0.45"/><rect x="654" y="371" width="6" height="9" fill="#e98b6f" opacity="0.48"/><rect x="683" y="371" width="6" height="9" fill="#e98b6f" opacity="0.81"/><rect x="595" y="404" width="6" height="9" fill="#e98b6f" opacity="0.45"/><rect x="595" y="437" width="6" height="9" fill="#e98b6f" opacity="0.48"/><rect x="624" y="437" width="6" height="9" fill="#e98b6f" opacity="0.81"/><rect x="654" y="437" width="6" height="9" fill="#e98b6f" opacity="0.60"/><rect x="595" y="469" width="6" height="9" fill="#e98b6f" opacity="0.81"/><rect x="683" y="469" width="6" height="9" fill="#e98b6f" opacity="0.51"/><rect x="595" y="502" width="6" height="9" fill="#e98b6f" opacity="0.60"/><rect x="624" y="502" width="6" height="9" fill="#e98b6f" opacity="0.80"/><rect x="654" y="502" width="6" height="9" fill="#e98b6f" opacity="0.51"/><rect x="698" y="264" width="76" height="636" fill="#7a4a63" opacity="0.92"/><rect x="744" y="276" width="6" height="9" fill="#e98b6f" opacity="0.45"/><rect x="706" y="308" width="6" height="9" fill="#e98b6f" opacity="0.45"/><rect x="706" y="340" width="6" height="9" fill="#e98b6f" opacity="0.35"/><rect x="744" y="340" width="6" height="9" fill="#e98b6f" opacity="0.75"/><rect x="744" y="373" width="6" height="9" fill="#e98b6f" opacity="0.79"/><rect x="706" y="405" width="6" height="9" fill="#e98b6f" opacity="0.79"/><rect x="744" y="405" width="6" height="9" fill="#e98b6f" opacity="0.43"/><rect x="744" y="437" width="6" height="9" fill="#e98b6f" opacity="0.61"/><rect x="706" y="470" width="6" height="9" fill="#e98b6f" opacity="0.61"/><rect x="769" y="388" width="122" height="512" fill="#2b2140" opacity="0.92"/><rect x="807" y="400" width="6" height="9" fill="#e98b6f" opacity="0.45"/><rect x="837" y="400" width="6" height="9" fill="#e98b6f" opacity="0.35"/><rect x="837" y="434" width="6" height="9" fill="#e98b6f" opacity="0.75"/><rect x="777" y="467" width="6" height="9" fill="#e98b6f" opacity="0.35"/><rect x="807" y="467" width="6" height="9" fill="#e98b6f" opacity="0.75"/><rect x="837" y="467" width="6" height="9" fill="#e98b6f" opacity="0.79"/><rect x="868" y="467" width="6" height="9" fill="#e98b6f" opacity="0.43"/><rect x="884" y="106" width="126" height="794" fill="#7a4a63" opacity="0.92"/><rect x="955" y="118" width="6" height="9" fill="#e98b6f" opacity="0.35"/><rect x="987" y="118" width="6" height="9" fill="#e98b6f" opacity="0.75"/><rect x="892" y="150" width="6" height="9" fill="#e98b6f" opacity="0.45"/><rect x="924" y="150" width="6" height="9" fill="#e98b6f" opacity="0.35"/><rect x="987" y="150" width="6" height="9" fill="#e98b6f" opacity="0.79"/><rect x="892" y="182" width="6" height="9" fill="#e98b6f" opacity="0.35"/><rect x="924" y="182" width="6" height="9" fill="#e98b6f" opacity="0.75"/><rect x="955" y="182" width="6" height="9" fill="#e98b6f" opacity="0.79"/><rect x="987" y="182" width="6" height="9" fill="#e98b6f" opacity="0.43"/><rect x="892" y="214" width="6" height="9" fill="#e98b6f" opacity="0.75"/><rect x="924" y="246" width="6" height="9" fill="#e98b6f" opacity="0.43"/><rect x="987" y="246" width="6" height="9" fill="#e98b6f" opacity="0.47"/><rect x="892" y="278" width="6" height="9" fill="#e98b6f" opacity="0.43"/><rect x="924" y="278" width="6" height="9" fill="#e98b6f" opacity="0.61"/><rect x="955" y="278" width="6" height="9" fill="#e98b6f" opacity="0.47"/><rect x="892" y="310" width="6" height="9" fill="#e98b6f" opacity="0.61"/><rect x="987" y="310" width="6" height="9" fill="#e98b6f" opacity="0.48"/><rect x="924" y="342" width="6" height="9" fill="#e98b6f" opacity="0.45"/><rect x="987" y="342" width="6" height="9" fill="#e98b6f" opacity="0.81"/><rect x="892" y="374" width="6" height="9" fill="#e98b6f" opacity="0.45"/><rect x="955" y="374" width="6" height="9" fill="#e98b6f" opacity="0.81"/><rect x="987" y="374" width="6" height="9" fill="#e98b6f" opacity="0.60"/><rect x="892" y="406" width="6" height="9" fill="#e98b6f" opacity="0.48"/><rect x="892" y="438" width="6" height="9" fill="#e98b6f" opacity="0.81"/><rect x="924" y="438" width="6" height="9" fill="#e98b6f" opacity="0.60"/><rect x="955" y="438" width="6" height="9" fill="#e98b6f" opacity="0.80"/><rect x="892" y="470" width="6" height="9" fill="#e98b6f" opacity="0.60"/><rect x="924" y="502" width="6" height="9" fill="#e98b6f" opacity="0.51"/><rect x="955" y="502" width="6" height="9" fill="#e98b6f" opacity="0.84"/><rect x="987" y="502" width="6" height="9" fill="#e98b6f" opacity="0.81"/><rect x="1005" y="92" width="134" height="808" fill="#2b2140" opacity="0.92"/><rect x="1013" y="104" width="6" height="9" fill="#e98b6f" opacity="0.60"/><rect x="1039" y="104" width="6" height="9" fill="#e98b6f" opacity="0.45"/><rect x="1066" y="104" width="6" height="9" fill="#e98b6f" opacity="0.35"/><rect x="1120" y="104" width="6" height="9" fill="#e98b6f" opacity="0.79"/><rect x="1013" y="135" width="6" height="9" fill="#e98b6f" opacity="0.45"/><rect x="1039" y="166" width="6" height="9" fill="#e98b6f" opacity="0.75"/><rect x="1066" y="166" width="6" height="9" fill="#e98b6f" opacity="0.79"/><rect x="1093" y="166" width="6" height="9" fill="#e98b6f" opacity="0.43"/><rect x="1120" y="166" width="6" height="9" fill="#e98b6f" opacity="0.61"/><rect x="1013" y="196" width="6" height="9" fill="#e98b6f" opacity="0.75"/><rect x="1013" y="227" width="6" height="9" fill="#e98b6f" opacity="0.79"/><rect x="1039" y="227" width="6" height="9" fill="#e98b6f" opacity="0.43"/><rect x="1066" y="227" width="6" height="9" fill="#e98b6f" opacity="0.61"/><rect x="1013" y="258" width="6" height="9" fill="#e98b6f" opacity="0.43"/><rect x="1039" y="258" width="6" height="9" fill="#e98b6f" opacity="0.61"/><rect x="1066" y="258" width="6" height="9" fill="#e98b6f" opacity="0.47"/><rect x="1093" y="258" width="6" height="9" fill="#e98b6f" opacity="0.45"/><rect x="1120" y="258" width="6" height="9" fill="#e98b6f" opacity="0.48"/><rect x="1013" y="289" width="6" height="9" fill="#e98b6f" opacity="0.61"/><rect x="1120" y="289" width="6" height="9" fill="#e98b6f" opacity="0.81"/><rect x="1013" y="319" width="6" height="9" fill="#e98b6f" opacity="0.47"/><rect x="1039" y="319" width="6" height="9" fill="#e98b6f" opacity="0.45"/><rect x="1120" y="319" width="6" height="9" fill="#e98b6f" opacity="0.60"/><rect x="1039" y="350" width="6" height="9" fill="#e98b6f" opacity="0.48"/><rect x="1066" y="350" width="6" height="9" fill="#e98b6f" opacity="0.81"/><rect x="1093" y="350" width="6" height="9" fill="#e98b6f" opacity="0.60"/><rect x="1120" y="350" width="6" height="9" fill="#e98b6f" opacity="0.80"/><rect x="1039" y="381" width="6" height="9" fill="#e98b6f" opacity="0.81"/><rect x="1066" y="381" width="6" height="9" fill="#e98b6f" opacity="0.60"/><rect x="1093" y="381" width="6" height="9" fill="#e98b6f" opacity="0.80"/><rect x="1120" y="381" width="6" height="9" fill="#e98b6f" opacity="0.51"/><rect x="1013" y="411" width="6" height="9" fill="#e98b6f" opacity="0.81"/><rect x="1039" y="411" width="6" height="9" fill="#e98b6f" opacity="0.60"/><rect x="1093" y="411" width="6" height="9" fill="#e98b6f" opacity="0.51"/><rect x="1039" y="442" width="6" height="9" fill="#e98b6f" opacity="0.80"/><rect x="1066" y="442" width="6" height="9" fill="#e98b6f" opacity="0.51"/><rect x="1120" y="442" width="6" height="9" fill="#e98b6f" opacity="0.81"/><rect x="1013" y="473" width="6" height="9" fill="#e98b6f" opacity="0.80"/><rect x="1066" y="473" width="6" height="9" fill="#e98b6f" opacity="0.84"/><rect x="1039" y="504" width="6" height="9" fill="#e98b6f" opacity="0.84"/><rect x="1132" y="278" width="113" height="622" fill="#7a4a63" opacity="0.92"/><rect x="1140" y="290" width="6" height="9" fill="#e98b6f" opacity="0.60"/><rect x="1169" y="290" width="6" height="9" fill="#e98b6f" opacity="0.45"/><rect x="1226" y="290" width="6" height="9" fill="#e98b6f" opacity="0.75"/><rect x="1169" y="320" width="6" height="9" fill="#e98b6f" opacity="0.35"/><rect x="1197" y="320" width="6" height="9" fill="#e98b6f" opacity="0.75"/><rect x="1140" y="351" width="6" height="9" fill="#e98b6f" opacity="0.35"/><rect x="1197" y="351" width="6" height="9" fill="#e98b6f" opacity="0.79"/><rect x="1169" y="381" width="6" height="9" fill="#e98b6f" opacity="0.79"/><rect x="1169" y="412" width="6" height="9" fill="#e98b6f" opacity="0.43"/><rect x="1226" y="412" width="6" height="9" fill="#e98b6f" opacity="0.47"/><rect x="1140" y="443" width="6" height="9" fill="#e98b6f" opacity="0.43"/><rect x="1169" y="443" width="6" height="9" fill="#e98b6f" opacity="0.61"/><rect x="1197" y="443" width="6" height="9" fill="#e98b6f" opacity="0.47"/><rect x="1226" y="443" width="6" height="9" fill="#e98b6f" opacity="0.45"/><rect x="1226" y="473" width="6" height="9" fill="#e98b6f" opacity="0.48"/><rect x="1169" y="504" width="6" height="9" fill="#e98b6f" opacity="0.45"/><rect x="0" y="522.4181583501268" width="1200" height="377.58184164987324" fill="url(#water)" opacity="0.25"/>
<rect width="1200" height="900" fill="url(#vig)"/>
<text x="48" y="846" font-family="Georgia, serif" font-size="46" fill="#fff" opacity="0.92" letter-spacing="-1">Capri Cliff Villa</text>
<text x="50" y="804" font-family="Georgia, serif" font-size="20" fill="#c9a24b" opacity="0.9" letter-spacing="3">KASSORA</text>
</svg>