<svg xmlns="http://www.w3.org/2000/svg" width="1200" height="900" viewBox="0 0 1200 900">
<defs>
<linearGradient id="sky" x1="0" y1="0" x2="0" y2="1">
<stop offset="0" stop-color="#f3b7a1"/><stop offset="0.55" stop-color="#e98b6f"/><stop offset="1" stop-color="#2b2140"/>
</linearGradient>
<radialGradient id="sun" cx="0.5" cy="0.5" r="0.5">
<stop offset="0" stop-color="#fff" stop-opacity="0.95"/><stop offset="0.4" stop-color="#e98b6f" stop-opacity="0.7"/><stop offset="1" stop-color="#e98b6f" stop-opacity="0"/>
</radialGradient>
<linearGradient id="water" x1="0" y1="0" x2="0" y2="1">
<stop offset="0" stop-color="#fff" stop-opacity="0.5"/><stop offset="1" stop-color="#fff" stop-opacity="0"/>
</linearGradient>
<linearGradient id="vig" x1="0" y1="0" x2="0" y2="1">
<stop offset="0" stop-color="#000" stop-opacity="0"/><stop offset="1" stop-color="#000" stop-opacity="0.45"/>
</linearGradient>
</defs>
<rect width="1200" height="900" fill="url(#sky)"/>
<circle cx="856" cy="262" r="108" fill="url(#sun)" opacity="0.9"/><rect x="-20" y="192" width="173" height="708" fill="#7a4a63" opacity="0.92"/><rect x="-12" y="204" width="6" height="9" fill="#e98b6f" opacity="0.78"/><rect x="17" y="204" width="6" height="9" fill="#e98b6f" opacity="0.59"/><rect x="46" y="204" width="6" height="9" fill="#e98b6f" opacity="0.75"/><rect x="103" y="204" width="6" height="9" fill="#e98b6f" opacity="0.71"/><rect x="17" y="236" width="6" height="9" fill="#e98b6f" opacity="0.75"/><rect x="46" y="236" width="6" height="9" fill="#e98b6f" opacity="0.55"/><rect x="103" y="236" width="6" height="9" fill="#e98b6f" opacity="0.37"/><rect x="-12" y="269" width="6" height="9" fill="#e98b6f" opacity="0.75"/><rect x="103" y="269" width="6" height="9" fill="#e98b6f" opacity="0.62"/><rect x="132" y="269" width="6" height="9" fill="#e98b6f" opacity="0.74"/><rect x="-12" y="301" width="6" height="9" fill="#e98b6f" opacity="0.55"/><rect x="75" y="301" width="6" height="9" fill="#e98b6f" opacity="0.62"/><rect x="103" y="301" width="6" height="9" fill="#e98b6f" opacity="0.74"/><rect x="132" y="301" width="6" height="9" fill="#e98b6f" opacity="0.58"/><rect x="-12" y="333" width="6" height="9" fill="#e98b6f" opacity="0.71"/><rect x="17" y="333" width="6" height="9" fill="#e98b6f" opacity="0.37"/><rect x="75" y="333" width="6" height="9" fill="#e98b6f" opacity="0.74"/><rect x="103" y="333" width="6" height="9" fill="#e98b6f" opacity="0.58"/><rect x="17" y="365" width="6" height="9" fill="#e98b6f" opacity="0.62"/><rect x="75" y="365" width="6" height="9" fill="#e98b6f" opacity="0.58"/><rect x="132" y="365" width="6" height="9" fill="#e98b6f" opacity="0.57"/><rect x="-12" y="430" width="6" height="9" fill="#e98b6f" opacity="0.74"/><rect x="17" y="430" width="6" height="9" fill="#e98b6f" opacity="0.58"/><rect x="46" y="430" width="6" height="9" fill="#e98b6f" opacity="0.70"/><rect x="103" y="430" width="6" height="9" fill="#e98b6f" opacity="0.68"/><rect x="132" y="430" width="6" height="9" fill="#e98b6f" opacity="0.61"/><rect x="17" y="462" width="6" height="9" fill="#e98b6f" opacity="0.70"/><rect x="46" y="462" width="6" height="9" fill="#e98b6f" opacity="0.57"/><rect x="75" y="462" width="6" height="9" fill="#e98b6f" opacity="0.68"/><rect x="132" y="462" width="6" height="9" fill="#e98b6f" opacity="0.47"/><rect x="-12" y="495" width="6" height="9" fill="#e98b6f" opacity="0.70"/><rect x="46" y="495" width="6" height="9" fill="#e98b6f" opacity="0.68"/><rect x="46" y="527" width="6" height="9" fill="#e98b6f" opacity="0.61"/><rect x="75" y="527" width="6" height="9" fill="#e98b6f" opacity="0.47"/><rect x="103" y="527" width="6" height="9" fill="#e98b6f" opacity="0.60"/><rect x="132" y="527" width="6" height="9" fill="#e98b6f" opacity="0.45"/><rect x="17" y="559" width="6" height="9" fill="#e98b6f" opacity="0.61"/><rect x="75" y="559" width="6" height="9" fill="#e98b6f" opacity="0.60"/><rect x="147" y="214" width="130" height="686" fill="#2b2140" opacity="0.92"/><rect x="207" y="226" width="6" height="9" fill="#e98b6f" opacity="0.75"/><rect x="233" y="226" width="6" height="9" fill="#e98b6f" opacity="0.55"/><rect x="259" y="226" width="6" height="9" fill="#e98b6f" opacity="0.71"/><rect x="181" y="256" width="6" height="9" fill="#e98b6f" opacity="0.75"/><rect x="233" y="256" width="6" height="9" fill="#e98b6f" opacity="0.71"/><rect x="207" y="287" width="6" height="9" fill="#e98b6f" opacity="0.71"/><rect x="155" y="317" width="6" height="9" fill="#e98b6f" opacity="0.55"/><rect x="181" y="317" width="6" height="9" fill="#e98b6f" opacity="0.71"/><rect x="207" y="317" width="6" height="9" fill="#e98b6f" opacity="0.37"/><rect x="233" y="317" width="6" height="9" fill="#e98b6f" opacity="0.62"/><rect x="207" y="348" width="6" height="9" fill="#e98b6f" opacity="0.62"/><rect x="233" y="348" width="6" height="9" fill="#e98b6f" opacity="0.74"/><rect x="259" y="348" width="6" height="9" fill="#e98b6f" opacity="0.58"/><rect x="155" y="378" width="6" height="9" fill="#e98b6f" opacity="0.37"/><rect x="181" y="378" width="6" height="9" fill="#e98b6f" opacity="0.62"/><rect x="207" y="378" width="6" height="9" fill="#e98b6f" opacity="0.74"/><rect x="233" y="378" width="6" height="9" fill="#e98b6f" opacity="0.58"/><rect x="155" y="409" width="6" height="9" fill="#e98b6f" opacity="0.62"/><rect x="155" y="439" width="6" height="9" fill="#e98b6f" opacity="0.74"/><rect x="233" y="439" width="6" height="9" fill="#e98b6f" opacity="0.57"/><rect x="259" y="439" width="6" height="9" fill="#e98b6f" opacity="0.68"/><rect x="181" y="500" width="6" height="9" fill="#e98b6f" opacity="0.57"/><rect x="155" y="531" width="6" height="9" fill="#e98b6f" opacity="0.57"/><rect x="155" y="561" width="6" height="9" fill="#e98b6f" opacity="0.68"/><rect x="181" y="561" width="6" height="9" fill="#e98b6f" opacity="0.61"/><rect x="207" y="561" width="6" height="9" fill="#e98b6f" opacity="0.47"/><rect x="233" y="561" width="6" height="9" fill="#e98b6f" opacity="0.60"/><rect x="272" y="301" width="144" height="599" fill="#7a4a63" opacity="0.92"/><rect x="280" y="313" width="6" height="9" fill="#e98b6f" opacity="0.78"/><rect x="280" y="344" width="6" height="9" fill="#e98b6f" opacity="0.59"/><rect x="308" y="344" width="6" height="9" fill="#e98b6f" opacity="0.75"/><rect x="337" y="344" width="6" height="9" fill="#e98b6f" opacity="0.55"/><rect x="366" y="344" width="6" height="9" fill="#e98b6f" opacity="0.71"/><rect x="395" y="375" width="6" height="9" fill="#e98b6f" opacity="0.62"/><rect x="280" y="406" width="6" height="9" fill="#e98b6f" opacity="0.55"/><rect x="337" y="406" width="6" height="9" fill="#e98b6f" opacity="0.37"/><rect x="280" y="437" width="6" height="9" fill="#e98b6f" opacity="0.71"/><rect x="337" y="437" width="6" height="9" fill="#e98b6f" opacity="0.62"/><rect x="280" y="468" width="6" height="9" fill="#e98b6f" opacity="0.37"/><rect x="308" y="468" width="6" height="9" fill="#e98b6f" opacity="0.62"/><rect x="395" y="468" width="6" height="9" fill="#e98b6f" opacity="0.70"/><rect x="308" y="499" width="6" height="9" fill="#e98b6f" opacity="0.74"/><rect x="337" y="499" width="6" height="9" fill="#e98b6f" opacity="0.58"/><rect x="366" y="499" width="6" height="9" fill="#e98b6f" opacity="0.70"/><rect x="280" y="530" width="6" height="9" fill="#e98b6f" opacity="0.74"/><rect x="366" y="530" width="6" height="9" fill="#e98b6f" opacity="0.57"/><rect x="280" y="561" width="6" height="9" fill="#e98b6f" opacity="0.58"/><rect x="337" y="561" width="6" height="9" fill="#e98b6f" opacity="0.57"/><rect x="366" y="561" width="6" height="9" fill="#e98b6f" opacity="0.68"/><rect x="395" y="561" width="6" height="9" fill="#e98b6f" opacity="0.61"/><rect x="410" y="380" width="158" height="520" fill="#2b2140" opacity="0.92"/><rect x="523" y="392" width="6" height="9" fill="#e98b6f" opacity="0.71"/><rect x="418" y="425" width="6" height="9" fill="#e98b6f" opacity="0.59"/><rect x="444" y="425" width="6" height="9" fill="#e98b6f" opacity="0.75"/><rect x="418" y="459" width="6" height="9" fill="#e98b6f" opacity="0.75"/><rect x="470" y="459" width="6" height="9" fill="#e98b6f" opacity="0.71"/><rect x="549" y="459" width="6" height="9" fill="#e98b6f" opacity="0.74"/><rect x="418" y="492" width="6" height="9" fill="#e98b6f" opacity="0.55"/><rect x="444" y="492" width="6" height="9" fill="#e98b6f" opacity="0.71"/><rect x="497" y="492" width="6" height="9" fill="#e98b6f" opacity="0.62"/><rect x="523" y="492" width="6" height="9" fill="#e98b6f" opacity="0.74"/><rect x="470" y="525" width="6" height="9" fill="#e98b6f" opacity="0.62"/><rect x="523" y="525" width="6" height="9" fill="#e98b6f" opacity="0.58"/><rect x="549" y="525" width="6" height="9" fill="#e98b6f" opacity="0.70"/><rect x="418" y="558" width="6" height="9" fill="#e98b6f" opacity="0.37"/><rect x="470" y="558" width="6" height="9" fill="#e98b6f" opacity="0.74"/><rect x="497" y="558" width="6" height="9" fill="#e98b6f" opacity="0.58"/><rect x="523" y="558" width="6" height="9" fill="#e98b6f" opacity="0.70"/><rect x="562" y="156" width="141" height="744" fill="#7a4a63" opacity="0.92"/><rect x="570" y="168" width="6" height="9" fill="#e98b6f" opacity="0.78"/><rect x="598" y="168" width="6" height="9" fill="#e98b6f" opacity="0.59"/><rect x="683" y="168" width="6" height="9" fill="#e98b6f" opacity="0.71"/><rect x="570" y="198" width="6" height="9" fill="#e98b6f" opacity="0.59"/><rect x="598" y="198" width="6" height="9" fill="#e98b6f" opacity="0.75"/><rect x="626" y="198" width="6" height="9" fill="#e98b6f" opacity="0.55"/><rect x="683" y="198" width="6" height="9" fill="#e98b6f" opacity="0.37"/><rect x="570" y="229" width="6" height="9" fill="#e98b6f" opacity="0.75"/><rect x="570" y="259" width="6" height="9" fill="#e98b6f" opacity="0.55"/><rect x="598" y="259" width="6" height="9" fill="#e98b6f" opacity="0.71"/><rect x="626" y="259" width="6" height="9" fill="#e98b6f" opacity="0.37"/><rect x="655" y="259" width="6" height="9" fill="#e98b6f" opacity="0.62"/><rect x="683" y="259" width="6" height="9" fill="#e98b6f" opacity="0.74"/><rect x="570" y="289" width="6" height="9" fill="#e98b6f" opacity="0.71"/><rect x="598" y="289" width="6" height="9" fill="#e98b6f" opacity="0.37"/><rect x="655" y="289" width="6" height="9" fill="#e98b6f" opacity="0.74"/><rect x="570" y="319" width="6" height="9" fill="#e98b6f" opacity="0.37"/><rect x="626" y="319" width="6" height="9" fill="#e98b6f" opacity="0.74"/><rect x="683" y="319" width="6" height="9" fill="#e98b6f" opacity="0.70"/><rect x="655" y="350" width="6" height="9" fill="#e98b6f" opacity="0.70"/><rect x="570" y="380" width="6" height="9" fill="#e98b6f" opacity="0.74"/><rect x="598" y="380" width="6" height="9" fill="#e98b6f" opacity="0.58"/><rect x="626" y="410" width="6" height="9" fill="#e98b6f" opacity="0.57"/><rect x="655" y="410" width="6" height="9" fill="#e98b6f" opacity="0.68"/><rect x="683" y="410" width="6" height="9" fill="#e98b6f" opacity="0.61"/><rect x="570" y="440" width="6" height="9" fill="#e98b6f" opacity="0.70"/><rect x="655" y="440" width="6" height="9" fill="#e98b6f" opacity="0.61"/><rect x="683" y="440" width="6" height="9" fill="#e98b6f" opacity="0.47"/><rect x="655" y="471" width="6" height="9" fill="#e98b6f" opacity="0.47"/><rect x="655" y="501" width="6" height="9" fill="#e98b6f" opacity="0.60"/><rect x="598" y="531" width="6" height="9" fill="#e98b6f" opacity="0.47"/><rect x="683" y="531" width="6" height="9" fill="#e98b6f" opacity="0.35"/><rect x="598" y="561" width="6" height="9" fill="#e98b6f" opacity="0.60"/><rect x="626" y="561" width="6" height="9" fill="#e98b6f" opacity="0.45"/><rect x="655" y="561" width="6" height="9" fill="#e98b6f" opacity="0.35"/><rect x="697" y="273" width="112" height="627" fill="#2b2140" opacity="0.92"/><rect x="789" y="285" width="6" height="9" fill="#e98b6f" opacity="0.55"/><rect x="789" y="315" width="6" height="9" fill="#e98b6f" opacity="0.71"/><rect x="733" y="346" width="6" height="9" fill="#e98b6f" opacity="0.55"/><rect x="733" y="377" width="6" height="9" fill="#e98b6f" opacity="0.71"/><rect x="761" y="377" width="6" height="9" fill="#e98b6f" opacity="0.37"/><rect x="789" y="377" width="6" height="9" fill="#e98b6f" opacity="0.62"/><rect x="705" y="408" width="6" height="9" fill="#e98b6f" opacity="0.71"/><rect x="761" y="408" width="6" height="9" fill="#e98b6f" opacity="0.62"/><rect x="705" y="438" width="6" height="9" fill="#e98b6f" opacity="0.37"/><rect x="733" y="438" width="6" height="9" fill="#e98b6f" opacity="0.62"/><rect x="789" y="438" width="6" height="9" fill="#e98b6f" opacity="0.58"/><rect x="705" y="469" width="6" height="9" fill="#e98b6f" opacity="0.62"/><rect x="761" y="469" width="6" height="9" fill="#e98b6f" opacity="0.58"/><rect x="789" y="469" width="6" height="9" fill="#e98b6f" opacity="0.70"/><rect x="733" y="500" width="6" height="9" fill="#e98b6f" opacity="0.58"/><rect x="761" y="500" width="6" height="9" fill="#e98b6f" opacity="0.70"/><rect x="789" y="500" width="6" height="9" fill="#e98b6f" opacity="0.57"/><rect x="733" y="530" width="6" height="9" fill="#e98b6f" opacity="0.70"/><rect x="761" y="530" width="6" height="9" fill="#e98b6f" opacity="0.57"/><rect x="705" y="561" width="6" height="9" fill="#e98b6f" opacity="0.70"/><rect x="733" y="561" width="6" height="9" fill="#e98b6f" opacity="0.57"/><rect x="789" y="561" width="6" height="9" fill="#e98b6f" opacity="0.61"/><rect x="803" y="386" width="175" height="514" fill="#7a4a63" opacity="0.92"/><rect x="811" y="398" width="6" height="9" fill="#e98b6f" opacity="0.78"/><rect x="841" y="398" width="6" height="9" fill="#e98b6f" opacity="0.59"/><rect x="899" y="398" width="6" height="9" fill="#e98b6f" opacity="0.55"/><rect x="958" y="398" width="6" height="9" fill="#e98b6f" opacity="0.37"/><rect x="899" y="430" width="6" height="9" fill="#e98b6f" opacity="0.71"/><rect x="958" y="430" width="6" height="9" fill="#e98b6f" opacity="0.62"/><rect x="870" y="462" width="6" height="9" fill="#e98b6f" opacity="0.71"/><rect x="899" y="462" width="6" height="9" fill="#e98b6f" opacity="0.37"/><rect x="928" y="462" width="6" height="9" fill="#e98b6f" opacity="0.62"/><rect x="841" y="495" width="6" height="9" fill="#e98b6f" opacity="0.71"/><rect x="870" y="495" width="6" height="9" fill="#e98b6f" opacity="0.37"/><rect x="928" y="495" width="6" height="9" fill="#e98b6f" opacity="0.74"/><rect x="958" y="495" width="6" height="9" fill="#e98b6f" opacity="0.58"/><rect x="811" y="527" width="6" height="9" fill="#e98b6f" opacity="0.71"/><rect x="841" y="527" width="6" height="9" fill="#e98b6f" opacity="0.37"/><rect x="870" y="527" width="6" height="9" fill="#e98b6f" opacity="0.62"/><rect x="958" y="527" width="6" height="9" fill="#e98b6f" opacity="0.70"/><rect x="928" y="559" width="6" height="9" fill="#e98b6f" opacity="0.70"/><rect x="958" y="559" width="6" height="9" fill="#e98b6f" opacity="0.57"/><rect x="973" y="221" width="116" height="679" fill="#2b2140" opacity="0.92"/><rect x="1010" y="233" width="6" height="9" fill="#e98b6f" opacity="0.59"/><rect x="1039" y="233" width="6" height="9" fill="#e98b6f" opacity="0.75"/><rect x="1068" y="233" width="6" height="9" fill="#e98b6f" opacity="0.55"/><rect x="981" y="298" width="6" height="9" fill="#e98b6f" opacity="0.75"/><rect x="1068" y="298" width="6" height="9" fill="#e98b6f" opacity="0.37"/><rect x="1010" y="331" width="6" height="9" fill="#e98b6f" opacity="0.71"/><rect x="1039" y="331" width="6" height="9" fill="#e98b6f" opacity="0.37"/><rect x="1068" y="331" width="6" height="9" fill="#e98b6f" opacity="0.62"/><rect x="981" y="363" width="6" height="9" fill="#e98b6f" opacity="0.71"/><rect x="1039" y="363" width="6" height="9" fill="#e98b6f" opacity="0.62"/><rect x="1010" y="396" width="6" height="9" fill="#e98b6f" opacity="0.62"/><rect x="1039" y="396" width="6" height="9" fill="#e98b6f" opacity="0.74"/><rect x="1039" y="429" width="6" height="9" fill="#e98b6f" opacity="0.58"/><rect x="981" y="461" width="6" height="9" fill="#e98b6f" opacity="0.74"/><rect x="1010" y="461" width="6" height="9" fill="#e98b6f" opacity="0.58"/><rect x="1039" y="461" width="6" height="9" fill="#e98b6f" opacity="0.70"/><rect x="981" y="494" width="6" height="9" fill="#e98b6f" opacity="0.58"/><rect x="1039" y="494" width="6" height="9" fill="#e98b6f" opacity="0.57"/><rect x="1068" y="494" width="6" height="9" fill="#e98b6f" opacity="0.68"/><rect x="981" y="526" width="6" height="9" fill="#e98b6f" opacity="0.70"/><rect x="1010" y="526" width="6" height="9" fill="#e98b6f" opacity="0.57"/><rect x="1068" y="526" width="6" height="9" fill="#e98b6f" opacity="0.61"/><rect x="1068" y="559" width="6" height="9" fill="#e98b6f" opacity="0.47"/><rect x="1083" y="321" width="179" height="579" fill="#7a4a63" opacity="0.92"/><rect x="1181" y="333" width="6" height="9" fill="#e98b6f" opacity="0.55"/><rect x="1240" y="333" width="6" height="9" fill="#e98b6f" opacity="0.37"/><rect x="1121" y="365" width="6" height="9" fill="#e98b6f" opacity="0.75"/><rect x="1151" y="365" width="6" height="9" fill="#e98b6f" opacity="0.55"/><rect x="1181" y="365" width="6" height="9" fill="#e98b6f" opacity="0.71"/><rect x="1091" y="398" width="6" height="9" fill="#e98b6f" opacity="0.75"/><rect x="1121" y="398" width="6" height="9" fill="#e98b6f" opacity="0.55"/><rect x="1151" y="398" width="6" height="9" fill="#e98b6f" opacity="0.71"/><rect x="1181" y="398" width="6" height="9" fill="#e98b6f" opacity="0.37"/><rect x="1210" y="398" width="6" height="9" fill="#e98b6f" opacity="0.62"/><rect x="1240" y="398" width="6" height="9" fill="#e98b6f" opacity="0.74"/><rect x="1091" y="430" width="6" height="9" fill="#e98b6f" opacity="0.55"/><rect x="1121" y="430" width="6" height="9" fill="#e98b6f" opacity="0.71"/><rect x="1181" y="430" width="6" height="9" fill="#e98b6f" opacity="0.62"/><rect x="1210" y="430" width="6" height="9" fill="#e98b6f" opacity="0.74"/><rect x="1240" y="430" width="6" height="9" fill="#e98b6f" opacity="0.58"/><rect x="1151" y="462" width="6" height="9" fill="#e98b6f" opacity="0.62"/><rect x="1210" y="462" width="6" height="9" fill="#e98b6f" opacity="0.58"/><rect x="1091" y="495" width="6" height="9" fill="#e98b6f" opacity="0.37"/><rect x="1240" y="495" width="6" height="9" fill="#e98b6f" opacity="0.57"/><rect x="1181" y="527" width="6" height="9" fill="#e98b6f" opacity="0.70"/><rect x="1210" y="527" width="6" height="9" fill="#e98b6f" opacity="0.57"/><rect x="1240" y="527" width="6" height="9" fill="#e98b6f" opacity="0.68"/><rect x="1091" y="559" width="6" height="9" fill="#e98b6f" opacity="0.74"/><rect x="1121" y="559" width="6" height="9" fill="#e98b6f" opacity="0.58"/><rect x="1151" y="559" width="6" height="9" fill="#e98b6f" opacity="0.70"/><rect x="1210" y="559" width="6" height="9" fill="#e98b6f" opacity="0.68"/><rect x="0" y="579.6944818139382" width="1200" height="320.3055181860618" fill="url(#water)" opacity="0.25"/>
<rect width="1200" height="900" fill="url(#vig)"/>
<text x="48" y="846" font-family="Georgia, serif" font-size="46" fill="#fff" opacity="0.92" letter-spacing="-1">Capri Cliff Villa</text>
<text x="50" y="804" font-family="Georgia, serif" font-size="20" fill="#c9a24b" opacity="0.9" letter-spacing="3">KASSORA</text>
</svg>