<svg xmlns="http://www.w3.org/2000/svg" width="1200" height="900" viewBox="0 0 1200 900">
<defs>
<linearGradient id="sky" x1="0" y1="0" x2="0" y2="1">
<stop offset="0" stop-color="#9fb4c9"/><stop offset="0.55" stop-color="#5f7794"/><stop offset="1" stop-color="#171e2e"/>
</linearGradient>
<radialGradient id="sun" cx="0.5" cy="0.5" r="0.5">
<stop offset="0" stop-color="#fff" stop-opacity="0.95"/><stop offset="0.4" stop-color="#5f7794" stop-opacity="0.7"/><stop offset="1" stop-color="#5f7794" stop-opacity="0"/>
</radialGradient>
<linearGradient id="water" x1="0" y1="0" x2="0" y2="1">
<stop offset="0" stop-color="#fff" stop-opacity="0.5"/><stop offset="1" stop-color="#fff" stop-opacity="0"/>
</linearGradient>
<linearGradient id="vig" x1="0" y1="0" x2="0" y2="1">
<stop offset="0" stop-color="#000" stop-opacity="0"/><stop offset="1" stop-color="#000" stop-opacity="0.45"/>
</linearGradient>
</defs>
<rect width="1200" height="900" fill="url(#sky)"/>
<circle cx="325" cy="310" r="108" fill="url(#sun)" opacity="0.9"/><rect x="-20" y="372" width="117" height="528" fill="#33415c" opacity="0.92"/><rect x="17" y="384" width="6" height="9" fill="#5f7794" opacity="0.76"/><rect x="76" y="417" width="6" height="9" fill="#5f7794" opacity="0.66"/><rect x="76" y="449" width="6" height="9" fill="#5f7794" opacity="0.69"/><rect x="-12" y="482" width="6" height="9" fill="#5f7794" opacity="0.46"/><rect x="76" y="482" width="6" height="9" fill="#5f7794" opacity="0.83"/><rect x="17" y="514" width="6" height="9" fill="#5f7794" opacity="0.69"/><rect x="91" y="368" width="127" height="532" fill="#171e2e" opacity="0.92"/><rect x="99" y="380" width="6" height="9" fill="#5f7794" opacity="0.41"/><rect x="163" y="380" width="6" height="9" fill="#5f7794" opacity="0.44"/><rect x="195" y="380" width="6" height="9" fill="#5f7794" opacity="0.46"/><rect x="99" y="413" width="6" height="9" fill="#5f7794" opacity="0.76"/><rect x="131" y="413" width="6" height="9" fill="#5f7794" opacity="0.44"/><rect x="163" y="413" width="6" height="9" fill="#5f7794" opacity="0.46"/><rect x="195" y="413" width="6" height="9" fill="#5f7794" opacity="0.66"/><rect x="131" y="447" width="6" height="9" fill="#5f7794" opacity="0.46"/><rect x="163" y="447" width="6" height="9" fill="#5f7794" opacity="0.66"/><rect x="99" y="480" width="6" height="9" fill="#5f7794" opacity="0.46"/><rect x="163" y="480" width="6" height="9" fill="#5f7794" opacity="0.69"/><rect x="195" y="480" width="6" height="9" fill="#5f7794" opacity="0.83"/><rect x="99" y="513" width="6" height="9" fill="#5f7794" opacity="0.66"/><rect x="163" y="513" width="6" height="9" fill="#5f7794" opacity="0.83"/><rect x="195" y="513" width="6" height="9" fill="#5f7794" opacity="0.42"/><rect x="213" y="185" width="205" height="715" fill="#33415c" opacity="0.92"/><rect x="279" y="197" width="6" height="9" fill="#5f7794" opacity="0.44"/><rect x="309" y="197" width="6" height="9" fill="#5f7794" opacity="0.46"/><rect x="397" y="197" width="6" height="9" fill="#5f7794" opacity="0.83"/><rect x="221" y="229" width="6" height="9" fill="#5f7794" opacity="0.76"/><rect x="250" y="229" width="6" height="9" fill="#5f7794" opacity="0.44"/><rect x="279" y="229" width="6" height="9" fill="#5f7794" opacity="0.46"/><rect x="309" y="229" width="6" height="9" fill="#5f7794" opacity="0.66"/><rect x="367" y="229" width="6" height="9" fill="#5f7794" opacity="0.83"/><rect x="250" y="260" width="6" height="9" fill="#5f7794" opacity="0.46"/><rect x="309" y="260" width="6" height="9" fill="#5f7794" opacity="0.69"/><rect x="397" y="260" width="6" height="9" fill="#5f7794" opacity="0.74"/><rect x="221" y="292" width="6" height="9" fill="#5f7794" opacity="0.46"/><rect x="309" y="292" width="6" height="9" fill="#5f7794" opacity="0.83"/><rect x="338" y="292" width="6" height="9" fill="#5f7794" opacity="0.42"/><rect x="367" y="292" width="6" height="9" fill="#5f7794" opacity="0.74"/><rect x="397" y="292" width="6" height="9" fill="#5f7794" opacity="0.74"/><rect x="250" y="324" width="6" height="9" fill="#5f7794" opacity="0.69"/><rect x="397" y="324" width="6" height="9" fill="#5f7794" opacity="0.48"/><rect x="221" y="356" width="6" height="9" fill="#5f7794" opacity="0.69"/><rect x="250" y="356" width="6" height="9" fill="#5f7794" opacity="0.83"/><rect x="279" y="356" width="6" height="9" fill="#5f7794" opacity="0.42"/><rect x="309" y="356" width="6" height="9" fill="#5f7794" opacity="0.74"/><rect x="338" y="356" width="6" height="9" fill="#5f7794" opacity="0.74"/><rect x="367" y="356" width="6" height="9" fill="#5f7794" opacity="0.48"/><rect x="397" y="356" width="6" height="9" fill="#5f7794" opacity="0.36"/><rect x="221" y="387" width="6" height="9" fill="#5f7794" opacity="0.83"/><rect x="250" y="387" width="6" height="9" fill="#5f7794" opacity="0.42"/><rect x="309" y="387" width="6" height="9" fill="#5f7794" opacity="0.74"/><rect x="338" y="387" width="6" height="9" fill="#5f7794" opacity="0.48"/><rect x="279" y="419" width="6" height="9" fill="#5f7794" opacity="0.74"/><rect x="338" y="419" width="6" height="9" fill="#5f7794" opacity="0.36"/><rect x="221" y="451" width="6" height="9" fill="#5f7794" opacity="0.74"/><rect x="309" y="451" width="6" height="9" fill="#5f7794" opacity="0.36"/><rect x="279" y="483" width="6" height="9" fill="#5f7794" opacity="0.36"/><rect x="309" y="483" width="6" height="9" fill="#5f7794" opacity="0.37"/><rect x="367" y="483" width="6" height="9" fill="#5f7794" opacity="0.72"/><rect x="221" y="515" width="6" height="9" fill="#5f7794" opacity="0.48"/><rect x="250" y="515" width="6" height="9" fill="#5f7794" opacity="0.36"/><rect x="309" y="515" width="6" height="9" fill="#5f7794" opacity="0.79"/><rect x="338" y="515" width="6" height="9" fill="#5f7794" opacity="0.72"/><rect x="412" y="375" width="187" height="525" fill="#171e2e" opacity="0.92"/><rect x="420" y="387" width="6" height="9" fill="#5f7794" opacity="0.41"/><rect x="447" y="387" width="6" height="9" fill="#5f7794" opacity="0.76"/><rect x="500" y="387" width="6" height="9" fill="#5f7794" opacity="0.46"/><rect x="527" y="387" width="6" height="9" fill="#5f7794" opacity="0.66"/><rect x="500" y="419" width="6" height="9" fill="#5f7794" opacity="0.66"/><rect x="527" y="419" width="6" height="9" fill="#5f7794" opacity="0.69"/><rect x="554" y="419" width="6" height="9" fill="#5f7794" opacity="0.83"/><rect x="580" y="419" width="6" height="9" fill="#5f7794" opacity="0.42"/><rect x="447" y="451" width="6" height="9" fill="#5f7794" opacity="0.46"/><rect x="473" y="451" width="6" height="9" fill="#5f7794" opacity="0.66"/><rect x="420" y="483" width="6" height="9" fill="#5f7794" opacity="0.46"/><rect x="473" y="483" width="6" height="9" fill="#5f7794" opacity="0.69"/><rect x="500" y="483" width="6" height="9" fill="#5f7794" opacity="0.83"/><rect x="527" y="483" width="6" height="9" fill="#5f7794" opacity="0.42"/><rect x="580" y="483" width="6" height="9" fill="#5f7794" opacity="0.74"/><rect x="420" y="515" width="6" height="9" fill="#5f7794" opacity="0.66"/><rect x="447" y="515" width="6" height="9" fill="#5f7794" opacity="0.69"/><rect x="500" y="515" width="6" height="9" fill="#5f7794" opacity="0.42"/><rect x="527" y="515" width="6" height="9" fill="#5f7794" opacity="0.74"/><rect x="580" y="515" width="6" height="9" fill="#5f7794" opacity="0.48"/><rect x="593" y="157" width="109" height="743" fill="#33415c" opacity="0.92"/><rect x="601" y="169" width="6" height="9" fill="#5f7794" opacity="0.41"/><rect x="656" y="169" width="6" height="9" fill="#5f7794" opacity="0.44"/><rect x="683" y="169" width="6" height="9" fill="#5f7794" opacity="0.46"/><rect x="601" y="200" width="6" height="9" fill="#5f7794" opacity="0.76"/><rect x="683" y="232" width="6" height="9" fill="#5f7794" opacity="0.69"/><rect x="601" y="263" width="6" height="9" fill="#5f7794" opacity="0.46"/><rect x="628" y="263" width="6" height="9" fill="#5f7794" opacity="0.66"/><rect x="656" y="263" width="6" height="9" fill="#5f7794" opacity="0.69"/><rect x="683" y="263" width="6" height="9" fill="#5f7794" opacity="0.83"/><rect x="601" y="295" width="6" height="9" fill="#5f7794" opacity="0.66"/><rect x="628" y="295" width="6" height="9" fill="#5f7794" opacity="0.69"/><rect x="656" y="295" width="6" height="9" fill="#5f7794" opacity="0.83"/><rect x="683" y="295" width="6" height="9" fill="#5f7794" opacity="0.42"/><rect x="601" y="326" width="6" height="9" fill="#5f7794" opacity="0.69"/><rect x="683" y="326" width="6" height="9" fill="#5f7794" opacity="0.74"/><rect x="628" y="358" width="6" height="9" fill="#5f7794" opacity="0.42"/><rect x="656" y="358" width="6" height="9" fill="#5f7794" opacity="0.74"/><rect x="683" y="358" width="6" height="9" fill="#5f7794" opacity="0.74"/><rect x="601" y="389" width="6" height="9" fill="#5f7794" opacity="0.42"/><rect x="628" y="389" width="6" height="9" fill="#5f7794" opacity="0.74"/><rect x="656" y="389" width="6" height="9" fill="#5f7794" opacity="0.74"/><rect x="601" y="421" width="6" height="9" fill="#5f7794" opacity="0.74"/><rect x="628" y="421" width="6" height="9" fill="#5f7794" opacity="0.74"/><rect x="601" y="452" width="6" height="9" fill="#5f7794" opacity="0.74"/><rect x="628" y="452" width="6" height="9" fill="#5f7794" opacity="0.48"/><rect x="656" y="484" width="6" height="9" fill="#5f7794" opacity="0.37"/><rect x="601" y="515" width="6" height="9" fill="#5f7794" opacity="0.36"/><rect x="628" y="515" width="6" height="9" fill="#5f7794" opacity="0.37"/><rect x="656" y="515" width="6" height="9" fill="#5f7794" opacity="0.79"/><rect x="696" y="187" width="153" height="713" fill="#171e2e" opacity="0.92"/><rect x="765" y="199" width="6" height="9" fill="#5f7794" opacity="0.44"/><rect x="826" y="199" width="6" height="9" fill="#5f7794" opacity="0.66"/><rect x="704" y="231" width="6" height="9" fill="#5f7794" opacity="0.76"/><rect x="734" y="231" width="6" height="9" fill="#5f7794" opacity="0.44"/><rect x="765" y="231" width="6" height="9" fill="#5f7794" opacity="0.46"/><rect x="826" y="231" width="6" height="9" fill="#5f7794" opacity="0.69"/><rect x="765" y="262" width="6" height="9" fill="#5f7794" opacity="0.66"/><rect x="795" y="262" width="6" height="9" fill="#5f7794" opacity="0.69"/><rect x="826" y="262" width="6" height="9" fill="#5f7794" opacity="0.83"/><rect x="795" y="294" width="6" height="9" fill="#5f7794" opacity="0.83"/><rect x="826" y="294" width="6" height="9" fill="#5f7794" opacity="0.42"/><rect x="734" y="325" width="6" height="9" fill="#5f7794" opacity="0.69"/><rect x="765" y="325" width="6" height="9" fill="#5f7794" opacity="0.83"/><rect x="795" y="325" width="6" height="9" fill="#5f7794" opacity="0.42"/><rect x="826" y="325" width="6" height="9" fill="#5f7794" opacity="0.74"/><rect x="704" y="357" width="6" height="9" fill="#5f7794" opacity="0.69"/><rect x="734" y="357" width="6" height="9" fill="#5f7794" opacity="0.83"/><rect x="765" y="357" width="6" height="9" fill="#5f7794" opacity="0.42"/><rect x="795" y="357" width="6" height="9" fill="#5f7794" opacity="0.74"/><rect x="826" y="357" width="6" height="9" fill="#5f7794" opacity="0.74"/><rect x="704" y="389" width="6" height="9" fill="#5f7794" opacity="0.83"/><rect x="734" y="389" width="6" height="9" fill="#5f7794" opacity="0.42"/><rect x="765" y="389" width="6" height="9" fill="#5f7794" opacity="0.74"/><rect x="795" y="389" width="6" height="9" fill="#5f7794" opacity="0.74"/><rect x="704" y="420" width="6" height="9" fill="#5f7794" opacity="0.42"/><rect x="734" y="420" width="6" height="9" fill="#5f7794" opacity="0.74"/><rect x="795" y="420" width="6" height="9" fill="#5f7794" opacity="0.48"/><rect x="826" y="420" width="6" height="9" fill="#5f7794" opacity="0.36"/><rect x="765" y="452" width="6" height="9" fill="#5f7794" opacity="0.48"/><rect x="704" y="483" width="6" height="9" fill="#5f7794" opacity="0.74"/><rect x="795" y="483" width="6" height="9" fill="#5f7794" opacity="0.37"/><rect x="826" y="483" width="6" height="9" fill="#5f7794" opacity="0.79"/><rect x="704" y="515" width="6" height="9" fill="#5f7794" opacity="0.48"/><rect x="795" y="515" width="6" height="9" fill="#5f7794" opacity="0.79"/><rect x="842" y="352" width="136" height="548" fill="#33415c" opacity="0.92"/><rect x="850" y="364" width="6" height="9" fill="#5f7794" opacity="0.41"/><rect x="932" y="364" width="6" height="9" fill="#5f7794" opacity="0.46"/><rect x="850" y="395" width="6" height="9" fill="#5f7794" opacity="0.76"/><rect x="878" y="395" width="6" height="9" fill="#5f7794" opacity="0.44"/><rect x="932" y="395" width="6" height="9" fill="#5f7794" opacity="0.66"/><rect x="850" y="425" width="6" height="9" fill="#5f7794" opacity="0.44"/><rect x="905" y="425" width="6" height="9" fill="#5f7794" opacity="0.66"/><rect x="850" y="455" width="6" height="9" fill="#5f7794" opacity="0.46"/><rect x="878" y="455" width="6" height="9" fill="#5f7794" opacity="0.66"/><rect x="932" y="455" width="6" height="9" fill="#5f7794" opacity="0.83"/><rect x="850" y="486" width="6" height="9" fill="#5f7794" opacity="0.66"/><rect x="878" y="486" width="6" height="9" fill="#5f7794" opacity="0.69"/><rect x="932" y="486" width="6" height="9" fill="#5f7794" opacity="0.42"/><rect x="959" y="486" width="6" height="9" fill="#5f7794" opacity="0.74"/><rect x="878" y="516" width="6" height="9" fill="#5f7794" opacity="0.83"/><rect x="959" y="516" width="6" height="9" fill="#5f7794" opacity="0.74"/><rect x="972" y="320" width="116" height="580" fill="#171e2e" opacity="0.92"/><rect x="980" y="332" width="6" height="9" fill="#5f7794" opacity="0.41"/><rect x="1009" y="332" width="6" height="9" fill="#5f7794" opacity="0.76"/><rect x="1068" y="332" width="6" height="9" fill="#5f7794" opacity="0.46"/><rect x="1038" y="363" width="6" height="9" fill="#5f7794" opacity="0.46"/><rect x="980" y="394" width="6" height="9" fill="#5f7794" opacity="0.44"/><rect x="1009" y="394" width="6" height="9" fill="#5f7794" opacity="0.46"/><rect x="1068" y="394" width="6" height="9" fill="#5f7794" opacity="0.69"/><rect x="980" y="424" width="6" height="9" fill="#5f7794" opacity="0.46"/><rect x="1009" y="424" width="6" height="9" fill="#5f7794" opacity="0.66"/><rect x="1038" y="424" width="6" height="9" fill="#5f7794" opacity="0.69"/><rect x="1009" y="455" width="6" height="9" fill="#5f7794" opacity="0.69"/><rect x="1038" y="455" width="6" height="9" fill="#5f7794" opacity="0.83"/><rect x="1068" y="455" width="6" height="9" fill="#5f7794" opacity="0.42"/><rect x="980" y="485" width="6" height="9" fill="#5f7794" opacity="0.69"/><rect x="1009" y="485" width="6" height="9" fill="#5f7794" opacity="0.83"/><rect x="1038" y="485" width="6" height="9" fill="#5f7794" opacity="0.42"/><rect x="1068" y="485" width="6" height="9" fill="#5f7794" opacity="0.74"/><rect x="980" y="516" width="6" height="9" fill="#5f7794" opacity="0.83"/><rect x="1009" y="516" width="6" height="9" fill="#5f7794" opacity="0.42"/><rect x="1038" y="516" width="6" height="9" fill="#5f7794" opacity="0.74"/><rect x="0" y="534.4779627712851" width="1200" height="365.5220372287149" fill="url(#water)" opacity="0.25"/>
<rect width="1200" height="900" fill="url(#vig)"/>
<text x="48" y="846" font-family="Georgia, serif" font-size="46" fill="#fff" opacity="0.92" letter-spacing="-1">The Marylebone Penthouse</text>
<text x="50" y="804" font-family="Georgia, serif" font-size="20" fill="#c9a24b" opacity="0.9" letter-spacing="3">KASSORA</text>
</svg>