<svg xmlns="http://www.w3.org/2000/svg" width="1200" height="900" viewBox="0 0 1200 900">
<defs>
<linearGradient id="sky" x1="0" y1="0" x2="0" y2="1">
<stop offset="0" stop-color="#9fb4c9"/><stop offset="0.55" stop-color="#5f7794"/><stop offset="1" stop-color="#171e2e"/>
</linearGradient>
<radialGradient id="sun" cx="0.5" cy="0.5" r="0.5">
<stop offset="0" stop-color="#fff" stop-opacity="0.95"/><stop offset="0.4" stop-color="#5f7794" stop-opacity="0.7"/><stop offset="1" stop-color="#5f7794" stop-opacity="0"/>
</radialGradient>
<linearGradient id="water" x1="0" y1="0" x2="0" y2="1">
<stop offset="0" stop-color="#fff" stop-opacity="0.5"/><stop offset="1" stop-color="#fff" stop-opacity="0"/>
</linearGradient>
<linearGradient id="vig" x1="0" y1="0" x2="0" y2="1">
<stop offset="0" stop-color="#000" stop-opacity="0"/><stop offset="1" stop-color="#000" stop-opacity="0.45"/>
</linearGradient>
</defs>
<rect width="1200" height="900" fill="url(#sky)"/>
<circle cx="335" cy="302" r="108" fill="url(#sun)" opacity="0.9"/><rect x="-20" y="412" width="119" height="488" fill="#33415c" opacity="0.92"/><rect x="18" y="424" width="6" height="9" fill="#5f7794" opacity="0.74"/><rect x="47" y="424" width="6" height="9" fill="#5f7794" opacity="0.74"/><rect x="-12" y="491" width="6" height="9" fill="#5f7794" opacity="0.74"/><rect x="18" y="491" width="6" height="9" fill="#5f7794" opacity="0.48"/><rect x="77" y="491" width="6" height="9" fill="#5f7794" opacity="0.37"/><rect x="-12" y="524" width="6" height="9" fill="#5f7794" opacity="0.48"/><rect x="18" y="524" width="6" height="9" fill="#5f7794" opacity="0.36"/><rect x="77" y="557" width="6" height="9" fill="#5f7794" opacity="0.72"/><rect x="93" y="229" width="132" height="671" fill="#171e2e" opacity="0.92"/><rect x="127" y="241" width="6" height="9" fill="#5f7794" opacity="0.74"/><rect x="180" y="241" width="6" height="9" fill="#5f7794" opacity="0.48"/><rect x="206" y="241" width="6" height="9" fill="#5f7794" opacity="0.36"/><rect x="127" y="273" width="6" height="9" fill="#5f7794" opacity="0.74"/><rect x="206" y="273" width="6" height="9" fill="#5f7794" opacity="0.37"/><rect x="127" y="304" width="6" height="9" fill="#5f7794" opacity="0.48"/><rect x="153" y="304" width="6" height="9" fill="#5f7794" opacity="0.36"/><rect x="180" y="304" width="6" height="9" fill="#5f7794" opacity="0.37"/><rect x="101" y="336" width="6" height="9" fill="#5f7794" opacity="0.48"/><rect x="127" y="336" width="6" height="9" fill="#5f7794" opacity="0.36"/><rect x="153" y="336" width="6" height="9" fill="#5f7794" opacity="0.37"/><rect x="180" y="336" width="6" height="9" fill="#5f7794" opacity="0.79"/><rect x="101" y="368" width="6" height="9" fill="#5f7794" opacity="0.36"/><rect x="127" y="368" width="6" height="9" fill="#5f7794" opacity="0.37"/><rect x="180" y="368" width="6" height="9" fill="#5f7794" opacity="0.72"/><rect x="206" y="368" width="6" height="9" fill="#5f7794" opacity="0.58"/><rect x="101" y="400" width="6" height="9" fill="#5f7794" opacity="0.37"/><rect x="153" y="400" width="6" height="9" fill="#5f7794" opacity="0.72"/><rect x="127" y="463" width="6" height="9" fill="#5f7794" opacity="0.58"/><rect x="153" y="463" width="6" height="9" fill="#5f7794" opacity="0.59"/><rect x="206" y="463" width="6" height="9" fill="#5f7794" opacity="0.50"/><rect x="101" y="495" width="6" height="9" fill="#5f7794" opacity="0.58"/><rect x="153" y="495" width="6" height="9" fill="#5f7794" opacity="0.48"/><rect x="180" y="495" width="6" height="9" fill="#5f7794" opacity="0.50"/><rect x="206" y="495" width="6" height="9" fill="#5f7794" opacity="0.49"/><rect x="101" y="559" width="6" height="9" fill="#5f7794" opacity="0.48"/><rect x="127" y="559" width="6" height="9" fill="#5f7794" opacity="0.50"/><rect x="153" y="559" width="6" height="9" fill="#5f7794" opacity="0.49"/><rect x="180" y="559" width="6" height="9" fill="#5f7794" opacity="0.48"/><rect x="206" y="559" width="6" height="9" fill="#5f7794" opacity="0.40"/><rect x="218" y="419" width="198" height="481" fill="#33415c" opacity="0.92"/><rect x="226" y="431" width="6" height="9" fill="#5f7794" opacity="0.42"/><rect x="255" y="431" width="6" height="9" fill="#5f7794" opacity="0.74"/><rect x="283" y="431" width="6" height="9" fill="#5f7794" opacity="0.74"/><rect x="311" y="431" width="6" height="9" fill="#5f7794" opacity="0.48"/><rect x="339" y="431" width="6" height="9" fill="#5f7794" opacity="0.36"/><rect x="368" y="431" width="6" height="9" fill="#5f7794" opacity="0.37"/><rect x="396" y="431" width="6" height="9" fill="#5f7794" opacity="0.79"/><rect x="226" y="463" width="6" height="9" fill="#5f7794" opacity="0.74"/><rect x="339" y="463" width="6" height="9" fill="#5f7794" opacity="0.37"/><rect x="396" y="463" width="6" height="9" fill="#5f7794" opacity="0.72"/><rect x="311" y="495" width="6" height="9" fill="#5f7794" opacity="0.37"/><rect x="396" y="495" width="6" height="9" fill="#5f7794" opacity="0.58"/><rect x="226" y="527" width="6" height="9" fill="#5f7794" opacity="0.48"/><rect x="283" y="527" width="6" height="9" fill="#5f7794" opacity="0.37"/><rect x="339" y="527" width="6" height="9" fill="#5f7794" opacity="0.72"/><rect x="226" y="559" width="6" height="9" fill="#5f7794" opacity="0.36"/><rect x="255" y="559" width="6" height="9" fill="#5f7794" opacity="0.37"/><rect x="283" y="559" width="6" height="9" fill="#5f7794" opacity="0.79"/><rect x="311" y="559" width="6" height="9" fill="#5f7794" opacity="0.72"/><rect x="339" y="559" width="6" height="9" fill="#5f7794" opacity="0.58"/><rect x="368" y="559" width="6" height="9" fill="#5f7794" opacity="0.59"/><rect x="396" y="559" width="6" height="9" fill="#5f7794" opacity="0.48"/><rect x="410" y="201" width="155" height="699" fill="#171e2e" opacity="0.92"/><rect x="418" y="244" width="6" height="9" fill="#5f7794" opacity="0.74"/><rect x="480" y="244" width="6" height="9" fill="#5f7794" opacity="0.48"/><rect x="542" y="244" width="6" height="9" fill="#5f7794" opacity="0.37"/><rect x="449" y="276" width="6" height="9" fill="#5f7794" opacity="0.48"/><rect x="480" y="276" width="6" height="9" fill="#5f7794" opacity="0.36"/><rect x="511" y="276" width="6" height="9" fill="#5f7794" opacity="0.37"/><rect x="511" y="307" width="6" height="9" fill="#5f7794" opacity="0.79"/><rect x="542" y="307" width="6" height="9" fill="#5f7794" opacity="0.72"/><rect x="542" y="339" width="6" height="9" fill="#5f7794" opacity="0.58"/><rect x="449" y="370" width="6" height="9" fill="#5f7794" opacity="0.79"/><rect x="542" y="370" width="6" height="9" fill="#5f7794" opacity="0.59"/><rect x="418" y="402" width="6" height="9" fill="#5f7794" opacity="0.79"/><rect x="480" y="402" width="6" height="9" fill="#5f7794" opacity="0.58"/><rect x="511" y="402" width="6" height="9" fill="#5f7794" opacity="0.59"/><rect x="418" y="433" width="6" height="9" fill="#5f7794" opacity="0.72"/><rect x="542" y="433" width="6" height="9" fill="#5f7794" opacity="0.50"/><rect x="418" y="465" width="6" height="9" fill="#5f7794" opacity="0.58"/><rect x="449" y="465" width="6" height="9" fill="#5f7794" opacity="0.59"/><rect x="542" y="465" width="6" height="9" fill="#5f7794" opacity="0.49"/><rect x="418" y="496" width="6" height="9" fill="#5f7794" opacity="0.59"/><rect x="449" y="496" width="6" height="9" fill="#5f7794" opacity="0.48"/><rect x="480" y="496" width="6" height="9" fill="#5f7794" opacity="0.50"/><rect x="511" y="496" width="6" height="9" fill="#5f7794" opacity="0.49"/><rect x="449" y="528" width="6" height="9" fill="#5f7794" opacity="0.50"/><rect x="511" y="528" width="6" height="9" fill="#5f7794" opacity="0.48"/><rect x="559" y="231" width="134" height="669" fill="#33415c" opacity="0.92"/><rect x="594" y="243" width="6" height="9" fill="#5f7794" opacity="0.74"/><rect x="647" y="243" width="6" height="9" fill="#5f7794" opacity="0.48"/><rect x="620" y="306" width="6" height="9" fill="#5f7794" opacity="0.36"/><rect x="647" y="306" width="6" height="9" fill="#5f7794" opacity="0.37"/><rect x="674" y="306" width="6" height="9" fill="#5f7794" opacity="0.79"/><rect x="567" y="338" width="6" height="9" fill="#5f7794" opacity="0.48"/><rect x="594" y="338" width="6" height="9" fill="#5f7794" opacity="0.36"/><rect x="647" y="338" width="6" height="9" fill="#5f7794" opacity="0.79"/><rect x="674" y="338" width="6" height="9" fill="#5f7794" opacity="0.72"/><rect x="594" y="369" width="6" height="9" fill="#5f7794" opacity="0.37"/><rect x="620" y="369" width="6" height="9" fill="#5f7794" opacity="0.79"/><rect x="647" y="369" width="6" height="9" fill="#5f7794" opacity="0.72"/><rect x="567" y="401" width="6" height="9" fill="#5f7794" opacity="0.37"/><rect x="594" y="401" width="6" height="9" fill="#5f7794" opacity="0.79"/><rect x="674" y="401" width="6" height="9" fill="#5f7794" opacity="0.59"/><rect x="620" y="433" width="6" height="9" fill="#5f7794" opacity="0.58"/><rect x="647" y="433" width="6" height="9" fill="#5f7794" opacity="0.59"/><rect x="674" y="433" width="6" height="9" fill="#5f7794" opacity="0.48"/><rect x="594" y="464" width="6" height="9" fill="#5f7794" opacity="0.58"/><rect x="647" y="464" width="6" height="9" fill="#5f7794" opacity="0.48"/><rect x="674" y="464" width="6" height="9" fill="#5f7794" opacity="0.50"/><rect x="620" y="496" width="6" height="9" fill="#5f7794" opacity="0.48"/><rect x="647" y="496" width="6" height="9" fill="#5f7794" opacity="0.50"/><rect x="674" y="496" width="6" height="9" fill="#5f7794" opacity="0.49"/><rect x="620" y="527" width="6" height="9" fill="#5f7794" opacity="0.50"/><rect x="594" y="559" width="6" height="9" fill="#5f7794" opacity="0.50"/><rect x="620" y="559" width="6" height="9" fill="#5f7794" opacity="0.49"/><rect x="647" y="559" width="6" height="9" fill="#5f7794" opacity="0.48"/><rect x="674" y="559" width="6" height="9" fill="#5f7794" opacity="0.40"/><rect x="687" y="396" width="152" height="504" fill="#171e2e" opacity="0.92"/><rect x="725" y="408" width="6" height="9" fill="#5f7794" opacity="0.74"/><rect x="756" y="408" width="6" height="9" fill="#5f7794" opacity="0.74"/><rect x="786" y="408" width="6" height="9" fill="#5f7794" opacity="0.48"/><rect x="816" y="408" width="6" height="9" fill="#5f7794" opacity="0.36"/><rect x="725" y="439" width="6" height="9" fill="#5f7794" opacity="0.74"/><rect x="756" y="469" width="6" height="9" fill="#5f7794" opacity="0.36"/><rect x="695" y="499" width="6" height="9" fill="#5f7794" opacity="0.48"/><rect x="725" y="499" width="6" height="9" fill="#5f7794" opacity="0.36"/><rect x="816" y="499" width="6" height="9" fill="#5f7794" opacity="0.72"/><rect x="695" y="530" width="6" height="9" fill="#5f7794" opacity="0.36"/><rect x="786" y="530" width="6" height="9" fill="#5f7794" opacity="0.72"/><rect x="816" y="530" width="6" height="9" fill="#5f7794" opacity="0.58"/><rect x="725" y="560" width="6" height="9" fill="#5f7794" opacity="0.79"/><rect x="756" y="560" width="6" height="9" fill="#5f7794" opacity="0.72"/><rect x="786" y="560" width="6" height="9" fill="#5f7794" opacity="0.58"/><rect x="816" y="560" width="6" height="9" fill="#5f7794" opacity="0.59"/><rect x="833" y="364" width="181" height="536" fill="#33415c" opacity="0.92"/><rect x="841" y="376" width="6" height="9" fill="#5f7794" opacity="0.42"/><rect x="901" y="376" width="6" height="9" fill="#5f7794" opacity="0.74"/><rect x="931" y="376" width="6" height="9" fill="#5f7794" opacity="0.48"/><rect x="962" y="376" width="6" height="9" fill="#5f7794" opacity="0.36"/><rect x="841" y="407" width="6" height="9" fill="#5f7794" opacity="0.74"/><rect x="931" y="407" width="6" height="9" fill="#5f7794" opacity="0.36"/><rect x="992" y="407" width="6" height="9" fill="#5f7794" opacity="0.79"/><rect x="871" y="438" width="6" height="9" fill="#5f7794" opacity="0.48"/><rect x="931" y="438" width="6" height="9" fill="#5f7794" opacity="0.37"/><rect x="962" y="438" width="6" height="9" fill="#5f7794" opacity="0.79"/><rect x="841" y="468" width="6" height="9" fill="#5f7794" opacity="0.48"/><rect x="901" y="468" width="6" height="9" fill="#5f7794" opacity="0.37"/><rect x="931" y="468" width="6" height="9" fill="#5f7794" opacity="0.79"/><rect x="962" y="468" width="6" height="9" fill="#5f7794" opacity="0.72"/><rect x="871" y="499" width="6" height="9" fill="#5f7794" opacity="0.37"/><rect x="962" y="499" width="6" height="9" fill="#5f7794" opacity="0.58"/><rect x="841" y="529" width="6" height="9" fill="#5f7794" opacity="0.37"/><rect x="871" y="529" width="6" height="9" fill="#5f7794" opacity="0.79"/><rect x="931" y="529" width="6" height="9" fill="#5f7794" opacity="0.58"/><rect x="962" y="529" width="6" height="9" fill="#5f7794" opacity="0.59"/><rect x="992" y="529" width="6" height="9" fill="#5f7794" opacity="0.48"/><rect x="841" y="560" width="6" height="9" fill="#5f7794" opacity="0.79"/><rect x="931" y="560" width="6" height="9" fill="#5f7794" opacity="0.59"/><rect x="962" y="560" width="6" height="9" fill="#5f7794" opacity="0.48"/><rect x="1008" y="240" width="191" height="660" fill="#171e2e" opacity="0.92"/><rect x="1016" y="252" width="6" height="9" fill="#5f7794" opacity="0.42"/><rect x="1071" y="252" width="6" height="9" fill="#5f7794" opacity="0.74"/><rect x="1153" y="252" width="6" height="9" fill="#5f7794" opacity="0.37"/><rect x="1016" y="283" width="6" height="9" fill="#5f7794" opacity="0.74"/><rect x="1071" y="283" width="6" height="9" fill="#5f7794" opacity="0.48"/><rect x="1098" y="283" width="6" height="9" fill="#5f7794" opacity="0.36"/><rect x="1125" y="283" width="6" height="9" fill="#5f7794" opacity="0.37"/><rect x="1180" y="283" width="6" height="9" fill="#5f7794" opacity="0.72"/><rect x="1016" y="314" width="6" height="9" fill="#5f7794" opacity="0.74"/><rect x="1043" y="314" width="6" height="9" fill="#5f7794" opacity="0.48"/><rect x="1098" y="314" width="6" height="9" fill="#5f7794" opacity="0.37"/><rect x="1125" y="314" width="6" height="9" fill="#5f7794" opacity="0.79"/><rect x="1153" y="314" width="6" height="9" fill="#5f7794" opacity="0.72"/><rect x="1043" y="344" width="6" height="9" fill="#5f7794" opacity="0.36"/><rect x="1071" y="344" width="6" height="9" fill="#5f7794" opacity="0.37"/><rect x="1125" y="344" width="6" height="9" fill="#5f7794" opacity="0.72"/><rect x="1153" y="344" width="6" height="9" fill="#5f7794" opacity="0.58"/><rect x="1180" y="344" width="6" height="9" fill="#5f7794" opacity="0.59"/><rect x="1071" y="375" width="6" height="9" fill="#5f7794" opacity="0.79"/><rect x="1098" y="375" width="6" height="9" fill="#5f7794" opacity="0.72"/><rect x="1125" y="375" width="6" height="9" fill="#5f7794" opacity="0.58"/><rect x="1153" y="375" width="6" height="9" fill="#5f7794" opacity="0.59"/><rect x="1180" y="375" width="6" height="9" fill="#5f7794" opacity="0.48"/><rect x="1043" y="406" width="6" height="9" fill="#5f7794" opacity="0.79"/><rect x="1071" y="406" width="6" height="9" fill="#5f7794" opacity="0.72"/><rect x="1098" y="406" width="6" height="9" fill="#5f7794" opacity="0.58"/><rect x="1125" y="406" width="6" height="9" fill="#5f7794" opacity="0.59"/><rect x="1153" y="406" width="6" height="9" fill="#5f7794" opacity="0.48"/><rect x="1016" y="437" width="6" height="9" fill="#5f7794" opacity="0.79"/><rect x="1071" y="437" width="6" height="9" fill="#5f7794" opacity="0.58"/><rect x="1180" y="437" width="6" height="9" fill="#5f7794" opacity="0.49"/><rect x="1016" y="467" width="6" height="9" fill="#5f7794" opacity="0.72"/><rect x="1043" y="467" width="6" height="9" fill="#5f7794" opacity="0.58"/><rect x="1153" y="467" width="6" height="9" fill="#5f7794" opacity="0.49"/><rect x="1180" y="467" width="6" height="9" fill="#5f7794" opacity="0.48"/><rect x="1016" y="498" width="6" height="9" fill="#5f7794" opacity="0.58"/><rect x="1098" y="498" width="6" height="9" fill="#5f7794" opacity="0.50"/><rect x="1016" y="529" width="6" height="9" fill="#5f7794" opacity="0.59"/><rect x="1071" y="529" width="6" height="9" fill="#5f7794" opacity="0.50"/><rect x="1180" y="529" width="6" height="9" fill="#5f7794" opacity="0.57"/><rect x="1016" y="560" width="6" height="9" fill="#5f7794" opacity="0.48"/><rect x="1098" y="560" width="6" height="9" fill="#5f7794" opacity="0.48"/><rect x="1125" y="560" width="6" height="9" fill="#5f7794" opacity="0.40"/><rect x="0" y="578.485500743729" width="1200" height="321.51449925627105" fill="url(#water)" opacity="0.25"/>
<rect width="1200" height="900" fill="url(#vig)"/>
<text x="48" y="846" font-family="Georgia, serif" font-size="46" fill="#fff" opacity="0.92" letter-spacing="-1">The Marylebone Penthouse</text>
<text x="50" y="804" font-family="Georgia, serif" font-size="20" fill="#c9a24b" opacity="0.9" letter-spacing="3">KASSORA</text>
</svg>