<svg xmlns="http://www.w3.org/2000/svg" width="1200" height="900" viewBox="0 0 1200 900">
<defs>
<linearGradient id="sky" x1="0" y1="0" x2="0" y2="1">
<stop offset="0" stop-color="#9fb4c9"/><stop offset="0.55" stop-color="#5f7794"/><stop offset="1" stop-color="#171e2e"/>
</linearGradient>
<radialGradient id="sun" cx="0.5" cy="0.5" r="0.5">
<stop offset="0" stop-color="#fff" stop-opacity="0.95"/><stop offset="0.4" stop-color="#5f7794" stop-opacity="0.7"/><stop offset="1" stop-color="#5f7794" stop-opacity="0"/>
</radialGradient>
<linearGradient id="water" x1="0" y1="0" x2="0" y2="1">
<stop offset="0" stop-color="#fff" stop-opacity="0.5"/><stop offset="1" stop-color="#fff" stop-opacity="0"/>
</linearGradient>
<linearGradient id="vig" x1="0" y1="0" x2="0" y2="1">
<stop offset="0" stop-color="#000" stop-opacity="0"/><stop offset="1" stop-color="#000" stop-opacity="0.45"/>
</linearGradient>
</defs>
<rect width="1200" height="900" fill="url(#sky)"/>
<circle cx="766" cy="259" r="108" fill="url(#sun)" opacity="0.9"/><rect x="-20" y="206" width="182" height="694" fill="#33415c" opacity="0.92"/><rect x="-12" y="218" width="6" height="9" fill="#5f7794" opacity="0.72"/><rect x="18" y="218" width="6" height="9" fill="#5f7794" opacity="0.58"/><rect x="49" y="218" width="6" height="9" fill="#5f7794" opacity="0.59"/><rect x="-12" y="250" width="6" height="9" fill="#5f7794" opacity="0.58"/><rect x="18" y="250" width="6" height="9" fill="#5f7794" opacity="0.59"/><rect x="79" y="250" width="6" height="9" fill="#5f7794" opacity="0.50"/><rect x="109" y="250" width="6" height="9" fill="#5f7794" opacity="0.49"/><rect x="-12" y="282" width="6" height="9" fill="#5f7794" opacity="0.59"/><rect x="18" y="282" width="6" height="9" fill="#5f7794" opacity="0.48"/><rect x="79" y="282" width="6" height="9" fill="#5f7794" opacity="0.49"/><rect x="109" y="282" width="6" height="9" fill="#5f7794" opacity="0.48"/><rect x="18" y="314" width="6" height="9" fill="#5f7794" opacity="0.50"/><rect x="49" y="314" width="6" height="9" fill="#5f7794" opacity="0.49"/><rect x="-12" y="346" width="6" height="9" fill="#5f7794" opacity="0.50"/><rect x="18" y="346" width="6" height="9" fill="#5f7794" opacity="0.49"/><rect x="49" y="346" width="6" height="9" fill="#5f7794" opacity="0.48"/><rect x="79" y="346" width="6" height="9" fill="#5f7794" opacity="0.40"/><rect x="109" y="346" width="6" height="9" fill="#5f7794" opacity="0.57"/><rect x="49" y="377" width="6" height="9" fill="#5f7794" opacity="0.40"/><rect x="-12" y="409" width="6" height="9" fill="#5f7794" opacity="0.48"/><rect x="79" y="409" width="6" height="9" fill="#5f7794" opacity="0.59"/><rect x="109" y="409" width="6" height="9" fill="#5f7794" opacity="0.67"/><rect x="18" y="441" width="6" height="9" fill="#5f7794" opacity="0.57"/><rect x="49" y="441" width="6" height="9" fill="#5f7794" opacity="0.59"/><rect x="79" y="473" width="6" height="9" fill="#5f7794" opacity="0.71"/><rect x="109" y="473" width="6" height="9" fill="#5f7794" opacity="0.54"/><rect x="139" y="473" width="6" height="9" fill="#5f7794" opacity="0.80"/><rect x="-12" y="504" width="6" height="9" fill="#5f7794" opacity="0.59"/><rect x="18" y="504" width="6" height="9" fill="#5f7794" opacity="0.67"/><rect x="49" y="504" width="6" height="9" fill="#5f7794" opacity="0.71"/><rect x="109" y="504" width="6" height="9" fill="#5f7794" opacity="0.80"/><rect x="18" y="536" width="6" height="9" fill="#5f7794" opacity="0.71"/><rect x="49" y="536" width="6" height="9" fill="#5f7794" opacity="0.54"/><rect x="109" y="536" width="6" height="9" fill="#5f7794" opacity="0.76"/><rect x="156" y="397" width="131" height="503" fill="#171e2e" opacity="0.92"/><rect x="190" y="409" width="6" height="9" fill="#5f7794" opacity="0.58"/><rect x="216" y="409" width="6" height="9" fill="#5f7794" opacity="0.59"/><rect x="269" y="409" width="6" height="9" fill="#5f7794" opacity="0.50"/><rect x="164" y="440" width="6" height="9" fill="#5f7794" opacity="0.58"/><rect x="269" y="440" width="6" height="9" fill="#5f7794" opacity="0.49"/><rect x="164" y="472" width="6" height="9" fill="#5f7794" opacity="0.59"/><rect x="243" y="472" width="6" height="9" fill="#5f7794" opacity="0.49"/><rect x="269" y="472" width="6" height="9" fill="#5f7794" opacity="0.48"/><rect x="164" y="504" width="6" height="9" fill="#5f7794" opacity="0.48"/><rect x="190" y="504" width="6" height="9" fill="#5f7794" opacity="0.50"/><rect x="243" y="504" width="6" height="9" fill="#5f7794" opacity="0.48"/><rect x="269" y="504" width="6" height="9" fill="#5f7794" opacity="0.40"/><rect x="190" y="536" width="6" height="9" fill="#5f7794" opacity="0.49"/><rect x="243" y="536" width="6" height="9" fill="#5f7794" opacity="0.40"/><rect x="281" y="178" width="131" height="722" fill="#33415c" opacity="0.92"/><rect x="315" y="190" width="6" height="9" fill="#5f7794" opacity="0.58"/><rect x="368" y="190" width="6" height="9" fill="#5f7794" opacity="0.48"/><rect x="342" y="222" width="6" height="9" fill="#5f7794" opacity="0.48"/><rect x="289" y="253" width="6" height="9" fill="#5f7794" opacity="0.59"/><rect x="315" y="253" width="6" height="9" fill="#5f7794" opacity="0.48"/><rect x="342" y="253" width="6" height="9" fill="#5f7794" opacity="0.50"/><rect x="368" y="253" width="6" height="9" fill="#5f7794" opacity="0.49"/><rect x="342" y="285" width="6" height="9" fill="#5f7794" opacity="0.49"/><rect x="368" y="285" width="6" height="9" fill="#5f7794" opacity="0.48"/><rect x="394" y="285" width="6" height="9" fill="#5f7794" opacity="0.40"/><rect x="289" y="316" width="6" height="9" fill="#5f7794" opacity="0.50"/><rect x="315" y="316" width="6" height="9" fill="#5f7794" opacity="0.49"/><rect x="342" y="316" width="6" height="9" fill="#5f7794" opacity="0.48"/><rect x="368" y="316" width="6" height="9" fill="#5f7794" opacity="0.40"/><rect x="289" y="348" width="6" height="9" fill="#5f7794" opacity="0.49"/><rect x="289" y="379" width="6" height="9" fill="#5f7794" opacity="0.48"/><rect x="368" y="379" width="6" height="9" fill="#5f7794" opacity="0.59"/><rect x="394" y="379" width="6" height="9" fill="#5f7794" opacity="0.67"/><rect x="315" y="442" width="6" height="9" fill="#5f7794" opacity="0.59"/><rect x="289" y="474" width="6" height="9" fill="#5f7794" opacity="0.59"/><rect x="289" y="505" width="6" height="9" fill="#5f7794" opacity="0.67"/><rect x="315" y="505" width="6" height="9" fill="#5f7794" opacity="0.71"/><rect x="342" y="505" width="6" height="9" fill="#5f7794" opacity="0.54"/><rect x="368" y="505" width="6" height="9" fill="#5f7794" opacity="0.80"/><rect x="394" y="537" width="6" height="9" fill="#5f7794" opacity="0.45"/><rect x="407" y="209" width="156" height="691" fill="#171e2e" opacity="0.92"/><rect x="415" y="221" width="6" height="9" fill="#5f7794" opacity="0.72"/><rect x="441" y="221" width="6" height="9" fill="#5f7794" opacity="0.58"/><rect x="467" y="221" width="6" height="9" fill="#5f7794" opacity="0.59"/><rect x="493" y="221" width="6" height="9" fill="#5f7794" opacity="0.48"/><rect x="545" y="221" width="6" height="9" fill="#5f7794" opacity="0.49"/><rect x="519" y="252" width="6" height="9" fill="#5f7794" opacity="0.49"/><rect x="545" y="252" width="6" height="9" fill="#5f7794" opacity="0.48"/><rect x="415" y="284" width="6" height="9" fill="#5f7794" opacity="0.59"/><rect x="467" y="284" width="6" height="9" fill="#5f7794" opacity="0.50"/><rect x="415" y="316" width="6" height="9" fill="#5f7794" opacity="0.48"/><rect x="467" y="316" width="6" height="9" fill="#5f7794" opacity="0.49"/><rect x="415" y="347" width="6" height="9" fill="#5f7794" opacity="0.50"/><rect x="441" y="347" width="6" height="9" fill="#5f7794" opacity="0.49"/><rect x="519" y="347" width="6" height="9" fill="#5f7794" opacity="0.57"/><rect x="441" y="379" width="6" height="9" fill="#5f7794" opacity="0.48"/><rect x="467" y="379" width="6" height="9" fill="#5f7794" opacity="0.40"/><rect x="493" y="379" width="6" height="9" fill="#5f7794" opacity="0.57"/><rect x="545" y="379" width="6" height="9" fill="#5f7794" opacity="0.67"/><rect x="415" y="410" width="6" height="9" fill="#5f7794" opacity="0.48"/><rect x="493" y="410" width="6" height="9" fill="#5f7794" opacity="0.59"/><rect x="415" y="442" width="6" height="9" fill="#5f7794" opacity="0.40"/><rect x="467" y="442" width="6" height="9" fill="#5f7794" opacity="0.59"/><rect x="493" y="442" width="6" height="9" fill="#5f7794" opacity="0.67"/><rect x="519" y="442" width="6" height="9" fill="#5f7794" opacity="0.71"/><rect x="441" y="473" width="6" height="9" fill="#5f7794" opacity="0.59"/><rect x="493" y="473" width="6" height="9" fill="#5f7794" opacity="0.71"/><rect x="519" y="473" width="6" height="9" fill="#5f7794" opacity="0.54"/><rect x="545" y="473" width="6" height="9" fill="#5f7794" opacity="0.80"/><rect x="519" y="505" width="6" height="9" fill="#5f7794" opacity="0.80"/><rect x="415" y="537" width="6" height="9" fill="#5f7794" opacity="0.67"/><rect x="441" y="537" width="6" height="9" fill="#5f7794" opacity="0.71"/><rect x="557" y="374" width="145" height="526" fill="#33415c" opacity="0.92"/><rect x="565" y="386" width="6" height="9" fill="#5f7794" opacity="0.72"/><rect x="594" y="386" width="6" height="9" fill="#5f7794" opacity="0.58"/><rect x="565" y="416" width="6" height="9" fill="#5f7794" opacity="0.58"/><rect x="623" y="416" width="6" height="9" fill="#5f7794" opacity="0.48"/><rect x="565" y="447" width="6" height="9" fill="#5f7794" opacity="0.59"/><rect x="594" y="447" width="6" height="9" fill="#5f7794" opacity="0.48"/><rect x="652" y="447" width="6" height="9" fill="#5f7794" opacity="0.49"/><rect x="681" y="447" width="6" height="9" fill="#5f7794" opacity="0.48"/><rect x="623" y="477" width="6" height="9" fill="#5f7794" opacity="0.49"/><rect x="681" y="477" width="6" height="9" fill="#5f7794" opacity="0.40"/><rect x="565" y="507" width="6" height="9" fill="#5f7794" opacity="0.50"/><rect x="623" y="507" width="6" height="9" fill="#5f7794" opacity="0.48"/><rect x="652" y="507" width="6" height="9" fill="#5f7794" opacity="0.40"/><rect x="681" y="507" width="6" height="9" fill="#5f7794" opacity="0.57"/><rect x="623" y="538" width="6" height="9" fill="#5f7794" opacity="0.40"/><rect x="696" y="342" width="125" height="558" fill="#171e2e" opacity="0.92"/><rect x="704" y="354" width="6" height="9" fill="#5f7794" opacity="0.72"/><rect x="735" y="354" width="6" height="9" fill="#5f7794" opacity="0.58"/><rect x="767" y="354" width="6" height="9" fill="#5f7794" opacity="0.59"/><rect x="704" y="385" width="6" height="9" fill="#5f7794" opacity="0.58"/><rect x="704" y="415" width="6" height="9" fill="#5f7794" opacity="0.59"/><rect x="735" y="415" width="6" height="9" fill="#5f7794" opacity="0.48"/><rect x="767" y="415" width="6" height="9" fill="#5f7794" opacity="0.50"/><rect x="798" y="415" width="6" height="9" fill="#5f7794" opacity="0.49"/><rect x="704" y="446" width="6" height="9" fill="#5f7794" opacity="0.48"/><rect x="735" y="446" width="6" height="9" fill="#5f7794" opacity="0.50"/><rect x="798" y="446" width="6" height="9" fill="#5f7794" opacity="0.48"/><rect x="704" y="476" width="6" height="9" fill="#5f7794" opacity="0.50"/><rect x="767" y="476" width="6" height="9" fill="#5f7794" opacity="0.48"/><rect x="798" y="507" width="6" height="9" fill="#5f7794" opacity="0.57"/><rect x="704" y="538" width="6" height="9" fill="#5f7794" opacity="0.48"/><rect x="735" y="538" width="6" height="9" fill="#5f7794" opacity="0.40"/><rect x="815" y="218" width="135" height="682" fill="#33415c" opacity="0.92"/><rect x="904" y="230" width="6" height="9" fill="#5f7794" opacity="0.48"/><rect x="850" y="260" width="6" height="9" fill="#5f7794" opacity="0.59"/><rect x="931" y="260" width="6" height="9" fill="#5f7794" opacity="0.49"/><rect x="850" y="291" width="6" height="9" fill="#5f7794" opacity="0.48"/><rect x="877" y="291" width="6" height="9" fill="#5f7794" opacity="0.50"/><rect x="904" y="291" width="6" height="9" fill="#5f7794" opacity="0.49"/><rect x="823" y="322" width="6" height="9" fill="#5f7794" opacity="0.48"/><rect x="877" y="322" width="6" height="9" fill="#5f7794" opacity="0.49"/><rect x="931" y="322" width="6" height="9" fill="#5f7794" opacity="0.40"/><rect x="823" y="353" width="6" height="9" fill="#5f7794" opacity="0.50"/><rect x="850" y="353" width="6" height="9" fill="#5f7794" opacity="0.49"/><rect x="904" y="353" width="6" height="9" fill="#5f7794" opacity="0.40"/><rect x="931" y="353" width="6" height="9" fill="#5f7794" opacity="0.57"/><rect x="823" y="384" width="6" height="9" fill="#5f7794" opacity="0.49"/><rect x="877" y="384" width="6" height="9" fill="#5f7794" opacity="0.40"/><rect x="904" y="384" width="6" height="9" fill="#5f7794" opacity="0.57"/><rect x="850" y="414" width="6" height="9" fill="#5f7794" opacity="0.40"/><rect x="877" y="414" width="6" height="9" fill="#5f7794" opacity="0.57"/><rect x="904" y="414" width="6" height="9" fill="#5f7794" opacity="0.59"/><rect x="850" y="445" width="6" height="9" fill="#5f7794" opacity="0.57"/><rect x="877" y="445" width="6" height="9" fill="#5f7794" opacity="0.59"/><rect x="823" y="476" width="6" height="9" fill="#5f7794" opacity="0.57"/><rect x="850" y="476" width="6" height="9" fill="#5f7794" opacity="0.59"/><rect x="904" y="476" width="6" height="9" fill="#5f7794" opacity="0.71"/><rect x="823" y="507" width="6" height="9" fill="#5f7794" opacity="0.59"/><rect x="850" y="507" width="6" height="9" fill="#5f7794" opacity="0.67"/><rect x="904" y="507" width="6" height="9" fill="#5f7794" opacity="0.54"/><rect x="904" y="537" width="6" height="9" fill="#5f7794" opacity="0.80"/><rect x="944" y="162" width="181" height="738" fill="#171e2e" opacity="0.92"/><rect x="1043" y="174" width="6" height="9" fill="#5f7794" opacity="0.48"/><rect x="1103" y="174" width="6" height="9" fill="#5f7794" opacity="0.49"/><rect x="1013" y="204" width="6" height="9" fill="#5f7794" opacity="0.48"/><rect x="1043" y="204" width="6" height="9" fill="#5f7794" opacity="0.50"/><rect x="1073" y="204" width="6" height="9" fill="#5f7794" opacity="0.49"/><rect x="982" y="234" width="6" height="9" fill="#5f7794" opacity="0.48"/><rect x="1013" y="234" width="6" height="9" fill="#5f7794" opacity="0.50"/><rect x="1073" y="234" width="6" height="9" fill="#5f7794" opacity="0.48"/><rect x="1103" y="234" width="6" height="9" fill="#5f7794" opacity="0.40"/><rect x="952" y="265" width="6" height="9" fill="#5f7794" opacity="0.48"/><rect x="982" y="265" width="6" height="9" fill="#5f7794" opacity="0.50"/><rect x="1013" y="265" width="6" height="9" fill="#5f7794" opacity="0.49"/><rect x="1103" y="265" width="6" height="9" fill="#5f7794" opacity="0.57"/><rect x="1073" y="295" width="6" height="9" fill="#5f7794" opacity="0.57"/><rect x="1103" y="295" width="6" height="9" fill="#5f7794" opacity="0.59"/><rect x="982" y="325" width="6" height="9" fill="#5f7794" opacity="0.48"/><rect x="1043" y="325" width="6" height="9" fill="#5f7794" opacity="0.57"/><rect x="1103" y="325" width="6" height="9" fill="#5f7794" opacity="0.67"/><rect x="952" y="356" width="6" height="9" fill="#5f7794" opacity="0.48"/><rect x="982" y="356" width="6" height="9" fill="#5f7794" opacity="0.40"/><rect x="1013" y="356" width="6" height="9" fill="#5f7794" opacity="0.57"/><rect x="1043" y="356" width="6" height="9" fill="#5f7794" opacity="0.59"/><rect x="1073" y="356" width="6" height="9" fill="#5f7794" opacity="0.67"/><rect x="1043" y="386" width="6" height="9" fill="#5f7794" opacity="0.67"/><rect x="952" y="416" width="6" height="9" fill="#5f7794" opacity="0.57"/><rect x="982" y="416" width="6" height="9" fill="#5f7794" opacity="0.59"/><rect x="1013" y="416" width="6" height="9" fill="#5f7794" opacity="0.67"/><rect x="1043" y="416" width="6" height="9" fill="#5f7794" opacity="0.71"/><rect x="1103" y="416" width="6" height="9" fill="#5f7794" opacity="0.80"/><rect x="982" y="447" width="6" height="9" fill="#5f7794" opacity="0.67"/><rect x="1013" y="447" width="6" height="9" fill="#5f7794" opacity="0.71"/><rect x="1043" y="447" width="6" height="9" fill="#5f7794" opacity="0.54"/><rect x="1103" y="477" width="6" height="9" fill="#5f7794" opacity="0.45"/><rect x="952" y="507" width="6" height="9" fill="#5f7794" opacity="0.71"/><rect x="1043" y="507" width="6" height="9" fill="#5f7794" opacity="0.76"/><rect x="982" y="538" width="6" height="9" fill="#5f7794" opacity="0.80"/><rect x="1013" y="538" width="6" height="9" fill="#5f7794" opacity="0.76"/><rect x="1043" y="538" width="6" height="9" fill="#5f7794" opacity="0.45"/><rect x="1073" y="538" width="6" height="9" fill="#5f7794" opacity="0.63"/><rect x="1103" y="538" width="6" height="9" fill="#5f7794" opacity="0.48"/><rect x="0" y="556.0900131802628" width="1200" height="343.90998681973724" fill="url(#water)" opacity="0.25"/>
<rect width="1200" height="900" fill="url(#vig)"/>
<text x="48" y="846" font-family="Georgia, serif" font-size="46" fill="#fff" opacity="0.92" letter-spacing="-1">The Marylebone Penthouse</text>
<text x="50" y="804" font-family="Georgia, serif" font-size="20" fill="#c9a24b" opacity="0.9" letter-spacing="3">KASSORA</text>
</svg>