<svg xmlns="http://www.w3.org/2000/svg" width="1200" height="900" viewBox="0 0 1200 900">
<defs>
<linearGradient id="sky" x1="0" y1="0" x2="0" y2="1">
<stop offset="0" stop-color="#bcd3d0"/><stop offset="0.55" stop-color="#7fa8a3"/><stop offset="1" stop-color="#152827"/>
</linearGradient>
<radialGradient id="sun" cx="0.5" cy="0.5" r="0.5">
<stop offset="0" stop-color="#fff" stop-opacity="0.95"/><stop offset="0.4" stop-color="#7fa8a3" stop-opacity="0.7"/><stop offset="1" stop-color="#7fa8a3" stop-opacity="0"/>
</radialGradient>
<linearGradient id="water" x1="0" y1="0" x2="0" y2="1">
<stop offset="0" stop-color="#fff" stop-opacity="0.5"/><stop offset="1" stop-color="#fff" stop-opacity="0"/>
</linearGradient>
<linearGradient id="vig" x1="0" y1="0" x2="0" y2="1">
<stop offset="0" stop-color="#000" stop-opacity="0"/><stop offset="1" stop-color="#000" stop-opacity="0.45"/>
</linearGradient>
</defs>
<rect width="1200" height="900" fill="url(#sky)"/>
<circle cx="876" cy="297" r="108" fill="url(#sun)" opacity="0.9"/><rect x="-20" y="158" width="176" height="742" fill="#3d5d5c" opacity="0.92"/><rect x="-12" y="170" width="6" height="9" fill="#7fa8a3" opacity="0.79"/><rect x="17" y="170" width="6" height="9" fill="#7fa8a3" opacity="0.72"/><rect x="47" y="170" width="6" height="9" fill="#7fa8a3" opacity="0.58"/><rect x="76" y="170" width="6" height="9" fill="#7fa8a3" opacity="0.59"/><rect x="-12" y="201" width="6" height="9" fill="#7fa8a3" opacity="0.72"/><rect x="17" y="201" width="6" height="9" fill="#7fa8a3" opacity="0.58"/><rect x="47" y="201" width="6" height="9" fill="#7fa8a3" opacity="0.59"/><rect x="105" y="201" width="6" height="9" fill="#7fa8a3" opacity="0.50"/><rect x="134" y="201" width="6" height="9" fill="#7fa8a3" opacity="0.49"/><rect x="-12" y="231" width="6" height="9" fill="#7fa8a3" opacity="0.58"/><rect x="17" y="231" width="6" height="9" fill="#7fa8a3" opacity="0.59"/><rect x="47" y="231" width="6" height="9" fill="#7fa8a3" opacity="0.48"/><rect x="105" y="231" width="6" height="9" fill="#7fa8a3" opacity="0.49"/><rect x="134" y="231" width="6" height="9" fill="#7fa8a3" opacity="0.48"/><rect x="47" y="262" width="6" height="9" fill="#7fa8a3" opacity="0.50"/><rect x="76" y="262" width="6" height="9" fill="#7fa8a3" opacity="0.49"/><rect x="17" y="292" width="6" height="9" fill="#7fa8a3" opacity="0.50"/><rect x="47" y="292" width="6" height="9" fill="#7fa8a3" opacity="0.49"/><rect x="76" y="292" width="6" height="9" fill="#7fa8a3" opacity="0.48"/><rect x="105" y="292" width="6" height="9" fill="#7fa8a3" opacity="0.40"/><rect x="134" y="292" width="6" height="9" fill="#7fa8a3" opacity="0.57"/><rect x="-12" y="323" width="6" height="9" fill="#7fa8a3" opacity="0.50"/><rect x="76" y="323" width="6" height="9" fill="#7fa8a3" opacity="0.40"/><rect x="-12" y="353" width="6" height="9" fill="#7fa8a3" opacity="0.49"/><rect x="17" y="353" width="6" height="9" fill="#7fa8a3" opacity="0.48"/><rect x="105" y="353" width="6" height="9" fill="#7fa8a3" opacity="0.59"/><rect x="134" y="353" width="6" height="9" fill="#7fa8a3" opacity="0.67"/><rect x="-12" y="384" width="6" height="9" fill="#7fa8a3" opacity="0.48"/><rect x="47" y="384" width="6" height="9" fill="#7fa8a3" opacity="0.57"/><rect x="76" y="384" width="6" height="9" fill="#7fa8a3" opacity="0.59"/><rect x="-12" y="414" width="6" height="9" fill="#7fa8a3" opacity="0.40"/><rect x="105" y="414" width="6" height="9" fill="#7fa8a3" opacity="0.71"/><rect x="134" y="414" width="6" height="9" fill="#7fa8a3" opacity="0.54"/><rect x="-12" y="445" width="6" height="9" fill="#7fa8a3" opacity="0.57"/><rect x="17" y="445" width="6" height="9" fill="#7fa8a3" opacity="0.59"/><rect x="47" y="445" width="6" height="9" fill="#7fa8a3" opacity="0.67"/><rect x="76" y="445" width="6" height="9" fill="#7fa8a3" opacity="0.71"/><rect x="134" y="445" width="6" height="9" fill="#7fa8a3" opacity="0.80"/><rect x="-12" y="475" width="6" height="9" fill="#7fa8a3" opacity="0.59"/><rect x="47" y="475" width="6" height="9" fill="#7fa8a3" opacity="0.71"/><rect x="76" y="475" width="6" height="9" fill="#7fa8a3" opacity="0.54"/><rect x="134" y="475" width="6" height="9" fill="#7fa8a3" opacity="0.76"/><rect x="17" y="506" width="6" height="9" fill="#7fa8a3" opacity="0.71"/><rect x="134" y="506" width="6" height="9" fill="#7fa8a3" opacity="0.45"/><rect x="-12" y="536" width="6" height="9" fill="#7fa8a3" opacity="0.71"/><rect x="17" y="536" width="6" height="9" fill="#7fa8a3" opacity="0.54"/><rect x="105" y="536" width="6" height="9" fill="#7fa8a3" opacity="0.45"/><rect x="134" y="536" width="6" height="9" fill="#7fa8a3" opacity="0.63"/><rect x="150" y="352" width="138" height="548" fill="#152827" opacity="0.92"/><rect x="158" y="364" width="6" height="9" fill="#7fa8a3" opacity="0.79"/><rect x="213" y="364" width="6" height="9" fill="#7fa8a3" opacity="0.58"/><rect x="240" y="364" width="6" height="9" fill="#7fa8a3" opacity="0.59"/><rect x="185" y="398" width="6" height="9" fill="#7fa8a3" opacity="0.58"/><rect x="158" y="431" width="6" height="9" fill="#7fa8a3" opacity="0.58"/><rect x="185" y="431" width="6" height="9" fill="#7fa8a3" opacity="0.59"/><rect x="268" y="431" width="6" height="9" fill="#7fa8a3" opacity="0.49"/><rect x="158" y="465" width="6" height="9" fill="#7fa8a3" opacity="0.59"/><rect x="185" y="465" width="6" height="9" fill="#7fa8a3" opacity="0.48"/><rect x="213" y="465" width="6" height="9" fill="#7fa8a3" opacity="0.50"/><rect x="268" y="465" width="6" height="9" fill="#7fa8a3" opacity="0.48"/><rect x="158" y="499" width="6" height="9" fill="#7fa8a3" opacity="0.48"/><rect x="213" y="499" width="6" height="9" fill="#7fa8a3" opacity="0.49"/><rect x="268" y="499" width="6" height="9" fill="#7fa8a3" opacity="0.40"/><rect x="281" y="155" width="119" height="745" fill="#3d5d5c" opacity="0.92"/><rect x="289" y="167" width="6" height="9" fill="#7fa8a3" opacity="0.79"/><rect x="349" y="167" width="6" height="9" fill="#7fa8a3" opacity="0.58"/><rect x="289" y="198" width="6" height="9" fill="#7fa8a3" opacity="0.72"/><rect x="379" y="198" width="6" height="9" fill="#7fa8a3" opacity="0.48"/><rect x="289" y="229" width="6" height="9" fill="#7fa8a3" opacity="0.58"/><rect x="319" y="229" width="6" height="9" fill="#7fa8a3" opacity="0.59"/><rect x="349" y="229" width="6" height="9" fill="#7fa8a3" opacity="0.48"/><rect x="379" y="229" width="6" height="9" fill="#7fa8a3" opacity="0.50"/><rect x="379" y="259" width="6" height="9" fill="#7fa8a3" opacity="0.49"/><rect x="289" y="290" width="6" height="9" fill="#7fa8a3" opacity="0.48"/><rect x="319" y="290" width="6" height="9" fill="#7fa8a3" opacity="0.50"/><rect x="349" y="290" width="6" height="9" fill="#7fa8a3" opacity="0.49"/><rect x="379" y="290" width="6" height="9" fill="#7fa8a3" opacity="0.48"/><rect x="289" y="321" width="6" height="9" fill="#7fa8a3" opacity="0.50"/><rect x="319" y="321" width="6" height="9" fill="#7fa8a3" opacity="0.49"/><rect x="319" y="352" width="6" height="9" fill="#7fa8a3" opacity="0.48"/><rect x="289" y="382" width="6" height="9" fill="#7fa8a3" opacity="0.48"/><rect x="289" y="413" width="6" height="9" fill="#7fa8a3" opacity="0.40"/><rect x="349" y="413" width="6" height="9" fill="#7fa8a3" opacity="0.59"/><rect x="289" y="444" width="6" height="9" fill="#7fa8a3" opacity="0.57"/><rect x="319" y="444" width="6" height="9" fill="#7fa8a3" opacity="0.59"/><rect x="289" y="474" width="6" height="9" fill="#7fa8a3" opacity="0.59"/><rect x="319" y="474" width="6" height="9" fill="#7fa8a3" opacity="0.67"/><rect x="349" y="474" width="6" height="9" fill="#7fa8a3" opacity="0.71"/><rect x="379" y="474" width="6" height="9" fill="#7fa8a3" opacity="0.54"/><rect x="289" y="536" width="6" height="9" fill="#7fa8a3" opacity="0.71"/><rect x="319" y="536" width="6" height="9" fill="#7fa8a3" opacity="0.54"/><rect x="379" y="536" width="6" height="9" fill="#7fa8a3" opacity="0.76"/><rect x="394" y="184" width="135" height="716" fill="#152827" opacity="0.92"/><rect x="402" y="196" width="6" height="9" fill="#7fa8a3" opacity="0.79"/><rect x="429" y="196" width="6" height="9" fill="#7fa8a3" opacity="0.72"/><rect x="456" y="196" width="6" height="9" fill="#7fa8a3" opacity="0.58"/><rect x="484" y="196" width="6" height="9" fill="#7fa8a3" opacity="0.59"/><rect x="511" y="196" width="6" height="9" fill="#7fa8a3" opacity="0.48"/><rect x="402" y="258" width="6" height="9" fill="#7fa8a3" opacity="0.58"/><rect x="429" y="258" width="6" height="9" fill="#7fa8a3" opacity="0.59"/><rect x="484" y="258" width="6" height="9" fill="#7fa8a3" opacity="0.50"/><rect x="402" y="288" width="6" height="9" fill="#7fa8a3" opacity="0.59"/><rect x="429" y="288" width="6" height="9" fill="#7fa8a3" opacity="0.48"/><rect x="484" y="288" width="6" height="9" fill="#7fa8a3" opacity="0.49"/><rect x="429" y="319" width="6" height="9" fill="#7fa8a3" opacity="0.50"/><rect x="456" y="319" width="6" height="9" fill="#7fa8a3" opacity="0.49"/><rect x="402" y="350" width="6" height="9" fill="#7fa8a3" opacity="0.50"/><rect x="456" y="350" width="6" height="9" fill="#7fa8a3" opacity="0.48"/><rect x="484" y="350" width="6" height="9" fill="#7fa8a3" opacity="0.40"/><rect x="511" y="350" width="6" height="9" fill="#7fa8a3" opacity="0.57"/><rect x="402" y="381" width="6" height="9" fill="#7fa8a3" opacity="0.49"/><rect x="429" y="381" width="6" height="9" fill="#7fa8a3" opacity="0.48"/><rect x="511" y="381" width="6" height="9" fill="#7fa8a3" opacity="0.59"/><rect x="429" y="412" width="6" height="9" fill="#7fa8a3" opacity="0.40"/><rect x="484" y="412" width="6" height="9" fill="#7fa8a3" opacity="0.59"/><rect x="511" y="412" width="6" height="9" fill="#7fa8a3" opacity="0.67"/><rect x="402" y="443" width="6" height="9" fill="#7fa8a3" opacity="0.40"/><rect x="456" y="443" width="6" height="9" fill="#7fa8a3" opacity="0.59"/><rect x="511" y="443" width="6" height="9" fill="#7fa8a3" opacity="0.71"/><rect x="402" y="474" width="6" height="9" fill="#7fa8a3" opacity="0.57"/><rect x="429" y="505" width="6" height="9" fill="#7fa8a3" opacity="0.67"/><rect x="456" y="505" width="6" height="9" fill="#7fa8a3" opacity="0.71"/><rect x="402" y="536" width="6" height="9" fill="#7fa8a3" opacity="0.67"/><rect x="429" y="536" width="6" height="9" fill="#7fa8a3" opacity="0.71"/><rect x="484" y="536" width="6" height="9" fill="#7fa8a3" opacity="0.80"/><rect x="524" y="264" width="161" height="636" fill="#3d5d5c" opacity="0.92"/><rect x="558" y="276" width="6" height="9" fill="#7fa8a3" opacity="0.72"/><rect x="585" y="276" width="6" height="9" fill="#7fa8a3" opacity="0.58"/><rect x="532" y="308" width="6" height="9" fill="#7fa8a3" opacity="0.72"/><rect x="558" y="308" width="6" height="9" fill="#7fa8a3" opacity="0.58"/><rect x="612" y="308" width="6" height="9" fill="#7fa8a3" opacity="0.48"/><rect x="532" y="341" width="6" height="9" fill="#7fa8a3" opacity="0.58"/><rect x="558" y="341" width="6" height="9" fill="#7fa8a3" opacity="0.59"/><rect x="585" y="341" width="6" height="9" fill="#7fa8a3" opacity="0.48"/><rect x="639" y="341" width="6" height="9" fill="#7fa8a3" opacity="0.49"/><rect x="666" y="341" width="6" height="9" fill="#7fa8a3" opacity="0.48"/><rect x="532" y="373" width="6" height="9" fill="#7fa8a3" opacity="0.59"/><rect x="612" y="373" width="6" height="9" fill="#7fa8a3" opacity="0.49"/><rect x="666" y="373" width="6" height="9" fill="#7fa8a3" opacity="0.40"/><rect x="532" y="405" width="6" height="9" fill="#7fa8a3" opacity="0.48"/><rect x="558" y="405" width="6" height="9" fill="#7fa8a3" opacity="0.50"/><rect x="612" y="405" width="6" height="9" fill="#7fa8a3" opacity="0.48"/><rect x="639" y="405" width="6" height="9" fill="#7fa8a3" opacity="0.40"/><rect x="666" y="405" width="6" height="9" fill="#7fa8a3" opacity="0.57"/><rect x="532" y="438" width="6" height="9" fill="#7fa8a3" opacity="0.50"/><rect x="612" y="438" width="6" height="9" fill="#7fa8a3" opacity="0.40"/><rect x="558" y="470" width="6" height="9" fill="#7fa8a3" opacity="0.48"/><rect x="612" y="470" width="6" height="9" fill="#7fa8a3" opacity="0.57"/><rect x="666" y="470" width="6" height="9" fill="#7fa8a3" opacity="0.67"/><rect x="585" y="502" width="6" height="9" fill="#7fa8a3" opacity="0.57"/><rect x="558" y="534" width="6" height="9" fill="#7fa8a3" opacity="0.57"/><rect x="612" y="534" width="6" height="9" fill="#7fa8a3" opacity="0.67"/><rect x="679" y="392" width="170" height="508" fill="#152827" opacity="0.92"/><rect x="715" y="404" width="6" height="9" fill="#7fa8a3" opacity="0.72"/><rect x="743" y="404" width="6" height="9" fill="#7fa8a3" opacity="0.58"/><rect x="772" y="404" width="6" height="9" fill="#7fa8a3" opacity="0.59"/><rect x="828" y="404" width="6" height="9" fill="#7fa8a3" opacity="0.50"/><rect x="687" y="436" width="6" height="9" fill="#7fa8a3" opacity="0.72"/><rect x="715" y="436" width="6" height="9" fill="#7fa8a3" opacity="0.58"/><rect x="687" y="469" width="6" height="9" fill="#7fa8a3" opacity="0.58"/><rect x="715" y="469" width="6" height="9" fill="#7fa8a3" opacity="0.59"/><rect x="743" y="469" width="6" height="9" fill="#7fa8a3" opacity="0.48"/><rect x="772" y="469" width="6" height="9" fill="#7fa8a3" opacity="0.50"/><rect x="800" y="469" width="6" height="9" fill="#7fa8a3" opacity="0.49"/><rect x="828" y="469" width="6" height="9" fill="#7fa8a3" opacity="0.48"/><rect x="687" y="502" width="6" height="9" fill="#7fa8a3" opacity="0.59"/><rect x="715" y="502" width="6" height="9" fill="#7fa8a3" opacity="0.48"/><rect x="743" y="502" width="6" height="9" fill="#7fa8a3" opacity="0.50"/><rect x="800" y="502" width="6" height="9" fill="#7fa8a3" opacity="0.48"/><rect x="687" y="534" width="6" height="9" fill="#7fa8a3" opacity="0.48"/><rect x="715" y="534" width="6" height="9" fill="#7fa8a3" opacity="0.50"/><rect x="772" y="534" width="6" height="9" fill="#7fa8a3" opacity="0.48"/><rect x="828" y="534" width="6" height="9" fill="#7fa8a3" opacity="0.57"/><rect x="843" y="128" width="118" height="772" fill="#3d5d5c" opacity="0.92"/><rect x="851" y="140" width="6" height="9" fill="#7fa8a3" opacity="0.79"/><rect x="910" y="170" width="6" height="9" fill="#7fa8a3" opacity="0.59"/><rect x="851" y="201" width="6" height="9" fill="#7fa8a3" opacity="0.58"/><rect x="910" y="201" width="6" height="9" fill="#7fa8a3" opacity="0.48"/><rect x="939" y="201" width="6" height="9" fill="#7fa8a3" opacity="0.50"/><rect x="851" y="231" width="6" height="9" fill="#7fa8a3" opacity="0.59"/><rect x="880" y="231" width="6" height="9" fill="#7fa8a3" opacity="0.48"/><rect x="939" y="231" width="6" height="9" fill="#7fa8a3" opacity="0.49"/><rect x="880" y="262" width="6" height="9" fill="#7fa8a3" opacity="0.50"/><rect x="910" y="262" width="6" height="9" fill="#7fa8a3" opacity="0.49"/><rect x="880" y="292" width="6" height="9" fill="#7fa8a3" opacity="0.49"/><rect x="939" y="292" width="6" height="9" fill="#7fa8a3" opacity="0.40"/><rect x="851" y="323" width="6" height="9" fill="#7fa8a3" opacity="0.49"/><rect x="910" y="323" width="6" height="9" fill="#7fa8a3" opacity="0.40"/><rect x="939" y="323" width="6" height="9" fill="#7fa8a3" opacity="0.57"/><rect x="910" y="353" width="6" height="9" fill="#7fa8a3" opacity="0.57"/><rect x="939" y="353" width="6" height="9" fill="#7fa8a3" opacity="0.59"/><rect x="880" y="384" width="6" height="9" fill="#7fa8a3" opacity="0.57"/><rect x="910" y="384" width="6" height="9" fill="#7fa8a3" opacity="0.59"/><rect x="851" y="414" width="6" height="9" fill="#7fa8a3" opacity="0.57"/><rect x="880" y="414" width="6" height="9" fill="#7fa8a3" opacity="0.59"/><rect x="910" y="414" width="6" height="9" fill="#7fa8a3" opacity="0.67"/><rect x="851" y="475" width="6" height="9" fill="#7fa8a3" opacity="0.67"/><rect x="939" y="475" width="6" height="9" fill="#7fa8a3" opacity="0.80"/><rect x="910" y="506" width="6" height="9" fill="#7fa8a3" opacity="0.80"/><rect x="939" y="506" width="6" height="9" fill="#7fa8a3" opacity="0.76"/><rect x="851" y="536" width="6" height="9" fill="#7fa8a3" opacity="0.54"/><rect x="880" y="536" width="6" height="9" fill="#7fa8a3" opacity="0.80"/><rect x="910" y="536" width="6" height="9" fill="#7fa8a3" opacity="0.76"/><rect x="939" y="536" width="6" height="9" fill="#7fa8a3" opacity="0.45"/><rect x="954" y="240" width="168" height="660" fill="#152827" opacity="0.92"/><rect x="1074" y="252" width="6" height="9" fill="#7fa8a3" opacity="0.48"/><rect x="962" y="283" width="6" height="9" fill="#7fa8a3" opacity="0.72"/><rect x="1046" y="283" width="6" height="9" fill="#7fa8a3" opacity="0.48"/><rect x="1074" y="283" width="6" height="9" fill="#7fa8a3" opacity="0.50"/><rect x="1102" y="283" width="6" height="9" fill="#7fa8a3" opacity="0.49"/><rect x="1018" y="315" width="6" height="9" fill="#7fa8a3" opacity="0.48"/><rect x="1046" y="315" width="6" height="9" fill="#7fa8a3" opacity="0.50"/><rect x="1102" y="315" width="6" height="9" fill="#7fa8a3" opacity="0.48"/><rect x="962" y="346" width="6" height="9" fill="#7fa8a3" opacity="0.59"/><rect x="990" y="346" width="6" height="9" fill="#7fa8a3" opacity="0.48"/><rect x="1018" y="346" width="6" height="9" fill="#7fa8a3" opacity="0.50"/><rect x="1046" y="346" width="6" height="9" fill="#7fa8a3" opacity="0.49"/><rect x="962" y="378" width="6" height="9" fill="#7fa8a3" opacity="0.48"/><rect x="1102" y="378" width="6" height="9" fill="#7fa8a3" opacity="0.57"/><rect x="1018" y="409" width="6" height="9" fill="#7fa8a3" opacity="0.48"/><rect x="1074" y="409" width="6" height="9" fill="#7fa8a3" opacity="0.57"/><rect x="962" y="441" width="6" height="9" fill="#7fa8a3" opacity="0.49"/><rect x="990" y="441" width="6" height="9" fill="#7fa8a3" opacity="0.48"/><rect x="1018" y="441" width="6" height="9" fill="#7fa8a3" opacity="0.40"/><rect x="1046" y="441" width="6" height="9" fill="#7fa8a3" opacity="0.57"/><rect x="1074" y="441" width="6" height="9" fill="#7fa8a3" opacity="0.59"/><rect x="1102" y="441" width="6" height="9" fill="#7fa8a3" opacity="0.67"/><rect x="962" y="472" width="6" height="9" fill="#7fa8a3" opacity="0.48"/><rect x="1074" y="472" width="6" height="9" fill="#7fa8a3" opacity="0.67"/><rect x="990" y="504" width="6" height="9" fill="#7fa8a3" opacity="0.57"/><rect x="1018" y="504" width="6" height="9" fill="#7fa8a3" opacity="0.59"/><rect x="1046" y="504" width="6" height="9" fill="#7fa8a3" opacity="0.67"/><rect x="1074" y="504" width="6" height="9" fill="#7fa8a3" opacity="0.71"/><rect x="962" y="535" width="6" height="9" fill="#7fa8a3" opacity="0.57"/><rect x="1018" y="535" width="6" height="9" fill="#7fa8a3" opacity="0.67"/><rect x="1046" y="535" width="6" height="9" fill="#7fa8a3" opacity="0.71"/><rect x="1074" y="535" width="6" height="9" fill="#7fa8a3" opacity="0.54"/><rect x="1116" y="347" width="178" height="553" fill="#3d5d5c" opacity="0.92"/><rect x="1124" y="393" width="6" height="9" fill="#7fa8a3" opacity="0.72"/><rect x="1154" y="393" width="6" height="9" fill="#7fa8a3" opacity="0.58"/><rect x="1243" y="393" width="6" height="9" fill="#7fa8a3" opacity="0.50"/><rect x="1184" y="428" width="6" height="9" fill="#7fa8a3" opacity="0.48"/><rect x="1213" y="428" width="6" height="9" fill="#7fa8a3" opacity="0.50"/><rect x="1243" y="428" width="6" height="9" fill="#7fa8a3" opacity="0.49"/><rect x="1273" y="428" width="6" height="9" fill="#7fa8a3" opacity="0.48"/><rect x="1154" y="463" width="6" height="9" fill="#7fa8a3" opacity="0.48"/><rect x="1213" y="463" width="6" height="9" fill="#7fa8a3" opacity="0.49"/><rect x="1184" y="497" width="6" height="9" fill="#7fa8a3" opacity="0.49"/><rect x="1213" y="497" width="6" height="9" fill="#7fa8a3" opacity="0.48"/><rect x="1273" y="497" width="6" height="9" fill="#7fa8a3" opacity="0.57"/><rect x="1213" y="532" width="6" height="9" fill="#7fa8a3" opacity="0.40"/><rect x="1273" y="532" width="6" height="9" fill="#7fa8a3" opacity="0.59"/><rect x="0" y="554.643846959887" width="1200" height="345.356153040113" fill="url(#water)" opacity="0.25"/>
<rect width="1200" height="900" fill="url(#vig)"/>
<text x="48" y="846" font-family="Georgia, serif" font-size="46" fill="#fff" opacity="0.92" letter-spacing="-1">Glasshouse on the Hill</text>
<text x="50" y="804" font-family="Georgia, serif" font-size="20" fill="#c9a24b" opacity="0.9" letter-spacing="3">KASSORA</text>
</svg>