<svg xmlns="http://www.w3.org/2000/svg" width="1200" height="900" viewBox="0 0 1200 900">
<defs>
<linearGradient id="sky" x1="0" y1="0" x2="0" y2="1">
<stop offset="0" stop-color="#bcd3d0"/><stop offset="0.55" stop-color="#7fa8a3"/><stop offset="1" stop-color="#152827"/>
</linearGradient>
<radialGradient id="sun" cx="0.5" cy="0.5" r="0.5">
<stop offset="0" stop-color="#fff" stop-opacity="0.95"/><stop offset="0.4" stop-color="#7fa8a3" stop-opacity="0.7"/><stop offset="1" stop-color="#7fa8a3" stop-opacity="0"/>
</radialGradient>
<linearGradient id="water" x1="0" y1="0" x2="0" y2="1">
<stop offset="0" stop-color="#fff" stop-opacity="0.5"/><stop offset="1" stop-color="#fff" stop-opacity="0"/>
</linearGradient>
<linearGradient id="vig" x1="0" y1="0" x2="0" y2="1">
<stop offset="0" stop-color="#000" stop-opacity="0"/><stop offset="1" stop-color="#000" stop-opacity="0.45"/>
</linearGradient>
</defs>
<rect width="1200" height="900" fill="url(#sky)"/>
<circle cx="421" cy="213" r="108" fill="url(#sun)" opacity="0.9"/><rect x="-20" y="351" width="117" height="549" fill="#3d5d5c" opacity="0.92"/><rect x="76" y="363" width="6" height="9" fill="#7fa8a3" opacity="0.59"/><rect x="-12" y="397" width="6" height="9" fill="#7fa8a3" opacity="0.40"/><rect x="76" y="397" width="6" height="9" fill="#7fa8a3" opacity="0.67"/><rect x="17" y="431" width="6" height="9" fill="#7fa8a3" opacity="0.59"/><rect x="-12" y="465" width="6" height="9" fill="#7fa8a3" opacity="0.59"/><rect x="17" y="465" width="6" height="9" fill="#7fa8a3" opacity="0.67"/><rect x="17" y="499" width="6" height="9" fill="#7fa8a3" opacity="0.71"/><rect x="46" y="499" width="6" height="9" fill="#7fa8a3" opacity="0.54"/><rect x="76" y="499" width="6" height="9" fill="#7fa8a3" opacity="0.80"/><rect x="-12" y="532" width="6" height="9" fill="#7fa8a3" opacity="0.71"/><rect x="17" y="532" width="6" height="9" fill="#7fa8a3" opacity="0.54"/><rect x="46" y="532" width="6" height="9" fill="#7fa8a3" opacity="0.80"/><rect x="76" y="532" width="6" height="9" fill="#7fa8a3" opacity="0.76"/><rect x="91" y="155" width="139" height="745" fill="#152827" opacity="0.92"/><rect x="127" y="167" width="6" height="9" fill="#7fa8a3" opacity="0.40"/><rect x="154" y="167" width="6" height="9" fill="#7fa8a3" opacity="0.57"/><rect x="210" y="167" width="6" height="9" fill="#7fa8a3" opacity="0.67"/><rect x="99" y="198" width="6" height="9" fill="#7fa8a3" opacity="0.40"/><rect x="154" y="198" width="6" height="9" fill="#7fa8a3" opacity="0.59"/><rect x="182" y="198" width="6" height="9" fill="#7fa8a3" opacity="0.67"/><rect x="210" y="198" width="6" height="9" fill="#7fa8a3" opacity="0.71"/><rect x="99" y="228" width="6" height="9" fill="#7fa8a3" opacity="0.57"/><rect x="154" y="228" width="6" height="9" fill="#7fa8a3" opacity="0.67"/><rect x="182" y="228" width="6" height="9" fill="#7fa8a3" opacity="0.71"/><rect x="210" y="228" width="6" height="9" fill="#7fa8a3" opacity="0.54"/><rect x="99" y="259" width="6" height="9" fill="#7fa8a3" opacity="0.59"/><rect x="127" y="259" width="6" height="9" fill="#7fa8a3" opacity="0.67"/><rect x="182" y="259" width="6" height="9" fill="#7fa8a3" opacity="0.54"/><rect x="154" y="290" width="6" height="9" fill="#7fa8a3" opacity="0.54"/><rect x="182" y="320" width="6" height="9" fill="#7fa8a3" opacity="0.76"/><rect x="210" y="320" width="6" height="9" fill="#7fa8a3" opacity="0.45"/><rect x="127" y="351" width="6" height="9" fill="#7fa8a3" opacity="0.80"/><rect x="154" y="351" width="6" height="9" fill="#7fa8a3" opacity="0.76"/><rect x="182" y="351" width="6" height="9" fill="#7fa8a3" opacity="0.45"/><rect x="99" y="382" width="6" height="9" fill="#7fa8a3" opacity="0.80"/><rect x="127" y="382" width="6" height="9" fill="#7fa8a3" opacity="0.76"/><rect x="182" y="382" width="6" height="9" fill="#7fa8a3" opacity="0.63"/><rect x="210" y="382" width="6" height="9" fill="#7fa8a3" opacity="0.48"/><rect x="154" y="413" width="6" height="9" fill="#7fa8a3" opacity="0.63"/><rect x="182" y="413" width="6" height="9" fill="#7fa8a3" opacity="0.48"/><rect x="99" y="443" width="6" height="9" fill="#7fa8a3" opacity="0.45"/><rect x="127" y="443" width="6" height="9" fill="#7fa8a3" opacity="0.63"/><rect x="154" y="443" width="6" height="9" fill="#7fa8a3" opacity="0.48"/><rect x="182" y="443" width="6" height="9" fill="#7fa8a3" opacity="0.49"/><rect x="127" y="474" width="6" height="9" fill="#7fa8a3" opacity="0.48"/><rect x="182" y="474" width="6" height="9" fill="#7fa8a3" opacity="0.59"/><rect x="99" y="505" width="6" height="9" fill="#7fa8a3" opacity="0.48"/><rect x="182" y="505" width="6" height="9" fill="#7fa8a3" opacity="0.75"/><rect x="210" y="505" width="6" height="9" fill="#7fa8a3" opacity="0.71"/><rect x="127" y="536" width="6" height="9" fill="#7fa8a3" opacity="0.59"/><rect x="224" y="183" width="129" height="717" fill="#3d5d5c" opacity="0.92"/><rect x="264" y="195" width="6" height="9" fill="#7fa8a3" opacity="0.40"/><rect x="328" y="195" width="6" height="9" fill="#7fa8a3" opacity="0.59"/><rect x="232" y="226" width="6" height="9" fill="#7fa8a3" opacity="0.40"/><rect x="328" y="226" width="6" height="9" fill="#7fa8a3" opacity="0.67"/><rect x="264" y="257" width="6" height="9" fill="#7fa8a3" opacity="0.59"/><rect x="232" y="288" width="6" height="9" fill="#7fa8a3" opacity="0.59"/><rect x="264" y="288" width="6" height="9" fill="#7fa8a3" opacity="0.67"/><rect x="296" y="288" width="6" height="9" fill="#7fa8a3" opacity="0.71"/><rect x="328" y="288" width="6" height="9" fill="#7fa8a3" opacity="0.54"/><rect x="232" y="319" width="6" height="9" fill="#7fa8a3" opacity="0.67"/><rect x="264" y="319" width="6" height="9" fill="#7fa8a3" opacity="0.71"/><rect x="328" y="319" width="6" height="9" fill="#7fa8a3" opacity="0.80"/><rect x="296" y="350" width="6" height="9" fill="#7fa8a3" opacity="0.80"/><rect x="232" y="381" width="6" height="9" fill="#7fa8a3" opacity="0.54"/><rect x="328" y="381" width="6" height="9" fill="#7fa8a3" opacity="0.45"/><rect x="296" y="412" width="6" height="9" fill="#7fa8a3" opacity="0.45"/><rect x="328" y="412" width="6" height="9" fill="#7fa8a3" opacity="0.63"/><rect x="232" y="443" width="6" height="9" fill="#7fa8a3" opacity="0.76"/><rect x="264" y="443" width="6" height="9" fill="#7fa8a3" opacity="0.45"/><rect x="328" y="443" width="6" height="9" fill="#7fa8a3" opacity="0.48"/><rect x="328" y="474" width="6" height="9" fill="#7fa8a3" opacity="0.49"/><rect x="264" y="504" width="6" height="9" fill="#7fa8a3" opacity="0.48"/><rect x="296" y="504" width="6" height="9" fill="#7fa8a3" opacity="0.49"/><rect x="232" y="535" width="6" height="9" fill="#7fa8a3" opacity="0.48"/><rect x="296" y="535" width="6" height="9" fill="#7fa8a3" opacity="0.59"/><rect x="328" y="535" width="6" height="9" fill="#7fa8a3" opacity="0.75"/><rect x="347" y="264" width="111" height="636" fill="#152827" opacity="0.92"/><rect x="383" y="276" width="6" height="9" fill="#7fa8a3" opacity="0.40"/><rect x="410" y="276" width="6" height="9" fill="#7fa8a3" opacity="0.57"/><rect x="355" y="308" width="6" height="9" fill="#7fa8a3" opacity="0.40"/><rect x="410" y="308" width="6" height="9" fill="#7fa8a3" opacity="0.59"/><rect x="438" y="308" width="6" height="9" fill="#7fa8a3" opacity="0.67"/><rect x="355" y="340" width="6" height="9" fill="#7fa8a3" opacity="0.57"/><rect x="383" y="340" width="6" height="9" fill="#7fa8a3" opacity="0.59"/><rect x="438" y="340" width="6" height="9" fill="#7fa8a3" opacity="0.71"/><rect x="383" y="373" width="6" height="9" fill="#7fa8a3" opacity="0.67"/><rect x="383" y="405" width="6" height="9" fill="#7fa8a3" opacity="0.71"/><rect x="438" y="405" width="6" height="9" fill="#7fa8a3" opacity="0.80"/><rect x="355" y="437" width="6" height="9" fill="#7fa8a3" opacity="0.71"/><rect x="410" y="437" width="6" height="9" fill="#7fa8a3" opacity="0.80"/><rect x="438" y="437" width="6" height="9" fill="#7fa8a3" opacity="0.76"/><rect x="383" y="469" width="6" height="9" fill="#7fa8a3" opacity="0.80"/><rect x="383" y="502" width="6" height="9" fill="#7fa8a3" opacity="0.76"/><rect x="410" y="502" width="6" height="9" fill="#7fa8a3" opacity="0.45"/><rect x="438" y="502" width="6" height="9" fill="#7fa8a3" opacity="0.63"/><rect x="355" y="534" width="6" height="9" fill="#7fa8a3" opacity="0.76"/><rect x="410" y="534" width="6" height="9" fill="#7fa8a3" opacity="0.63"/><rect x="438" y="534" width="6" height="9" fill="#7fa8a3" opacity="0.48"/><rect x="452" y="392" width="120" height="508" fill="#3d5d5c" opacity="0.92"/><rect x="550" y="404" width="6" height="9" fill="#7fa8a3" opacity="0.59"/><rect x="460" y="436" width="6" height="9" fill="#7fa8a3" opacity="0.40"/><rect x="490" y="436" width="6" height="9" fill="#7fa8a3" opacity="0.57"/><rect x="520" y="436" width="6" height="9" fill="#7fa8a3" opacity="0.59"/><rect x="550" y="436" width="6" height="9" fill="#7fa8a3" opacity="0.67"/><rect x="460" y="469" width="6" height="9" fill="#7fa8a3" opacity="0.57"/><rect x="490" y="469" width="6" height="9" fill="#7fa8a3" opacity="0.59"/><rect x="520" y="469" width="6" height="9" fill="#7fa8a3" opacity="0.67"/><rect x="550" y="469" width="6" height="9" fill="#7fa8a3" opacity="0.71"/><rect x="460" y="501" width="6" height="9" fill="#7fa8a3" opacity="0.59"/><rect x="550" y="501" width="6" height="9" fill="#7fa8a3" opacity="0.54"/><rect x="490" y="534" width="6" height="9" fill="#7fa8a3" opacity="0.71"/><rect x="520" y="534" width="6" height="9" fill="#7fa8a3" opacity="0.54"/><rect x="550" y="534" width="6" height="9" fill="#7fa8a3" opacity="0.80"/><rect x="566" y="127" width="161" height="773" fill="#152827" opacity="0.92"/><rect x="628" y="139" width="6" height="9" fill="#7fa8a3" opacity="0.57"/><rect x="655" y="139" width="6" height="9" fill="#7fa8a3" opacity="0.59"/><rect x="681" y="139" width="6" height="9" fill="#7fa8a3" opacity="0.67"/><rect x="655" y="170" width="6" height="9" fill="#7fa8a3" opacity="0.67"/><rect x="681" y="170" width="6" height="9" fill="#7fa8a3" opacity="0.71"/><rect x="708" y="170" width="6" height="9" fill="#7fa8a3" opacity="0.54"/><rect x="601" y="200" width="6" height="9" fill="#7fa8a3" opacity="0.59"/><rect x="628" y="200" width="6" height="9" fill="#7fa8a3" opacity="0.67"/><rect x="655" y="200" width="6" height="9" fill="#7fa8a3" opacity="0.71"/><rect x="681" y="200" width="6" height="9" fill="#7fa8a3" opacity="0.54"/><rect x="708" y="200" width="6" height="9" fill="#7fa8a3" opacity="0.80"/><rect x="574" y="231" width="6" height="9" fill="#7fa8a3" opacity="0.59"/><rect x="601" y="231" width="6" height="9" fill="#7fa8a3" opacity="0.67"/><rect x="628" y="231" width="6" height="9" fill="#7fa8a3" opacity="0.71"/><rect x="655" y="231" width="6" height="9" fill="#7fa8a3" opacity="0.54"/><rect x="681" y="231" width="6" height="9" fill="#7fa8a3" opacity="0.80"/><rect x="574" y="261" width="6" height="9" fill="#7fa8a3" opacity="0.67"/><rect x="601" y="261" width="6" height="9" fill="#7fa8a3" opacity="0.71"/><rect x="628" y="261" width="6" height="9" fill="#7fa8a3" opacity="0.54"/><rect x="655" y="261" width="6" height="9" fill="#7fa8a3" opacity="0.80"/><rect x="574" y="292" width="6" height="9" fill="#7fa8a3" opacity="0.71"/><rect x="601" y="292" width="6" height="9" fill="#7fa8a3" opacity="0.54"/><rect x="655" y="292" width="6" height="9" fill="#7fa8a3" opacity="0.76"/><rect x="681" y="292" width="6" height="9" fill="#7fa8a3" opacity="0.45"/><rect x="708" y="292" width="6" height="9" fill="#7fa8a3" opacity="0.63"/><rect x="628" y="322" width="6" height="9" fill="#7fa8a3" opacity="0.76"/><rect x="574" y="353" width="6" height="9" fill="#7fa8a3" opacity="0.80"/><rect x="655" y="353" width="6" height="9" fill="#7fa8a3" opacity="0.63"/><rect x="681" y="353" width="6" height="9" fill="#7fa8a3" opacity="0.48"/><rect x="574" y="383" width="6" height="9" fill="#7fa8a3" opacity="0.76"/><rect x="655" y="383" width="6" height="9" fill="#7fa8a3" opacity="0.48"/><rect x="574" y="414" width="6" height="9" fill="#7fa8a3" opacity="0.45"/><rect x="601" y="414" width="6" height="9" fill="#7fa8a3" opacity="0.63"/><rect x="655" y="414" width="6" height="9" fill="#7fa8a3" opacity="0.49"/><rect x="574" y="444" width="6" height="9" fill="#7fa8a3" opacity="0.63"/><rect x="628" y="444" width="6" height="9" fill="#7fa8a3" opacity="0.49"/><rect x="708" y="444" width="6" height="9" fill="#7fa8a3" opacity="0.71"/><rect x="574" y="475" width="6" height="9" fill="#7fa8a3" opacity="0.48"/><rect x="601" y="475" width="6" height="9" fill="#7fa8a3" opacity="0.49"/><rect x="655" y="475" width="6" height="9" fill="#7fa8a3" opacity="0.75"/><rect x="708" y="475" width="6" height="9" fill="#7fa8a3" opacity="0.43"/><rect x="574" y="505" width="6" height="9" fill="#7fa8a3" opacity="0.49"/><rect x="601" y="505" width="6" height="9" fill="#7fa8a3" opacity="0.59"/><rect x="655" y="505" width="6" height="9" fill="#7fa8a3" opacity="0.71"/><rect x="681" y="505" width="6" height="9" fill="#7fa8a3" opacity="0.43"/><rect x="601" y="536" width="6" height="9" fill="#7fa8a3" opacity="0.75"/><rect x="681" y="536" width="6" height="9" fill="#7fa8a3" opacity="0.80"/><rect x="708" y="536" width="6" height="9" fill="#7fa8a3" opacity="0.62"/><rect x="721" y="239" width="144" height="661" fill="#3d5d5c" opacity="0.92"/><rect x="729" y="251" width="6" height="9" fill="#7fa8a3" opacity="0.48"/><rect x="787" y="251" width="6" height="9" fill="#7fa8a3" opacity="0.57"/><rect x="729" y="283" width="6" height="9" fill="#7fa8a3" opacity="0.40"/><rect x="758" y="283" width="6" height="9" fill="#7fa8a3" opacity="0.57"/><rect x="816" y="283" width="6" height="9" fill="#7fa8a3" opacity="0.67"/><rect x="729" y="314" width="6" height="9" fill="#7fa8a3" opacity="0.57"/><rect x="758" y="314" width="6" height="9" fill="#7fa8a3" opacity="0.59"/><rect x="816" y="314" width="6" height="9" fill="#7fa8a3" opacity="0.71"/><rect x="844" y="314" width="6" height="9" fill="#7fa8a3" opacity="0.54"/><rect x="758" y="346" width="6" height="9" fill="#7fa8a3" opacity="0.67"/><rect x="844" y="346" width="6" height="9" fill="#7fa8a3" opacity="0.80"/><rect x="729" y="377" width="6" height="9" fill="#7fa8a3" opacity="0.67"/><rect x="758" y="377" width="6" height="9" fill="#7fa8a3" opacity="0.71"/><rect x="787" y="377" width="6" height="9" fill="#7fa8a3" opacity="0.54"/><rect x="844" y="377" width="6" height="9" fill="#7fa8a3" opacity="0.76"/><rect x="729" y="409" width="6" height="9" fill="#7fa8a3" opacity="0.71"/><rect x="758" y="409" width="6" height="9" fill="#7fa8a3" opacity="0.54"/><rect x="816" y="409" width="6" height="9" fill="#7fa8a3" opacity="0.76"/><rect x="729" y="440" width="6" height="9" fill="#7fa8a3" opacity="0.54"/><rect x="758" y="440" width="6" height="9" fill="#7fa8a3" opacity="0.80"/><rect x="787" y="440" width="6" height="9" fill="#7fa8a3" opacity="0.76"/><rect x="844" y="472" width="6" height="9" fill="#7fa8a3" opacity="0.48"/><rect x="729" y="503" width="6" height="9" fill="#7fa8a3" opacity="0.76"/><rect x="758" y="503" width="6" height="9" fill="#7fa8a3" opacity="0.45"/><rect x="816" y="503" width="6" height="9" fill="#7fa8a3" opacity="0.48"/><rect x="844" y="503" width="6" height="9" fill="#7fa8a3" opacity="0.49"/><rect x="787" y="535" width="6" height="9" fill="#7fa8a3" opacity="0.48"/><rect x="859" y="346" width="143" height="554" fill="#152827" opacity="0.92"/><rect x="867" y="358" width="6" height="9" fill="#7fa8a3" opacity="0.48"/><rect x="896" y="358" width="6" height="9" fill="#7fa8a3" opacity="0.40"/><rect x="953" y="358" width="6" height="9" fill="#7fa8a3" opacity="0.59"/><rect x="867" y="393" width="6" height="9" fill="#7fa8a3" opacity="0.40"/><rect x="896" y="393" width="6" height="9" fill="#7fa8a3" opacity="0.57"/><rect x="925" y="393" width="6" height="9" fill="#7fa8a3" opacity="0.59"/><rect x="896" y="428" width="6" height="9" fill="#7fa8a3" opacity="0.59"/><rect x="925" y="428" width="6" height="9" fill="#7fa8a3" opacity="0.67"/><rect x="953" y="428" width="6" height="9" fill="#7fa8a3" opacity="0.71"/><rect x="982" y="428" width="6" height="9" fill="#7fa8a3" opacity="0.54"/><rect x="867" y="462" width="6" height="9" fill="#7fa8a3" opacity="0.59"/><rect x="896" y="462" width="6" height="9" fill="#7fa8a3" opacity="0.67"/><rect x="925" y="462" width="6" height="9" fill="#7fa8a3" opacity="0.71"/><rect x="953" y="462" width="6" height="9" fill="#7fa8a3" opacity="0.54"/><rect x="867" y="497" width="6" height="9" fill="#7fa8a3" opacity="0.67"/><rect x="896" y="497" width="6" height="9" fill="#7fa8a3" opacity="0.71"/><rect x="925" y="497" width="6" height="9" fill="#7fa8a3" opacity="0.54"/><rect x="953" y="532" width="6" height="9" fill="#7fa8a3" opacity="0.76"/><rect x="982" y="532" width="6" height="9" fill="#7fa8a3" opacity="0.45"/><rect x="997" y="298" width="112" height="602" fill="#3d5d5c" opacity="0.92"/><rect x="1005" y="310" width="6" height="9" fill="#7fa8a3" opacity="0.48"/><rect x="1061" y="310" width="6" height="9" fill="#7fa8a3" opacity="0.57"/><rect x="1089" y="310" width="6" height="9" fill="#7fa8a3" opacity="0.59"/><rect x="1005" y="342" width="6" height="9" fill="#7fa8a3" opacity="0.40"/><rect x="1061" y="342" width="6" height="9" fill="#7fa8a3" opacity="0.59"/><rect x="1005" y="374" width="6" height="9" fill="#7fa8a3" opacity="0.57"/><rect x="1033" y="374" width="6" height="9" fill="#7fa8a3" opacity="0.59"/><rect x="1061" y="374" width="6" height="9" fill="#7fa8a3" opacity="0.67"/><rect x="1033" y="438" width="6" height="9" fill="#7fa8a3" opacity="0.71"/><rect x="1061" y="438" width="6" height="9" fill="#7fa8a3" opacity="0.54"/><rect x="1033" y="470" width="6" height="9" fill="#7fa8a3" opacity="0.54"/><rect x="1089" y="470" width="6" height="9" fill="#7fa8a3" opacity="0.76"/><rect x="1005" y="502" width="6" height="9" fill="#7fa8a3" opacity="0.54"/><rect x="1033" y="502" width="6" height="9" fill="#7fa8a3" opacity="0.80"/><rect x="1061" y="502" width="6" height="9" fill="#7fa8a3" opacity="0.76"/><rect x="1089" y="502" width="6" height="9" fill="#7fa8a3" opacity="0.45"/><rect x="1005" y="534" width="6" height="9" fill="#7fa8a3" opacity="0.80"/><rect x="1033" y="534" width="6" height="9" fill="#7fa8a3" opacity="0.76"/><rect x="1061" y="534" width="6" height="9" fill="#7fa8a3" opacity="0.45"/><rect x="0" y="554.2751817936951" width="1200" height="345.7248182063049" fill="url(#water)" opacity="0.25"/>
<rect width="1200" height="900" fill="url(#vig)"/>
<text x="48" y="846" font-family="Georgia, serif" font-size="46" fill="#fff" opacity="0.92" letter-spacing="-1">Glasshouse on the Hill</text>
<text x="50" y="804" font-family="Georgia, serif" font-size="20" fill="#c9a24b" opacity="0.9" letter-spacing="3">KASSORA</text>
</svg>