<svg xmlns="http://www.w3.org/2000/svg" width="1200" height="900" viewBox="0 0 1200 900">
<defs>
<linearGradient id="sky" x1="0" y1="0" x2="0" y2="1">
<stop offset="0" stop-color="#bcd3d0"/><stop offset="0.55" stop-color="#7fa8a3"/><stop offset="1" stop-color="#152827"/>
</linearGradient>
<radialGradient id="sun" cx="0.5" cy="0.5" r="0.5">
<stop offset="0" stop-color="#fff" stop-opacity="0.95"/><stop offset="0.4" stop-color="#7fa8a3" stop-opacity="0.7"/><stop offset="1" stop-color="#7fa8a3" stop-opacity="0"/>
</radialGradient>
<linearGradient id="water" x1="0" y1="0" x2="0" y2="1">
<stop offset="0" stop-color="#fff" stop-opacity="0.5"/><stop offset="1" stop-color="#fff" stop-opacity="0"/>
</linearGradient>
<linearGradient id="vig" x1="0" y1="0" x2="0" y2="1">
<stop offset="0" stop-color="#000" stop-opacity="0"/><stop offset="1" stop-color="#000" stop-opacity="0.45"/>
</linearGradient>
</defs>
<rect width="1200" height="900" fill="url(#sky)"/>
<circle cx="884" cy="309" r="108" fill="url(#sun)" opacity="0.9"/><rect x="-20" y="136" width="159" height="764" fill="#3d5d5c" opacity="0.92"/><rect x="-12" y="148" width="6" height="9" fill="#7fa8a3" opacity="0.80"/><rect x="15" y="148" width="6" height="9" fill="#7fa8a3" opacity="0.76"/><rect x="68" y="148" width="6" height="9" fill="#7fa8a3" opacity="0.63"/><rect x="-12" y="179" width="6" height="9" fill="#7fa8a3" opacity="0.76"/><rect x="15" y="179" width="6" height="9" fill="#7fa8a3" opacity="0.45"/><rect x="94" y="179" width="6" height="9" fill="#7fa8a3" opacity="0.49"/><rect x="68" y="210" width="6" height="9" fill="#7fa8a3" opacity="0.49"/><rect x="94" y="210" width="6" height="9" fill="#7fa8a3" opacity="0.59"/><rect x="-12" y="241" width="6" height="9" fill="#7fa8a3" opacity="0.63"/><rect x="15" y="241" width="6" height="9" fill="#7fa8a3" opacity="0.48"/><rect x="94" y="241" width="6" height="9" fill="#7fa8a3" opacity="0.75"/><rect x="121" y="241" width="6" height="9" fill="#7fa8a3" opacity="0.71"/><rect x="68" y="271" width="6" height="9" fill="#7fa8a3" opacity="0.75"/><rect x="94" y="271" width="6" height="9" fill="#7fa8a3" opacity="0.71"/><rect x="121" y="271" width="6" height="9" fill="#7fa8a3" opacity="0.43"/><rect x="-12" y="302" width="6" height="9" fill="#7fa8a3" opacity="0.49"/><rect x="15" y="302" width="6" height="9" fill="#7fa8a3" opacity="0.59"/><rect x="94" y="302" width="6" height="9" fill="#7fa8a3" opacity="0.43"/><rect x="68" y="333" width="6" height="9" fill="#7fa8a3" opacity="0.43"/><rect x="121" y="333" width="6" height="9" fill="#7fa8a3" opacity="0.62"/><rect x="-12" y="364" width="6" height="9" fill="#7fa8a3" opacity="0.75"/><rect x="15" y="364" width="6" height="9" fill="#7fa8a3" opacity="0.71"/><rect x="41" y="364" width="6" height="9" fill="#7fa8a3" opacity="0.43"/><rect x="68" y="364" width="6" height="9" fill="#7fa8a3" opacity="0.80"/><rect x="121" y="364" width="6" height="9" fill="#7fa8a3" opacity="0.47"/><rect x="15" y="394" width="6" height="9" fill="#7fa8a3" opacity="0.43"/><rect x="68" y="394" width="6" height="9" fill="#7fa8a3" opacity="0.62"/><rect x="94" y="394" width="6" height="9" fill="#7fa8a3" opacity="0.47"/><rect x="121" y="394" width="6" height="9" fill="#7fa8a3" opacity="0.49"/><rect x="15" y="425" width="6" height="9" fill="#7fa8a3" opacity="0.80"/><rect x="94" y="425" width="6" height="9" fill="#7fa8a3" opacity="0.49"/><rect x="121" y="425" width="6" height="9" fill="#7fa8a3" opacity="0.62"/><rect x="15" y="456" width="6" height="9" fill="#7fa8a3" opacity="0.62"/><rect x="41" y="456" width="6" height="9" fill="#7fa8a3" opacity="0.47"/><rect x="68" y="456" width="6" height="9" fill="#7fa8a3" opacity="0.49"/><rect x="121" y="456" width="6" height="9" fill="#7fa8a3" opacity="0.44"/><rect x="-12" y="486" width="6" height="9" fill="#7fa8a3" opacity="0.62"/><rect x="15" y="486" width="6" height="9" fill="#7fa8a3" opacity="0.47"/><rect x="41" y="486" width="6" height="9" fill="#7fa8a3" opacity="0.49"/><rect x="68" y="486" width="6" height="9" fill="#7fa8a3" opacity="0.62"/><rect x="121" y="486" width="6" height="9" fill="#7fa8a3" opacity="0.39"/><rect x="-12" y="517" width="6" height="9" fill="#7fa8a3" opacity="0.47"/><rect x="15" y="517" width="6" height="9" fill="#7fa8a3" opacity="0.49"/><rect x="68" y="517" width="6" height="9" fill="#7fa8a3" opacity="0.44"/><rect x="94" y="517" width="6" height="9" fill="#7fa8a3" opacity="0.39"/><rect x="133" y="165" width="131" height="735" fill="#152827" opacity="0.92"/><rect x="167" y="177" width="6" height="9" fill="#7fa8a3" opacity="0.76"/><rect x="193" y="177" width="6" height="9" fill="#7fa8a3" opacity="0.45"/><rect x="220" y="177" width="6" height="9" fill="#7fa8a3" opacity="0.63"/><rect x="141" y="208" width="6" height="9" fill="#7fa8a3" opacity="0.76"/><rect x="167" y="208" width="6" height="9" fill="#7fa8a3" opacity="0.45"/><rect x="193" y="208" width="6" height="9" fill="#7fa8a3" opacity="0.63"/><rect x="220" y="208" width="6" height="9" fill="#7fa8a3" opacity="0.48"/><rect x="141" y="239" width="6" height="9" fill="#7fa8a3" opacity="0.45"/><rect x="167" y="239" width="6" height="9" fill="#7fa8a3" opacity="0.63"/><rect x="220" y="239" width="6" height="9" fill="#7fa8a3" opacity="0.49"/><rect x="246" y="239" width="6" height="9" fill="#7fa8a3" opacity="0.59"/><rect x="141" y="270" width="6" height="9" fill="#7fa8a3" opacity="0.63"/><rect x="193" y="270" width="6" height="9" fill="#7fa8a3" opacity="0.49"/><rect x="167" y="332" width="6" height="9" fill="#7fa8a3" opacity="0.59"/><rect x="193" y="332" width="6" height="9" fill="#7fa8a3" opacity="0.75"/><rect x="246" y="332" width="6" height="9" fill="#7fa8a3" opacity="0.43"/><rect x="141" y="362" width="6" height="9" fill="#7fa8a3" opacity="0.59"/><rect x="193" y="362" width="6" height="9" fill="#7fa8a3" opacity="0.71"/><rect x="220" y="362" width="6" height="9" fill="#7fa8a3" opacity="0.43"/><rect x="246" y="362" width="6" height="9" fill="#7fa8a3" opacity="0.80"/><rect x="141" y="424" width="6" height="9" fill="#7fa8a3" opacity="0.71"/><rect x="167" y="424" width="6" height="9" fill="#7fa8a3" opacity="0.43"/><rect x="193" y="424" width="6" height="9" fill="#7fa8a3" opacity="0.80"/><rect x="220" y="424" width="6" height="9" fill="#7fa8a3" opacity="0.62"/><rect x="246" y="424" width="6" height="9" fill="#7fa8a3" opacity="0.47"/><rect x="141" y="455" width="6" height="9" fill="#7fa8a3" opacity="0.43"/><rect x="246" y="455" width="6" height="9" fill="#7fa8a3" opacity="0.49"/><rect x="220" y="486" width="6" height="9" fill="#7fa8a3" opacity="0.49"/><rect x="141" y="517" width="6" height="9" fill="#7fa8a3" opacity="0.62"/><rect x="193" y="517" width="6" height="9" fill="#7fa8a3" opacity="0.49"/><rect x="246" y="517" width="6" height="9" fill="#7fa8a3" opacity="0.44"/><rect x="258" y="245" width="125" height="655" fill="#3d5d5c" opacity="0.92"/><rect x="360" y="257" width="6" height="9" fill="#7fa8a3" opacity="0.63"/><rect x="266" y="290" width="6" height="9" fill="#7fa8a3" opacity="0.76"/><rect x="328" y="290" width="6" height="9" fill="#7fa8a3" opacity="0.63"/><rect x="266" y="322" width="6" height="9" fill="#7fa8a3" opacity="0.45"/><rect x="297" y="322" width="6" height="9" fill="#7fa8a3" opacity="0.63"/><rect x="328" y="322" width="6" height="9" fill="#7fa8a3" opacity="0.48"/><rect x="360" y="322" width="6" height="9" fill="#7fa8a3" opacity="0.49"/><rect x="266" y="354" width="6" height="9" fill="#7fa8a3" opacity="0.63"/><rect x="360" y="354" width="6" height="9" fill="#7fa8a3" opacity="0.59"/><rect x="328" y="387" width="6" height="9" fill="#7fa8a3" opacity="0.59"/><rect x="266" y="419" width="6" height="9" fill="#7fa8a3" opacity="0.49"/><rect x="297" y="419" width="6" height="9" fill="#7fa8a3" opacity="0.59"/><rect x="360" y="419" width="6" height="9" fill="#7fa8a3" opacity="0.71"/><rect x="328" y="483" width="6" height="9" fill="#7fa8a3" opacity="0.43"/><rect x="360" y="483" width="6" height="9" fill="#7fa8a3" opacity="0.80"/><rect x="377" y="373" width="97" height="527" fill="#152827" opacity="0.92"/><rect x="417" y="385" width="6" height="9" fill="#7fa8a3" opacity="0.76"/><rect x="449" y="385" width="6" height="9" fill="#7fa8a3" opacity="0.45"/><rect x="417" y="483" width="6" height="9" fill="#7fa8a3" opacity="0.48"/><rect x="385" y="515" width="6" height="9" fill="#7fa8a3" opacity="0.48"/><rect x="449" y="515" width="6" height="9" fill="#7fa8a3" opacity="0.59"/><rect x="468" y="109" width="104" height="791" fill="#3d5d5c" opacity="0.92"/><rect x="545" y="121" width="6" height="9" fill="#7fa8a3" opacity="0.45"/><rect x="476" y="152" width="6" height="9" fill="#7fa8a3" opacity="0.76"/><rect x="510" y="152" width="6" height="9" fill="#7fa8a3" opacity="0.45"/><rect x="510" y="182" width="6" height="9" fill="#7fa8a3" opacity="0.63"/><rect x="545" y="182" width="6" height="9" fill="#7fa8a3" opacity="0.48"/><rect x="476" y="213" width="6" height="9" fill="#7fa8a3" opacity="0.63"/><rect x="510" y="213" width="6" height="9" fill="#7fa8a3" opacity="0.48"/><rect x="545" y="243" width="6" height="9" fill="#7fa8a3" opacity="0.59"/><rect x="510" y="274" width="6" height="9" fill="#7fa8a3" opacity="0.59"/><rect x="545" y="304" width="6" height="9" fill="#7fa8a3" opacity="0.71"/><rect x="545" y="334" width="6" height="9" fill="#7fa8a3" opacity="0.43"/><rect x="510" y="365" width="6" height="9" fill="#7fa8a3" opacity="0.43"/><rect x="545" y="365" width="6" height="9" fill="#7fa8a3" opacity="0.80"/><rect x="510" y="395" width="6" height="9" fill="#7fa8a3" opacity="0.80"/><rect x="545" y="426" width="6" height="9" fill="#7fa8a3" opacity="0.47"/><rect x="476" y="456" width="6" height="9" fill="#7fa8a3" opacity="0.62"/><rect x="510" y="456" width="6" height="9" fill="#7fa8a3" opacity="0.47"/><rect x="476" y="487" width="6" height="9" fill="#7fa8a3" opacity="0.47"/><rect x="510" y="517" width="6" height="9" fill="#7fa8a3" opacity="0.62"/><rect x="545" y="517" width="6" height="9" fill="#7fa8a3" opacity="0.44"/><rect x="565" y="221" width="99" height="679" fill="#152827" opacity="0.92"/><rect x="640" y="233" width="6" height="9" fill="#7fa8a3" opacity="0.45"/><rect x="573" y="265" width="6" height="9" fill="#7fa8a3" opacity="0.76"/><rect x="606" y="265" width="6" height="9" fill="#7fa8a3" opacity="0.45"/><rect x="573" y="296" width="6" height="9" fill="#7fa8a3" opacity="0.45"/><rect x="606" y="328" width="6" height="9" fill="#7fa8a3" opacity="0.48"/><rect x="640" y="328" width="6" height="9" fill="#7fa8a3" opacity="0.49"/><rect x="573" y="359" width="6" height="9" fill="#7fa8a3" opacity="0.48"/><rect x="573" y="422" width="6" height="9" fill="#7fa8a3" opacity="0.59"/><rect x="606" y="422" width="6" height="9" fill="#7fa8a3" opacity="0.75"/><rect x="640" y="422" width="6" height="9" fill="#7fa8a3" opacity="0.71"/><rect x="573" y="453" width="6" height="9" fill="#7fa8a3" opacity="0.75"/><rect x="606" y="453" width="6" height="9" fill="#7fa8a3" opacity="0.71"/><rect x="640" y="453" width="6" height="9" fill="#7fa8a3" opacity="0.43"/><rect x="573" y="485" width="6" height="9" fill="#7fa8a3" opacity="0.71"/><rect x="640" y="485" width="6" height="9" fill="#7fa8a3" opacity="0.80"/><rect x="573" y="516" width="6" height="9" fill="#7fa8a3" opacity="0.43"/><rect x="659" y="328" width="150" height="572" fill="#3d5d5c" opacity="0.92"/><rect x="697" y="340" width="6" height="9" fill="#7fa8a3" opacity="0.76"/><rect x="757" y="340" width="6" height="9" fill="#7fa8a3" opacity="0.63"/><rect x="787" y="340" width="6" height="9" fill="#7fa8a3" opacity="0.48"/><rect x="667" y="375" width="6" height="9" fill="#7fa8a3" opacity="0.76"/><rect x="727" y="375" width="6" height="9" fill="#7fa8a3" opacity="0.63"/><rect x="757" y="375" width="6" height="9" fill="#7fa8a3" opacity="0.48"/><rect x="787" y="375" width="6" height="9" fill="#7fa8a3" opacity="0.49"/><rect x="697" y="409" width="6" height="9" fill="#7fa8a3" opacity="0.63"/><rect x="787" y="409" width="6" height="9" fill="#7fa8a3" opacity="0.59"/><rect x="667" y="444" width="6" height="9" fill="#7fa8a3" opacity="0.63"/><rect x="697" y="444" width="6" height="9" fill="#7fa8a3" opacity="0.48"/><rect x="757" y="444" width="6" height="9" fill="#7fa8a3" opacity="0.59"/><rect x="787" y="444" width="6" height="9" fill="#7fa8a3" opacity="0.75"/><rect x="667" y="479" width="6" height="9" fill="#7fa8a3" opacity="0.48"/><rect x="757" y="479" width="6" height="9" fill="#7fa8a3" opacity="0.75"/><rect x="787" y="479" width="6" height="9" fill="#7fa8a3" opacity="0.71"/><rect x="667" y="513" width="6" height="9" fill="#7fa8a3" opacity="0.49"/><rect x="727" y="513" width="6" height="9" fill="#7fa8a3" opacity="0.75"/><rect x="757" y="513" width="6" height="9" fill="#7fa8a3" opacity="0.71"/><rect x="787" y="513" width="6" height="9" fill="#7fa8a3" opacity="0.43"/><rect x="803" y="280" width="94" height="620" fill="#152827" opacity="0.92"/><rect x="811" y="292" width="6" height="9" fill="#7fa8a3" opacity="0.80"/><rect x="842" y="292" width="6" height="9" fill="#7fa8a3" opacity="0.76"/><rect x="842" y="324" width="6" height="9" fill="#7fa8a3" opacity="0.45"/><rect x="873" y="324" width="6" height="9" fill="#7fa8a3" opacity="0.63"/><rect x="873" y="356" width="6" height="9" fill="#7fa8a3" opacity="0.48"/><rect x="842" y="388" width="6" height="9" fill="#7fa8a3" opacity="0.48"/><rect x="873" y="388" width="6" height="9" fill="#7fa8a3" opacity="0.49"/><rect x="811" y="420" width="6" height="9" fill="#7fa8a3" opacity="0.48"/><rect x="873" y="420" width="6" height="9" fill="#7fa8a3" opacity="0.59"/><rect x="811" y="452" width="6" height="9" fill="#7fa8a3" opacity="0.49"/><rect x="842" y="452" width="6" height="9" fill="#7fa8a3" opacity="0.59"/><rect x="811" y="484" width="6" height="9" fill="#7fa8a3" opacity="0.59"/><rect x="811" y="516" width="6" height="9" fill="#7fa8a3" opacity="0.75"/><rect x="873" y="516" width="6" height="9" fill="#7fa8a3" opacity="0.43"/><rect x="891" y="222" width="160" height="678" fill="#3d5d5c" opacity="0.92"/><rect x="899" y="234" width="6" height="9" fill="#7fa8a3" opacity="0.80"/><rect x="979" y="234" width="6" height="9" fill="#7fa8a3" opacity="0.63"/><rect x="1032" y="234" width="6" height="9" fill="#7fa8a3" opacity="0.49"/><rect x="899" y="265" width="6" height="9" fill="#7fa8a3" opacity="0.76"/><rect x="925" y="265" width="6" height="9" fill="#7fa8a3" opacity="0.45"/><rect x="952" y="265" width="6" height="9" fill="#7fa8a3" opacity="0.63"/><rect x="979" y="265" width="6" height="9" fill="#7fa8a3" opacity="0.48"/><rect x="1005" y="265" width="6" height="9" fill="#7fa8a3" opacity="0.49"/><rect x="1032" y="265" width="6" height="9" fill="#7fa8a3" opacity="0.59"/><rect x="925" y="328" width="6" height="9" fill="#7fa8a3" opacity="0.48"/><rect x="952" y="328" width="6" height="9" fill="#7fa8a3" opacity="0.49"/><rect x="1005" y="328" width="6" height="9" fill="#7fa8a3" opacity="0.75"/><rect x="1032" y="328" width="6" height="9" fill="#7fa8a3" opacity="0.71"/><rect x="925" y="360" width="6" height="9" fill="#7fa8a3" opacity="0.49"/><rect x="1005" y="360" width="6" height="9" fill="#7fa8a3" opacity="0.71"/><rect x="925" y="391" width="6" height="9" fill="#7fa8a3" opacity="0.59"/><rect x="952" y="391" width="6" height="9" fill="#7fa8a3" opacity="0.75"/><rect x="979" y="391" width="6" height="9" fill="#7fa8a3" opacity="0.71"/><rect x="1005" y="391" width="6" height="9" fill="#7fa8a3" opacity="0.43"/><rect x="1032" y="391" width="6" height="9" fill="#7fa8a3" opacity="0.80"/><rect x="899" y="422" width="6" height="9" fill="#7fa8a3" opacity="0.59"/><rect x="925" y="422" width="6" height="9" fill="#7fa8a3" opacity="0.75"/><rect x="952" y="422" width="6" height="9" fill="#7fa8a3" opacity="0.71"/><rect x="979" y="422" width="6" height="9" fill="#7fa8a3" opacity="0.43"/><rect x="1005" y="422" width="6" height="9" fill="#7fa8a3" opacity="0.80"/><rect x="1032" y="422" width="6" height="9" fill="#7fa8a3" opacity="0.62"/><rect x="899" y="454" width="6" height="9" fill="#7fa8a3" opacity="0.75"/><rect x="925" y="454" width="6" height="9" fill="#7fa8a3" opacity="0.71"/><rect x="979" y="454" width="6" height="9" fill="#7fa8a3" opacity="0.80"/><rect x="899" y="485" width="6" height="9" fill="#7fa8a3" opacity="0.71"/><rect x="952" y="485" width="6" height="9" fill="#7fa8a3" opacity="0.80"/><rect x="979" y="485" width="6" height="9" fill="#7fa8a3" opacity="0.62"/><rect x="899" y="517" width="6" height="9" fill="#7fa8a3" opacity="0.43"/><rect x="979" y="517" width="6" height="9" fill="#7fa8a3" opacity="0.47"/><rect x="1005" y="517" width="6" height="9" fill="#7fa8a3" opacity="0.49"/><rect x="1032" y="517" width="6" height="9" fill="#7fa8a3" opacity="0.62"/><rect x="1045" y="115" width="153" height="785" fill="#152827" opacity="0.92"/><rect x="1053" y="127" width="6" height="9" fill="#7fa8a3" opacity="0.80"/><rect x="1083" y="127" width="6" height="9" fill="#7fa8a3" opacity="0.76"/><rect x="1114" y="127" width="6" height="9" fill="#7fa8a3" opacity="0.45"/><rect x="1175" y="127" width="6" height="9" fill="#7fa8a3" opacity="0.48"/><rect x="1053" y="157" width="6" height="9" fill="#7fa8a3" opacity="0.76"/><rect x="1083" y="157" width="6" height="9" fill="#7fa8a3" opacity="0.45"/><rect x="1114" y="157" width="6" height="9" fill="#7fa8a3" opacity="0.63"/><rect x="1144" y="157" width="6" height="9" fill="#7fa8a3" opacity="0.48"/><rect x="1175" y="157" width="6" height="9" fill="#7fa8a3" opacity="0.49"/><rect x="1083" y="187" width="6" height="9" fill="#7fa8a3" opacity="0.63"/><rect x="1114" y="217" width="6" height="9" fill="#7fa8a3" opacity="0.49"/><rect x="1175" y="217" width="6" height="9" fill="#7fa8a3" opacity="0.75"/><rect x="1053" y="247" width="6" height="9" fill="#7fa8a3" opacity="0.48"/><rect x="1083" y="247" width="6" height="9" fill="#7fa8a3" opacity="0.49"/><rect x="1114" y="247" width="6" height="9" fill="#7fa8a3" opacity="0.59"/><rect x="1144" y="247" width="6" height="9" fill="#7fa8a3" opacity="0.75"/><rect x="1083" y="277" width="6" height="9" fill="#7fa8a3" opacity="0.59"/><rect x="1175" y="277" width="6" height="9" fill="#7fa8a3" opacity="0.43"/><rect x="1053" y="307" width="6" height="9" fill="#7fa8a3" opacity="0.59"/><rect x="1114" y="307" width="6" height="9" fill="#7fa8a3" opacity="0.71"/><rect x="1175" y="307" width="6" height="9" fill="#7fa8a3" opacity="0.80"/><rect x="1053" y="337" width="6" height="9" fill="#7fa8a3" opacity="0.75"/><rect x="1083" y="337" width="6" height="9" fill="#7fa8a3" opacity="0.71"/><rect x="1144" y="337" width="6" height="9" fill="#7fa8a3" opacity="0.80"/><rect x="1175" y="337" width="6" height="9" fill="#7fa8a3" opacity="0.62"/><rect x="1053" y="367" width="6" height="9" fill="#7fa8a3" opacity="0.71"/><rect x="1083" y="367" width="6" height="9" fill="#7fa8a3" opacity="0.43"/><rect x="1053" y="397" width="6" height="9" fill="#7fa8a3" opacity="0.43"/><rect x="1083" y="397" width="6" height="9" fill="#7fa8a3" opacity="0.80"/><rect x="1114" y="397" width="6" height="9" fill="#7fa8a3" opacity="0.62"/><rect x="1144" y="397" width="6" height="9" fill="#7fa8a3" opacity="0.47"/><rect x="1053" y="428" width="6" height="9" fill="#7fa8a3" opacity="0.80"/><rect x="1083" y="428" width="6" height="9" fill="#7fa8a3" opacity="0.62"/><rect x="1053" y="458" width="6" height="9" fill="#7fa8a3" opacity="0.62"/><rect x="1114" y="458" width="6" height="9" fill="#7fa8a3" opacity="0.49"/><rect x="1144" y="458" width="6" height="9" fill="#7fa8a3" opacity="0.62"/><rect x="1175" y="458" width="6" height="9" fill="#7fa8a3" opacity="0.44"/><rect x="1053" y="488" width="6" height="9" fill="#7fa8a3" opacity="0.47"/><rect x="1083" y="488" width="6" height="9" fill="#7fa8a3" opacity="0.49"/><rect x="1053" y="518" width="6" height="9" fill="#7fa8a3" opacity="0.49"/><rect x="1083" y="518" width="6" height="9" fill="#7fa8a3" opacity="0.62"/><rect x="1114" y="518" width="6" height="9" fill="#7fa8a3" opacity="0.44"/><rect x="1144" y="518" width="6" height="9" fill="#7fa8a3" opacity="0.39"/><rect x="0" y="535.8984125594725" width="1200" height="364.1015874405275" fill="url(#water)" opacity="0.25"/>
<rect width="1200" height="900" fill="url(#vig)"/>
<text x="48" y="846" font-family="Georgia, serif" font-size="46" fill="#fff" opacity="0.92" letter-spacing="-1">Glasshouse on the Hill</text>
<text x="50" y="804" font-family="Georgia, serif" font-size="20" fill="#c9a24b" opacity="0.9" letter-spacing="3">KASSORA</text>
</svg>