<svg xmlns="http://www.w3.org/2000/svg" width="1200" height="900" viewBox="0 0 1200 900">
<defs>
<linearGradient id="sky" x1="0" y1="0" x2="0" y2="1">
<stop offset="0" stop-color="#e7cf8f"/><stop offset="0.55" stop-color="#c9a24b"/><stop offset="1" stop-color="#2c2818"/>
</linearGradient>
<radialGradient id="sun" cx="0.5" cy="0.5" r="0.5">
<stop offset="0" stop-color="#fff" stop-opacity="0.95"/><stop offset="0.4" stop-color="#c9a24b" stop-opacity="0.7"/><stop offset="1" stop-color="#c9a24b" stop-opacity="0"/>
</radialGradient>
<linearGradient id="water" x1="0" y1="0" x2="0" y2="1">
<stop offset="0" stop-color="#fff" stop-opacity="0.5"/><stop offset="1" stop-color="#fff" stop-opacity="0"/>
</linearGradient>
<linearGradient id="vig" x1="0" y1="0" x2="0" y2="1">
<stop offset="0" stop-color="#000" stop-opacity="0"/><stop offset="1" stop-color="#000" stop-opacity="0.45"/>
</linearGradient>
</defs>
<rect width="1200" height="900" fill="url(#sky)"/>
<circle cx="514" cy="319" r="108" fill="url(#sun)" opacity="0.9"/><rect x="-20" y="339" width="145" height="561" fill="#7a6a3a" opacity="0.92"/><rect x="17" y="351" width="6" height="9" fill="#c9a24b" opacity="0.80"/><rect x="46" y="351" width="6" height="9" fill="#c9a24b" opacity="0.76"/><rect x="104" y="351" width="6" height="9" fill="#c9a24b" opacity="0.63"/><rect x="17" y="381" width="6" height="9" fill="#c9a24b" opacity="0.76"/><rect x="46" y="381" width="6" height="9" fill="#c9a24b" opacity="0.45"/><rect x="-12" y="411" width="6" height="9" fill="#c9a24b" opacity="0.76"/><rect x="104" y="411" width="6" height="9" fill="#c9a24b" opacity="0.49"/><rect x="-12" y="442" width="6" height="9" fill="#c9a24b" opacity="0.45"/><rect x="17" y="442" width="6" height="9" fill="#c9a24b" opacity="0.63"/><rect x="46" y="442" width="6" height="9" fill="#c9a24b" opacity="0.48"/><rect x="-12" y="472" width="6" height="9" fill="#c9a24b" opacity="0.63"/><rect x="104" y="472" width="6" height="9" fill="#c9a24b" opacity="0.75"/><rect x="17" y="502" width="6" height="9" fill="#c9a24b" opacity="0.49"/><rect x="46" y="502" width="6" height="9" fill="#c9a24b" opacity="0.59"/><rect x="-12" y="533" width="6" height="9" fill="#c9a24b" opacity="0.49"/><rect x="104" y="533" width="6" height="9" fill="#c9a24b" opacity="0.43"/><rect x="17" y="563" width="6" height="9" fill="#c9a24b" opacity="0.75"/><rect x="46" y="563" width="6" height="9" fill="#c9a24b" opacity="0.71"/><rect x="75" y="563" width="6" height="9" fill="#c9a24b" opacity="0.43"/><rect x="104" y="563" width="6" height="9" fill="#c9a24b" opacity="0.80"/><rect x="119" y="306" width="125" height="594" fill="#2c2818" opacity="0.92"/><rect x="190" y="318" width="6" height="9" fill="#c9a24b" opacity="0.76"/><rect x="221" y="318" width="6" height="9" fill="#c9a24b" opacity="0.45"/><rect x="158" y="348" width="6" height="9" fill="#c9a24b" opacity="0.76"/><rect x="190" y="348" width="6" height="9" fill="#c9a24b" opacity="0.45"/><rect x="221" y="348" width="6" height="9" fill="#c9a24b" opacity="0.63"/><rect x="158" y="379" width="6" height="9" fill="#c9a24b" opacity="0.45"/><rect x="190" y="379" width="6" height="9" fill="#c9a24b" opacity="0.63"/><rect x="158" y="410" width="6" height="9" fill="#c9a24b" opacity="0.63"/><rect x="221" y="410" width="6" height="9" fill="#c9a24b" opacity="0.49"/><rect x="127" y="471" width="6" height="9" fill="#c9a24b" opacity="0.48"/><rect x="190" y="471" width="6" height="9" fill="#c9a24b" opacity="0.59"/><rect x="221" y="471" width="6" height="9" fill="#c9a24b" opacity="0.75"/><rect x="127" y="501" width="6" height="9" fill="#c9a24b" opacity="0.49"/><rect x="158" y="501" width="6" height="9" fill="#c9a24b" opacity="0.59"/><rect x="221" y="501" width="6" height="9" fill="#c9a24b" opacity="0.71"/><rect x="127" y="532" width="6" height="9" fill="#c9a24b" opacity="0.59"/><rect x="127" y="563" width="6" height="9" fill="#c9a24b" opacity="0.75"/><rect x="158" y="563" width="6" height="9" fill="#c9a24b" opacity="0.71"/><rect x="190" y="563" width="6" height="9" fill="#c9a24b" opacity="0.43"/><rect x="221" y="563" width="6" height="9" fill="#c9a24b" opacity="0.80"/><rect x="238" y="369" width="135" height="531" fill="#7a6a3a" opacity="0.92"/><rect x="246" y="381" width="6" height="9" fill="#c9a24b" opacity="0.54"/><rect x="354" y="381" width="6" height="9" fill="#c9a24b" opacity="0.63"/><rect x="246" y="412" width="6" height="9" fill="#c9a24b" opacity="0.80"/><rect x="273" y="412" width="6" height="9" fill="#c9a24b" opacity="0.76"/><rect x="327" y="412" width="6" height="9" fill="#c9a24b" opacity="0.63"/><rect x="246" y="442" width="6" height="9" fill="#c9a24b" opacity="0.76"/><rect x="273" y="442" width="6" height="9" fill="#c9a24b" opacity="0.45"/><rect x="300" y="442" width="6" height="9" fill="#c9a24b" opacity="0.63"/><rect x="327" y="442" width="6" height="9" fill="#c9a24b" opacity="0.48"/><rect x="354" y="442" width="6" height="9" fill="#c9a24b" opacity="0.49"/><rect x="246" y="472" width="6" height="9" fill="#c9a24b" opacity="0.45"/><rect x="273" y="472" width="6" height="9" fill="#c9a24b" opacity="0.63"/><rect x="354" y="472" width="6" height="9" fill="#c9a24b" opacity="0.59"/><rect x="327" y="502" width="6" height="9" fill="#c9a24b" opacity="0.59"/><rect x="273" y="533" width="6" height="9" fill="#c9a24b" opacity="0.49"/><rect x="300" y="533" width="6" height="9" fill="#c9a24b" opacity="0.59"/><rect x="354" y="533" width="6" height="9" fill="#c9a24b" opacity="0.71"/><rect x="367" y="420" width="181" height="480" fill="#2c2818" opacity="0.92"/><rect x="436" y="432" width="6" height="9" fill="#c9a24b" opacity="0.76"/><rect x="466" y="432" width="6" height="9" fill="#c9a24b" opacity="0.45"/><rect x="496" y="432" width="6" height="9" fill="#c9a24b" opacity="0.63"/><rect x="375" y="465" width="6" height="9" fill="#c9a24b" opacity="0.80"/><rect x="496" y="465" width="6" height="9" fill="#c9a24b" opacity="0.48"/><rect x="526" y="465" width="6" height="9" fill="#c9a24b" opacity="0.49"/><rect x="375" y="497" width="6" height="9" fill="#c9a24b" opacity="0.76"/><rect x="526" y="497" width="6" height="9" fill="#c9a24b" opacity="0.59"/><rect x="436" y="529" width="6" height="9" fill="#c9a24b" opacity="0.48"/><rect x="526" y="529" width="6" height="9" fill="#c9a24b" opacity="0.75"/><rect x="375" y="561" width="6" height="9" fill="#c9a24b" opacity="0.63"/><rect x="405" y="561" width="6" height="9" fill="#c9a24b" opacity="0.48"/><rect x="466" y="561" width="6" height="9" fill="#c9a24b" opacity="0.59"/><rect x="496" y="561" width="6" height="9" fill="#c9a24b" opacity="0.75"/><rect x="542" y="204" width="162" height="696" fill="#7a6a3a" opacity="0.92"/><rect x="550" y="216" width="6" height="9" fill="#c9a24b" opacity="0.54"/><rect x="631" y="216" width="6" height="9" fill="#c9a24b" opacity="0.45"/><rect x="658" y="216" width="6" height="9" fill="#c9a24b" opacity="0.63"/><rect x="686" y="216" width="6" height="9" fill="#c9a24b" opacity="0.48"/><rect x="577" y="247" width="6" height="9" fill="#c9a24b" opacity="0.76"/><rect x="604" y="247" width="6" height="9" fill="#c9a24b" opacity="0.45"/><rect x="658" y="247" width="6" height="9" fill="#c9a24b" opacity="0.48"/><rect x="686" y="247" width="6" height="9" fill="#c9a24b" opacity="0.49"/><rect x="550" y="279" width="6" height="9" fill="#c9a24b" opacity="0.76"/><rect x="604" y="279" width="6" height="9" fill="#c9a24b" opacity="0.63"/><rect x="631" y="279" width="6" height="9" fill="#c9a24b" opacity="0.48"/><rect x="658" y="279" width="6" height="9" fill="#c9a24b" opacity="0.49"/><rect x="550" y="310" width="6" height="9" fill="#c9a24b" opacity="0.45"/><rect x="577" y="310" width="6" height="9" fill="#c9a24b" opacity="0.63"/><rect x="604" y="310" width="6" height="9" fill="#c9a24b" opacity="0.48"/><rect x="686" y="310" width="6" height="9" fill="#c9a24b" opacity="0.75"/><rect x="550" y="342" width="6" height="9" fill="#c9a24b" opacity="0.63"/><rect x="631" y="342" width="6" height="9" fill="#c9a24b" opacity="0.59"/><rect x="658" y="342" width="6" height="9" fill="#c9a24b" opacity="0.75"/><rect x="686" y="342" width="6" height="9" fill="#c9a24b" opacity="0.71"/><rect x="550" y="373" width="6" height="9" fill="#c9a24b" opacity="0.48"/><rect x="604" y="373" width="6" height="9" fill="#c9a24b" opacity="0.59"/><rect x="658" y="373" width="6" height="9" fill="#c9a24b" opacity="0.71"/><rect x="686" y="373" width="6" height="9" fill="#c9a24b" opacity="0.43"/><rect x="631" y="404" width="6" height="9" fill="#c9a24b" opacity="0.71"/><rect x="658" y="404" width="6" height="9" fill="#c9a24b" opacity="0.43"/><rect x="686" y="404" width="6" height="9" fill="#c9a24b" opacity="0.80"/><rect x="550" y="436" width="6" height="9" fill="#c9a24b" opacity="0.59"/><rect x="631" y="436" width="6" height="9" fill="#c9a24b" opacity="0.43"/><rect x="604" y="467" width="6" height="9" fill="#c9a24b" opacity="0.43"/><rect x="631" y="467" width="6" height="9" fill="#c9a24b" opacity="0.80"/><rect x="658" y="467" width="6" height="9" fill="#c9a24b" opacity="0.62"/><rect x="686" y="467" width="6" height="9" fill="#c9a24b" opacity="0.47"/><rect x="550" y="499" width="6" height="9" fill="#c9a24b" opacity="0.71"/><rect x="604" y="499" width="6" height="9" fill="#c9a24b" opacity="0.80"/><rect x="631" y="530" width="6" height="9" fill="#c9a24b" opacity="0.47"/><rect x="550" y="562" width="6" height="9" fill="#c9a24b" opacity="0.80"/><rect x="577" y="562" width="6" height="9" fill="#c9a24b" opacity="0.62"/><rect x="604" y="562" width="6" height="9" fill="#c9a24b" opacity="0.47"/><rect x="686" y="562" width="6" height="9" fill="#c9a24b" opacity="0.44"/><rect x="699" y="308" width="161" height="592" fill="#2c2818" opacity="0.92"/><rect x="787" y="320" width="6" height="9" fill="#c9a24b" opacity="0.45"/><rect x="707" y="351" width="6" height="9" fill="#c9a24b" opacity="0.80"/><rect x="734" y="351" width="6" height="9" fill="#c9a24b" opacity="0.76"/><rect x="760" y="351" width="6" height="9" fill="#c9a24b" opacity="0.45"/><rect x="841" y="351" width="6" height="9" fill="#c9a24b" opacity="0.49"/><rect x="734" y="381" width="6" height="9" fill="#c9a24b" opacity="0.45"/><rect x="814" y="381" width="6" height="9" fill="#c9a24b" opacity="0.49"/><rect x="841" y="381" width="6" height="9" fill="#c9a24b" opacity="0.59"/><rect x="707" y="411" width="6" height="9" fill="#c9a24b" opacity="0.45"/><rect x="760" y="411" width="6" height="9" fill="#c9a24b" opacity="0.48"/><rect x="787" y="411" width="6" height="9" fill="#c9a24b" opacity="0.49"/><rect x="814" y="411" width="6" height="9" fill="#c9a24b" opacity="0.59"/><rect x="841" y="411" width="6" height="9" fill="#c9a24b" opacity="0.75"/><rect x="734" y="442" width="6" height="9" fill="#c9a24b" opacity="0.48"/><rect x="814" y="442" width="6" height="9" fill="#c9a24b" opacity="0.75"/><rect x="841" y="442" width="6" height="9" fill="#c9a24b" opacity="0.71"/><rect x="707" y="502" width="6" height="9" fill="#c9a24b" opacity="0.49"/><rect x="734" y="502" width="6" height="9" fill="#c9a24b" opacity="0.59"/><rect x="760" y="502" width="6" height="9" fill="#c9a24b" opacity="0.75"/><rect x="787" y="502" width="6" height="9" fill="#c9a24b" opacity="0.71"/><rect x="814" y="502" width="6" height="9" fill="#c9a24b" opacity="0.43"/><rect x="734" y="533" width="6" height="9" fill="#c9a24b" opacity="0.75"/><rect x="760" y="533" width="6" height="9" fill="#c9a24b" opacity="0.71"/><rect x="787" y="533" width="6" height="9" fill="#c9a24b" opacity="0.43"/><rect x="814" y="533" width="6" height="9" fill="#c9a24b" opacity="0.80"/><rect x="734" y="563" width="6" height="9" fill="#c9a24b" opacity="0.71"/><rect x="787" y="563" width="6" height="9" fill="#c9a24b" opacity="0.80"/><rect x="814" y="563" width="6" height="9" fill="#c9a24b" opacity="0.62"/><rect x="841" y="563" width="6" height="9" fill="#c9a24b" opacity="0.47"/><rect x="854" y="376" width="126" height="524" fill="#7a6a3a" opacity="0.92"/><rect x="925" y="388" width="6" height="9" fill="#c9a24b" opacity="0.76"/><rect x="862" y="422" width="6" height="9" fill="#c9a24b" opacity="0.80"/><rect x="894" y="422" width="6" height="9" fill="#c9a24b" opacity="0.76"/><rect x="957" y="422" width="6" height="9" fill="#c9a24b" opacity="0.63"/><rect x="862" y="457" width="6" height="9" fill="#c9a24b" opacity="0.76"/><rect x="925" y="457" width="6" height="9" fill="#c9a24b" opacity="0.63"/><rect x="894" y="491" width="6" height="9" fill="#c9a24b" opacity="0.63"/><rect x="925" y="491" width="6" height="9" fill="#c9a24b" opacity="0.48"/><rect x="862" y="525" width="6" height="9" fill="#c9a24b" opacity="0.63"/><rect x="894" y="525" width="6" height="9" fill="#c9a24b" opacity="0.48"/><rect x="862" y="559" width="6" height="9" fill="#c9a24b" opacity="0.48"/><rect x="894" y="559" width="6" height="9" fill="#c9a24b" opacity="0.49"/><rect x="957" y="559" width="6" height="9" fill="#c9a24b" opacity="0.75"/><rect x="974" y="399" width="117" height="501" fill="#2c2818" opacity="0.92"/><rect x="982" y="411" width="6" height="9" fill="#c9a24b" opacity="0.54"/><rect x="1011" y="411" width="6" height="9" fill="#c9a24b" opacity="0.80"/><rect x="1041" y="411" width="6" height="9" fill="#c9a24b" opacity="0.76"/><rect x="982" y="441" width="6" height="9" fill="#c9a24b" opacity="0.80"/><rect x="1041" y="441" width="6" height="9" fill="#c9a24b" opacity="0.45"/><rect x="1070" y="441" width="6" height="9" fill="#c9a24b" opacity="0.63"/><rect x="982" y="471" width="6" height="9" fill="#c9a24b" opacity="0.76"/><rect x="1070" y="471" width="6" height="9" fill="#c9a24b" opacity="0.48"/><rect x="1041" y="502" width="6" height="9" fill="#c9a24b" opacity="0.48"/><rect x="1070" y="502" width="6" height="9" fill="#c9a24b" opacity="0.49"/><rect x="1011" y="532" width="6" height="9" fill="#c9a24b" opacity="0.48"/><rect x="1070" y="532" width="6" height="9" fill="#c9a24b" opacity="0.59"/><rect x="982" y="563" width="6" height="9" fill="#c9a24b" opacity="0.48"/><rect x="1011" y="563" width="6" height="9" fill="#c9a24b" opacity="0.49"/><rect x="1041" y="563" width="6" height="9" fill="#c9a24b" opacity="0.59"/><rect x="0" y="581.2055939570273" width="1200" height="318.7944060429727" fill="url(#water)" opacity="0.25"/>
<rect width="1200" height="900" fill="url(#vig)"/>
<text x="48" y="846" font-family="Georgia, serif" font-size="46" fill="#fff" opacity="0.92" letter-spacing="-1">Domaine du Vallon</text>
<text x="50" y="804" font-family="Georgia, serif" font-size="20" fill="#c9a24b" opacity="0.9" letter-spacing="3">KASSORA</text>
</svg>