<svg xmlns="http://www.w3.org/2000/svg" width="1200" height="900" viewBox="0 0 1200 900">
<defs>
<linearGradient id="sky" x1="0" y1="0" x2="0" y2="1">
<stop offset="0" stop-color="#e7cf8f"/><stop offset="0.55" stop-color="#c9a24b"/><stop offset="1" stop-color="#2c2818"/>
</linearGradient>
<radialGradient id="sun" cx="0.5" cy="0.5" r="0.5">
<stop offset="0" stop-color="#fff" stop-opacity="0.95"/><stop offset="0.4" stop-color="#c9a24b" stop-opacity="0.7"/><stop offset="1" stop-color="#c9a24b" stop-opacity="0"/>
</radialGradient>
<linearGradient id="water" x1="0" y1="0" x2="0" y2="1">
<stop offset="0" stop-color="#fff" stop-opacity="0.5"/><stop offset="1" stop-color="#fff" stop-opacity="0"/>
</linearGradient>
<linearGradient id="vig" x1="0" y1="0" x2="0" y2="1">
<stop offset="0" stop-color="#000" stop-opacity="0"/><stop offset="1" stop-color="#000" stop-opacity="0.45"/>
</linearGradient>
</defs>
<rect width="1200" height="900" fill="url(#sky)"/>
<circle cx="592" cy="306" r="108" fill="url(#sun)" opacity="0.9"/><rect x="-20" y="299" width="179" height="601" fill="#7a6a3a" opacity="0.92"/><rect x="-12" y="311" width="6" height="9" fill="#c9a24b" opacity="0.59"/><rect x="18" y="311" width="6" height="9" fill="#c9a24b" opacity="0.75"/><rect x="48" y="311" width="6" height="9" fill="#c9a24b" opacity="0.71"/><rect x="107" y="311" width="6" height="9" fill="#c9a24b" opacity="0.80"/><rect x="137" y="311" width="6" height="9" fill="#c9a24b" opacity="0.62"/><rect x="48" y="341" width="6" height="9" fill="#c9a24b" opacity="0.43"/><rect x="77" y="341" width="6" height="9" fill="#c9a24b" opacity="0.80"/><rect x="18" y="372" width="6" height="9" fill="#c9a24b" opacity="0.43"/><rect x="48" y="372" width="6" height="9" fill="#c9a24b" opacity="0.80"/><rect x="77" y="372" width="6" height="9" fill="#c9a24b" opacity="0.62"/><rect x="107" y="372" width="6" height="9" fill="#c9a24b" opacity="0.47"/><rect x="137" y="372" width="6" height="9" fill="#c9a24b" opacity="0.49"/><rect x="-12" y="402" width="6" height="9" fill="#c9a24b" opacity="0.43"/><rect x="77" y="402" width="6" height="9" fill="#c9a24b" opacity="0.47"/><rect x="-12" y="433" width="6" height="9" fill="#c9a24b" opacity="0.80"/><rect x="18" y="433" width="6" height="9" fill="#c9a24b" opacity="0.62"/><rect x="107" y="433" width="6" height="9" fill="#c9a24b" opacity="0.62"/><rect x="137" y="433" width="6" height="9" fill="#c9a24b" opacity="0.44"/><rect x="-12" y="464" width="6" height="9" fill="#c9a24b" opacity="0.62"/><rect x="48" y="464" width="6" height="9" fill="#c9a24b" opacity="0.49"/><rect x="77" y="464" width="6" height="9" fill="#c9a24b" opacity="0.62"/><rect x="-12" y="494" width="6" height="9" fill="#c9a24b" opacity="0.47"/><rect x="107" y="494" width="6" height="9" fill="#c9a24b" opacity="0.39"/><rect x="137" y="494" width="6" height="9" fill="#c9a24b" opacity="0.45"/><rect x="-12" y="525" width="6" height="9" fill="#c9a24b" opacity="0.49"/><rect x="18" y="525" width="6" height="9" fill="#c9a24b" opacity="0.62"/><rect x="48" y="525" width="6" height="9" fill="#c9a24b" opacity="0.44"/><rect x="77" y="525" width="6" height="9" fill="#c9a24b" opacity="0.39"/><rect x="137" y="525" width="6" height="9" fill="#c9a24b" opacity="0.74"/><rect x="-12" y="555" width="6" height="9" fill="#c9a24b" opacity="0.62"/><rect x="48" y="555" width="6" height="9" fill="#c9a24b" opacity="0.39"/><rect x="77" y="555" width="6" height="9" fill="#c9a24b" opacity="0.45"/><rect x="137" y="555" width="6" height="9" fill="#c9a24b" opacity="0.79"/><rect x="153" y="362" width="138" height="538" fill="#2c2818" opacity="0.92"/><rect x="161" y="374" width="6" height="9" fill="#c9a24b" opacity="0.59"/><rect x="188" y="374" width="6" height="9" fill="#c9a24b" opacity="0.75"/><rect x="271" y="374" width="6" height="9" fill="#c9a24b" opacity="0.80"/><rect x="161" y="405" width="6" height="9" fill="#c9a24b" opacity="0.75"/><rect x="188" y="405" width="6" height="9" fill="#c9a24b" opacity="0.71"/><rect x="216" y="405" width="6" height="9" fill="#c9a24b" opacity="0.43"/><rect x="271" y="405" width="6" height="9" fill="#c9a24b" opacity="0.62"/><rect x="161" y="435" width="6" height="9" fill="#c9a24b" opacity="0.71"/><rect x="216" y="435" width="6" height="9" fill="#c9a24b" opacity="0.80"/><rect x="271" y="435" width="6" height="9" fill="#c9a24b" opacity="0.47"/><rect x="161" y="495" width="6" height="9" fill="#c9a24b" opacity="0.80"/><rect x="188" y="495" width="6" height="9" fill="#c9a24b" opacity="0.62"/><rect x="216" y="495" width="6" height="9" fill="#c9a24b" opacity="0.47"/><rect x="244" y="495" width="6" height="9" fill="#c9a24b" opacity="0.49"/><rect x="161" y="526" width="6" height="9" fill="#c9a24b" opacity="0.62"/><rect x="216" y="526" width="6" height="9" fill="#c9a24b" opacity="0.49"/><rect x="244" y="526" width="6" height="9" fill="#c9a24b" opacity="0.62"/><rect x="271" y="526" width="6" height="9" fill="#c9a24b" opacity="0.44"/><rect x="161" y="556" width="6" height="9" fill="#c9a24b" opacity="0.47"/><rect x="188" y="556" width="6" height="9" fill="#c9a24b" opacity="0.49"/><rect x="244" y="556" width="6" height="9" fill="#c9a24b" opacity="0.44"/><rect x="285" y="413" width="148" height="487" fill="#7a6a3a" opacity="0.92"/><rect x="293" y="425" width="6" height="9" fill="#c9a24b" opacity="0.59"/><rect x="322" y="425" width="6" height="9" fill="#c9a24b" opacity="0.75"/><rect x="352" y="425" width="6" height="9" fill="#c9a24b" opacity="0.71"/><rect x="382" y="425" width="6" height="9" fill="#c9a24b" opacity="0.43"/><rect x="411" y="425" width="6" height="9" fill="#c9a24b" opacity="0.80"/><rect x="382" y="457" width="6" height="9" fill="#c9a24b" opacity="0.80"/><rect x="411" y="457" width="6" height="9" fill="#c9a24b" opacity="0.62"/><rect x="293" y="490" width="6" height="9" fill="#c9a24b" opacity="0.71"/><rect x="322" y="490" width="6" height="9" fill="#c9a24b" opacity="0.43"/><rect x="352" y="490" width="6" height="9" fill="#c9a24b" opacity="0.80"/><rect x="382" y="490" width="6" height="9" fill="#c9a24b" opacity="0.62"/><rect x="411" y="490" width="6" height="9" fill="#c9a24b" opacity="0.47"/><rect x="293" y="522" width="6" height="9" fill="#c9a24b" opacity="0.43"/><rect x="322" y="522" width="6" height="9" fill="#c9a24b" opacity="0.80"/><rect x="322" y="554" width="6" height="9" fill="#c9a24b" opacity="0.62"/><rect x="411" y="554" width="6" height="9" fill="#c9a24b" opacity="0.62"/><rect x="427" y="197" width="142" height="703" fill="#2c2818" opacity="0.92"/><rect x="435" y="209" width="6" height="9" fill="#c9a24b" opacity="0.59"/><rect x="463" y="209" width="6" height="9" fill="#c9a24b" opacity="0.75"/><rect x="520" y="209" width="6" height="9" fill="#c9a24b" opacity="0.43"/><rect x="435" y="240" width="6" height="9" fill="#c9a24b" opacity="0.75"/><rect x="463" y="240" width="6" height="9" fill="#c9a24b" opacity="0.71"/><rect x="520" y="240" width="6" height="9" fill="#c9a24b" opacity="0.80"/><rect x="463" y="272" width="6" height="9" fill="#c9a24b" opacity="0.43"/><rect x="492" y="272" width="6" height="9" fill="#c9a24b" opacity="0.80"/><rect x="435" y="303" width="6" height="9" fill="#c9a24b" opacity="0.43"/><rect x="492" y="303" width="6" height="9" fill="#c9a24b" opacity="0.62"/><rect x="520" y="303" width="6" height="9" fill="#c9a24b" opacity="0.47"/><rect x="549" y="303" width="6" height="9" fill="#c9a24b" opacity="0.49"/><rect x="435" y="334" width="6" height="9" fill="#c9a24b" opacity="0.80"/><rect x="463" y="334" width="6" height="9" fill="#c9a24b" opacity="0.62"/><rect x="549" y="334" width="6" height="9" fill="#c9a24b" opacity="0.62"/><rect x="463" y="366" width="6" height="9" fill="#c9a24b" opacity="0.47"/><rect x="520" y="366" width="6" height="9" fill="#c9a24b" opacity="0.62"/><rect x="549" y="366" width="6" height="9" fill="#c9a24b" opacity="0.44"/><rect x="435" y="397" width="6" height="9" fill="#c9a24b" opacity="0.47"/><rect x="492" y="397" width="6" height="9" fill="#c9a24b" opacity="0.62"/><rect x="549" y="397" width="6" height="9" fill="#c9a24b" opacity="0.39"/><rect x="435" y="429" width="6" height="9" fill="#c9a24b" opacity="0.49"/><rect x="463" y="460" width="6" height="9" fill="#c9a24b" opacity="0.44"/><rect x="492" y="460" width="6" height="9" fill="#c9a24b" opacity="0.39"/><rect x="435" y="492" width="6" height="9" fill="#c9a24b" opacity="0.44"/><rect x="463" y="492" width="6" height="9" fill="#c9a24b" opacity="0.39"/><rect x="520" y="492" width="6" height="9" fill="#c9a24b" opacity="0.74"/><rect x="435" y="523" width="6" height="9" fill="#c9a24b" opacity="0.39"/><rect x="463" y="523" width="6" height="9" fill="#c9a24b" opacity="0.45"/><rect x="492" y="523" width="6" height="9" fill="#c9a24b" opacity="0.74"/><rect x="549" y="523" width="6" height="9" fill="#c9a24b" opacity="0.41"/><rect x="435" y="555" width="6" height="9" fill="#c9a24b" opacity="0.45"/><rect x="520" y="555" width="6" height="9" fill="#c9a24b" opacity="0.41"/><rect x="563" y="301" width="214" height="599" fill="#7a6a3a" opacity="0.92"/><rect x="571" y="313" width="6" height="9" fill="#c9a24b" opacity="0.59"/><rect x="598" y="313" width="6" height="9" fill="#c9a24b" opacity="0.75"/><rect x="624" y="313" width="6" height="9" fill="#c9a24b" opacity="0.71"/><rect x="678" y="313" width="6" height="9" fill="#c9a24b" opacity="0.80"/><rect x="705" y="313" width="6" height="9" fill="#c9a24b" opacity="0.62"/><rect x="758" y="313" width="6" height="9" fill="#c9a24b" opacity="0.49"/><rect x="571" y="343" width="6" height="9" fill="#c9a24b" opacity="0.75"/><rect x="651" y="343" width="6" height="9" fill="#c9a24b" opacity="0.80"/><rect x="705" y="343" width="6" height="9" fill="#c9a24b" opacity="0.47"/><rect x="732" y="343" width="6" height="9" fill="#c9a24b" opacity="0.49"/><rect x="758" y="343" width="6" height="9" fill="#c9a24b" opacity="0.62"/><rect x="571" y="374" width="6" height="9" fill="#c9a24b" opacity="0.71"/><rect x="598" y="374" width="6" height="9" fill="#c9a24b" opacity="0.43"/><rect x="651" y="374" width="6" height="9" fill="#c9a24b" opacity="0.62"/><rect x="678" y="374" width="6" height="9" fill="#c9a24b" opacity="0.47"/><rect x="705" y="374" width="6" height="9" fill="#c9a24b" opacity="0.49"/><rect x="571" y="404" width="6" height="9" fill="#c9a24b" opacity="0.43"/><rect x="651" y="404" width="6" height="9" fill="#c9a24b" opacity="0.47"/><rect x="732" y="404" width="6" height="9" fill="#c9a24b" opacity="0.44"/><rect x="758" y="404" width="6" height="9" fill="#c9a24b" opacity="0.39"/><rect x="598" y="434" width="6" height="9" fill="#c9a24b" opacity="0.62"/><rect x="651" y="434" width="6" height="9" fill="#c9a24b" opacity="0.49"/><rect x="705" y="434" width="6" height="9" fill="#c9a24b" opacity="0.44"/><rect x="758" y="434" width="6" height="9" fill="#c9a24b" opacity="0.45"/><rect x="624" y="465" width="6" height="9" fill="#c9a24b" opacity="0.49"/><rect x="732" y="465" width="6" height="9" fill="#c9a24b" opacity="0.45"/><rect x="758" y="465" width="6" height="9" fill="#c9a24b" opacity="0.74"/><rect x="598" y="495" width="6" height="9" fill="#c9a24b" opacity="0.49"/><rect x="651" y="495" width="6" height="9" fill="#c9a24b" opacity="0.44"/><rect x="732" y="495" width="6" height="9" fill="#c9a24b" opacity="0.74"/><rect x="598" y="525" width="6" height="9" fill="#c9a24b" opacity="0.62"/><rect x="624" y="525" width="6" height="9" fill="#c9a24b" opacity="0.44"/><rect x="705" y="525" width="6" height="9" fill="#c9a24b" opacity="0.74"/><rect x="732" y="525" width="6" height="9" fill="#c9a24b" opacity="0.79"/><rect x="758" y="525" width="6" height="9" fill="#c9a24b" opacity="0.41"/><rect x="598" y="556" width="6" height="9" fill="#c9a24b" opacity="0.44"/><rect x="624" y="556" width="6" height="9" fill="#c9a24b" opacity="0.39"/><rect x="651" y="556" width="6" height="9" fill="#c9a24b" opacity="0.45"/><rect x="705" y="556" width="6" height="9" fill="#c9a24b" opacity="0.79"/><rect x="771" y="369" width="134" height="531" fill="#2c2818" opacity="0.92"/><rect x="779" y="381" width="6" height="9" fill="#c9a24b" opacity="0.59"/><rect x="806" y="381" width="6" height="9" fill="#c9a24b" opacity="0.75"/><rect x="833" y="381" width="6" height="9" fill="#c9a24b" opacity="0.71"/><rect x="860" y="381" width="6" height="9" fill="#c9a24b" opacity="0.43"/><rect x="887" y="381" width="6" height="9" fill="#c9a24b" opacity="0.80"/><rect x="779" y="415" width="6" height="9" fill="#c9a24b" opacity="0.75"/><rect x="806" y="415" width="6" height="9" fill="#c9a24b" opacity="0.71"/><rect x="833" y="415" width="6" height="9" fill="#c9a24b" opacity="0.43"/><rect x="887" y="415" width="6" height="9" fill="#c9a24b" opacity="0.62"/><rect x="779" y="449" width="6" height="9" fill="#c9a24b" opacity="0.71"/><rect x="806" y="449" width="6" height="9" fill="#c9a24b" opacity="0.43"/><rect x="860" y="449" width="6" height="9" fill="#c9a24b" opacity="0.62"/><rect x="779" y="484" width="6" height="9" fill="#c9a24b" opacity="0.43"/><rect x="887" y="484" width="6" height="9" fill="#c9a24b" opacity="0.49"/><rect x="779" y="518" width="6" height="9" fill="#c9a24b" opacity="0.80"/><rect x="806" y="518" width="6" height="9" fill="#c9a24b" opacity="0.62"/><rect x="833" y="518" width="6" height="9" fill="#c9a24b" opacity="0.47"/><rect x="860" y="552" width="6" height="9" fill="#c9a24b" opacity="0.62"/><rect x="887" y="552" width="6" height="9" fill="#c9a24b" opacity="0.44"/><rect x="899" y="391" width="228" height="509" fill="#7a6a3a" opacity="0.92"/><rect x="907" y="403" width="6" height="9" fill="#c9a24b" opacity="0.59"/><rect x="965" y="403" width="6" height="9" fill="#c9a24b" opacity="0.71"/><rect x="993" y="403" width="6" height="9" fill="#c9a24b" opacity="0.43"/><rect x="1022" y="403" width="6" height="9" fill="#c9a24b" opacity="0.80"/><rect x="1079" y="403" width="6" height="9" fill="#c9a24b" opacity="0.47"/><rect x="1107" y="403" width="6" height="9" fill="#c9a24b" opacity="0.49"/><rect x="907" y="434" width="6" height="9" fill="#c9a24b" opacity="0.75"/><rect x="936" y="434" width="6" height="9" fill="#c9a24b" opacity="0.71"/><rect x="993" y="434" width="6" height="9" fill="#c9a24b" opacity="0.80"/><rect x="1050" y="434" width="6" height="9" fill="#c9a24b" opacity="0.47"/><rect x="936" y="464" width="6" height="9" fill="#c9a24b" opacity="0.43"/><rect x="965" y="464" width="6" height="9" fill="#c9a24b" opacity="0.80"/><rect x="1022" y="464" width="6" height="9" fill="#c9a24b" opacity="0.47"/><rect x="1050" y="464" width="6" height="9" fill="#c9a24b" opacity="0.49"/><rect x="1107" y="464" width="6" height="9" fill="#c9a24b" opacity="0.44"/><rect x="936" y="495" width="6" height="9" fill="#c9a24b" opacity="0.80"/><rect x="993" y="495" width="6" height="9" fill="#c9a24b" opacity="0.47"/><rect x="1022" y="495" width="6" height="9" fill="#c9a24b" opacity="0.49"/><rect x="1107" y="495" width="6" height="9" fill="#c9a24b" opacity="0.39"/><rect x="907" y="525" width="6" height="9" fill="#c9a24b" opacity="0.80"/><rect x="965" y="525" width="6" height="9" fill="#c9a24b" opacity="0.47"/><rect x="993" y="525" width="6" height="9" fill="#c9a24b" opacity="0.49"/><rect x="1022" y="525" width="6" height="9" fill="#c9a24b" opacity="0.62"/><rect x="1079" y="525" width="6" height="9" fill="#c9a24b" opacity="0.39"/><rect x="1107" y="525" width="6" height="9" fill="#c9a24b" opacity="0.45"/><rect x="965" y="556" width="6" height="9" fill="#c9a24b" opacity="0.49"/><rect x="993" y="556" width="6" height="9" fill="#c9a24b" opacity="0.62"/><rect x="1079" y="556" width="6" height="9" fill="#c9a24b" opacity="0.45"/><rect x="0" y="574.0699037102895" width="1200" height="325.9300962897105" fill="url(#water)" opacity="0.25"/>
<rect width="1200" height="900" fill="url(#vig)"/>
<text x="48" y="846" font-family="Georgia, serif" font-size="46" fill="#fff" opacity="0.92" letter-spacing="-1">Domaine du Vallon</text>
<text x="50" y="804" font-family="Georgia, serif" font-size="20" fill="#c9a24b" opacity="0.9" letter-spacing="3">KASSORA</text>
</svg>