<svg xmlns="http://www.w3.org/2000/svg" width="1200" height="900" viewBox="0 0 1200 900">
<defs>
<linearGradient id="sky" x1="0" y1="0" x2="0" y2="1">
<stop offset="0" stop-color="#e7cf8f"/><stop offset="0.55" stop-color="#c9a24b"/><stop offset="1" stop-color="#2c2818"/>
</linearGradient>
<radialGradient id="sun" cx="0.5" cy="0.5" r="0.5">
<stop offset="0" stop-color="#fff" stop-opacity="0.95"/><stop offset="0.4" stop-color="#c9a24b" stop-opacity="0.7"/><stop offset="1" stop-color="#c9a24b" stop-opacity="0"/>
</radialGradient>
<linearGradient id="water" x1="0" y1="0" x2="0" y2="1">
<stop offset="0" stop-color="#fff" stop-opacity="0.5"/><stop offset="1" stop-color="#fff" stop-opacity="0"/>
</linearGradient>
<linearGradient id="vig" x1="0" y1="0" x2="0" y2="1">
<stop offset="0" stop-color="#000" stop-opacity="0"/><stop offset="1" stop-color="#000" stop-opacity="0.45"/>
</linearGradient>
</defs>
<rect width="1200" height="900" fill="url(#sky)"/>
<circle cx="442" cy="271" r="108" fill="url(#sun)" opacity="0.9"/><rect x="-20" y="323" width="154" height="577" fill="#7a6a3a" opacity="0.92"/><rect x="19" y="335" width="6" height="9" fill="#c9a24b" opacity="0.62"/><rect x="-12" y="366" width="6" height="9" fill="#c9a24b" opacity="0.62"/><rect x="19" y="366" width="6" height="9" fill="#c9a24b" opacity="0.44"/><rect x="111" y="366" width="6" height="9" fill="#c9a24b" opacity="0.74"/><rect x="19" y="396" width="6" height="9" fill="#c9a24b" opacity="0.39"/><rect x="49" y="396" width="6" height="9" fill="#c9a24b" opacity="0.45"/><rect x="80" y="396" width="6" height="9" fill="#c9a24b" opacity="0.74"/><rect x="-12" y="426" width="6" height="9" fill="#c9a24b" opacity="0.39"/><rect x="19" y="426" width="6" height="9" fill="#c9a24b" opacity="0.45"/><rect x="49" y="426" width="6" height="9" fill="#c9a24b" opacity="0.74"/><rect x="80" y="426" width="6" height="9" fill="#c9a24b" opacity="0.79"/><rect x="111" y="426" width="6" height="9" fill="#c9a24b" opacity="0.41"/><rect x="19" y="456" width="6" height="9" fill="#c9a24b" opacity="0.74"/><rect x="80" y="456" width="6" height="9" fill="#c9a24b" opacity="0.41"/><rect x="-12" y="487" width="6" height="9" fill="#c9a24b" opacity="0.74"/><rect x="49" y="487" width="6" height="9" fill="#c9a24b" opacity="0.41"/><rect x="80" y="487" width="6" height="9" fill="#c9a24b" opacity="0.41"/><rect x="-12" y="517" width="6" height="9" fill="#c9a24b" opacity="0.79"/><rect x="49" y="517" width="6" height="9" fill="#c9a24b" opacity="0.41"/><rect x="80" y="517" width="6" height="9" fill="#c9a24b" opacity="0.49"/><rect x="111" y="517" width="6" height="9" fill="#c9a24b" opacity="0.67"/><rect x="128" y="375" width="129" height="525" fill="#2c2818" opacity="0.92"/><rect x="136" y="387" width="6" height="9" fill="#c9a24b" opacity="0.49"/><rect x="200" y="387" width="6" height="9" fill="#c9a24b" opacity="0.44"/><rect x="233" y="387" width="6" height="9" fill="#c9a24b" opacity="0.39"/><rect x="136" y="419" width="6" height="9" fill="#c9a24b" opacity="0.62"/><rect x="168" y="419" width="6" height="9" fill="#c9a24b" opacity="0.44"/><rect x="233" y="419" width="6" height="9" fill="#c9a24b" opacity="0.45"/><rect x="200" y="451" width="6" height="9" fill="#c9a24b" opacity="0.45"/><rect x="233" y="483" width="6" height="9" fill="#c9a24b" opacity="0.79"/><rect x="168" y="515" width="6" height="9" fill="#c9a24b" opacity="0.74"/><rect x="200" y="515" width="6" height="9" fill="#c9a24b" opacity="0.79"/><rect x="233" y="515" width="6" height="9" fill="#c9a24b" opacity="0.41"/><rect x="251" y="158" width="225" height="742" fill="#7a6a3a" opacity="0.92"/><rect x="287" y="170" width="6" height="9" fill="#c9a24b" opacity="0.62"/><rect x="427" y="170" width="6" height="9" fill="#c9a24b" opacity="0.79"/><rect x="456" y="170" width="6" height="9" fill="#c9a24b" opacity="0.41"/><rect x="259" y="201" width="6" height="9" fill="#c9a24b" opacity="0.62"/><rect x="287" y="201" width="6" height="9" fill="#c9a24b" opacity="0.44"/><rect x="315" y="201" width="6" height="9" fill="#c9a24b" opacity="0.39"/><rect x="343" y="201" width="6" height="9" fill="#c9a24b" opacity="0.45"/><rect x="371" y="201" width="6" height="9" fill="#c9a24b" opacity="0.74"/><rect x="399" y="201" width="6" height="9" fill="#c9a24b" opacity="0.79"/><rect x="427" y="201" width="6" height="9" fill="#c9a24b" opacity="0.41"/><rect x="456" y="201" width="6" height="9" fill="#c9a24b" opacity="0.41"/><rect x="259" y="233" width="6" height="9" fill="#c9a24b" opacity="0.44"/><rect x="287" y="233" width="6" height="9" fill="#c9a24b" opacity="0.39"/><rect x="343" y="233" width="6" height="9" fill="#c9a24b" opacity="0.74"/><rect x="371" y="233" width="6" height="9" fill="#c9a24b" opacity="0.79"/><rect x="315" y="264" width="6" height="9" fill="#c9a24b" opacity="0.74"/><rect x="371" y="264" width="6" height="9" fill="#c9a24b" opacity="0.41"/><rect x="456" y="264" width="6" height="9" fill="#c9a24b" opacity="0.67"/><rect x="259" y="296" width="6" height="9" fill="#c9a24b" opacity="0.45"/><rect x="343" y="296" width="6" height="9" fill="#c9a24b" opacity="0.41"/><rect x="315" y="327" width="6" height="9" fill="#c9a24b" opacity="0.41"/><rect x="343" y="327" width="6" height="9" fill="#c9a24b" opacity="0.41"/><rect x="399" y="327" width="6" height="9" fill="#c9a24b" opacity="0.67"/><rect x="259" y="359" width="6" height="9" fill="#c9a24b" opacity="0.79"/><rect x="287" y="359" width="6" height="9" fill="#c9a24b" opacity="0.41"/><rect x="343" y="359" width="6" height="9" fill="#c9a24b" opacity="0.49"/><rect x="371" y="359" width="6" height="9" fill="#c9a24b" opacity="0.67"/><rect x="343" y="390" width="6" height="9" fill="#c9a24b" opacity="0.67"/><rect x="371" y="390" width="6" height="9" fill="#c9a24b" opacity="0.80"/><rect x="399" y="390" width="6" height="9" fill="#c9a24b" opacity="0.47"/><rect x="427" y="390" width="6" height="9" fill="#c9a24b" opacity="0.56"/><rect x="456" y="390" width="6" height="9" fill="#c9a24b" opacity="0.76"/><rect x="287" y="421" width="6" height="9" fill="#c9a24b" opacity="0.49"/><rect x="315" y="421" width="6" height="9" fill="#c9a24b" opacity="0.67"/><rect x="259" y="453" width="6" height="9" fill="#c9a24b" opacity="0.49"/><rect x="315" y="453" width="6" height="9" fill="#c9a24b" opacity="0.80"/><rect x="343" y="453" width="6" height="9" fill="#c9a24b" opacity="0.47"/><rect x="371" y="453" width="6" height="9" fill="#c9a24b" opacity="0.56"/><rect x="427" y="453" width="6" height="9" fill="#c9a24b" opacity="0.84"/><rect x="259" y="484" width="6" height="9" fill="#c9a24b" opacity="0.67"/><rect x="287" y="484" width="6" height="9" fill="#c9a24b" opacity="0.80"/><rect x="343" y="484" width="6" height="9" fill="#c9a24b" opacity="0.56"/><rect x="371" y="484" width="6" height="9" fill="#c9a24b" opacity="0.76"/><rect x="427" y="484" width="6" height="9" fill="#c9a24b" opacity="0.70"/><rect x="287" y="516" width="6" height="9" fill="#c9a24b" opacity="0.47"/><rect x="371" y="516" width="6" height="9" fill="#c9a24b" opacity="0.84"/><rect x="399" y="516" width="6" height="9" fill="#c9a24b" opacity="0.70"/><rect x="470" y="262" width="155" height="638" fill="#2c2818" opacity="0.92"/><rect x="478" y="274" width="6" height="9" fill="#c9a24b" opacity="0.49"/><rect x="509" y="274" width="6" height="9" fill="#c9a24b" opacity="0.62"/><rect x="570" y="274" width="6" height="9" fill="#c9a24b" opacity="0.39"/><rect x="601" y="274" width="6" height="9" fill="#c9a24b" opacity="0.45"/><rect x="509" y="305" width="6" height="9" fill="#c9a24b" opacity="0.44"/><rect x="601" y="305" width="6" height="9" fill="#c9a24b" opacity="0.74"/><rect x="509" y="335" width="6" height="9" fill="#c9a24b" opacity="0.39"/><rect x="570" y="335" width="6" height="9" fill="#c9a24b" opacity="0.74"/><rect x="478" y="365" width="6" height="9" fill="#c9a24b" opacity="0.39"/><rect x="539" y="365" width="6" height="9" fill="#c9a24b" opacity="0.74"/><rect x="570" y="365" width="6" height="9" fill="#c9a24b" opacity="0.79"/><rect x="601" y="365" width="6" height="9" fill="#c9a24b" opacity="0.41"/><rect x="509" y="396" width="6" height="9" fill="#c9a24b" opacity="0.74"/><rect x="601" y="396" width="6" height="9" fill="#c9a24b" opacity="0.41"/><rect x="509" y="426" width="6" height="9" fill="#c9a24b" opacity="0.79"/><rect x="539" y="426" width="6" height="9" fill="#c9a24b" opacity="0.41"/><rect x="570" y="426" width="6" height="9" fill="#c9a24b" opacity="0.41"/><rect x="478" y="456" width="6" height="9" fill="#c9a24b" opacity="0.79"/><rect x="539" y="456" width="6" height="9" fill="#c9a24b" opacity="0.41"/><rect x="570" y="456" width="6" height="9" fill="#c9a24b" opacity="0.49"/><rect x="478" y="487" width="6" height="9" fill="#c9a24b" opacity="0.41"/><rect x="601" y="487" width="6" height="9" fill="#c9a24b" opacity="0.80"/><rect x="570" y="517" width="6" height="9" fill="#c9a24b" opacity="0.80"/><rect x="601" y="517" width="6" height="9" fill="#c9a24b" opacity="0.47"/><rect x="618" y="330" width="149" height="570" fill="#7a6a3a" opacity="0.92"/><rect x="626" y="342" width="6" height="9" fill="#c9a24b" opacity="0.49"/><rect x="656" y="342" width="6" height="9" fill="#c9a24b" opacity="0.62"/><rect x="686" y="342" width="6" height="9" fill="#c9a24b" opacity="0.44"/><rect x="716" y="342" width="6" height="9" fill="#c9a24b" opacity="0.39"/><rect x="626" y="376" width="6" height="9" fill="#c9a24b" opacity="0.62"/><rect x="716" y="376" width="6" height="9" fill="#c9a24b" opacity="0.45"/><rect x="746" y="376" width="6" height="9" fill="#c9a24b" opacity="0.74"/><rect x="656" y="411" width="6" height="9" fill="#c9a24b" opacity="0.39"/><rect x="686" y="411" width="6" height="9" fill="#c9a24b" opacity="0.45"/><rect x="716" y="411" width="6" height="9" fill="#c9a24b" opacity="0.74"/><rect x="626" y="445" width="6" height="9" fill="#c9a24b" opacity="0.39"/><rect x="656" y="445" width="6" height="9" fill="#c9a24b" opacity="0.45"/><rect x="686" y="445" width="6" height="9" fill="#c9a24b" opacity="0.74"/><rect x="746" y="445" width="6" height="9" fill="#c9a24b" opacity="0.41"/><rect x="626" y="479" width="6" height="9" fill="#c9a24b" opacity="0.45"/><rect x="656" y="479" width="6" height="9" fill="#c9a24b" opacity="0.74"/><rect x="626" y="513" width="6" height="9" fill="#c9a24b" opacity="0.74"/><rect x="656" y="513" width="6" height="9" fill="#c9a24b" opacity="0.79"/><rect x="746" y="513" width="6" height="9" fill="#c9a24b" opacity="0.49"/><rect x="761" y="353" width="238" height="547" fill="#2c2818" opacity="0.92"/><rect x="796" y="365" width="6" height="9" fill="#c9a24b" opacity="0.62"/><rect x="822" y="365" width="6" height="9" fill="#c9a24b" opacity="0.44"/><rect x="849" y="365" width="6" height="9" fill="#c9a24b" opacity="0.39"/><rect x="875" y="365" width="6" height="9" fill="#c9a24b" opacity="0.45"/><rect x="902" y="365" width="6" height="9" fill="#c9a24b" opacity="0.74"/><rect x="954" y="365" width="6" height="9" fill="#c9a24b" opacity="0.41"/><rect x="769" y="395" width="6" height="9" fill="#c9a24b" opacity="0.62"/><rect x="796" y="395" width="6" height="9" fill="#c9a24b" opacity="0.44"/><rect x="822" y="395" width="6" height="9" fill="#c9a24b" opacity="0.39"/><rect x="849" y="395" width="6" height="9" fill="#c9a24b" opacity="0.45"/><rect x="875" y="395" width="6" height="9" fill="#c9a24b" opacity="0.74"/><rect x="928" y="395" width="6" height="9" fill="#c9a24b" opacity="0.41"/><rect x="981" y="395" width="6" height="9" fill="#c9a24b" opacity="0.49"/><rect x="769" y="425" width="6" height="9" fill="#c9a24b" opacity="0.44"/><rect x="796" y="425" width="6" height="9" fill="#c9a24b" opacity="0.39"/><rect x="822" y="425" width="6" height="9" fill="#c9a24b" opacity="0.45"/><rect x="849" y="425" width="6" height="9" fill="#c9a24b" opacity="0.74"/><rect x="954" y="425" width="6" height="9" fill="#c9a24b" opacity="0.49"/><rect x="769" y="456" width="6" height="9" fill="#c9a24b" opacity="0.39"/><rect x="796" y="456" width="6" height="9" fill="#c9a24b" opacity="0.45"/><rect x="849" y="456" width="6" height="9" fill="#c9a24b" opacity="0.79"/><rect x="875" y="456" width="6" height="9" fill="#c9a24b" opacity="0.41"/><rect x="902" y="456" width="6" height="9" fill="#c9a24b" opacity="0.41"/><rect x="822" y="486" width="6" height="9" fill="#c9a24b" opacity="0.79"/><rect x="928" y="486" width="6" height="9" fill="#c9a24b" opacity="0.67"/><rect x="954" y="486" width="6" height="9" fill="#c9a24b" opacity="0.80"/><rect x="981" y="486" width="6" height="9" fill="#c9a24b" opacity="0.47"/><rect x="769" y="517" width="6" height="9" fill="#c9a24b" opacity="0.74"/><rect x="849" y="517" width="6" height="9" fill="#c9a24b" opacity="0.41"/><rect x="875" y="517" width="6" height="9" fill="#c9a24b" opacity="0.49"/><rect x="954" y="517" width="6" height="9" fill="#c9a24b" opacity="0.47"/><rect x="981" y="517" width="6" height="9" fill="#c9a24b" opacity="0.56"/><rect x="993" y="301" width="225" height="599" fill="#7a6a3a" opacity="0.92"/><rect x="1001" y="313" width="6" height="9" fill="#c9a24b" opacity="0.49"/><rect x="1029" y="313" width="6" height="9" fill="#c9a24b" opacity="0.62"/><rect x="1086" y="313" width="6" height="9" fill="#c9a24b" opacity="0.39"/><rect x="1114" y="313" width="6" height="9" fill="#c9a24b" opacity="0.45"/><rect x="1170" y="313" width="6" height="9" fill="#c9a24b" opacity="0.79"/><rect x="1029" y="347" width="6" height="9" fill="#c9a24b" opacity="0.44"/><rect x="1114" y="347" width="6" height="9" fill="#c9a24b" opacity="0.74"/><rect x="1142" y="347" width="6" height="9" fill="#c9a24b" opacity="0.79"/><rect x="1198" y="347" width="6" height="9" fill="#c9a24b" opacity="0.41"/><rect x="1001" y="380" width="6" height="9" fill="#c9a24b" opacity="0.44"/><rect x="1029" y="380" width="6" height="9" fill="#c9a24b" opacity="0.39"/><rect x="1058" y="380" width="6" height="9" fill="#c9a24b" opacity="0.45"/><rect x="1114" y="380" width="6" height="9" fill="#c9a24b" opacity="0.79"/><rect x="1170" y="380" width="6" height="9" fill="#c9a24b" opacity="0.41"/><rect x="1198" y="380" width="6" height="9" fill="#c9a24b" opacity="0.49"/><rect x="1001" y="413" width="6" height="9" fill="#c9a24b" opacity="0.39"/><rect x="1029" y="413" width="6" height="9" fill="#c9a24b" opacity="0.45"/><rect x="1086" y="413" width="6" height="9" fill="#c9a24b" opacity="0.79"/><rect x="1142" y="413" width="6" height="9" fill="#c9a24b" opacity="0.41"/><rect x="1170" y="413" width="6" height="9" fill="#c9a24b" opacity="0.49"/><rect x="1198" y="413" width="6" height="9" fill="#c9a24b" opacity="0.67"/><rect x="1001" y="447" width="6" height="9" fill="#c9a24b" opacity="0.45"/><rect x="1029" y="447" width="6" height="9" fill="#c9a24b" opacity="0.74"/><rect x="1058" y="447" width="6" height="9" fill="#c9a24b" opacity="0.79"/><rect x="1142" y="447" width="6" height="9" fill="#c9a24b" opacity="0.49"/><rect x="1170" y="447" width="6" height="9" fill="#c9a24b" opacity="0.67"/><rect x="1114" y="480" width="6" height="9" fill="#c9a24b" opacity="0.49"/><rect x="1142" y="480" width="6" height="9" fill="#c9a24b" opacity="0.67"/><rect x="1198" y="480" width="6" height="9" fill="#c9a24b" opacity="0.47"/><rect x="1001" y="514" width="6" height="9" fill="#c9a24b" opacity="0.79"/><rect x="1029" y="514" width="6" height="9" fill="#c9a24b" opacity="0.41"/><rect x="1086" y="514" width="6" height="9" fill="#c9a24b" opacity="0.49"/><rect x="1114" y="514" width="6" height="9" fill="#c9a24b" opacity="0.67"/><rect x="1142" y="514" width="6" height="9" fill="#c9a24b" opacity="0.80"/><rect x="1198" y="514" width="6" height="9" fill="#c9a24b" opacity="0.56"/><rect x="0" y="535.2225052100656" width="1200" height="364.7774947899344" fill="url(#water)" opacity="0.25"/>
<rect width="1200" height="900" fill="url(#vig)"/>
<text x="48" y="846" font-family="Georgia, serif" font-size="46" fill="#fff" opacity="0.92" letter-spacing="-1">Domaine du Vallon</text>
<text x="50" y="804" font-family="Georgia, serif" font-size="20" fill="#c9a24b" opacity="0.9" letter-spacing="3">KASSORA</text>
</svg>