<svg xmlns="http://www.w3.org/2000/svg" width="1200" height="900" viewBox="0 0 1200 900">
<defs>
<linearGradient id="sky" x1="0" y1="0" x2="0" y2="1">
<stop offset="0" stop-color="#f3b7a1"/><stop offset="0.55" stop-color="#e98b6f"/><stop offset="1" stop-color="#2b2140"/>
</linearGradient>
<radialGradient id="sun" cx="0.5" cy="0.5" r="0.5">
<stop offset="0" stop-color="#fff" stop-opacity="0.95"/><stop offset="0.4" stop-color="#e98b6f" stop-opacity="0.7"/><stop offset="1" stop-color="#e98b6f" stop-opacity="0"/>
</radialGradient>
<linearGradient id="water" x1="0" y1="0" x2="0" y2="1">
<stop offset="0" stop-color="#fff" stop-opacity="0.5"/><stop offset="1" stop-color="#fff" stop-opacity="0"/>
</linearGradient>
<linearGradient id="vig" x1="0" y1="0" x2="0" y2="1">
<stop offset="0" stop-color="#000" stop-opacity="0"/><stop offset="1" stop-color="#000" stop-opacity="0.45"/>
</linearGradient>
</defs>
<rect width="1200" height="900" fill="url(#sky)"/>
<circle cx="408" cy="236" r="108" fill="url(#sun)" opacity="0.9"/><rect x="-20" y="363" width="130" height="537" fill="#7a4a63" opacity="0.92"/><rect x="53" y="375" width="6" height="9" fill="#e98b6f" opacity="0.62"/><rect x="20" y="408" width="6" height="9" fill="#e98b6f" opacity="0.62"/><rect x="53" y="408" width="6" height="9" fill="#e98b6f" opacity="0.44"/><rect x="53" y="441" width="6" height="9" fill="#e98b6f" opacity="0.39"/><rect x="85" y="441" width="6" height="9" fill="#e98b6f" opacity="0.45"/><rect x="20" y="474" width="6" height="9" fill="#e98b6f" opacity="0.39"/><rect x="53" y="474" width="6" height="9" fill="#e98b6f" opacity="0.45"/><rect x="85" y="474" width="6" height="9" fill="#e98b6f" opacity="0.74"/><rect x="53" y="507" width="6" height="9" fill="#e98b6f" opacity="0.74"/><rect x="20" y="540" width="6" height="9" fill="#e98b6f" opacity="0.74"/><rect x="85" y="540" width="6" height="9" fill="#e98b6f" opacity="0.41"/><rect x="104" y="167" width="124" height="733" fill="#2b2140" opacity="0.92"/><rect x="112" y="179" width="6" height="9" fill="#e98b6f" opacity="0.47"/><rect x="143" y="179" width="6" height="9" fill="#e98b6f" opacity="0.49"/><rect x="205" y="179" width="6" height="9" fill="#e98b6f" opacity="0.44"/><rect x="143" y="210" width="6" height="9" fill="#e98b6f" opacity="0.62"/><rect x="174" y="210" width="6" height="9" fill="#e98b6f" opacity="0.44"/><rect x="112" y="240" width="6" height="9" fill="#e98b6f" opacity="0.62"/><rect x="205" y="240" width="6" height="9" fill="#e98b6f" opacity="0.45"/><rect x="112" y="300" width="6" height="9" fill="#e98b6f" opacity="0.39"/><rect x="174" y="300" width="6" height="9" fill="#e98b6f" opacity="0.74"/><rect x="205" y="300" width="6" height="9" fill="#e98b6f" opacity="0.79"/><rect x="112" y="331" width="6" height="9" fill="#e98b6f" opacity="0.45"/><rect x="143" y="331" width="6" height="9" fill="#e98b6f" opacity="0.74"/><rect x="174" y="331" width="6" height="9" fill="#e98b6f" opacity="0.79"/><rect x="205" y="361" width="6" height="9" fill="#e98b6f" opacity="0.41"/><rect x="112" y="391" width="6" height="9" fill="#e98b6f" opacity="0.79"/><rect x="143" y="391" width="6" height="9" fill="#e98b6f" opacity="0.41"/><rect x="174" y="391" width="6" height="9" fill="#e98b6f" opacity="0.41"/><rect x="205" y="391" width="6" height="9" fill="#e98b6f" opacity="0.49"/><rect x="174" y="421" width="6" height="9" fill="#e98b6f" opacity="0.49"/><rect x="143" y="452" width="6" height="9" fill="#e98b6f" opacity="0.49"/><rect x="112" y="482" width="6" height="9" fill="#e98b6f" opacity="0.49"/><rect x="174" y="482" width="6" height="9" fill="#e98b6f" opacity="0.80"/><rect x="112" y="512" width="6" height="9" fill="#e98b6f" opacity="0.67"/><rect x="143" y="512" width="6" height="9" fill="#e98b6f" opacity="0.80"/><rect x="174" y="512" width="6" height="9" fill="#e98b6f" opacity="0.47"/><rect x="205" y="512" width="6" height="9" fill="#e98b6f" opacity="0.56"/><rect x="143" y="542" width="6" height="9" fill="#e98b6f" opacity="0.47"/><rect x="174" y="542" width="6" height="9" fill="#e98b6f" opacity="0.56"/><rect x="222" y="308" width="187" height="592" fill="#7a4a63" opacity="0.92"/><rect x="230" y="320" width="6" height="9" fill="#e98b6f" opacity="0.47"/><rect x="283" y="320" width="6" height="9" fill="#e98b6f" opacity="0.62"/><rect x="230" y="351" width="6" height="9" fill="#e98b6f" opacity="0.49"/><rect x="257" y="351" width="6" height="9" fill="#e98b6f" opacity="0.62"/><rect x="283" y="351" width="6" height="9" fill="#e98b6f" opacity="0.44"/><rect x="310" y="351" width="6" height="9" fill="#e98b6f" opacity="0.39"/><rect x="337" y="351" width="6" height="9" fill="#e98b6f" opacity="0.45"/><rect x="364" y="351" width="6" height="9" fill="#e98b6f" opacity="0.74"/><rect x="390" y="351" width="6" height="9" fill="#e98b6f" opacity="0.79"/><rect x="257" y="383" width="6" height="9" fill="#e98b6f" opacity="0.44"/><rect x="283" y="383" width="6" height="9" fill="#e98b6f" opacity="0.39"/><rect x="337" y="383" width="6" height="9" fill="#e98b6f" opacity="0.74"/><rect x="364" y="383" width="6" height="9" fill="#e98b6f" opacity="0.79"/><rect x="230" y="414" width="6" height="9" fill="#e98b6f" opacity="0.44"/><rect x="310" y="414" width="6" height="9" fill="#e98b6f" opacity="0.74"/><rect x="364" y="414" width="6" height="9" fill="#e98b6f" opacity="0.41"/><rect x="257" y="446" width="6" height="9" fill="#e98b6f" opacity="0.45"/><rect x="337" y="446" width="6" height="9" fill="#e98b6f" opacity="0.41"/><rect x="310" y="478" width="6" height="9" fill="#e98b6f" opacity="0.41"/><rect x="337" y="478" width="6" height="9" fill="#e98b6f" opacity="0.41"/><rect x="390" y="478" width="6" height="9" fill="#e98b6f" opacity="0.67"/><rect x="230" y="509" width="6" height="9" fill="#e98b6f" opacity="0.74"/><rect x="257" y="509" width="6" height="9" fill="#e98b6f" opacity="0.79"/><rect x="283" y="509" width="6" height="9" fill="#e98b6f" opacity="0.41"/><rect x="337" y="509" width="6" height="9" fill="#e98b6f" opacity="0.49"/><rect x="364" y="509" width="6" height="9" fill="#e98b6f" opacity="0.67"/><rect x="337" y="541" width="6" height="9" fill="#e98b6f" opacity="0.67"/><rect x="364" y="541" width="6" height="9" fill="#e98b6f" opacity="0.80"/><rect x="390" y="541" width="6" height="9" fill="#e98b6f" opacity="0.47"/><rect x="403" y="380" width="118" height="520" fill="#2b2140" opacity="0.92"/><rect x="441" y="392" width="6" height="9" fill="#e98b6f" opacity="0.49"/><rect x="470" y="392" width="6" height="9" fill="#e98b6f" opacity="0.62"/><rect x="470" y="422" width="6" height="9" fill="#e98b6f" opacity="0.44"/><rect x="470" y="452" width="6" height="9" fill="#e98b6f" opacity="0.39"/><rect x="411" y="482" width="6" height="9" fill="#e98b6f" opacity="0.44"/><rect x="441" y="482" width="6" height="9" fill="#e98b6f" opacity="0.39"/><rect x="499" y="482" width="6" height="9" fill="#e98b6f" opacity="0.74"/><rect x="470" y="512" width="6" height="9" fill="#e98b6f" opacity="0.74"/><rect x="470" y="543" width="6" height="9" fill="#e98b6f" opacity="0.79"/><rect x="499" y="543" width="6" height="9" fill="#e98b6f" opacity="0.41"/><rect x="515" y="330" width="200" height="570" fill="#7a4a63" opacity="0.92"/><rect x="551" y="342" width="6" height="9" fill="#e98b6f" opacity="0.49"/><rect x="580" y="342" width="6" height="9" fill="#e98b6f" opacity="0.62"/><rect x="608" y="342" width="6" height="9" fill="#e98b6f" opacity="0.44"/><rect x="637" y="342" width="6" height="9" fill="#e98b6f" opacity="0.39"/><rect x="523" y="375" width="6" height="9" fill="#e98b6f" opacity="0.49"/><rect x="551" y="375" width="6" height="9" fill="#e98b6f" opacity="0.62"/><rect x="637" y="375" width="6" height="9" fill="#e98b6f" opacity="0.45"/><rect x="666" y="375" width="6" height="9" fill="#e98b6f" opacity="0.74"/><rect x="580" y="408" width="6" height="9" fill="#e98b6f" opacity="0.39"/><rect x="608" y="408" width="6" height="9" fill="#e98b6f" opacity="0.45"/><rect x="637" y="408" width="6" height="9" fill="#e98b6f" opacity="0.74"/><rect x="523" y="441" width="6" height="9" fill="#e98b6f" opacity="0.44"/><rect x="551" y="441" width="6" height="9" fill="#e98b6f" opacity="0.39"/><rect x="580" y="441" width="6" height="9" fill="#e98b6f" opacity="0.45"/><rect x="608" y="441" width="6" height="9" fill="#e98b6f" opacity="0.74"/><rect x="666" y="441" width="6" height="9" fill="#e98b6f" opacity="0.41"/><rect x="551" y="474" width="6" height="9" fill="#e98b6f" opacity="0.45"/><rect x="580" y="474" width="6" height="9" fill="#e98b6f" opacity="0.74"/><rect x="694" y="474" width="6" height="9" fill="#e98b6f" opacity="0.49"/><rect x="523" y="507" width="6" height="9" fill="#e98b6f" opacity="0.45"/><rect x="551" y="507" width="6" height="9" fill="#e98b6f" opacity="0.74"/><rect x="580" y="507" width="6" height="9" fill="#e98b6f" opacity="0.79"/><rect x="666" y="507" width="6" height="9" fill="#e98b6f" opacity="0.49"/><rect x="523" y="540" width="6" height="9" fill="#e98b6f" opacity="0.74"/><rect x="608" y="540" width="6" height="9" fill="#e98b6f" opacity="0.41"/><rect x="666" y="540" width="6" height="9" fill="#e98b6f" opacity="0.67"/><rect x="694" y="540" width="6" height="9" fill="#e98b6f" opacity="0.80"/><rect x="709" y="185" width="191" height="715" fill="#2b2140" opacity="0.92"/><rect x="771" y="197" width="6" height="9" fill="#e98b6f" opacity="0.62"/><rect x="799" y="197" width="6" height="9" fill="#e98b6f" opacity="0.44"/><rect x="826" y="197" width="6" height="9" fill="#e98b6f" opacity="0.39"/><rect x="853" y="197" width="6" height="9" fill="#e98b6f" opacity="0.45"/><rect x="881" y="197" width="6" height="9" fill="#e98b6f" opacity="0.74"/><rect x="744" y="228" width="6" height="9" fill="#e98b6f" opacity="0.62"/><rect x="771" y="228" width="6" height="9" fill="#e98b6f" opacity="0.44"/><rect x="799" y="228" width="6" height="9" fill="#e98b6f" opacity="0.39"/><rect x="826" y="228" width="6" height="9" fill="#e98b6f" opacity="0.45"/><rect x="853" y="228" width="6" height="9" fill="#e98b6f" opacity="0.74"/><rect x="717" y="259" width="6" height="9" fill="#e98b6f" opacity="0.62"/><rect x="744" y="259" width="6" height="9" fill="#e98b6f" opacity="0.44"/><rect x="771" y="259" width="6" height="9" fill="#e98b6f" opacity="0.39"/><rect x="799" y="259" width="6" height="9" fill="#e98b6f" opacity="0.45"/><rect x="826" y="259" width="6" height="9" fill="#e98b6f" opacity="0.74"/><rect x="744" y="291" width="6" height="9" fill="#e98b6f" opacity="0.39"/><rect x="771" y="291" width="6" height="9" fill="#e98b6f" opacity="0.45"/><rect x="826" y="291" width="6" height="9" fill="#e98b6f" opacity="0.79"/><rect x="853" y="291" width="6" height="9" fill="#e98b6f" opacity="0.41"/><rect x="881" y="291" width="6" height="9" fill="#e98b6f" opacity="0.41"/><rect x="799" y="322" width="6" height="9" fill="#e98b6f" opacity="0.79"/><rect x="717" y="353" width="6" height="9" fill="#e98b6f" opacity="0.45"/><rect x="744" y="353" width="6" height="9" fill="#e98b6f" opacity="0.74"/><rect x="826" y="353" width="6" height="9" fill="#e98b6f" opacity="0.41"/><rect x="853" y="353" width="6" height="9" fill="#e98b6f" opacity="0.49"/><rect x="717" y="385" width="6" height="9" fill="#e98b6f" opacity="0.74"/><rect x="744" y="385" width="6" height="9" fill="#e98b6f" opacity="0.79"/><rect x="826" y="385" width="6" height="9" fill="#e98b6f" opacity="0.49"/><rect x="717" y="416" width="6" height="9" fill="#e98b6f" opacity="0.79"/><rect x="744" y="416" width="6" height="9" fill="#e98b6f" opacity="0.41"/><rect x="771" y="416" width="6" height="9" fill="#e98b6f" opacity="0.41"/><rect x="826" y="416" width="6" height="9" fill="#e98b6f" opacity="0.67"/><rect x="744" y="447" width="6" height="9" fill="#e98b6f" opacity="0.41"/><rect x="799" y="447" width="6" height="9" fill="#e98b6f" opacity="0.67"/><rect x="881" y="447" width="6" height="9" fill="#e98b6f" opacity="0.56"/><rect x="744" y="479" width="6" height="9" fill="#e98b6f" opacity="0.49"/><rect x="771" y="479" width="6" height="9" fill="#e98b6f" opacity="0.67"/><rect x="826" y="479" width="6" height="9" fill="#e98b6f" opacity="0.47"/><rect x="881" y="479" width="6" height="9" fill="#e98b6f" opacity="0.76"/><rect x="717" y="510" width="6" height="9" fill="#e98b6f" opacity="0.49"/><rect x="744" y="510" width="6" height="9" fill="#e98b6f" opacity="0.67"/><rect x="771" y="510" width="6" height="9" fill="#e98b6f" opacity="0.80"/><rect x="826" y="510" width="6" height="9" fill="#e98b6f" opacity="0.56"/><rect x="853" y="510" width="6" height="9" fill="#e98b6f" opacity="0.76"/><rect x="771" y="541" width="6" height="9" fill="#e98b6f" opacity="0.47"/><rect x="853" y="541" width="6" height="9" fill="#e98b6f" opacity="0.84"/><rect x="881" y="541" width="6" height="9" fill="#e98b6f" opacity="0.70"/><rect x="894" y="189" width="206" height="711" fill="#7a4a63" opacity="0.92"/><rect x="902" y="201" width="6" height="9" fill="#e98b6f" opacity="0.47"/><rect x="931" y="201" width="6" height="9" fill="#e98b6f" opacity="0.49"/><rect x="961" y="201" width="6" height="9" fill="#e98b6f" opacity="0.62"/><rect x="1020" y="201" width="6" height="9" fill="#e98b6f" opacity="0.39"/><rect x="1049" y="201" width="6" height="9" fill="#e98b6f" opacity="0.45"/><rect x="961" y="232" width="6" height="9" fill="#e98b6f" opacity="0.44"/><rect x="1049" y="232" width="6" height="9" fill="#e98b6f" opacity="0.74"/><rect x="1079" y="232" width="6" height="9" fill="#e98b6f" opacity="0.79"/><rect x="931" y="263" width="6" height="9" fill="#e98b6f" opacity="0.44"/><rect x="961" y="263" width="6" height="9" fill="#e98b6f" opacity="0.39"/><rect x="990" y="263" width="6" height="9" fill="#e98b6f" opacity="0.45"/><rect x="1049" y="263" width="6" height="9" fill="#e98b6f" opacity="0.79"/><rect x="931" y="294" width="6" height="9" fill="#e98b6f" opacity="0.39"/><rect x="961" y="294" width="6" height="9" fill="#e98b6f" opacity="0.45"/><rect x="1020" y="294" width="6" height="9" fill="#e98b6f" opacity="0.79"/><rect x="1079" y="294" width="6" height="9" fill="#e98b6f" opacity="0.41"/><rect x="902" y="325" width="6" height="9" fill="#e98b6f" opacity="0.39"/><rect x="931" y="325" width="6" height="9" fill="#e98b6f" opacity="0.45"/><rect x="961" y="325" width="6" height="9" fill="#e98b6f" opacity="0.74"/><rect x="990" y="325" width="6" height="9" fill="#e98b6f" opacity="0.79"/><rect x="1079" y="325" width="6" height="9" fill="#e98b6f" opacity="0.49"/><rect x="902" y="356" width="6" height="9" fill="#e98b6f" opacity="0.45"/><rect x="1049" y="356" width="6" height="9" fill="#e98b6f" opacity="0.49"/><rect x="1079" y="356" width="6" height="9" fill="#e98b6f" opacity="0.67"/><rect x="902" y="387" width="6" height="9" fill="#e98b6f" opacity="0.74"/><rect x="931" y="387" width="6" height="9" fill="#e98b6f" opacity="0.79"/><rect x="961" y="387" width="6" height="9" fill="#e98b6f" opacity="0.41"/><rect x="1020" y="387" width="6" height="9" fill="#e98b6f" opacity="0.49"/><rect x="1049" y="387" width="6" height="9" fill="#e98b6f" opacity="0.67"/><rect x="1079" y="387" width="6" height="9" fill="#e98b6f" opacity="0.80"/><rect x="902" y="418" width="6" height="9" fill="#e98b6f" opacity="0.79"/><rect x="990" y="418" width="6" height="9" fill="#e98b6f" opacity="0.49"/><rect x="902" y="449" width="6" height="9" fill="#e98b6f" opacity="0.41"/><rect x="931" y="449" width="6" height="9" fill="#e98b6f" opacity="0.41"/><rect x="961" y="449" width="6" height="9" fill="#e98b6f" opacity="0.49"/><rect x="1020" y="449" width="6" height="9" fill="#e98b6f" opacity="0.80"/><rect x="931" y="480" width="6" height="9" fill="#e98b6f" opacity="0.49"/><rect x="961" y="480" width="6" height="9" fill="#e98b6f" opacity="0.67"/><rect x="990" y="480" width="6" height="9" fill="#e98b6f" opacity="0.80"/><rect x="1079" y="480" width="6" height="9" fill="#e98b6f" opacity="0.76"/><rect x="902" y="511" width="6" height="9" fill="#e98b6f" opacity="0.49"/><rect x="961" y="511" width="6" height="9" fill="#e98b6f" opacity="0.80"/><rect x="990" y="511" width="6" height="9" fill="#e98b6f" opacity="0.47"/><rect x="1020" y="511" width="6" height="9" fill="#e98b6f" opacity="0.56"/><rect x="1049" y="511" width="6" height="9" fill="#e98b6f" opacity="0.76"/><rect x="1079" y="511" width="6" height="9" fill="#e98b6f" opacity="0.84"/><rect x="902" y="542" width="6" height="9" fill="#e98b6f" opacity="0.67"/><rect x="931" y="542" width="6" height="9" fill="#e98b6f" opacity="0.80"/><rect x="961" y="542" width="6" height="9" fill="#e98b6f" opacity="0.47"/><rect x="990" y="542" width="6" height="9" fill="#e98b6f" opacity="0.56"/><rect x="1020" y="542" width="6" height="9" fill="#e98b6f" opacity="0.76"/><rect x="1094" y="388" width="124" height="512" fill="#2b2140" opacity="0.92"/><rect x="1102" y="400" width="6" height="9" fill="#e98b6f" opacity="0.47"/><rect x="1164" y="400" width="6" height="9" fill="#e98b6f" opacity="0.62"/><rect x="1195" y="400" width="6" height="9" fill="#e98b6f" opacity="0.44"/><rect x="1102" y="435" width="6" height="9" fill="#e98b6f" opacity="0.49"/><rect x="1133" y="435" width="6" height="9" fill="#e98b6f" opacity="0.62"/><rect x="1164" y="435" width="6" height="9" fill="#e98b6f" opacity="0.44"/><rect x="1195" y="435" width="6" height="9" fill="#e98b6f" opacity="0.39"/><rect x="1102" y="469" width="6" height="9" fill="#e98b6f" opacity="0.62"/><rect x="1133" y="469" width="6" height="9" fill="#e98b6f" opacity="0.44"/><rect x="1164" y="469" width="6" height="9" fill="#e98b6f" opacity="0.39"/><rect x="1195" y="469" width="6" height="9" fill="#e98b6f" opacity="0.45"/><rect x="1102" y="504" width="6" height="9" fill="#e98b6f" opacity="0.44"/><rect x="1195" y="538" width="6" height="9" fill="#e98b6f" opacity="0.79"/><rect x="0" y="560.692462861858" width="1200" height="339.30753713814204" fill="url(#water)" opacity="0.25"/>
<rect width="1200" height="900" fill="url(#vig)"/>
<text x="48" y="846" font-family="Georgia, serif" font-size="46" fill="#fff" opacity="0.92" letter-spacing="-1">Casa del Faro</text>
<text x="50" y="804" font-family="Georgia, serif" font-size="20" fill="#c9a24b" opacity="0.9" letter-spacing="3">KASSORA</text>
</svg>