<svg xmlns="http://www.w3.org/2000/svg" width="1200" height="900" viewBox="0 0 1200 900">
<defs>
<linearGradient id="sky" x1="0" y1="0" x2="0" y2="1">
<stop offset="0" stop-color="#f3b7a1"/><stop offset="0.55" stop-color="#e98b6f"/><stop offset="1" stop-color="#2b2140"/>
</linearGradient>
<radialGradient id="sun" cx="0.5" cy="0.5" r="0.5">
<stop offset="0" stop-color="#fff" stop-opacity="0.95"/><stop offset="0.4" stop-color="#e98b6f" stop-opacity="0.7"/><stop offset="1" stop-color="#e98b6f" stop-opacity="0"/>
</radialGradient>
<linearGradient id="water" x1="0" y1="0" x2="0" y2="1">
<stop offset="0" stop-color="#fff" stop-opacity="0.5"/><stop offset="1" stop-color="#fff" stop-opacity="0"/>
</linearGradient>
<linearGradient id="vig" x1="0" y1="0" x2="0" y2="1">
<stop offset="0" stop-color="#000" stop-opacity="0"/><stop offset="1" stop-color="#000" stop-opacity="0.45"/>
</linearGradient>
</defs>
<rect width="1200" height="900" fill="url(#sky)"/>
<circle cx="869" cy="213" r="108" fill="url(#sun)" opacity="0.9"/><rect x="-20" y="137" width="197" height="763" fill="#7a4a63" opacity="0.92"/><rect x="-12" y="149" width="6" height="9" fill="#e98b6f" opacity="0.79"/><rect x="100" y="149" width="6" height="9" fill="#e98b6f" opacity="0.67"/><rect x="128" y="149" width="6" height="9" fill="#e98b6f" opacity="0.80"/><rect x="-12" y="180" width="6" height="9" fill="#e98b6f" opacity="0.41"/><rect x="16" y="180" width="6" height="9" fill="#e98b6f" opacity="0.41"/><rect x="44" y="180" width="6" height="9" fill="#e98b6f" opacity="0.49"/><rect x="128" y="180" width="6" height="9" fill="#e98b6f" opacity="0.47"/><rect x="157" y="180" width="6" height="9" fill="#e98b6f" opacity="0.56"/><rect x="-12" y="210" width="6" height="9" fill="#e98b6f" opacity="0.41"/><rect x="100" y="210" width="6" height="9" fill="#e98b6f" opacity="0.47"/><rect x="128" y="210" width="6" height="9" fill="#e98b6f" opacity="0.56"/><rect x="157" y="210" width="6" height="9" fill="#e98b6f" opacity="0.76"/><rect x="16" y="240" width="6" height="9" fill="#e98b6f" opacity="0.67"/><rect x="44" y="240" width="6" height="9" fill="#e98b6f" opacity="0.80"/><rect x="128" y="240" width="6" height="9" fill="#e98b6f" opacity="0.76"/><rect x="-12" y="270" width="6" height="9" fill="#e98b6f" opacity="0.67"/><rect x="100" y="270" width="6" height="9" fill="#e98b6f" opacity="0.76"/><rect x="157" y="270" width="6" height="9" fill="#e98b6f" opacity="0.70"/><rect x="16" y="301" width="6" height="9" fill="#e98b6f" opacity="0.47"/><rect x="44" y="301" width="6" height="9" fill="#e98b6f" opacity="0.56"/><rect x="72" y="301" width="6" height="9" fill="#e98b6f" opacity="0.76"/><rect x="100" y="301" width="6" height="9" fill="#e98b6f" opacity="0.84"/><rect x="157" y="301" width="6" height="9" fill="#e98b6f" opacity="0.83"/><rect x="-12" y="331" width="6" height="9" fill="#e98b6f" opacity="0.47"/><rect x="44" y="331" width="6" height="9" fill="#e98b6f" opacity="0.76"/><rect x="100" y="331" width="6" height="9" fill="#e98b6f" opacity="0.70"/><rect x="128" y="331" width="6" height="9" fill="#e98b6f" opacity="0.83"/><rect x="157" y="331" width="6" height="9" fill="#e98b6f" opacity="0.79"/><rect x="-12" y="361" width="6" height="9" fill="#e98b6f" opacity="0.56"/><rect x="44" y="361" width="6" height="9" fill="#e98b6f" opacity="0.84"/><rect x="128" y="361" width="6" height="9" fill="#e98b6f" opacity="0.79"/><rect x="157" y="361" width="6" height="9" fill="#e98b6f" opacity="0.52"/><rect x="44" y="391" width="6" height="9" fill="#e98b6f" opacity="0.70"/><rect x="72" y="391" width="6" height="9" fill="#e98b6f" opacity="0.83"/><rect x="100" y="391" width="6" height="9" fill="#e98b6f" opacity="0.79"/><rect x="157" y="391" width="6" height="9" fill="#e98b6f" opacity="0.44"/><rect x="16" y="422" width="6" height="9" fill="#e98b6f" opacity="0.70"/><rect x="44" y="422" width="6" height="9" fill="#e98b6f" opacity="0.83"/><rect x="72" y="422" width="6" height="9" fill="#e98b6f" opacity="0.79"/><rect x="100" y="422" width="6" height="9" fill="#e98b6f" opacity="0.52"/><rect x="157" y="422" width="6" height="9" fill="#e98b6f" opacity="0.59"/><rect x="16" y="452" width="6" height="9" fill="#e98b6f" opacity="0.83"/><rect x="44" y="452" width="6" height="9" fill="#e98b6f" opacity="0.79"/><rect x="100" y="452" width="6" height="9" fill="#e98b6f" opacity="0.44"/><rect x="128" y="452" width="6" height="9" fill="#e98b6f" opacity="0.59"/><rect x="16" y="482" width="6" height="9" fill="#e98b6f" opacity="0.79"/><rect x="72" y="482" width="6" height="9" fill="#e98b6f" opacity="0.44"/><rect x="157" y="482" width="6" height="9" fill="#e98b6f" opacity="0.79"/><rect x="171" y="277" width="135" height="623" fill="#2b2140" opacity="0.92"/><rect x="206" y="289" width="6" height="9" fill="#e98b6f" opacity="0.41"/><rect x="233" y="289" width="6" height="9" fill="#e98b6f" opacity="0.41"/><rect x="287" y="289" width="6" height="9" fill="#e98b6f" opacity="0.67"/><rect x="206" y="321" width="6" height="9" fill="#e98b6f" opacity="0.41"/><rect x="260" y="321" width="6" height="9" fill="#e98b6f" opacity="0.67"/><rect x="179" y="384" width="6" height="9" fill="#e98b6f" opacity="0.49"/><rect x="233" y="384" width="6" height="9" fill="#e98b6f" opacity="0.80"/><rect x="260" y="384" width="6" height="9" fill="#e98b6f" opacity="0.47"/><rect x="179" y="416" width="6" height="9" fill="#e98b6f" opacity="0.67"/><rect x="206" y="416" width="6" height="9" fill="#e98b6f" opacity="0.80"/><rect x="260" y="416" width="6" height="9" fill="#e98b6f" opacity="0.56"/><rect x="287" y="416" width="6" height="9" fill="#e98b6f" opacity="0.76"/><rect x="179" y="448" width="6" height="9" fill="#e98b6f" opacity="0.80"/><rect x="179" y="479" width="6" height="9" fill="#e98b6f" opacity="0.47"/><rect x="206" y="479" width="6" height="9" fill="#e98b6f" opacity="0.56"/><rect x="233" y="479" width="6" height="9" fill="#e98b6f" opacity="0.76"/><rect x="260" y="479" width="6" height="9" fill="#e98b6f" opacity="0.84"/><rect x="287" y="479" width="6" height="9" fill="#e98b6f" opacity="0.70"/><rect x="206" y="511" width="6" height="9" fill="#e98b6f" opacity="0.76"/><rect x="300" y="350" width="131" height="550" fill="#7a4a63" opacity="0.92"/><rect x="308" y="362" width="6" height="9" fill="#e98b6f" opacity="0.79"/><rect x="334" y="362" width="6" height="9" fill="#e98b6f" opacity="0.41"/><rect x="360" y="362" width="6" height="9" fill="#e98b6f" opacity="0.41"/><rect x="386" y="362" width="6" height="9" fill="#e98b6f" opacity="0.49"/><rect x="412" y="362" width="6" height="9" fill="#e98b6f" opacity="0.67"/><rect x="308" y="392" width="6" height="9" fill="#e98b6f" opacity="0.41"/><rect x="334" y="392" width="6" height="9" fill="#e98b6f" opacity="0.41"/><rect x="412" y="392" width="6" height="9" fill="#e98b6f" opacity="0.80"/><rect x="386" y="422" width="6" height="9" fill="#e98b6f" opacity="0.80"/><rect x="334" y="452" width="6" height="9" fill="#e98b6f" opacity="0.67"/><rect x="360" y="452" width="6" height="9" fill="#e98b6f" opacity="0.80"/><rect x="412" y="452" width="6" height="9" fill="#e98b6f" opacity="0.56"/><rect x="386" y="513" width="6" height="9" fill="#e98b6f" opacity="0.76"/><rect x="412" y="513" width="6" height="9" fill="#e98b6f" opacity="0.84"/><rect x="425" y="300" width="208" height="600" fill="#2b2140" opacity="0.92"/><rect x="433" y="312" width="6" height="9" fill="#e98b6f" opacity="0.79"/><rect x="563" y="312" width="6" height="9" fill="#e98b6f" opacity="0.80"/><rect x="485" y="345" width="6" height="9" fill="#e98b6f" opacity="0.49"/><rect x="563" y="345" width="6" height="9" fill="#e98b6f" opacity="0.47"/><rect x="615" y="345" width="6" height="9" fill="#e98b6f" opacity="0.76"/><rect x="433" y="378" width="6" height="9" fill="#e98b6f" opacity="0.41"/><rect x="459" y="378" width="6" height="9" fill="#e98b6f" opacity="0.49"/><rect x="511" y="378" width="6" height="9" fill="#e98b6f" opacity="0.80"/><rect x="537" y="378" width="6" height="9" fill="#e98b6f" opacity="0.47"/><rect x="589" y="378" width="6" height="9" fill="#e98b6f" opacity="0.76"/><rect x="615" y="378" width="6" height="9" fill="#e98b6f" opacity="0.84"/><rect x="459" y="411" width="6" height="9" fill="#e98b6f" opacity="0.67"/><rect x="563" y="411" width="6" height="9" fill="#e98b6f" opacity="0.76"/><rect x="433" y="444" width="6" height="9" fill="#e98b6f" opacity="0.67"/><rect x="459" y="444" width="6" height="9" fill="#e98b6f" opacity="0.80"/><rect x="485" y="444" width="6" height="9" fill="#e98b6f" opacity="0.47"/><rect x="563" y="444" width="6" height="9" fill="#e98b6f" opacity="0.84"/><rect x="589" y="444" width="6" height="9" fill="#e98b6f" opacity="0.70"/><rect x="615" y="444" width="6" height="9" fill="#e98b6f" opacity="0.83"/><rect x="459" y="477" width="6" height="9" fill="#e98b6f" opacity="0.47"/><rect x="485" y="477" width="6" height="9" fill="#e98b6f" opacity="0.56"/><rect x="511" y="477" width="6" height="9" fill="#e98b6f" opacity="0.76"/><rect x="537" y="477" width="6" height="9" fill="#e98b6f" opacity="0.84"/><rect x="589" y="477" width="6" height="9" fill="#e98b6f" opacity="0.83"/><rect x="615" y="477" width="6" height="9" fill="#e98b6f" opacity="0.79"/><rect x="485" y="510" width="6" height="9" fill="#e98b6f" opacity="0.76"/><rect x="537" y="510" width="6" height="9" fill="#e98b6f" opacity="0.70"/><rect x="627" y="155" width="197" height="745" fill="#7a4a63" opacity="0.92"/><rect x="635" y="167" width="6" height="9" fill="#e98b6f" opacity="0.79"/><rect x="691" y="167" width="6" height="9" fill="#e98b6f" opacity="0.41"/><rect x="719" y="167" width="6" height="9" fill="#e98b6f" opacity="0.49"/><rect x="747" y="167" width="6" height="9" fill="#e98b6f" opacity="0.67"/><rect x="635" y="198" width="6" height="9" fill="#e98b6f" opacity="0.41"/><rect x="663" y="198" width="6" height="9" fill="#e98b6f" opacity="0.41"/><rect x="691" y="198" width="6" height="9" fill="#e98b6f" opacity="0.49"/><rect x="775" y="198" width="6" height="9" fill="#e98b6f" opacity="0.47"/><rect x="803" y="198" width="6" height="9" fill="#e98b6f" opacity="0.56"/><rect x="635" y="229" width="6" height="9" fill="#e98b6f" opacity="0.41"/><rect x="719" y="229" width="6" height="9" fill="#e98b6f" opacity="0.80"/><rect x="747" y="229" width="6" height="9" fill="#e98b6f" opacity="0.47"/><rect x="775" y="229" width="6" height="9" fill="#e98b6f" opacity="0.56"/><rect x="803" y="229" width="6" height="9" fill="#e98b6f" opacity="0.76"/><rect x="635" y="261" width="6" height="9" fill="#e98b6f" opacity="0.49"/><rect x="691" y="261" width="6" height="9" fill="#e98b6f" opacity="0.80"/><rect x="747" y="261" width="6" height="9" fill="#e98b6f" opacity="0.56"/><rect x="775" y="261" width="6" height="9" fill="#e98b6f" opacity="0.76"/><rect x="719" y="292" width="6" height="9" fill="#e98b6f" opacity="0.56"/><rect x="747" y="292" width="6" height="9" fill="#e98b6f" opacity="0.76"/><rect x="775" y="292" width="6" height="9" fill="#e98b6f" opacity="0.84"/><rect x="635" y="323" width="6" height="9" fill="#e98b6f" opacity="0.80"/><rect x="719" y="323" width="6" height="9" fill="#e98b6f" opacity="0.76"/><rect x="803" y="323" width="6" height="9" fill="#e98b6f" opacity="0.83"/><rect x="691" y="355" width="6" height="9" fill="#e98b6f" opacity="0.76"/><rect x="719" y="355" width="6" height="9" fill="#e98b6f" opacity="0.84"/><rect x="747" y="355" width="6" height="9" fill="#e98b6f" opacity="0.70"/><rect x="775" y="355" width="6" height="9" fill="#e98b6f" opacity="0.83"/><rect x="803" y="355" width="6" height="9" fill="#e98b6f" opacity="0.79"/><rect x="635" y="386" width="6" height="9" fill="#e98b6f" opacity="0.56"/><rect x="691" y="386" width="6" height="9" fill="#e98b6f" opacity="0.84"/><rect x="803" y="386" width="6" height="9" fill="#e98b6f" opacity="0.52"/><rect x="719" y="417" width="6" height="9" fill="#e98b6f" opacity="0.83"/><rect x="635" y="449" width="6" height="9" fill="#e98b6f" opacity="0.84"/><rect x="663" y="449" width="6" height="9" fill="#e98b6f" opacity="0.70"/><rect x="691" y="449" width="6" height="9" fill="#e98b6f" opacity="0.83"/><rect x="775" y="449" width="6" height="9" fill="#e98b6f" opacity="0.44"/><rect x="803" y="449" width="6" height="9" fill="#e98b6f" opacity="0.59"/><rect x="663" y="480" width="6" height="9" fill="#e98b6f" opacity="0.83"/><rect x="747" y="480" width="6" height="9" fill="#e98b6f" opacity="0.44"/><rect x="775" y="480" width="6" height="9" fill="#e98b6f" opacity="0.59"/><rect x="803" y="480" width="6" height="9" fill="#e98b6f" opacity="0.66"/><rect x="635" y="511" width="6" height="9" fill="#e98b6f" opacity="0.83"/><rect x="691" y="511" width="6" height="9" fill="#e98b6f" opacity="0.52"/><rect x="719" y="511" width="6" height="9" fill="#e98b6f" opacity="0.44"/><rect x="747" y="511" width="6" height="9" fill="#e98b6f" opacity="0.59"/><rect x="775" y="511" width="6" height="9" fill="#e98b6f" opacity="0.66"/><rect x="803" y="511" width="6" height="9" fill="#e98b6f" opacity="0.79"/><rect x="818" y="159" width="155" height="741" fill="#2b2140" opacity="0.92"/><rect x="857" y="171" width="6" height="9" fill="#e98b6f" opacity="0.41"/><rect x="950" y="171" width="6" height="9" fill="#e98b6f" opacity="0.67"/><rect x="826" y="202" width="6" height="9" fill="#e98b6f" opacity="0.41"/><rect x="888" y="202" width="6" height="9" fill="#e98b6f" opacity="0.49"/><rect x="919" y="202" width="6" height="9" fill="#e98b6f" opacity="0.67"/><rect x="950" y="202" width="6" height="9" fill="#e98b6f" opacity="0.80"/><rect x="857" y="233" width="6" height="9" fill="#e98b6f" opacity="0.49"/><rect x="950" y="233" width="6" height="9" fill="#e98b6f" opacity="0.47"/><rect x="826" y="295" width="6" height="9" fill="#e98b6f" opacity="0.67"/><rect x="857" y="295" width="6" height="9" fill="#e98b6f" opacity="0.80"/><rect x="888" y="295" width="6" height="9" fill="#e98b6f" opacity="0.47"/><rect x="919" y="295" width="6" height="9" fill="#e98b6f" opacity="0.56"/><rect x="950" y="295" width="6" height="9" fill="#e98b6f" opacity="0.76"/><rect x="857" y="326" width="6" height="9" fill="#e98b6f" opacity="0.47"/><rect x="888" y="326" width="6" height="9" fill="#e98b6f" opacity="0.56"/><rect x="919" y="326" width="6" height="9" fill="#e98b6f" opacity="0.76"/><rect x="950" y="326" width="6" height="9" fill="#e98b6f" opacity="0.84"/><rect x="857" y="357" width="6" height="9" fill="#e98b6f" opacity="0.56"/><rect x="919" y="357" width="6" height="9" fill="#e98b6f" opacity="0.84"/><rect x="950" y="357" width="6" height="9" fill="#e98b6f" opacity="0.70"/><rect x="857" y="388" width="6" height="9" fill="#e98b6f" opacity="0.76"/><rect x="950" y="388" width="6" height="9" fill="#e98b6f" opacity="0.83"/><rect x="888" y="419" width="6" height="9" fill="#e98b6f" opacity="0.70"/><rect x="950" y="419" width="6" height="9" fill="#e98b6f" opacity="0.79"/><rect x="826" y="450" width="6" height="9" fill="#e98b6f" opacity="0.84"/><rect x="857" y="450" width="6" height="9" fill="#e98b6f" opacity="0.70"/><rect x="919" y="450" width="6" height="9" fill="#e98b6f" opacity="0.79"/><rect x="950" y="450" width="6" height="9" fill="#e98b6f" opacity="0.52"/><rect x="826" y="481" width="6" height="9" fill="#e98b6f" opacity="0.70"/><rect x="888" y="481" width="6" height="9" fill="#e98b6f" opacity="0.79"/><rect x="857" y="512" width="6" height="9" fill="#e98b6f" opacity="0.79"/><rect x="888" y="512" width="6" height="9" fill="#e98b6f" opacity="0.52"/><rect x="950" y="512" width="6" height="9" fill="#e98b6f" opacity="0.59"/><rect x="967" y="358" width="113" height="542" fill="#7a4a63" opacity="0.92"/><rect x="975" y="370" width="6" height="9" fill="#e98b6f" opacity="0.79"/><rect x="1032" y="370" width="6" height="9" fill="#e98b6f" opacity="0.41"/><rect x="1003" y="405" width="6" height="9" fill="#e98b6f" opacity="0.41"/><rect x="1032" y="405" width="6" height="9" fill="#e98b6f" opacity="0.49"/><rect x="975" y="439" width="6" height="9" fill="#e98b6f" opacity="0.41"/><rect x="1003" y="439" width="6" height="9" fill="#e98b6f" opacity="0.49"/><rect x="975" y="474" width="6" height="9" fill="#e98b6f" opacity="0.49"/><rect x="1003" y="474" width="6" height="9" fill="#e98b6f" opacity="0.67"/><rect x="1060" y="474" width="6" height="9" fill="#e98b6f" opacity="0.47"/><rect x="975" y="508" width="6" height="9" fill="#e98b6f" opacity="0.67"/><rect x="1060" y="508" width="6" height="9" fill="#e98b6f" opacity="0.56"/><rect x="1074" y="289" width="141" height="611" fill="#2b2140" opacity="0.92"/><rect x="1082" y="301" width="6" height="9" fill="#e98b6f" opacity="0.79"/><rect x="1167" y="301" width="6" height="9" fill="#e98b6f" opacity="0.49"/><rect x="1195" y="301" width="6" height="9" fill="#e98b6f" opacity="0.67"/><rect x="1139" y="331" width="6" height="9" fill="#e98b6f" opacity="0.49"/><rect x="1167" y="331" width="6" height="9" fill="#e98b6f" opacity="0.67"/><rect x="1195" y="331" width="6" height="9" fill="#e98b6f" opacity="0.80"/><rect x="1110" y="362" width="6" height="9" fill="#e98b6f" opacity="0.49"/><rect x="1167" y="362" width="6" height="9" fill="#e98b6f" opacity="0.80"/><rect x="1082" y="392" width="6" height="9" fill="#e98b6f" opacity="0.49"/><rect x="1110" y="392" width="6" height="9" fill="#e98b6f" opacity="0.67"/><rect x="1139" y="392" width="6" height="9" fill="#e98b6f" opacity="0.80"/><rect x="1110" y="422" width="6" height="9" fill="#e98b6f" opacity="0.80"/><rect x="1195" y="422" width="6" height="9" fill="#e98b6f" opacity="0.76"/><rect x="1082" y="452" width="6" height="9" fill="#e98b6f" opacity="0.80"/><rect x="1110" y="452" width="6" height="9" fill="#e98b6f" opacity="0.47"/><rect x="1167" y="452" width="6" height="9" fill="#e98b6f" opacity="0.76"/><rect x="1082" y="482" width="6" height="9" fill="#e98b6f" opacity="0.47"/><rect x="1110" y="482" width="6" height="9" fill="#e98b6f" opacity="0.56"/><rect x="1195" y="482" width="6" height="9" fill="#e98b6f" opacity="0.70"/><rect x="1167" y="512" width="6" height="9" fill="#e98b6f" opacity="0.70"/><rect x="1195" y="512" width="6" height="9" fill="#e98b6f" opacity="0.83"/><rect x="0" y="530.6441223932414" width="1200" height="369.35587760675855" fill="url(#water)" opacity="0.25"/>
<rect width="1200" height="900" fill="url(#vig)"/>
<text x="48" y="846" font-family="Georgia, serif" font-size="46" fill="#fff" opacity="0.92" letter-spacing="-1">Casa del Faro</text>
<text x="50" y="804" font-family="Georgia, serif" font-size="20" fill="#c9a24b" opacity="0.9" letter-spacing="3">KASSORA</text>
</svg>