<svg xmlns="http://www.w3.org/2000/svg" width="1200" height="900" viewBox="0 0 1200 900">
<defs>
<linearGradient id="sky" x1="0" y1="0" x2="0" y2="1">
<stop offset="0" stop-color="#f3b7a1"/><stop offset="0.55" stop-color="#e98b6f"/><stop offset="1" stop-color="#2b2140"/>
</linearGradient>
<radialGradient id="sun" cx="0.5" cy="0.5" r="0.5">
<stop offset="0" stop-color="#fff" stop-opacity="0.95"/><stop offset="0.4" stop-color="#e98b6f" stop-opacity="0.7"/><stop offset="1" stop-color="#e98b6f" stop-opacity="0"/>
</radialGradient>
<linearGradient id="water" x1="0" y1="0" x2="0" y2="1">
<stop offset="0" stop-color="#fff" stop-opacity="0.5"/><stop offset="1" stop-color="#fff" stop-opacity="0"/>
</linearGradient>
<linearGradient id="vig" x1="0" y1="0" x2="0" y2="1">
<stop offset="0" stop-color="#000" stop-opacity="0"/><stop offset="1" stop-color="#000" stop-opacity="0.45"/>
</linearGradient>
</defs>
<rect width="1200" height="900" fill="url(#sky)"/>
<circle cx="539" cy="309" r="108" fill="url(#sun)" opacity="0.9"/><rect x="-20" y="340" width="108" height="560" fill="#7a4a63" opacity="0.92"/><rect x="15" y="352" width="6" height="9" fill="#e98b6f" opacity="0.76"/><rect x="42" y="352" width="6" height="9" fill="#e98b6f" opacity="0.84"/><rect x="69" y="352" width="6" height="9" fill="#e98b6f" opacity="0.70"/><rect x="-12" y="383" width="6" height="9" fill="#e98b6f" opacity="0.76"/><rect x="69" y="383" width="6" height="9" fill="#e98b6f" opacity="0.83"/><rect x="-12" y="415" width="6" height="9" fill="#e98b6f" opacity="0.84"/><rect x="15" y="415" width="6" height="9" fill="#e98b6f" opacity="0.70"/><rect x="-12" y="447" width="6" height="9" fill="#e98b6f" opacity="0.70"/><rect x="42" y="447" width="6" height="9" fill="#e98b6f" opacity="0.79"/><rect x="69" y="447" width="6" height="9" fill="#e98b6f" opacity="0.52"/><rect x="-12" y="478" width="6" height="9" fill="#e98b6f" opacity="0.83"/><rect x="-12" y="510" width="6" height="9" fill="#e98b6f" opacity="0.79"/><rect x="15" y="510" width="6" height="9" fill="#e98b6f" opacity="0.52"/><rect x="42" y="510" width="6" height="9" fill="#e98b6f" opacity="0.44"/><rect x="69" y="510" width="6" height="9" fill="#e98b6f" opacity="0.59"/><rect x="-12" y="541" width="6" height="9" fill="#e98b6f" opacity="0.52"/><rect x="42" y="541" width="6" height="9" fill="#e98b6f" opacity="0.59"/><rect x="69" y="541" width="6" height="9" fill="#e98b6f" opacity="0.66"/><rect x="15" y="573" width="6" height="9" fill="#e98b6f" opacity="0.59"/><rect x="82" y="412" width="129" height="488" fill="#2b2140" opacity="0.92"/><rect x="90" y="424" width="6" height="9" fill="#e98b6f" opacity="0.56"/><rect x="155" y="424" width="6" height="9" fill="#e98b6f" opacity="0.84"/><rect x="90" y="484" width="6" height="9" fill="#e98b6f" opacity="0.84"/><rect x="122" y="484" width="6" height="9" fill="#e98b6f" opacity="0.70"/><rect x="155" y="484" width="6" height="9" fill="#e98b6f" opacity="0.83"/><rect x="187" y="484" width="6" height="9" fill="#e98b6f" opacity="0.79"/><rect x="90" y="514" width="6" height="9" fill="#e98b6f" opacity="0.70"/><rect x="155" y="514" width="6" height="9" fill="#e98b6f" opacity="0.79"/><rect x="187" y="514" width="6" height="9" fill="#e98b6f" opacity="0.52"/><rect x="90" y="545" width="6" height="9" fill="#e98b6f" opacity="0.83"/><rect x="122" y="545" width="6" height="9" fill="#e98b6f" opacity="0.79"/><rect x="187" y="545" width="6" height="9" fill="#e98b6f" opacity="0.44"/><rect x="90" y="575" width="6" height="9" fill="#e98b6f" opacity="0.79"/><rect x="187" y="575" width="6" height="9" fill="#e98b6f" opacity="0.59"/><rect x="205" y="362" width="102" height="538" fill="#7a4a63" opacity="0.92"/><rect x="213" y="374" width="6" height="9" fill="#e98b6f" opacity="0.56"/><rect x="248" y="374" width="6" height="9" fill="#e98b6f" opacity="0.76"/><rect x="282" y="374" width="6" height="9" fill="#e98b6f" opacity="0.84"/><rect x="213" y="407" width="6" height="9" fill="#e98b6f" opacity="0.76"/><rect x="248" y="407" width="6" height="9" fill="#e98b6f" opacity="0.84"/><rect x="248" y="440" width="6" height="9" fill="#e98b6f" opacity="0.70"/><rect x="213" y="473" width="6" height="9" fill="#e98b6f" opacity="0.70"/><rect x="213" y="506" width="6" height="9" fill="#e98b6f" opacity="0.83"/><rect x="282" y="506" width="6" height="9" fill="#e98b6f" opacity="0.52"/><rect x="213" y="539" width="6" height="9" fill="#e98b6f" opacity="0.79"/><rect x="248" y="539" width="6" height="9" fill="#e98b6f" opacity="0.52"/><rect x="213" y="572" width="6" height="9" fill="#e98b6f" opacity="0.52"/><rect x="248" y="572" width="6" height="9" fill="#e98b6f" opacity="0.44"/><rect x="282" y="572" width="6" height="9" fill="#e98b6f" opacity="0.59"/><rect x="302" y="217" width="123" height="683" fill="#2b2140" opacity="0.92"/><rect x="341" y="229" width="6" height="9" fill="#e98b6f" opacity="0.76"/><rect x="371" y="229" width="6" height="9" fill="#e98b6f" opacity="0.84"/><rect x="310" y="260" width="6" height="9" fill="#e98b6f" opacity="0.76"/><rect x="371" y="260" width="6" height="9" fill="#e98b6f" opacity="0.70"/><rect x="402" y="260" width="6" height="9" fill="#e98b6f" opacity="0.83"/><rect x="310" y="291" width="6" height="9" fill="#e98b6f" opacity="0.84"/><rect x="341" y="291" width="6" height="9" fill="#e98b6f" opacity="0.70"/><rect x="341" y="323" width="6" height="9" fill="#e98b6f" opacity="0.83"/><rect x="402" y="323" width="6" height="9" fill="#e98b6f" opacity="0.52"/><rect x="310" y="354" width="6" height="9" fill="#e98b6f" opacity="0.83"/><rect x="371" y="354" width="6" height="9" fill="#e98b6f" opacity="0.52"/><rect x="310" y="385" width="6" height="9" fill="#e98b6f" opacity="0.79"/><rect x="341" y="417" width="6" height="9" fill="#e98b6f" opacity="0.44"/><rect x="371" y="417" width="6" height="9" fill="#e98b6f" opacity="0.59"/><rect x="310" y="448" width="6" height="9" fill="#e98b6f" opacity="0.44"/><rect x="341" y="448" width="6" height="9" fill="#e98b6f" opacity="0.59"/><rect x="402" y="448" width="6" height="9" fill="#e98b6f" opacity="0.79"/><rect x="310" y="479" width="6" height="9" fill="#e98b6f" opacity="0.59"/><rect x="341" y="479" width="6" height="9" fill="#e98b6f" opacity="0.66"/><rect x="371" y="479" width="6" height="9" fill="#e98b6f" opacity="0.79"/><rect x="310" y="511" width="6" height="9" fill="#e98b6f" opacity="0.66"/><rect x="402" y="511" width="6" height="9" fill="#e98b6f" opacity="0.44"/><rect x="310" y="542" width="6" height="9" fill="#e98b6f" opacity="0.79"/><rect x="341" y="542" width="6" height="9" fill="#e98b6f" opacity="0.39"/><rect x="402" y="542" width="6" height="9" fill="#e98b6f" opacity="0.82"/><rect x="310" y="573" width="6" height="9" fill="#e98b6f" opacity="0.39"/><rect x="402" y="573" width="6" height="9" fill="#e98b6f" opacity="0.52"/><rect x="419" y="221" width="90" height="679" fill="#7a4a63" opacity="0.92"/><rect x="427" y="233" width="6" height="9" fill="#e98b6f" opacity="0.56"/><rect x="457" y="233" width="6" height="9" fill="#e98b6f" opacity="0.76"/><rect x="427" y="264" width="6" height="9" fill="#e98b6f" opacity="0.76"/><rect x="457" y="295" width="6" height="9" fill="#e98b6f" opacity="0.70"/><rect x="487" y="326" width="6" height="9" fill="#e98b6f" opacity="0.79"/><rect x="457" y="357" width="6" height="9" fill="#e98b6f" opacity="0.79"/><rect x="457" y="388" width="6" height="9" fill="#e98b6f" opacity="0.52"/><rect x="487" y="388" width="6" height="9" fill="#e98b6f" opacity="0.44"/><rect x="457" y="419" width="6" height="9" fill="#e98b6f" opacity="0.44"/><rect x="487" y="419" width="6" height="9" fill="#e98b6f" opacity="0.59"/><rect x="427" y="450" width="6" height="9" fill="#e98b6f" opacity="0.44"/><rect x="457" y="450" width="6" height="9" fill="#e98b6f" opacity="0.59"/><rect x="427" y="481" width="6" height="9" fill="#e98b6f" opacity="0.59"/><rect x="457" y="481" width="6" height="9" fill="#e98b6f" opacity="0.66"/><rect x="487" y="481" width="6" height="9" fill="#e98b6f" opacity="0.79"/><rect x="427" y="512" width="6" height="9" fill="#e98b6f" opacity="0.66"/><rect x="457" y="512" width="6" height="9" fill="#e98b6f" opacity="0.79"/><rect x="487" y="512" width="6" height="9" fill="#e98b6f" opacity="0.39"/><rect x="427" y="543" width="6" height="9" fill="#e98b6f" opacity="0.79"/><rect x="457" y="543" width="6" height="9" fill="#e98b6f" opacity="0.39"/><rect x="427" y="574" width="6" height="9" fill="#e98b6f" opacity="0.39"/><rect x="503" y="420" width="96" height="480" fill="#2b2140" opacity="0.92"/><rect x="511" y="432" width="6" height="9" fill="#e98b6f" opacity="0.56"/><rect x="543" y="432" width="6" height="9" fill="#e98b6f" opacity="0.76"/><rect x="511" y="467" width="6" height="9" fill="#e98b6f" opacity="0.76"/><rect x="511" y="501" width="6" height="9" fill="#e98b6f" opacity="0.84"/><rect x="543" y="501" width="6" height="9" fill="#e98b6f" opacity="0.70"/><rect x="575" y="501" width="6" height="9" fill="#e98b6f" opacity="0.83"/><rect x="511" y="570" width="6" height="9" fill="#e98b6f" opacity="0.83"/><rect x="543" y="570" width="6" height="9" fill="#e98b6f" opacity="0.79"/><rect x="593" y="351" width="136" height="549" fill="#7a4a63" opacity="0.92"/><rect x="629" y="363" width="6" height="9" fill="#e98b6f" opacity="0.76"/><rect x="656" y="363" width="6" height="9" fill="#e98b6f" opacity="0.84"/><rect x="710" y="363" width="6" height="9" fill="#e98b6f" opacity="0.83"/><rect x="629" y="394" width="6" height="9" fill="#e98b6f" opacity="0.84"/><rect x="683" y="394" width="6" height="9" fill="#e98b6f" opacity="0.83"/><rect x="710" y="394" width="6" height="9" fill="#e98b6f" opacity="0.79"/><rect x="601" y="424" width="6" height="9" fill="#e98b6f" opacity="0.84"/><rect x="656" y="424" width="6" height="9" fill="#e98b6f" opacity="0.83"/><rect x="683" y="424" width="6" height="9" fill="#e98b6f" opacity="0.79"/><rect x="710" y="424" width="6" height="9" fill="#e98b6f" opacity="0.52"/><rect x="656" y="454" width="6" height="9" fill="#e98b6f" opacity="0.79"/><rect x="683" y="454" width="6" height="9" fill="#e98b6f" opacity="0.52"/><rect x="629" y="484" width="6" height="9" fill="#e98b6f" opacity="0.79"/><rect x="656" y="484" width="6" height="9" fill="#e98b6f" opacity="0.52"/><rect x="710" y="484" width="6" height="9" fill="#e98b6f" opacity="0.59"/><rect x="601" y="514" width="6" height="9" fill="#e98b6f" opacity="0.79"/><rect x="629" y="514" width="6" height="9" fill="#e98b6f" opacity="0.52"/><rect x="656" y="514" width="6" height="9" fill="#e98b6f" opacity="0.44"/><rect x="710" y="514" width="6" height="9" fill="#e98b6f" opacity="0.66"/><rect x="710" y="544" width="6" height="9" fill="#e98b6f" opacity="0.79"/><rect x="601" y="575" width="6" height="9" fill="#e98b6f" opacity="0.44"/><rect x="683" y="575" width="6" height="9" fill="#e98b6f" opacity="0.79"/><rect x="710" y="575" width="6" height="9" fill="#e98b6f" opacity="0.39"/><rect x="723" y="257" width="139" height="643" fill="#2b2140" opacity="0.92"/><rect x="731" y="269" width="6" height="9" fill="#e98b6f" opacity="0.56"/><rect x="787" y="299" width="6" height="9" fill="#e98b6f" opacity="0.70"/><rect x="842" y="299" width="6" height="9" fill="#e98b6f" opacity="0.79"/><rect x="731" y="330" width="6" height="9" fill="#e98b6f" opacity="0.84"/><rect x="759" y="330" width="6" height="9" fill="#e98b6f" opacity="0.70"/><rect x="787" y="330" width="6" height="9" fill="#e98b6f" opacity="0.83"/><rect x="814" y="330" width="6" height="9" fill="#e98b6f" opacity="0.79"/><rect x="842" y="330" width="6" height="9" fill="#e98b6f" opacity="0.52"/><rect x="731" y="360" width="6" height="9" fill="#e98b6f" opacity="0.70"/><rect x="842" y="360" width="6" height="9" fill="#e98b6f" opacity="0.44"/><rect x="759" y="391" width="6" height="9" fill="#e98b6f" opacity="0.79"/><rect x="787" y="391" width="6" height="9" fill="#e98b6f" opacity="0.52"/><rect x="814" y="391" width="6" height="9" fill="#e98b6f" opacity="0.44"/><rect x="842" y="391" width="6" height="9" fill="#e98b6f" opacity="0.59"/><rect x="731" y="421" width="6" height="9" fill="#e98b6f" opacity="0.79"/><rect x="787" y="421" width="6" height="9" fill="#e98b6f" opacity="0.44"/><rect x="814" y="421" width="6" height="9" fill="#e98b6f" opacity="0.59"/><rect x="842" y="421" width="6" height="9" fill="#e98b6f" opacity="0.66"/><rect x="731" y="483" width="6" height="9" fill="#e98b6f" opacity="0.44"/><rect x="759" y="483" width="6" height="9" fill="#e98b6f" opacity="0.59"/><rect x="842" y="483" width="6" height="9" fill="#e98b6f" opacity="0.39"/><rect x="787" y="513" width="6" height="9" fill="#e98b6f" opacity="0.79"/><rect x="814" y="513" width="6" height="9" fill="#e98b6f" opacity="0.39"/><rect x="842" y="513" width="6" height="9" fill="#e98b6f" opacity="0.44"/><rect x="759" y="544" width="6" height="9" fill="#e98b6f" opacity="0.79"/><rect x="814" y="544" width="6" height="9" fill="#e98b6f" opacity="0.44"/><rect x="787" y="574" width="6" height="9" fill="#e98b6f" opacity="0.44"/><rect x="814" y="574" width="6" height="9" fill="#e98b6f" opacity="0.82"/><rect x="856" y="451" width="120" height="449" fill="#7a4a63" opacity="0.92"/><rect x="924" y="463" width="6" height="9" fill="#e98b6f" opacity="0.84"/><rect x="954" y="463" width="6" height="9" fill="#e98b6f" opacity="0.70"/><rect x="954" y="499" width="6" height="9" fill="#e98b6f" opacity="0.83"/><rect x="864" y="534" width="6" height="9" fill="#e98b6f" opacity="0.84"/><rect x="894" y="534" width="6" height="9" fill="#e98b6f" opacity="0.70"/><rect x="924" y="534" width="6" height="9" fill="#e98b6f" opacity="0.83"/><rect x="954" y="534" width="6" height="9" fill="#e98b6f" opacity="0.79"/><rect x="864" y="569" width="6" height="9" fill="#e98b6f" opacity="0.70"/><rect x="894" y="569" width="6" height="9" fill="#e98b6f" opacity="0.83"/><rect x="954" y="569" width="6" height="9" fill="#e98b6f" opacity="0.52"/><rect x="970" y="310" width="90" height="590" fill="#2b2140" opacity="0.92"/><rect x="978" y="322" width="6" height="9" fill="#e98b6f" opacity="0.56"/><rect x="1008" y="322" width="6" height="9" fill="#e98b6f" opacity="0.76"/><rect x="1008" y="385" width="6" height="9" fill="#e98b6f" opacity="0.70"/><rect x="1038" y="385" width="6" height="9" fill="#e98b6f" opacity="0.83"/><rect x="1038" y="416" width="6" height="9" fill="#e98b6f" opacity="0.79"/><rect x="978" y="447" width="6" height="9" fill="#e98b6f" opacity="0.83"/><rect x="1008" y="447" width="6" height="9" fill="#e98b6f" opacity="0.79"/><rect x="1038" y="447" width="6" height="9" fill="#e98b6f" opacity="0.52"/><rect x="1008" y="479" width="6" height="9" fill="#e98b6f" opacity="0.52"/><rect x="978" y="510" width="6" height="9" fill="#e98b6f" opacity="0.52"/><rect x="1008" y="510" width="6" height="9" fill="#e98b6f" opacity="0.44"/><rect x="1008" y="542" width="6" height="9" fill="#e98b6f" opacity="0.59"/><rect x="978" y="573" width="6" height="9" fill="#e98b6f" opacity="0.59"/><rect x="1038" y="573" width="6" height="9" fill="#e98b6f" opacity="0.79"/><rect x="1054" y="420" width="123" height="480" fill="#7a4a63" opacity="0.92"/><rect x="1062" y="432" width="6" height="9" fill="#e98b6f" opacity="0.56"/><rect x="1124" y="432" width="6" height="9" fill="#e98b6f" opacity="0.84"/><rect x="1062" y="466" width="6" height="9" fill="#e98b6f" opacity="0.76"/><rect x="1093" y="466" width="6" height="9" fill="#e98b6f" opacity="0.84"/><rect x="1124" y="466" width="6" height="9" fill="#e98b6f" opacity="0.70"/><rect x="1155" y="466" width="6" height="9" fill="#e98b6f" opacity="0.83"/><rect x="1093" y="501" width="6" height="9" fill="#e98b6f" opacity="0.70"/><rect x="1093" y="536" width="6" height="9" fill="#e98b6f" opacity="0.83"/><rect x="1124" y="536" width="6" height="9" fill="#e98b6f" opacity="0.79"/><rect x="1155" y="536" width="6" height="9" fill="#e98b6f" opacity="0.52"/><rect x="1124" y="570" width="6" height="9" fill="#e98b6f" opacity="0.52"/><rect x="0" y="592.7779682356913" width="1200" height="307.22203176430867" fill="url(#water)" opacity="0.25"/>
<rect width="1200" height="900" fill="url(#vig)"/>
<text x="48" y="846" font-family="Georgia, serif" font-size="46" fill="#fff" opacity="0.92" letter-spacing="-1">Casa del Faro</text>
<text x="50" y="804" font-family="Georgia, serif" font-size="20" fill="#c9a24b" opacity="0.9" letter-spacing="3">KASSORA</text>
</svg>