<svg xmlns="http://www.w3.org/2000/svg" width="1200" height="900" viewBox="0 0 1200 900">
<defs>
<linearGradient id="sky" x1="0" y1="0" x2="0" y2="1">
<stop offset="0" stop-color="#bcd3d0"/><stop offset="0.55" stop-color="#7fa8a3"/><stop offset="1" stop-color="#152827"/>
</linearGradient>
<radialGradient id="sun" cx="0.5" cy="0.5" r="0.5">
<stop offset="0" stop-color="#fff" stop-opacity="0.95"/><stop offset="0.4" stop-color="#7fa8a3" stop-opacity="0.7"/><stop offset="1" stop-color="#7fa8a3" stop-opacity="0"/>
</radialGradient>
<linearGradient id="water" x1="0" y1="0" x2="0" y2="1">
<stop offset="0" stop-color="#fff" stop-opacity="0.5"/><stop offset="1" stop-color="#fff" stop-opacity="0"/>
</linearGradient>
<linearGradient id="vig" x1="0" y1="0" x2="0" y2="1">
<stop offset="0" stop-color="#000" stop-opacity="0"/><stop offset="1" stop-color="#000" stop-opacity="0.45"/>
</linearGradient>
</defs>
<rect width="1200" height="900" fill="url(#sky)"/>
<circle cx="416" cy="254" r="108" fill="url(#sun)" opacity="0.9"/><rect x="-20" y="381" width="87" height="519" fill="#3d5d5c" opacity="0.92"/><rect x="46" y="393" width="6" height="9" fill="#7fa8a3" opacity="0.76"/><rect x="-12" y="426" width="6" height="9" fill="#7fa8a3" opacity="0.56"/><rect x="17" y="426" width="6" height="9" fill="#7fa8a3" opacity="0.76"/><rect x="-12" y="459" width="6" height="9" fill="#7fa8a3" opacity="0.76"/><rect x="17" y="459" width="6" height="9" fill="#7fa8a3" opacity="0.84"/><rect x="46" y="459" width="6" height="9" fill="#7fa8a3" opacity="0.70"/><rect x="17" y="493" width="6" height="9" fill="#7fa8a3" opacity="0.70"/><rect x="-12" y="526" width="6" height="9" fill="#7fa8a3" opacity="0.70"/><rect x="17" y="526" width="6" height="9" fill="#7fa8a3" opacity="0.83"/><rect x="-12" y="560" width="6" height="9" fill="#7fa8a3" opacity="0.83"/><rect x="17" y="560" width="6" height="9" fill="#7fa8a3" opacity="0.79"/><rect x="46" y="560" width="6" height="9" fill="#7fa8a3" opacity="0.52"/><rect x="61" y="351" width="139" height="549" fill="#152827" opacity="0.92"/><rect x="97" y="363" width="6" height="9" fill="#7fa8a3" opacity="0.56"/><rect x="152" y="363" width="6" height="9" fill="#7fa8a3" opacity="0.84"/><rect x="69" y="396" width="6" height="9" fill="#7fa8a3" opacity="0.56"/><rect x="97" y="429" width="6" height="9" fill="#7fa8a3" opacity="0.84"/><rect x="125" y="429" width="6" height="9" fill="#7fa8a3" opacity="0.70"/><rect x="152" y="429" width="6" height="9" fill="#7fa8a3" opacity="0.83"/><rect x="180" y="429" width="6" height="9" fill="#7fa8a3" opacity="0.79"/><rect x="69" y="462" width="6" height="9" fill="#7fa8a3" opacity="0.84"/><rect x="97" y="462" width="6" height="9" fill="#7fa8a3" opacity="0.70"/><rect x="152" y="462" width="6" height="9" fill="#7fa8a3" opacity="0.79"/><rect x="180" y="462" width="6" height="9" fill="#7fa8a3" opacity="0.52"/><rect x="97" y="495" width="6" height="9" fill="#7fa8a3" opacity="0.83"/><rect x="125" y="495" width="6" height="9" fill="#7fa8a3" opacity="0.79"/><rect x="180" y="495" width="6" height="9" fill="#7fa8a3" opacity="0.44"/><rect x="69" y="527" width="6" height="9" fill="#7fa8a3" opacity="0.83"/><rect x="97" y="527" width="6" height="9" fill="#7fa8a3" opacity="0.79"/><rect x="180" y="527" width="6" height="9" fill="#7fa8a3" opacity="0.59"/><rect x="69" y="560" width="6" height="9" fill="#7fa8a3" opacity="0.79"/><rect x="97" y="560" width="6" height="9" fill="#7fa8a3" opacity="0.52"/><rect x="152" y="560" width="6" height="9" fill="#7fa8a3" opacity="0.59"/><rect x="194" y="170" width="131" height="730" fill="#3d5d5c" opacity="0.92"/><rect x="202" y="182" width="6" height="9" fill="#7fa8a3" opacity="0.47"/><rect x="228" y="182" width="6" height="9" fill="#7fa8a3" opacity="0.56"/><rect x="254" y="182" width="6" height="9" fill="#7fa8a3" opacity="0.76"/><rect x="281" y="182" width="6" height="9" fill="#7fa8a3" opacity="0.84"/><rect x="307" y="182" width="6" height="9" fill="#7fa8a3" opacity="0.70"/><rect x="228" y="214" width="6" height="9" fill="#7fa8a3" opacity="0.76"/><rect x="254" y="214" width="6" height="9" fill="#7fa8a3" opacity="0.84"/><rect x="202" y="245" width="6" height="9" fill="#7fa8a3" opacity="0.76"/><rect x="254" y="245" width="6" height="9" fill="#7fa8a3" opacity="0.70"/><rect x="228" y="277" width="6" height="9" fill="#7fa8a3" opacity="0.70"/><rect x="202" y="309" width="6" height="9" fill="#7fa8a3" opacity="0.70"/><rect x="228" y="309" width="6" height="9" fill="#7fa8a3" opacity="0.83"/><rect x="281" y="309" width="6" height="9" fill="#7fa8a3" opacity="0.52"/><rect x="228" y="340" width="6" height="9" fill="#7fa8a3" opacity="0.79"/><rect x="254" y="340" width="6" height="9" fill="#7fa8a3" opacity="0.52"/><rect x="228" y="372" width="6" height="9" fill="#7fa8a3" opacity="0.52"/><rect x="254" y="372" width="6" height="9" fill="#7fa8a3" opacity="0.44"/><rect x="281" y="372" width="6" height="9" fill="#7fa8a3" opacity="0.59"/><rect x="307" y="372" width="6" height="9" fill="#7fa8a3" opacity="0.66"/><rect x="202" y="403" width="6" height="9" fill="#7fa8a3" opacity="0.52"/><rect x="202" y="435" width="6" height="9" fill="#7fa8a3" opacity="0.44"/><rect x="228" y="435" width="6" height="9" fill="#7fa8a3" opacity="0.59"/><rect x="254" y="435" width="6" height="9" fill="#7fa8a3" opacity="0.66"/><rect x="307" y="435" width="6" height="9" fill="#7fa8a3" opacity="0.39"/><rect x="228" y="467" width="6" height="9" fill="#7fa8a3" opacity="0.66"/><rect x="254" y="467" width="6" height="9" fill="#7fa8a3" opacity="0.79"/><rect x="307" y="467" width="6" height="9" fill="#7fa8a3" opacity="0.44"/><rect x="254" y="498" width="6" height="9" fill="#7fa8a3" opacity="0.39"/><rect x="281" y="498" width="6" height="9" fill="#7fa8a3" opacity="0.44"/><rect x="228" y="530" width="6" height="9" fill="#7fa8a3" opacity="0.39"/><rect x="281" y="530" width="6" height="9" fill="#7fa8a3" opacity="0.82"/><rect x="307" y="530" width="6" height="9" fill="#7fa8a3" opacity="0.52"/><rect x="202" y="562" width="6" height="9" fill="#7fa8a3" opacity="0.39"/><rect x="228" y="562" width="6" height="9" fill="#7fa8a3" opacity="0.44"/><rect x="254" y="562" width="6" height="9" fill="#7fa8a3" opacity="0.82"/><rect x="319" y="279" width="104" height="621" fill="#152827" opacity="0.92"/><rect x="396" y="291" width="6" height="9" fill="#7fa8a3" opacity="0.76"/><rect x="362" y="321" width="6" height="9" fill="#7fa8a3" opacity="0.76"/><rect x="327" y="352" width="6" height="9" fill="#7fa8a3" opacity="0.76"/><rect x="362" y="352" width="6" height="9" fill="#7fa8a3" opacity="0.84"/><rect x="396" y="352" width="6" height="9" fill="#7fa8a3" opacity="0.70"/><rect x="396" y="382" width="6" height="9" fill="#7fa8a3" opacity="0.83"/><rect x="327" y="412" width="6" height="9" fill="#7fa8a3" opacity="0.70"/><rect x="362" y="412" width="6" height="9" fill="#7fa8a3" opacity="0.83"/><rect x="327" y="442" width="6" height="9" fill="#7fa8a3" opacity="0.83"/><rect x="362" y="442" width="6" height="9" fill="#7fa8a3" opacity="0.79"/><rect x="396" y="472" width="6" height="9" fill="#7fa8a3" opacity="0.44"/><rect x="362" y="503" width="6" height="9" fill="#7fa8a3" opacity="0.44"/><rect x="396" y="503" width="6" height="9" fill="#7fa8a3" opacity="0.59"/><rect x="327" y="533" width="6" height="9" fill="#7fa8a3" opacity="0.44"/><rect x="362" y="533" width="6" height="9" fill="#7fa8a3" opacity="0.59"/><rect x="396" y="533" width="6" height="9" fill="#7fa8a3" opacity="0.66"/><rect x="327" y="563" width="6" height="9" fill="#7fa8a3" opacity="0.59"/><rect x="362" y="563" width="6" height="9" fill="#7fa8a3" opacity="0.66"/><rect x="417" y="400" width="75" height="500" fill="#3d5d5c" opacity="0.92"/><rect x="462" y="412" width="6" height="9" fill="#7fa8a3" opacity="0.56"/><rect x="425" y="442" width="6" height="9" fill="#7fa8a3" opacity="0.56"/><rect x="462" y="442" width="6" height="9" fill="#7fa8a3" opacity="0.76"/><rect x="425" y="472" width="6" height="9" fill="#7fa8a3" opacity="0.76"/><rect x="425" y="563" width="6" height="9" fill="#7fa8a3" opacity="0.83"/><rect x="486" y="421" width="94" height="479" fill="#152827" opacity="0.92"/><rect x="494" y="433" width="6" height="9" fill="#7fa8a3" opacity="0.47"/><rect x="526" y="433" width="6" height="9" fill="#7fa8a3" opacity="0.56"/><rect x="557" y="433" width="6" height="9" fill="#7fa8a3" opacity="0.76"/><rect x="494" y="465" width="6" height="9" fill="#7fa8a3" opacity="0.56"/><rect x="526" y="465" width="6" height="9" fill="#7fa8a3" opacity="0.76"/><rect x="526" y="497" width="6" height="9" fill="#7fa8a3" opacity="0.84"/><rect x="557" y="497" width="6" height="9" fill="#7fa8a3" opacity="0.70"/><rect x="494" y="529" width="6" height="9" fill="#7fa8a3" opacity="0.84"/><rect x="526" y="561" width="6" height="9" fill="#7fa8a3" opacity="0.83"/><rect x="557" y="561" width="6" height="9" fill="#7fa8a3" opacity="0.79"/><rect x="574" y="363" width="132" height="537" fill="#3d5d5c" opacity="0.92"/><rect x="635" y="375" width="6" height="9" fill="#7fa8a3" opacity="0.76"/><rect x="661" y="375" width="6" height="9" fill="#7fa8a3" opacity="0.84"/><rect x="582" y="406" width="6" height="9" fill="#7fa8a3" opacity="0.56"/><rect x="635" y="406" width="6" height="9" fill="#7fa8a3" opacity="0.84"/><rect x="688" y="406" width="6" height="9" fill="#7fa8a3" opacity="0.83"/><rect x="609" y="437" width="6" height="9" fill="#7fa8a3" opacity="0.84"/><rect x="661" y="437" width="6" height="9" fill="#7fa8a3" opacity="0.83"/><rect x="688" y="437" width="6" height="9" fill="#7fa8a3" opacity="0.79"/><rect x="582" y="469" width="6" height="9" fill="#7fa8a3" opacity="0.84"/><rect x="661" y="469" width="6" height="9" fill="#7fa8a3" opacity="0.79"/><rect x="688" y="469" width="6" height="9" fill="#7fa8a3" opacity="0.52"/><rect x="635" y="500" width="6" height="9" fill="#7fa8a3" opacity="0.79"/><rect x="661" y="500" width="6" height="9" fill="#7fa8a3" opacity="0.52"/><rect x="609" y="531" width="6" height="9" fill="#7fa8a3" opacity="0.79"/><rect x="635" y="531" width="6" height="9" fill="#7fa8a3" opacity="0.52"/><rect x="661" y="531" width="6" height="9" fill="#7fa8a3" opacity="0.44"/><rect x="582" y="562" width="6" height="9" fill="#7fa8a3" opacity="0.79"/><rect x="700" y="379" width="110" height="521" fill="#152827" opacity="0.92"/><rect x="708" y="391" width="6" height="9" fill="#7fa8a3" opacity="0.47"/><rect x="736" y="391" width="6" height="9" fill="#7fa8a3" opacity="0.56"/><rect x="708" y="425" width="6" height="9" fill="#7fa8a3" opacity="0.56"/><rect x="791" y="425" width="6" height="9" fill="#7fa8a3" opacity="0.70"/><rect x="736" y="459" width="6" height="9" fill="#7fa8a3" opacity="0.84"/><rect x="763" y="459" width="6" height="9" fill="#7fa8a3" opacity="0.70"/><rect x="791" y="459" width="6" height="9" fill="#7fa8a3" opacity="0.83"/><rect x="708" y="492" width="6" height="9" fill="#7fa8a3" opacity="0.84"/><rect x="736" y="492" width="6" height="9" fill="#7fa8a3" opacity="0.70"/><rect x="763" y="526" width="6" height="9" fill="#7fa8a3" opacity="0.79"/><rect x="791" y="526" width="6" height="9" fill="#7fa8a3" opacity="0.52"/><rect x="736" y="560" width="6" height="9" fill="#7fa8a3" opacity="0.79"/><rect x="791" y="560" width="6" height="9" fill="#7fa8a3" opacity="0.44"/><rect x="805" y="237" width="100" height="663" fill="#3d5d5c" opacity="0.92"/><rect x="813" y="280" width="6" height="9" fill="#7fa8a3" opacity="0.56"/><rect x="846" y="311" width="6" height="9" fill="#7fa8a3" opacity="0.84"/><rect x="879" y="311" width="6" height="9" fill="#7fa8a3" opacity="0.70"/><rect x="813" y="343" width="6" height="9" fill="#7fa8a3" opacity="0.84"/><rect x="846" y="343" width="6" height="9" fill="#7fa8a3" opacity="0.70"/><rect x="879" y="343" width="6" height="9" fill="#7fa8a3" opacity="0.83"/><rect x="813" y="374" width="6" height="9" fill="#7fa8a3" opacity="0.70"/><rect x="879" y="374" width="6" height="9" fill="#7fa8a3" opacity="0.79"/><rect x="813" y="468" width="6" height="9" fill="#7fa8a3" opacity="0.52"/><rect x="846" y="468" width="6" height="9" fill="#7fa8a3" opacity="0.44"/><rect x="879" y="468" width="6" height="9" fill="#7fa8a3" opacity="0.59"/><rect x="813" y="499" width="6" height="9" fill="#7fa8a3" opacity="0.44"/><rect x="846" y="499" width="6" height="9" fill="#7fa8a3" opacity="0.59"/><rect x="879" y="499" width="6" height="9" fill="#7fa8a3" opacity="0.66"/><rect x="846" y="562" width="6" height="9" fill="#7fa8a3" opacity="0.79"/><rect x="879" y="562" width="6" height="9" fill="#7fa8a3" opacity="0.39"/><rect x="898" y="251" width="73" height="649" fill="#152827" opacity="0.92"/><rect x="943" y="263" width="6" height="9" fill="#7fa8a3" opacity="0.56"/><rect x="906" y="329" width="6" height="9" fill="#7fa8a3" opacity="0.76"/><rect x="906" y="395" width="6" height="9" fill="#7fa8a3" opacity="0.70"/><rect x="943" y="395" width="6" height="9" fill="#7fa8a3" opacity="0.83"/><rect x="906" y="428" width="6" height="9" fill="#7fa8a3" opacity="0.83"/><rect x="943" y="461" width="6" height="9" fill="#7fa8a3" opacity="0.52"/><rect x="906" y="494" width="6" height="9" fill="#7fa8a3" opacity="0.52"/><rect x="943" y="527" width="6" height="9" fill="#7fa8a3" opacity="0.59"/><rect x="906" y="560" width="6" height="9" fill="#7fa8a3" opacity="0.59"/><rect x="943" y="560" width="6" height="9" fill="#7fa8a3" opacity="0.66"/><rect x="965" y="186" width="95" height="714" fill="#3d5d5c" opacity="0.92"/><rect x="1005" y="198" width="6" height="9" fill="#7fa8a3" opacity="0.56"/><rect x="1005" y="228" width="6" height="9" fill="#7fa8a3" opacity="0.76"/><rect x="1037" y="228" width="6" height="9" fill="#7fa8a3" opacity="0.84"/><rect x="973" y="259" width="6" height="9" fill="#7fa8a3" opacity="0.76"/><rect x="1037" y="259" width="6" height="9" fill="#7fa8a3" opacity="0.70"/><rect x="973" y="289" width="6" height="9" fill="#7fa8a3" opacity="0.84"/><rect x="1037" y="289" width="6" height="9" fill="#7fa8a3" opacity="0.83"/><rect x="973" y="319" width="6" height="9" fill="#7fa8a3" opacity="0.70"/><rect x="973" y="350" width="6" height="9" fill="#7fa8a3" opacity="0.83"/><rect x="1005" y="350" width="6" height="9" fill="#7fa8a3" opacity="0.79"/><rect x="1037" y="350" width="6" height="9" fill="#7fa8a3" opacity="0.52"/><rect x="973" y="380" width="6" height="9" fill="#7fa8a3" opacity="0.79"/><rect x="1037" y="380" width="6" height="9" fill="#7fa8a3" opacity="0.44"/><rect x="973" y="441" width="6" height="9" fill="#7fa8a3" opacity="0.44"/><rect x="1005" y="441" width="6" height="9" fill="#7fa8a3" opacity="0.59"/><rect x="1037" y="441" width="6" height="9" fill="#7fa8a3" opacity="0.66"/><rect x="1005" y="472" width="6" height="9" fill="#7fa8a3" opacity="0.66"/><rect x="1037" y="472" width="6" height="9" fill="#7fa8a3" opacity="0.79"/><rect x="1005" y="502" width="6" height="9" fill="#7fa8a3" opacity="0.79"/><rect x="1037" y="502" width="6" height="9" fill="#7fa8a3" opacity="0.39"/><rect x="1005" y="532" width="6" height="9" fill="#7fa8a3" opacity="0.39"/><rect x="973" y="563" width="6" height="9" fill="#7fa8a3" opacity="0.39"/><rect x="1037" y="563" width="6" height="9" fill="#7fa8a3" opacity="0.82"/><rect x="1054" y="303" width="103" height="597" fill="#152827" opacity="0.92"/><rect x="1097" y="315" width="6" height="9" fill="#7fa8a3" opacity="0.56"/><rect x="1131" y="315" width="6" height="9" fill="#7fa8a3" opacity="0.76"/><rect x="1097" y="346" width="6" height="9" fill="#7fa8a3" opacity="0.76"/><rect x="1062" y="377" width="6" height="9" fill="#7fa8a3" opacity="0.76"/><rect x="1131" y="377" width="6" height="9" fill="#7fa8a3" opacity="0.70"/><rect x="1097" y="408" width="6" height="9" fill="#7fa8a3" opacity="0.70"/><rect x="1131" y="408" width="6" height="9" fill="#7fa8a3" opacity="0.83"/><rect x="1062" y="439" width="6" height="9" fill="#7fa8a3" opacity="0.70"/><rect x="1097" y="439" width="6" height="9" fill="#7fa8a3" opacity="0.83"/><rect x="1062" y="470" width="6" height="9" fill="#7fa8a3" opacity="0.83"/><rect x="1097" y="470" width="6" height="9" fill="#7fa8a3" opacity="0.79"/><rect x="1131" y="501" width="6" height="9" fill="#7fa8a3" opacity="0.44"/><rect x="1062" y="531" width="6" height="9" fill="#7fa8a3" opacity="0.52"/><rect x="1097" y="531" width="6" height="9" fill="#7fa8a3" opacity="0.44"/><rect x="1062" y="562" width="6" height="9" fill="#7fa8a3" opacity="0.44"/><rect x="1097" y="562" width="6" height="9" fill="#7fa8a3" opacity="0.59"/><rect x="0" y="581.1576258077257" width="1200" height="318.8423741922743" fill="url(#water)" opacity="0.25"/>
<rect width="1200" height="900" fill="url(#vig)"/>
<text x="48" y="846" font-family="Georgia, serif" font-size="46" fill="#fff" opacity="0.92" letter-spacing="-1">Lakeview Residence</text>
<text x="50" y="804" font-family="Georgia, serif" font-size="20" fill="#c9a24b" opacity="0.9" letter-spacing="3">KASSORA</text>
</svg>