<svg xmlns="http://www.w3.org/2000/svg" width="1200" height="900" viewBox="0 0 1200 900">
<defs>
<linearGradient id="sky" x1="0" y1="0" x2="0" y2="1">
<stop offset="0" stop-color="#bcd3d0"/><stop offset="0.55" stop-color="#7fa8a3"/><stop offset="1" stop-color="#152827"/>
</linearGradient>
<radialGradient id="sun" cx="0.5" cy="0.5" r="0.5">
<stop offset="0" stop-color="#fff" stop-opacity="0.95"/><stop offset="0.4" stop-color="#7fa8a3" stop-opacity="0.7"/><stop offset="1" stop-color="#7fa8a3" stop-opacity="0"/>
</radialGradient>
<linearGradient id="water" x1="0" y1="0" x2="0" y2="1">
<stop offset="0" stop-color="#fff" stop-opacity="0.5"/><stop offset="1" stop-color="#fff" stop-opacity="0"/>
</linearGradient>
<linearGradient id="vig" x1="0" y1="0" x2="0" y2="1">
<stop offset="0" stop-color="#000" stop-opacity="0"/><stop offset="1" stop-color="#000" stop-opacity="0.45"/>
</linearGradient>
</defs>
<rect width="1200" height="900" fill="url(#sky)"/>
<circle cx="484" cy="222" r="108" fill="url(#sun)" opacity="0.9"/><rect x="-20" y="327" width="113" height="573" fill="#3d5d5c" opacity="0.92"/><rect x="44" y="339" width="6" height="9" fill="#7fa8a3" opacity="0.59"/><rect x="72" y="339" width="6" height="9" fill="#7fa8a3" opacity="0.66"/><rect x="16" y="372" width="6" height="9" fill="#7fa8a3" opacity="0.59"/><rect x="44" y="372" width="6" height="9" fill="#7fa8a3" opacity="0.66"/><rect x="72" y="372" width="6" height="9" fill="#7fa8a3" opacity="0.79"/><rect x="44" y="404" width="6" height="9" fill="#7fa8a3" opacity="0.79"/><rect x="16" y="437" width="6" height="9" fill="#7fa8a3" opacity="0.79"/><rect x="72" y="437" width="6" height="9" fill="#7fa8a3" opacity="0.44"/><rect x="-12" y="470" width="6" height="9" fill="#7fa8a3" opacity="0.79"/><rect x="16" y="470" width="6" height="9" fill="#7fa8a3" opacity="0.39"/><rect x="72" y="470" width="6" height="9" fill="#7fa8a3" opacity="0.82"/><rect x="16" y="503" width="6" height="9" fill="#7fa8a3" opacity="0.44"/><rect x="44" y="503" width="6" height="9" fill="#7fa8a3" opacity="0.82"/><rect x="72" y="503" width="6" height="9" fill="#7fa8a3" opacity="0.52"/><rect x="44" y="536" width="6" height="9" fill="#7fa8a3" opacity="0.52"/><rect x="72" y="536" width="6" height="9" fill="#7fa8a3" opacity="0.48"/><rect x="87" y="145" width="136" height="755" fill="#152827" opacity="0.92"/><rect x="95" y="157" width="6" height="9" fill="#7fa8a3" opacity="0.52"/><rect x="176" y="157" width="6" height="9" fill="#7fa8a3" opacity="0.66"/><rect x="203" y="189" width="6" height="9" fill="#7fa8a3" opacity="0.39"/><rect x="95" y="221" width="6" height="9" fill="#7fa8a3" opacity="0.59"/><rect x="149" y="221" width="6" height="9" fill="#7fa8a3" opacity="0.79"/><rect x="176" y="221" width="6" height="9" fill="#7fa8a3" opacity="0.39"/><rect x="203" y="221" width="6" height="9" fill="#7fa8a3" opacity="0.44"/><rect x="95" y="252" width="6" height="9" fill="#7fa8a3" opacity="0.66"/><rect x="122" y="252" width="6" height="9" fill="#7fa8a3" opacity="0.79"/><rect x="149" y="252" width="6" height="9" fill="#7fa8a3" opacity="0.39"/><rect x="203" y="252" width="6" height="9" fill="#7fa8a3" opacity="0.82"/><rect x="176" y="284" width="6" height="9" fill="#7fa8a3" opacity="0.82"/><rect x="203" y="284" width="6" height="9" fill="#7fa8a3" opacity="0.52"/><rect x="95" y="316" width="6" height="9" fill="#7fa8a3" opacity="0.39"/><rect x="122" y="316" width="6" height="9" fill="#7fa8a3" opacity="0.44"/><rect x="149" y="316" width="6" height="9" fill="#7fa8a3" opacity="0.82"/><rect x="176" y="316" width="6" height="9" fill="#7fa8a3" opacity="0.52"/><rect x="203" y="316" width="6" height="9" fill="#7fa8a3" opacity="0.48"/><rect x="149" y="347" width="6" height="9" fill="#7fa8a3" opacity="0.52"/><rect x="203" y="347" width="6" height="9" fill="#7fa8a3" opacity="0.48"/><rect x="122" y="379" width="6" height="9" fill="#7fa8a3" opacity="0.52"/><rect x="203" y="379" width="6" height="9" fill="#7fa8a3" opacity="0.79"/><rect x="95" y="410" width="6" height="9" fill="#7fa8a3" opacity="0.52"/><rect x="149" y="410" width="6" height="9" fill="#7fa8a3" opacity="0.48"/><rect x="95" y="442" width="6" height="9" fill="#7fa8a3" opacity="0.48"/><rect x="122" y="442" width="6" height="9" fill="#7fa8a3" opacity="0.48"/><rect x="149" y="442" width="6" height="9" fill="#7fa8a3" opacity="0.79"/><rect x="176" y="442" width="6" height="9" fill="#7fa8a3" opacity="0.74"/><rect x="203" y="442" width="6" height="9" fill="#7fa8a3" opacity="0.67"/><rect x="122" y="474" width="6" height="9" fill="#7fa8a3" opacity="0.79"/><rect x="149" y="474" width="6" height="9" fill="#7fa8a3" opacity="0.74"/><rect x="203" y="474" width="6" height="9" fill="#7fa8a3" opacity="0.64"/><rect x="95" y="505" width="6" height="9" fill="#7fa8a3" opacity="0.79"/><rect x="176" y="505" width="6" height="9" fill="#7fa8a3" opacity="0.64"/><rect x="122" y="537" width="6" height="9" fill="#7fa8a3" opacity="0.67"/><rect x="203" y="537" width="6" height="9" fill="#7fa8a3" opacity="0.44"/><rect x="216" y="255" width="99" height="645" fill="#3d5d5c" opacity="0.92"/><rect x="257" y="267" width="6" height="9" fill="#7fa8a3" opacity="0.44"/><rect x="290" y="267" width="6" height="9" fill="#7fa8a3" opacity="0.59"/><rect x="224" y="297" width="6" height="9" fill="#7fa8a3" opacity="0.44"/><rect x="257" y="327" width="6" height="9" fill="#7fa8a3" opacity="0.66"/><rect x="224" y="387" width="6" height="9" fill="#7fa8a3" opacity="0.79"/><rect x="257" y="387" width="6" height="9" fill="#7fa8a3" opacity="0.39"/><rect x="290" y="387" width="6" height="9" fill="#7fa8a3" opacity="0.44"/><rect x="224" y="448" width="6" height="9" fill="#7fa8a3" opacity="0.44"/><rect x="290" y="448" width="6" height="9" fill="#7fa8a3" opacity="0.52"/><rect x="224" y="478" width="6" height="9" fill="#7fa8a3" opacity="0.82"/><rect x="257" y="478" width="6" height="9" fill="#7fa8a3" opacity="0.52"/><rect x="257" y="508" width="6" height="9" fill="#7fa8a3" opacity="0.48"/><rect x="290" y="508" width="6" height="9" fill="#7fa8a3" opacity="0.48"/><rect x="290" y="538" width="6" height="9" fill="#7fa8a3" opacity="0.79"/><rect x="310" y="375" width="106" height="525" fill="#152827" opacity="0.92"/><rect x="370" y="387" width="6" height="9" fill="#7fa8a3" opacity="0.59"/><rect x="318" y="417" width="6" height="9" fill="#7fa8a3" opacity="0.44"/><rect x="344" y="417" width="6" height="9" fill="#7fa8a3" opacity="0.59"/><rect x="397" y="417" width="6" height="9" fill="#7fa8a3" opacity="0.79"/><rect x="370" y="448" width="6" height="9" fill="#7fa8a3" opacity="0.79"/><rect x="370" y="478" width="6" height="9" fill="#7fa8a3" opacity="0.39"/><rect x="397" y="478" width="6" height="9" fill="#7fa8a3" opacity="0.44"/><rect x="318" y="508" width="6" height="9" fill="#7fa8a3" opacity="0.79"/><rect x="344" y="508" width="6" height="9" fill="#7fa8a3" opacity="0.39"/><rect x="397" y="508" width="6" height="9" fill="#7fa8a3" opacity="0.82"/><rect x="344" y="538" width="6" height="9" fill="#7fa8a3" opacity="0.44"/><rect x="409" y="396" width="149" height="504" fill="#3d5d5c" opacity="0.92"/><rect x="477" y="408" width="6" height="9" fill="#7fa8a3" opacity="0.59"/><rect x="507" y="408" width="6" height="9" fill="#7fa8a3" opacity="0.66"/><rect x="537" y="408" width="6" height="9" fill="#7fa8a3" opacity="0.79"/><rect x="417" y="440" width="6" height="9" fill="#7fa8a3" opacity="0.44"/><rect x="447" y="440" width="6" height="9" fill="#7fa8a3" opacity="0.59"/><rect x="477" y="440" width="6" height="9" fill="#7fa8a3" opacity="0.66"/><rect x="507" y="440" width="6" height="9" fill="#7fa8a3" opacity="0.79"/><rect x="447" y="472" width="6" height="9" fill="#7fa8a3" opacity="0.66"/><rect x="477" y="472" width="6" height="9" fill="#7fa8a3" opacity="0.79"/><rect x="417" y="504" width="6" height="9" fill="#7fa8a3" opacity="0.66"/><rect x="447" y="504" width="6" height="9" fill="#7fa8a3" opacity="0.79"/><rect x="477" y="504" width="6" height="9" fill="#7fa8a3" opacity="0.39"/><rect x="417" y="537" width="6" height="9" fill="#7fa8a3" opacity="0.79"/><rect x="507" y="537" width="6" height="9" fill="#7fa8a3" opacity="0.82"/><rect x="552" y="339" width="153" height="561" fill="#152827" opacity="0.92"/><rect x="560" y="351" width="6" height="9" fill="#7fa8a3" opacity="0.52"/><rect x="591" y="351" width="6" height="9" fill="#7fa8a3" opacity="0.44"/><rect x="621" y="351" width="6" height="9" fill="#7fa8a3" opacity="0.59"/><rect x="652" y="351" width="6" height="9" fill="#7fa8a3" opacity="0.66"/><rect x="683" y="351" width="6" height="9" fill="#7fa8a3" opacity="0.79"/><rect x="591" y="382" width="6" height="9" fill="#7fa8a3" opacity="0.59"/><rect x="621" y="382" width="6" height="9" fill="#7fa8a3" opacity="0.66"/><rect x="683" y="382" width="6" height="9" fill="#7fa8a3" opacity="0.39"/><rect x="652" y="413" width="6" height="9" fill="#7fa8a3" opacity="0.39"/><rect x="560" y="444" width="6" height="9" fill="#7fa8a3" opacity="0.66"/><rect x="591" y="444" width="6" height="9" fill="#7fa8a3" opacity="0.79"/><rect x="683" y="444" width="6" height="9" fill="#7fa8a3" opacity="0.82"/><rect x="560" y="475" width="6" height="9" fill="#7fa8a3" opacity="0.79"/><rect x="591" y="475" width="6" height="9" fill="#7fa8a3" opacity="0.39"/><rect x="683" y="475" width="6" height="9" fill="#7fa8a3" opacity="0.52"/><rect x="560" y="506" width="6" height="9" fill="#7fa8a3" opacity="0.39"/><rect x="591" y="506" width="6" height="9" fill="#7fa8a3" opacity="0.44"/><rect x="621" y="506" width="6" height="9" fill="#7fa8a3" opacity="0.82"/><rect x="683" y="506" width="6" height="9" fill="#7fa8a3" opacity="0.48"/><rect x="591" y="537" width="6" height="9" fill="#7fa8a3" opacity="0.82"/><rect x="652" y="537" width="6" height="9" fill="#7fa8a3" opacity="0.48"/><rect x="699" y="355" width="132" height="545" fill="#3d5d5c" opacity="0.92"/><rect x="734" y="367" width="6" height="9" fill="#7fa8a3" opacity="0.44"/><rect x="760" y="367" width="6" height="9" fill="#7fa8a3" opacity="0.59"/><rect x="786" y="367" width="6" height="9" fill="#7fa8a3" opacity="0.66"/><rect x="734" y="400" width="6" height="9" fill="#7fa8a3" opacity="0.59"/><rect x="760" y="400" width="6" height="9" fill="#7fa8a3" opacity="0.66"/><rect x="813" y="400" width="6" height="9" fill="#7fa8a3" opacity="0.39"/><rect x="707" y="434" width="6" height="9" fill="#7fa8a3" opacity="0.59"/><rect x="734" y="434" width="6" height="9" fill="#7fa8a3" opacity="0.66"/><rect x="760" y="434" width="6" height="9" fill="#7fa8a3" opacity="0.79"/><rect x="786" y="434" width="6" height="9" fill="#7fa8a3" opacity="0.39"/><rect x="707" y="468" width="6" height="9" fill="#7fa8a3" opacity="0.66"/><rect x="707" y="501" width="6" height="9" fill="#7fa8a3" opacity="0.79"/><rect x="734" y="501" width="6" height="9" fill="#7fa8a3" opacity="0.39"/><rect x="760" y="501" width="6" height="9" fill="#7fa8a3" opacity="0.44"/><rect x="813" y="501" width="6" height="9" fill="#7fa8a3" opacity="0.52"/><rect x="707" y="535" width="6" height="9" fill="#7fa8a3" opacity="0.39"/><rect x="786" y="535" width="6" height="9" fill="#7fa8a3" opacity="0.52"/><rect x="825" y="212" width="99" height="688" fill="#152827" opacity="0.92"/><rect x="833" y="224" width="6" height="9" fill="#7fa8a3" opacity="0.52"/><rect x="866" y="224" width="6" height="9" fill="#7fa8a3" opacity="0.44"/><rect x="899" y="224" width="6" height="9" fill="#7fa8a3" opacity="0.59"/><rect x="833" y="255" width="6" height="9" fill="#7fa8a3" opacity="0.44"/><rect x="866" y="318" width="6" height="9" fill="#7fa8a3" opacity="0.79"/><rect x="833" y="349" width="6" height="9" fill="#7fa8a3" opacity="0.79"/><rect x="866" y="381" width="6" height="9" fill="#7fa8a3" opacity="0.44"/><rect x="899" y="381" width="6" height="9" fill="#7fa8a3" opacity="0.82"/><rect x="833" y="412" width="6" height="9" fill="#7fa8a3" opacity="0.44"/><rect x="866" y="412" width="6" height="9" fill="#7fa8a3" opacity="0.82"/><rect x="866" y="443" width="6" height="9" fill="#7fa8a3" opacity="0.52"/><rect x="833" y="475" width="6" height="9" fill="#7fa8a3" opacity="0.52"/><rect x="866" y="475" width="6" height="9" fill="#7fa8a3" opacity="0.48"/><rect x="899" y="475" width="6" height="9" fill="#7fa8a3" opacity="0.48"/><rect x="833" y="537" width="6" height="9" fill="#7fa8a3" opacity="0.48"/><rect x="899" y="537" width="6" height="9" fill="#7fa8a3" opacity="0.74"/><rect x="918" y="227" width="136" height="673" fill="#3d5d5c" opacity="0.92"/><rect x="926" y="239" width="6" height="9" fill="#7fa8a3" opacity="0.52"/><rect x="981" y="239" width="6" height="9" fill="#7fa8a3" opacity="0.59"/><rect x="1008" y="239" width="6" height="9" fill="#7fa8a3" opacity="0.66"/><rect x="981" y="272" width="6" height="9" fill="#7fa8a3" opacity="0.66"/><rect x="1035" y="272" width="6" height="9" fill="#7fa8a3" opacity="0.39"/><rect x="926" y="305" width="6" height="9" fill="#7fa8a3" opacity="0.59"/><rect x="954" y="305" width="6" height="9" fill="#7fa8a3" opacity="0.66"/><rect x="981" y="305" width="6" height="9" fill="#7fa8a3" opacity="0.79"/><rect x="1008" y="305" width="6" height="9" fill="#7fa8a3" opacity="0.39"/><rect x="1035" y="305" width="6" height="9" fill="#7fa8a3" opacity="0.44"/><rect x="926" y="338" width="6" height="9" fill="#7fa8a3" opacity="0.66"/><rect x="954" y="338" width="6" height="9" fill="#7fa8a3" opacity="0.79"/><rect x="981" y="338" width="6" height="9" fill="#7fa8a3" opacity="0.39"/><rect x="1008" y="338" width="6" height="9" fill="#7fa8a3" opacity="0.44"/><rect x="954" y="371" width="6" height="9" fill="#7fa8a3" opacity="0.39"/><rect x="926" y="404" width="6" height="9" fill="#7fa8a3" opacity="0.39"/><rect x="954" y="404" width="6" height="9" fill="#7fa8a3" opacity="0.44"/><rect x="954" y="437" width="6" height="9" fill="#7fa8a3" opacity="0.82"/><rect x="981" y="437" width="6" height="9" fill="#7fa8a3" opacity="0.52"/><rect x="1008" y="437" width="6" height="9" fill="#7fa8a3" opacity="0.48"/><rect x="1035" y="437" width="6" height="9" fill="#7fa8a3" opacity="0.48"/><rect x="926" y="470" width="6" height="9" fill="#7fa8a3" opacity="0.82"/><rect x="981" y="470" width="6" height="9" fill="#7fa8a3" opacity="0.48"/><rect x="1008" y="470" width="6" height="9" fill="#7fa8a3" opacity="0.48"/><rect x="1035" y="470" width="6" height="9" fill="#7fa8a3" opacity="0.79"/><rect x="926" y="503" width="6" height="9" fill="#7fa8a3" opacity="0.52"/><rect x="954" y="503" width="6" height="9" fill="#7fa8a3" opacity="0.48"/><rect x="981" y="503" width="6" height="9" fill="#7fa8a3" opacity="0.48"/><rect x="1035" y="536" width="6" height="9" fill="#7fa8a3" opacity="0.67"/><rect x="1048" y="161" width="165" height="739" fill="#152827" opacity="0.92"/><rect x="1056" y="173" width="6" height="9" fill="#7fa8a3" opacity="0.52"/><rect x="1111" y="173" width="6" height="9" fill="#7fa8a3" opacity="0.59"/><rect x="1056" y="204" width="6" height="9" fill="#7fa8a3" opacity="0.44"/><rect x="1083" y="204" width="6" height="9" fill="#7fa8a3" opacity="0.59"/><rect x="1138" y="204" width="6" height="9" fill="#7fa8a3" opacity="0.79"/><rect x="1193" y="204" width="6" height="9" fill="#7fa8a3" opacity="0.44"/><rect x="1111" y="234" width="6" height="9" fill="#7fa8a3" opacity="0.79"/><rect x="1056" y="264" width="6" height="9" fill="#7fa8a3" opacity="0.66"/><rect x="1111" y="264" width="6" height="9" fill="#7fa8a3" opacity="0.39"/><rect x="1138" y="264" width="6" height="9" fill="#7fa8a3" opacity="0.44"/><rect x="1166" y="264" width="6" height="9" fill="#7fa8a3" opacity="0.82"/><rect x="1193" y="264" width="6" height="9" fill="#7fa8a3" opacity="0.52"/><rect x="1083" y="295" width="6" height="9" fill="#7fa8a3" opacity="0.39"/><rect x="1111" y="295" width="6" height="9" fill="#7fa8a3" opacity="0.44"/><rect x="1138" y="295" width="6" height="9" fill="#7fa8a3" opacity="0.82"/><rect x="1193" y="295" width="6" height="9" fill="#7fa8a3" opacity="0.48"/><rect x="1166" y="325" width="6" height="9" fill="#7fa8a3" opacity="0.48"/><rect x="1193" y="325" width="6" height="9" fill="#7fa8a3" opacity="0.48"/><rect x="1056" y="356" width="6" height="9" fill="#7fa8a3" opacity="0.44"/><rect x="1083" y="356" width="6" height="9" fill="#7fa8a3" opacity="0.82"/><rect x="1138" y="356" width="6" height="9" fill="#7fa8a3" opacity="0.48"/><rect x="1193" y="356" width="6" height="9" fill="#7fa8a3" opacity="0.79"/><rect x="1166" y="386" width="6" height="9" fill="#7fa8a3" opacity="0.79"/><rect x="1056" y="417" width="6" height="9" fill="#7fa8a3" opacity="0.52"/><rect x="1083" y="417" width="6" height="9" fill="#7fa8a3" opacity="0.48"/><rect x="1111" y="417" width="6" height="9" fill="#7fa8a3" opacity="0.48"/><rect x="1138" y="417" width="6" height="9" fill="#7fa8a3" opacity="0.79"/><rect x="1166" y="417" width="6" height="9" fill="#7fa8a3" opacity="0.74"/><rect x="1193" y="417" width="6" height="9" fill="#7fa8a3" opacity="0.67"/><rect x="1166" y="447" width="6" height="9" fill="#7fa8a3" opacity="0.67"/><rect x="1056" y="477" width="6" height="9" fill="#7fa8a3" opacity="0.48"/><rect x="1083" y="477" width="6" height="9" fill="#7fa8a3" opacity="0.79"/><rect x="1166" y="477" width="6" height="9" fill="#7fa8a3" opacity="0.64"/><rect x="1193" y="477" width="6" height="9" fill="#7fa8a3" opacity="0.76"/><rect x="1056" y="508" width="6" height="9" fill="#7fa8a3" opacity="0.79"/><rect x="1083" y="508" width="6" height="9" fill="#7fa8a3" opacity="0.74"/><rect x="1111" y="508" width="6" height="9" fill="#7fa8a3" opacity="0.67"/><rect x="1138" y="508" width="6" height="9" fill="#7fa8a3" opacity="0.64"/><rect x="1193" y="508" width="6" height="9" fill="#7fa8a3" opacity="0.44"/><rect x="1138" y="538" width="6" height="9" fill="#7fa8a3" opacity="0.76"/><rect x="1193" y="538" width="6" height="9" fill="#7fa8a3" opacity="0.56"/><rect x="0" y="556.5704632888883" width="1200" height="343.4295367111117" fill="url(#water)" opacity="0.25"/>
<rect width="1200" height="900" fill="url(#vig)"/>
<text x="48" y="846" font-family="Georgia, serif" font-size="46" fill="#fff" opacity="0.92" letter-spacing="-1">Lakeview Residence</text>
<text x="50" y="804" font-family="Georgia, serif" font-size="20" fill="#c9a24b" opacity="0.9" letter-spacing="3">KASSORA</text>
</svg>