<svg xmlns="http://www.w3.org/2000/svg" width="1200" height="900" viewBox="0 0 1200 900">
<defs>
<linearGradient id="sky" x1="0" y1="0" x2="0" y2="1">
<stop offset="0" stop-color="#bcd3d0"/><stop offset="0.55" stop-color="#7fa8a3"/><stop offset="1" stop-color="#152827"/>
</linearGradient>
<radialGradient id="sun" cx="0.5" cy="0.5" r="0.5">
<stop offset="0" stop-color="#fff" stop-opacity="0.95"/><stop offset="0.4" stop-color="#7fa8a3" stop-opacity="0.7"/><stop offset="1" stop-color="#7fa8a3" stop-opacity="0"/>
</radialGradient>
<linearGradient id="water" x1="0" y1="0" x2="0" y2="1">
<stop offset="0" stop-color="#fff" stop-opacity="0.5"/><stop offset="1" stop-color="#fff" stop-opacity="0"/>
</linearGradient>
<linearGradient id="vig" x1="0" y1="0" x2="0" y2="1">
<stop offset="0" stop-color="#000" stop-opacity="0"/><stop offset="1" stop-color="#000" stop-opacity="0.45"/>
</linearGradient>
</defs>
<rect width="1200" height="900" fill="url(#sky)"/>
<circle cx="911" cy="244" r="108" fill="url(#sun)" opacity="0.9"/><rect x="-20" y="129" width="203" height="771" fill="#3d5d5c" opacity="0.92"/><rect x="-12" y="141" width="6" height="9" fill="#7fa8a3" opacity="0.82"/><rect x="104" y="141" width="6" height="9" fill="#7fa8a3" opacity="0.79"/><rect x="133" y="141" width="6" height="9" fill="#7fa8a3" opacity="0.74"/><rect x="162" y="141" width="6" height="9" fill="#7fa8a3" opacity="0.67"/><rect x="17" y="173" width="6" height="9" fill="#7fa8a3" opacity="0.48"/><rect x="46" y="173" width="6" height="9" fill="#7fa8a3" opacity="0.48"/><rect x="133" y="173" width="6" height="9" fill="#7fa8a3" opacity="0.67"/><rect x="-12" y="205" width="6" height="9" fill="#7fa8a3" opacity="0.48"/><rect x="104" y="205" width="6" height="9" fill="#7fa8a3" opacity="0.67"/><rect x="162" y="205" width="6" height="9" fill="#7fa8a3" opacity="0.76"/><rect x="17" y="236" width="6" height="9" fill="#7fa8a3" opacity="0.79"/><rect x="46" y="236" width="6" height="9" fill="#7fa8a3" opacity="0.74"/><rect x="75" y="236" width="6" height="9" fill="#7fa8a3" opacity="0.67"/><rect x="104" y="236" width="6" height="9" fill="#7fa8a3" opacity="0.64"/><rect x="162" y="236" width="6" height="9" fill="#7fa8a3" opacity="0.44"/><rect x="-12" y="268" width="6" height="9" fill="#7fa8a3" opacity="0.79"/><rect x="46" y="268" width="6" height="9" fill="#7fa8a3" opacity="0.67"/><rect x="104" y="268" width="6" height="9" fill="#7fa8a3" opacity="0.76"/><rect x="133" y="268" width="6" height="9" fill="#7fa8a3" opacity="0.44"/><rect x="162" y="268" width="6" height="9" fill="#7fa8a3" opacity="0.56"/><rect x="-12" y="300" width="6" height="9" fill="#7fa8a3" opacity="0.74"/><rect x="46" y="300" width="6" height="9" fill="#7fa8a3" opacity="0.64"/><rect x="133" y="300" width="6" height="9" fill="#7fa8a3" opacity="0.56"/><rect x="162" y="300" width="6" height="9" fill="#7fa8a3" opacity="0.64"/><rect x="46" y="331" width="6" height="9" fill="#7fa8a3" opacity="0.76"/><rect x="75" y="331" width="6" height="9" fill="#7fa8a3" opacity="0.44"/><rect x="104" y="331" width="6" height="9" fill="#7fa8a3" opacity="0.56"/><rect x="162" y="331" width="6" height="9" fill="#7fa8a3" opacity="0.59"/><rect x="17" y="363" width="6" height="9" fill="#7fa8a3" opacity="0.76"/><rect x="46" y="363" width="6" height="9" fill="#7fa8a3" opacity="0.44"/><rect x="75" y="363" width="6" height="9" fill="#7fa8a3" opacity="0.56"/><rect x="104" y="363" width="6" height="9" fill="#7fa8a3" opacity="0.64"/><rect x="162" y="363" width="6" height="9" fill="#7fa8a3" opacity="0.37"/><rect x="17" y="394" width="6" height="9" fill="#7fa8a3" opacity="0.44"/><rect x="46" y="394" width="6" height="9" fill="#7fa8a3" opacity="0.56"/><rect x="104" y="394" width="6" height="9" fill="#7fa8a3" opacity="0.59"/><rect x="133" y="394" width="6" height="9" fill="#7fa8a3" opacity="0.37"/><rect x="17" y="426" width="6" height="9" fill="#7fa8a3" opacity="0.56"/><rect x="75" y="426" width="6" height="9" fill="#7fa8a3" opacity="0.59"/><rect x="162" y="426" width="6" height="9" fill="#7fa8a3" opacity="0.75"/><rect x="-12" y="489" width="6" height="9" fill="#7fa8a3" opacity="0.64"/><rect x="46" y="489" width="6" height="9" fill="#7fa8a3" opacity="0.37"/><rect x="75" y="489" width="6" height="9" fill="#7fa8a3" opacity="0.44"/><rect x="133" y="489" width="6" height="9" fill="#7fa8a3" opacity="0.53"/><rect x="162" y="489" width="6" height="9" fill="#7fa8a3" opacity="0.66"/><rect x="-12" y="521" width="6" height="9" fill="#7fa8a3" opacity="0.59"/><rect x="17" y="521" width="6" height="9" fill="#7fa8a3" opacity="0.37"/><rect x="75" y="521" width="6" height="9" fill="#7fa8a3" opacity="0.75"/><rect x="104" y="521" width="6" height="9" fill="#7fa8a3" opacity="0.53"/><rect x="133" y="521" width="6" height="9" fill="#7fa8a3" opacity="0.66"/><rect x="177" y="239" width="133" height="661" fill="#152827" opacity="0.92"/><rect x="185" y="281" width="6" height="9" fill="#7fa8a3" opacity="0.52"/><rect x="238" y="281" width="6" height="9" fill="#7fa8a3" opacity="0.48"/><rect x="265" y="281" width="6" height="9" fill="#7fa8a3" opacity="0.79"/><rect x="185" y="311" width="6" height="9" fill="#7fa8a3" opacity="0.48"/><rect x="211" y="311" width="6" height="9" fill="#7fa8a3" opacity="0.48"/><rect x="265" y="311" width="6" height="9" fill="#7fa8a3" opacity="0.74"/><rect x="291" y="311" width="6" height="9" fill="#7fa8a3" opacity="0.67"/><rect x="185" y="341" width="6" height="9" fill="#7fa8a3" opacity="0.48"/><rect x="185" y="371" width="6" height="9" fill="#7fa8a3" opacity="0.79"/><rect x="211" y="371" width="6" height="9" fill="#7fa8a3" opacity="0.74"/><rect x="238" y="371" width="6" height="9" fill="#7fa8a3" opacity="0.67"/><rect x="265" y="371" width="6" height="9" fill="#7fa8a3" opacity="0.64"/><rect x="291" y="371" width="6" height="9" fill="#7fa8a3" opacity="0.76"/><rect x="211" y="402" width="6" height="9" fill="#7fa8a3" opacity="0.67"/><rect x="185" y="432" width="6" height="9" fill="#7fa8a3" opacity="0.67"/><rect x="291" y="432" width="6" height="9" fill="#7fa8a3" opacity="0.56"/><rect x="185" y="462" width="6" height="9" fill="#7fa8a3" opacity="0.64"/><rect x="211" y="462" width="6" height="9" fill="#7fa8a3" opacity="0.76"/><rect x="265" y="462" width="6" height="9" fill="#7fa8a3" opacity="0.56"/><rect x="185" y="492" width="6" height="9" fill="#7fa8a3" opacity="0.76"/><rect x="211" y="492" width="6" height="9" fill="#7fa8a3" opacity="0.44"/><rect x="238" y="492" width="6" height="9" fill="#7fa8a3" opacity="0.56"/><rect x="265" y="492" width="6" height="9" fill="#7fa8a3" opacity="0.64"/><rect x="291" y="492" width="6" height="9" fill="#7fa8a3" opacity="0.59"/><rect x="185" y="522" width="6" height="9" fill="#7fa8a3" opacity="0.44"/><rect x="211" y="522" width="6" height="9" fill="#7fa8a3" opacity="0.56"/><rect x="291" y="522" width="6" height="9" fill="#7fa8a3" opacity="0.37"/><rect x="304" y="359" width="173" height="541" fill="#3d5d5c" opacity="0.92"/><rect x="398" y="371" width="6" height="9" fill="#7fa8a3" opacity="0.48"/><rect x="341" y="401" width="6" height="9" fill="#7fa8a3" opacity="0.48"/><rect x="370" y="401" width="6" height="9" fill="#7fa8a3" opacity="0.48"/><rect x="427" y="401" width="6" height="9" fill="#7fa8a3" opacity="0.74"/><rect x="398" y="462" width="6" height="9" fill="#7fa8a3" opacity="0.67"/><rect x="427" y="462" width="6" height="9" fill="#7fa8a3" opacity="0.64"/><rect x="456" y="462" width="6" height="9" fill="#7fa8a3" opacity="0.76"/><rect x="312" y="522" width="6" height="9" fill="#7fa8a3" opacity="0.74"/><rect x="341" y="522" width="6" height="9" fill="#7fa8a3" opacity="0.67"/><rect x="398" y="522" width="6" height="9" fill="#7fa8a3" opacity="0.76"/><rect x="456" y="522" width="6" height="9" fill="#7fa8a3" opacity="0.56"/><rect x="471" y="380" width="124" height="520" fill="#152827" opacity="0.92"/><rect x="479" y="392" width="6" height="9" fill="#7fa8a3" opacity="0.82"/><rect x="510" y="392" width="6" height="9" fill="#7fa8a3" opacity="0.52"/><rect x="572" y="392" width="6" height="9" fill="#7fa8a3" opacity="0.48"/><rect x="510" y="424" width="6" height="9" fill="#7fa8a3" opacity="0.48"/><rect x="479" y="456" width="6" height="9" fill="#7fa8a3" opacity="0.48"/><rect x="510" y="456" width="6" height="9" fill="#7fa8a3" opacity="0.48"/><rect x="541" y="456" width="6" height="9" fill="#7fa8a3" opacity="0.79"/><rect x="510" y="488" width="6" height="9" fill="#7fa8a3" opacity="0.79"/><rect x="541" y="488" width="6" height="9" fill="#7fa8a3" opacity="0.74"/><rect x="572" y="488" width="6" height="9" fill="#7fa8a3" opacity="0.67"/><rect x="541" y="521" width="6" height="9" fill="#7fa8a3" opacity="0.67"/><rect x="589" y="323" width="156" height="577" fill="#3d5d5c" opacity="0.92"/><rect x="597" y="335" width="6" height="9" fill="#7fa8a3" opacity="0.82"/><rect x="691" y="335" width="6" height="9" fill="#7fa8a3" opacity="0.48"/><rect x="722" y="335" width="6" height="9" fill="#7fa8a3" opacity="0.79"/><rect x="597" y="366" width="6" height="9" fill="#7fa8a3" opacity="0.52"/><rect x="660" y="366" width="6" height="9" fill="#7fa8a3" opacity="0.48"/><rect x="722" y="366" width="6" height="9" fill="#7fa8a3" opacity="0.74"/><rect x="691" y="397" width="6" height="9" fill="#7fa8a3" opacity="0.74"/><rect x="722" y="397" width="6" height="9" fill="#7fa8a3" opacity="0.67"/><rect x="597" y="428" width="6" height="9" fill="#7fa8a3" opacity="0.48"/><rect x="691" y="428" width="6" height="9" fill="#7fa8a3" opacity="0.67"/><rect x="660" y="459" width="6" height="9" fill="#7fa8a3" opacity="0.67"/><rect x="691" y="459" width="6" height="9" fill="#7fa8a3" opacity="0.64"/><rect x="722" y="459" width="6" height="9" fill="#7fa8a3" opacity="0.76"/><rect x="597" y="490" width="6" height="9" fill="#7fa8a3" opacity="0.74"/><rect x="660" y="490" width="6" height="9" fill="#7fa8a3" opacity="0.64"/><rect x="691" y="521" width="6" height="9" fill="#7fa8a3" opacity="0.44"/><rect x="739" y="339" width="189" height="561" fill="#152827" opacity="0.92"/><rect x="774" y="351" width="6" height="9" fill="#7fa8a3" opacity="0.52"/><rect x="856" y="351" width="6" height="9" fill="#7fa8a3" opacity="0.79"/><rect x="883" y="351" width="6" height="9" fill="#7fa8a3" opacity="0.74"/><rect x="910" y="384" width="6" height="9" fill="#7fa8a3" opacity="0.64"/><rect x="747" y="418" width="6" height="9" fill="#7fa8a3" opacity="0.48"/><rect x="774" y="418" width="6" height="9" fill="#7fa8a3" opacity="0.48"/><rect x="801" y="418" width="6" height="9" fill="#7fa8a3" opacity="0.79"/><rect x="828" y="418" width="6" height="9" fill="#7fa8a3" opacity="0.74"/><rect x="856" y="418" width="6" height="9" fill="#7fa8a3" opacity="0.67"/><rect x="774" y="452" width="6" height="9" fill="#7fa8a3" opacity="0.79"/><rect x="801" y="452" width="6" height="9" fill="#7fa8a3" opacity="0.74"/><rect x="828" y="452" width="6" height="9" fill="#7fa8a3" opacity="0.67"/><rect x="856" y="452" width="6" height="9" fill="#7fa8a3" opacity="0.64"/><rect x="774" y="485" width="6" height="9" fill="#7fa8a3" opacity="0.74"/><rect x="828" y="485" width="6" height="9" fill="#7fa8a3" opacity="0.64"/><rect x="856" y="485" width="6" height="9" fill="#7fa8a3" opacity="0.76"/><rect x="883" y="485" width="6" height="9" fill="#7fa8a3" opacity="0.44"/><rect x="774" y="519" width="6" height="9" fill="#7fa8a3" opacity="0.67"/><rect x="856" y="519" width="6" height="9" fill="#7fa8a3" opacity="0.44"/><rect x="910" y="519" width="6" height="9" fill="#7fa8a3" opacity="0.64"/><rect x="923" y="196" width="107" height="704" fill="#3d5d5c" opacity="0.92"/><rect x="931" y="208" width="6" height="9" fill="#7fa8a3" opacity="0.82"/><rect x="958" y="208" width="6" height="9" fill="#7fa8a3" opacity="0.52"/><rect x="931" y="239" width="6" height="9" fill="#7fa8a3" opacity="0.52"/><rect x="958" y="239" width="6" height="9" fill="#7fa8a3" opacity="0.48"/><rect x="1011" y="239" width="6" height="9" fill="#7fa8a3" opacity="0.79"/><rect x="931" y="271" width="6" height="9" fill="#7fa8a3" opacity="0.48"/><rect x="1011" y="271" width="6" height="9" fill="#7fa8a3" opacity="0.74"/><rect x="958" y="302" width="6" height="9" fill="#7fa8a3" opacity="0.79"/><rect x="1011" y="302" width="6" height="9" fill="#7fa8a3" opacity="0.67"/><rect x="958" y="333" width="6" height="9" fill="#7fa8a3" opacity="0.74"/><rect x="1011" y="333" width="6" height="9" fill="#7fa8a3" opacity="0.64"/><rect x="958" y="365" width="6" height="9" fill="#7fa8a3" opacity="0.67"/><rect x="1011" y="365" width="6" height="9" fill="#7fa8a3" opacity="0.76"/><rect x="931" y="396" width="6" height="9" fill="#7fa8a3" opacity="0.67"/><rect x="958" y="396" width="6" height="9" fill="#7fa8a3" opacity="0.64"/><rect x="984" y="396" width="6" height="9" fill="#7fa8a3" opacity="0.76"/><rect x="931" y="427" width="6" height="9" fill="#7fa8a3" opacity="0.64"/><rect x="984" y="427" width="6" height="9" fill="#7fa8a3" opacity="0.44"/><rect x="1011" y="427" width="6" height="9" fill="#7fa8a3" opacity="0.56"/><rect x="931" y="459" width="6" height="9" fill="#7fa8a3" opacity="0.76"/><rect x="1011" y="459" width="6" height="9" fill="#7fa8a3" opacity="0.64"/><rect x="984" y="490" width="6" height="9" fill="#7fa8a3" opacity="0.64"/><rect x="1011" y="490" width="6" height="9" fill="#7fa8a3" opacity="0.59"/><rect x="958" y="521" width="6" height="9" fill="#7fa8a3" opacity="0.64"/><rect x="1011" y="521" width="6" height="9" fill="#7fa8a3" opacity="0.37"/><rect x="1024" y="211" width="117" height="689" fill="#152827" opacity="0.92"/><rect x="1061" y="223" width="6" height="9" fill="#7fa8a3" opacity="0.52"/><rect x="1119" y="223" width="6" height="9" fill="#7fa8a3" opacity="0.48"/><rect x="1032" y="256" width="6" height="9" fill="#7fa8a3" opacity="0.52"/><rect x="1061" y="256" width="6" height="9" fill="#7fa8a3" opacity="0.48"/><rect x="1090" y="256" width="6" height="9" fill="#7fa8a3" opacity="0.48"/><rect x="1061" y="289" width="6" height="9" fill="#7fa8a3" opacity="0.48"/><rect x="1032" y="322" width="6" height="9" fill="#7fa8a3" opacity="0.48"/><rect x="1061" y="322" width="6" height="9" fill="#7fa8a3" opacity="0.79"/><rect x="1119" y="322" width="6" height="9" fill="#7fa8a3" opacity="0.67"/><rect x="1032" y="355" width="6" height="9" fill="#7fa8a3" opacity="0.79"/><rect x="1061" y="355" width="6" height="9" fill="#7fa8a3" opacity="0.74"/><rect x="1119" y="388" width="6" height="9" fill="#7fa8a3" opacity="0.76"/><rect x="1061" y="421" width="6" height="9" fill="#7fa8a3" opacity="0.64"/><rect x="1032" y="454" width="6" height="9" fill="#7fa8a3" opacity="0.64"/><rect x="1061" y="454" width="6" height="9" fill="#7fa8a3" opacity="0.76"/><rect x="1090" y="454" width="6" height="9" fill="#7fa8a3" opacity="0.44"/><rect x="1119" y="454" width="6" height="9" fill="#7fa8a3" opacity="0.56"/><rect x="1032" y="487" width="6" height="9" fill="#7fa8a3" opacity="0.76"/><rect x="1032" y="520" width="6" height="9" fill="#7fa8a3" opacity="0.44"/><rect x="1090" y="520" width="6" height="9" fill="#7fa8a3" opacity="0.64"/><rect x="1119" y="520" width="6" height="9" fill="#7fa8a3" opacity="0.59"/><rect x="0" y="540.56676841242" width="1200" height="359.43323158758005" fill="url(#water)" opacity="0.25"/>
<rect width="1200" height="900" fill="url(#vig)"/>
<text x="48" y="846" font-family="Georgia, serif" font-size="46" fill="#fff" opacity="0.92" letter-spacing="-1">Lakeview Residence</text>
<text x="50" y="804" font-family="Georgia, serif" font-size="20" fill="#c9a24b" opacity="0.9" letter-spacing="3">KASSORA</text>
</svg>