<svg xmlns="http://www.w3.org/2000/svg" width="1200" height="900" viewBox="0 0 1200 900">
<defs>
<linearGradient id="sky" x1="0" y1="0" x2="0" y2="1">
<stop offset="0" stop-color="#9fb4c9"/><stop offset="0.55" stop-color="#5f7794"/><stop offset="1" stop-color="#171e2e"/>
</linearGradient>
<radialGradient id="sun" cx="0.5" cy="0.5" r="0.5">
<stop offset="0" stop-color="#fff" stop-opacity="0.95"/><stop offset="0.4" stop-color="#5f7794" stop-opacity="0.7"/><stop offset="1" stop-color="#5f7794" stop-opacity="0"/>
</radialGradient>
<linearGradient id="water" x1="0" y1="0" x2="0" y2="1">
<stop offset="0" stop-color="#fff" stop-opacity="0.5"/><stop offset="1" stop-color="#fff" stop-opacity="0"/>
</linearGradient>
<linearGradient id="vig" x1="0" y1="0" x2="0" y2="1">
<stop offset="0" stop-color="#000" stop-opacity="0"/><stop offset="1" stop-color="#000" stop-opacity="0.45"/>
</linearGradient>
</defs>
<rect width="1200" height="900" fill="url(#sky)"/>
<circle cx="371" cy="324" r="108" fill="url(#sun)" opacity="0.9"/><rect x="-20" y="365" width="124" height="535" fill="#33415c" opacity="0.92"/><rect x="19" y="377" width="6" height="9" fill="#5f7794" opacity="0.82"/><rect x="50" y="408" width="6" height="9" fill="#5f7794" opacity="0.48"/><rect x="81" y="408" width="6" height="9" fill="#5f7794" opacity="0.48"/><rect x="-12" y="438" width="6" height="9" fill="#5f7794" opacity="0.52"/><rect x="19" y="438" width="6" height="9" fill="#5f7794" opacity="0.48"/><rect x="50" y="468" width="6" height="9" fill="#5f7794" opacity="0.79"/><rect x="81" y="468" width="6" height="9" fill="#5f7794" opacity="0.74"/><rect x="-12" y="498" width="6" height="9" fill="#5f7794" opacity="0.48"/><rect x="19" y="498" width="6" height="9" fill="#5f7794" opacity="0.79"/><rect x="81" y="498" width="6" height="9" fill="#5f7794" opacity="0.67"/><rect x="-12" y="528" width="6" height="9" fill="#5f7794" opacity="0.79"/><rect x="19" y="528" width="6" height="9" fill="#5f7794" opacity="0.74"/><rect x="81" y="528" width="6" height="9" fill="#5f7794" opacity="0.64"/><rect x="98" y="223" width="132" height="677" fill="#171e2e" opacity="0.92"/><rect x="106" y="267" width="6" height="9" fill="#5f7794" opacity="0.82"/><rect x="132" y="267" width="6" height="9" fill="#5f7794" opacity="0.52"/><rect x="185" y="267" width="6" height="9" fill="#5f7794" opacity="0.48"/><rect x="212" y="267" width="6" height="9" fill="#5f7794" opacity="0.79"/><rect x="106" y="300" width="6" height="9" fill="#5f7794" opacity="0.52"/><rect x="132" y="300" width="6" height="9" fill="#5f7794" opacity="0.48"/><rect x="159" y="300" width="6" height="9" fill="#5f7794" opacity="0.48"/><rect x="212" y="300" width="6" height="9" fill="#5f7794" opacity="0.74"/><rect x="132" y="332" width="6" height="9" fill="#5f7794" opacity="0.48"/><rect x="132" y="364" width="6" height="9" fill="#5f7794" opacity="0.79"/><rect x="159" y="364" width="6" height="9" fill="#5f7794" opacity="0.74"/><rect x="185" y="364" width="6" height="9" fill="#5f7794" opacity="0.67"/><rect x="212" y="364" width="6" height="9" fill="#5f7794" opacity="0.64"/><rect x="106" y="397" width="6" height="9" fill="#5f7794" opacity="0.79"/><rect x="159" y="397" width="6" height="9" fill="#5f7794" opacity="0.67"/><rect x="132" y="429" width="6" height="9" fill="#5f7794" opacity="0.67"/><rect x="106" y="462" width="6" height="9" fill="#5f7794" opacity="0.67"/><rect x="132" y="462" width="6" height="9" fill="#5f7794" opacity="0.64"/><rect x="159" y="462" width="6" height="9" fill="#5f7794" opacity="0.76"/><rect x="212" y="462" width="6" height="9" fill="#5f7794" opacity="0.56"/><rect x="132" y="494" width="6" height="9" fill="#5f7794" opacity="0.76"/><rect x="159" y="494" width="6" height="9" fill="#5f7794" opacity="0.44"/><rect x="185" y="494" width="6" height="9" fill="#5f7794" opacity="0.56"/><rect x="212" y="494" width="6" height="9" fill="#5f7794" opacity="0.64"/><rect x="106" y="526" width="6" height="9" fill="#5f7794" opacity="0.76"/><rect x="132" y="526" width="6" height="9" fill="#5f7794" opacity="0.44"/><rect x="159" y="526" width="6" height="9" fill="#5f7794" opacity="0.56"/><rect x="224" y="407" width="186" height="493" fill="#33415c" opacity="0.92"/><rect x="339" y="419" width="6" height="9" fill="#5f7794" opacity="0.48"/><rect x="285" y="454" width="6" height="9" fill="#5f7794" opacity="0.48"/><rect x="312" y="454" width="6" height="9" fill="#5f7794" opacity="0.48"/><rect x="365" y="454" width="6" height="9" fill="#5f7794" opacity="0.74"/><rect x="232" y="524" width="6" height="9" fill="#5f7794" opacity="0.48"/><rect x="339" y="524" width="6" height="9" fill="#5f7794" opacity="0.67"/><rect x="365" y="524" width="6" height="9" fill="#5f7794" opacity="0.64"/><rect x="392" y="524" width="6" height="9" fill="#5f7794" opacity="0.76"/><rect x="405" y="127" width="191" height="773" fill="#171e2e" opacity="0.92"/><rect x="413" y="139" width="6" height="9" fill="#5f7794" opacity="0.44"/><rect x="440" y="139" width="6" height="9" fill="#5f7794" opacity="0.82"/><rect x="467" y="139" width="6" height="9" fill="#5f7794" opacity="0.52"/><rect x="522" y="139" width="6" height="9" fill="#5f7794" opacity="0.48"/><rect x="549" y="139" width="6" height="9" fill="#5f7794" opacity="0.79"/><rect x="467" y="172" width="6" height="9" fill="#5f7794" opacity="0.48"/><rect x="576" y="172" width="6" height="9" fill="#5f7794" opacity="0.67"/><rect x="440" y="204" width="6" height="9" fill="#5f7794" opacity="0.48"/><rect x="467" y="204" width="6" height="9" fill="#5f7794" opacity="0.48"/><rect x="494" y="204" width="6" height="9" fill="#5f7794" opacity="0.79"/><rect x="576" y="204" width="6" height="9" fill="#5f7794" opacity="0.64"/><rect x="413" y="236" width="6" height="9" fill="#5f7794" opacity="0.48"/><rect x="467" y="236" width="6" height="9" fill="#5f7794" opacity="0.79"/><rect x="494" y="236" width="6" height="9" fill="#5f7794" opacity="0.74"/><rect x="522" y="236" width="6" height="9" fill="#5f7794" opacity="0.67"/><rect x="549" y="236" width="6" height="9" fill="#5f7794" opacity="0.64"/><rect x="494" y="268" width="6" height="9" fill="#5f7794" opacity="0.67"/><rect x="549" y="268" width="6" height="9" fill="#5f7794" opacity="0.76"/><rect x="413" y="301" width="6" height="9" fill="#5f7794" opacity="0.79"/><rect x="440" y="333" width="6" height="9" fill="#5f7794" opacity="0.67"/><rect x="522" y="333" width="6" height="9" fill="#5f7794" opacity="0.44"/><rect x="549" y="333" width="6" height="9" fill="#5f7794" opacity="0.56"/><rect x="576" y="333" width="6" height="9" fill="#5f7794" opacity="0.64"/><rect x="413" y="365" width="6" height="9" fill="#5f7794" opacity="0.67"/><rect x="467" y="365" width="6" height="9" fill="#5f7794" opacity="0.76"/><rect x="494" y="365" width="6" height="9" fill="#5f7794" opacity="0.44"/><rect x="549" y="365" width="6" height="9" fill="#5f7794" opacity="0.64"/><rect x="576" y="365" width="6" height="9" fill="#5f7794" opacity="0.59"/><rect x="440" y="397" width="6" height="9" fill="#5f7794" opacity="0.76"/><rect x="494" y="397" width="6" height="9" fill="#5f7794" opacity="0.56"/><rect x="522" y="397" width="6" height="9" fill="#5f7794" opacity="0.64"/><rect x="549" y="397" width="6" height="9" fill="#5f7794" opacity="0.59"/><rect x="440" y="430" width="6" height="9" fill="#5f7794" opacity="0.44"/><rect x="467" y="430" width="6" height="9" fill="#5f7794" opacity="0.56"/><rect x="494" y="430" width="6" height="9" fill="#5f7794" opacity="0.64"/><rect x="576" y="430" width="6" height="9" fill="#5f7794" opacity="0.44"/><rect x="440" y="462" width="6" height="9" fill="#5f7794" opacity="0.56"/><rect x="522" y="462" width="6" height="9" fill="#5f7794" opacity="0.37"/><rect x="549" y="462" width="6" height="9" fill="#5f7794" opacity="0.44"/><rect x="576" y="462" width="6" height="9" fill="#5f7794" opacity="0.75"/><rect x="440" y="494" width="6" height="9" fill="#5f7794" opacity="0.64"/><rect x="494" y="494" width="6" height="9" fill="#5f7794" opacity="0.37"/><rect x="549" y="494" width="6" height="9" fill="#5f7794" opacity="0.75"/><rect x="576" y="494" width="6" height="9" fill="#5f7794" opacity="0.53"/><rect x="413" y="526" width="6" height="9" fill="#5f7794" opacity="0.64"/><rect x="522" y="526" width="6" height="9" fill="#5f7794" opacity="0.75"/><rect x="549" y="526" width="6" height="9" fill="#5f7794" opacity="0.53"/><rect x="576" y="526" width="6" height="9" fill="#5f7794" opacity="0.66"/><rect x="589" y="143" width="165" height="757" fill="#33415c" opacity="0.92"/><rect x="625" y="155" width="6" height="9" fill="#5f7794" opacity="0.82"/><rect x="708" y="155" width="6" height="9" fill="#5f7794" opacity="0.48"/><rect x="735" y="155" width="6" height="9" fill="#5f7794" opacity="0.79"/><rect x="625" y="186" width="6" height="9" fill="#5f7794" opacity="0.52"/><rect x="680" y="186" width="6" height="9" fill="#5f7794" opacity="0.48"/><rect x="735" y="186" width="6" height="9" fill="#5f7794" opacity="0.74"/><rect x="597" y="217" width="6" height="9" fill="#5f7794" opacity="0.52"/><rect x="708" y="217" width="6" height="9" fill="#5f7794" opacity="0.74"/><rect x="735" y="217" width="6" height="9" fill="#5f7794" opacity="0.67"/><rect x="625" y="248" width="6" height="9" fill="#5f7794" opacity="0.48"/><rect x="708" y="248" width="6" height="9" fill="#5f7794" opacity="0.67"/><rect x="597" y="279" width="6" height="9" fill="#5f7794" opacity="0.48"/><rect x="680" y="279" width="6" height="9" fill="#5f7794" opacity="0.67"/><rect x="708" y="279" width="6" height="9" fill="#5f7794" opacity="0.64"/><rect x="735" y="279" width="6" height="9" fill="#5f7794" opacity="0.76"/><rect x="597" y="310" width="6" height="9" fill="#5f7794" opacity="0.79"/><rect x="625" y="310" width="6" height="9" fill="#5f7794" opacity="0.74"/><rect x="680" y="310" width="6" height="9" fill="#5f7794" opacity="0.64"/><rect x="708" y="341" width="6" height="9" fill="#5f7794" opacity="0.44"/><rect x="597" y="372" width="6" height="9" fill="#5f7794" opacity="0.67"/><rect x="625" y="372" width="6" height="9" fill="#5f7794" opacity="0.64"/><rect x="652" y="372" width="6" height="9" fill="#5f7794" opacity="0.76"/><rect x="680" y="372" width="6" height="9" fill="#5f7794" opacity="0.44"/><rect x="597" y="403" width="6" height="9" fill="#5f7794" opacity="0.64"/><rect x="652" y="403" width="6" height="9" fill="#5f7794" opacity="0.44"/><rect x="735" y="403" width="6" height="9" fill="#5f7794" opacity="0.59"/><rect x="625" y="434" width="6" height="9" fill="#5f7794" opacity="0.44"/><rect x="680" y="434" width="6" height="9" fill="#5f7794" opacity="0.64"/><rect x="708" y="434" width="6" height="9" fill="#5f7794" opacity="0.59"/><rect x="735" y="434" width="6" height="9" fill="#5f7794" opacity="0.37"/><rect x="652" y="466" width="6" height="9" fill="#5f7794" opacity="0.64"/><rect x="735" y="466" width="6" height="9" fill="#5f7794" opacity="0.44"/><rect x="597" y="497" width="6" height="9" fill="#5f7794" opacity="0.56"/><rect x="625" y="528" width="6" height="9" fill="#5f7794" opacity="0.59"/><rect x="652" y="528" width="6" height="9" fill="#5f7794" opacity="0.37"/><rect x="680" y="528" width="6" height="9" fill="#5f7794" opacity="0.44"/><rect x="708" y="528" width="6" height="9" fill="#5f7794" opacity="0.75"/><rect x="735" y="528" width="6" height="9" fill="#5f7794" opacity="0.53"/><rect x="749" y="220" width="124" height="680" fill="#171e2e" opacity="0.92"/><rect x="819" y="232" width="6" height="9" fill="#5f7794" opacity="0.52"/><rect x="757" y="264" width="6" height="9" fill="#5f7794" opacity="0.82"/><rect x="788" y="297" width="6" height="9" fill="#5f7794" opacity="0.48"/><rect x="819" y="297" width="6" height="9" fill="#5f7794" opacity="0.48"/><rect x="850" y="297" width="6" height="9" fill="#5f7794" opacity="0.79"/><rect x="819" y="330" width="6" height="9" fill="#5f7794" opacity="0.79"/><rect x="850" y="330" width="6" height="9" fill="#5f7794" opacity="0.74"/><rect x="819" y="362" width="6" height="9" fill="#5f7794" opacity="0.74"/><rect x="819" y="395" width="6" height="9" fill="#5f7794" opacity="0.67"/><rect x="757" y="428" width="6" height="9" fill="#5f7794" opacity="0.74"/><rect x="850" y="428" width="6" height="9" fill="#5f7794" opacity="0.76"/><rect x="757" y="461" width="6" height="9" fill="#5f7794" opacity="0.67"/><rect x="788" y="461" width="6" height="9" fill="#5f7794" opacity="0.64"/><rect x="819" y="461" width="6" height="9" fill="#5f7794" opacity="0.76"/><rect x="788" y="493" width="6" height="9" fill="#5f7794" opacity="0.76"/><rect x="850" y="493" width="6" height="9" fill="#5f7794" opacity="0.56"/><rect x="757" y="526" width="6" height="9" fill="#5f7794" opacity="0.76"/><rect x="819" y="526" width="6" height="9" fill="#5f7794" opacity="0.56"/><rect x="850" y="526" width="6" height="9" fill="#5f7794" opacity="0.64"/><rect x="867" y="299" width="169" height="601" fill="#33415c" opacity="0.92"/><rect x="903" y="311" width="6" height="9" fill="#5f7794" opacity="0.82"/><rect x="931" y="311" width="6" height="9" fill="#5f7794" opacity="0.52"/><rect x="1016" y="311" width="6" height="9" fill="#5f7794" opacity="0.79"/><rect x="875" y="342" width="6" height="9" fill="#5f7794" opacity="0.82"/><rect x="903" y="342" width="6" height="9" fill="#5f7794" opacity="0.52"/><rect x="931" y="342" width="6" height="9" fill="#5f7794" opacity="0.48"/><rect x="988" y="342" width="6" height="9" fill="#5f7794" opacity="0.79"/><rect x="1016" y="342" width="6" height="9" fill="#5f7794" opacity="0.74"/><rect x="875" y="373" width="6" height="9" fill="#5f7794" opacity="0.52"/><rect x="903" y="373" width="6" height="9" fill="#5f7794" opacity="0.48"/><rect x="988" y="373" width="6" height="9" fill="#5f7794" opacity="0.74"/><rect x="875" y="404" width="6" height="9" fill="#5f7794" opacity="0.48"/><rect x="931" y="404" width="6" height="9" fill="#5f7794" opacity="0.79"/><rect x="988" y="404" width="6" height="9" fill="#5f7794" opacity="0.67"/><rect x="1016" y="404" width="6" height="9" fill="#5f7794" opacity="0.64"/><rect x="875" y="435" width="6" height="9" fill="#5f7794" opacity="0.48"/><rect x="931" y="435" width="6" height="9" fill="#5f7794" opacity="0.74"/><rect x="988" y="435" width="6" height="9" fill="#5f7794" opacity="0.64"/><rect x="931" y="466" width="6" height="9" fill="#5f7794" opacity="0.67"/><rect x="988" y="466" width="6" height="9" fill="#5f7794" opacity="0.76"/><rect x="1016" y="466" width="6" height="9" fill="#5f7794" opacity="0.44"/><rect x="903" y="497" width="6" height="9" fill="#5f7794" opacity="0.67"/><rect x="931" y="497" width="6" height="9" fill="#5f7794" opacity="0.64"/><rect x="959" y="497" width="6" height="9" fill="#5f7794" opacity="0.76"/><rect x="1016" y="497" width="6" height="9" fill="#5f7794" opacity="0.56"/><rect x="875" y="528" width="6" height="9" fill="#5f7794" opacity="0.67"/><rect x="903" y="528" width="6" height="9" fill="#5f7794" opacity="0.64"/><rect x="959" y="528" width="6" height="9" fill="#5f7794" opacity="0.44"/><rect x="988" y="528" width="6" height="9" fill="#5f7794" opacity="0.56"/><rect x="1030" y="286" width="206" height="614" fill="#171e2e" opacity="0.92"/><rect x="1038" y="298" width="6" height="9" fill="#5f7794" opacity="0.44"/><rect x="1097" y="298" width="6" height="9" fill="#5f7794" opacity="0.52"/><rect x="1156" y="298" width="6" height="9" fill="#5f7794" opacity="0.48"/><rect x="1038" y="331" width="6" height="9" fill="#5f7794" opacity="0.82"/><rect x="1067" y="331" width="6" height="9" fill="#5f7794" opacity="0.52"/><rect x="1097" y="331" width="6" height="9" fill="#5f7794" opacity="0.48"/><rect x="1126" y="331" width="6" height="9" fill="#5f7794" opacity="0.48"/><rect x="1097" y="363" width="6" height="9" fill="#5f7794" opacity="0.48"/><rect x="1185" y="363" width="6" height="9" fill="#5f7794" opacity="0.67"/><rect x="1038" y="396" width="6" height="9" fill="#5f7794" opacity="0.48"/><rect x="1067" y="396" width="6" height="9" fill="#5f7794" opacity="0.48"/><rect x="1097" y="396" width="6" height="9" fill="#5f7794" opacity="0.79"/><rect x="1156" y="396" width="6" height="9" fill="#5f7794" opacity="0.67"/><rect x="1038" y="428" width="6" height="9" fill="#5f7794" opacity="0.48"/><rect x="1067" y="428" width="6" height="9" fill="#5f7794" opacity="0.79"/><rect x="1097" y="428" width="6" height="9" fill="#5f7794" opacity="0.74"/><rect x="1185" y="428" width="6" height="9" fill="#5f7794" opacity="0.76"/><rect x="1214" y="428" width="6" height="9" fill="#5f7794" opacity="0.44"/><rect x="1156" y="461" width="6" height="9" fill="#5f7794" opacity="0.76"/><rect x="1185" y="461" width="6" height="9" fill="#5f7794" opacity="0.44"/><rect x="1097" y="494" width="6" height="9" fill="#5f7794" opacity="0.64"/><rect x="1185" y="494" width="6" height="9" fill="#5f7794" opacity="0.56"/><rect x="1038" y="526" width="6" height="9" fill="#5f7794" opacity="0.67"/><rect x="1067" y="526" width="6" height="9" fill="#5f7794" opacity="0.64"/><rect x="1097" y="526" width="6" height="9" fill="#5f7794" opacity="0.76"/><rect x="1126" y="526" width="6" height="9" fill="#5f7794" opacity="0.44"/><rect x="1156" y="526" width="6" height="9" fill="#5f7794" opacity="0.56"/><rect x="1185" y="526" width="6" height="9" fill="#5f7794" opacity="0.64"/><rect x="1214" y="526" width="6" height="9" fill="#5f7794" opacity="0.59"/><rect x="0" y="546.7384009736779" width="1200" height="353.2615990263221" fill="url(#water)" opacity="0.25"/>
<rect width="1200" height="900" fill="url(#vig)"/>
<text x="48" y="846" font-family="Georgia, serif" font-size="46" fill="#fff" opacity="0.92" letter-spacing="-1">The Camden Loft</text>
<text x="50" y="804" font-family="Georgia, serif" font-size="20" fill="#c9a24b" opacity="0.9" letter-spacing="3">KASSORA</text>
</svg>