<svg xmlns="http://www.w3.org/2000/svg" width="1200" height="900" viewBox="0 0 1200 900">
<defs>
<linearGradient id="sky" x1="0" y1="0" x2="0" y2="1">
<stop offset="0" stop-color="#9fb4c9"/><stop offset="0.55" stop-color="#5f7794"/><stop offset="1" stop-color="#171e2e"/>
</linearGradient>
<radialGradient id="sun" cx="0.5" cy="0.5" r="0.5">
<stop offset="0" stop-color="#fff" stop-opacity="0.95"/><stop offset="0.4" stop-color="#5f7794" stop-opacity="0.7"/><stop offset="1" stop-color="#5f7794" stop-opacity="0"/>
</radialGradient>
<linearGradient id="water" x1="0" y1="0" x2="0" y2="1">
<stop offset="0" stop-color="#fff" stop-opacity="0.5"/><stop offset="1" stop-color="#fff" stop-opacity="0"/>
</linearGradient>
<linearGradient id="vig" x1="0" y1="0" x2="0" y2="1">
<stop offset="0" stop-color="#000" stop-opacity="0"/><stop offset="1" stop-color="#000" stop-opacity="0.45"/>
</linearGradient>
</defs>
<rect width="1200" height="900" fill="url(#sky)"/>
<circle cx="706" cy="276" r="108" fill="url(#sun)" opacity="0.9"/><rect x="-20" y="257" width="173" height="643" fill="#33415c" opacity="0.92"/><rect x="-12" y="269" width="6" height="9" fill="#5f7794" opacity="0.67"/><rect x="17" y="269" width="6" height="9" fill="#5f7794" opacity="0.64"/><rect x="46" y="269" width="6" height="9" fill="#5f7794" opacity="0.76"/><rect x="132" y="269" width="6" height="9" fill="#5f7794" opacity="0.64"/><rect x="17" y="301" width="6" height="9" fill="#5f7794" opacity="0.76"/><rect x="74" y="301" width="6" height="9" fill="#5f7794" opacity="0.56"/><rect x="103" y="301" width="6" height="9" fill="#5f7794" opacity="0.64"/><rect x="-12" y="334" width="6" height="9" fill="#5f7794" opacity="0.76"/><rect x="17" y="334" width="6" height="9" fill="#5f7794" opacity="0.44"/><rect x="132" y="334" width="6" height="9" fill="#5f7794" opacity="0.37"/><rect x="-12" y="366" width="6" height="9" fill="#5f7794" opacity="0.44"/><rect x="17" y="366" width="6" height="9" fill="#5f7794" opacity="0.56"/><rect x="46" y="366" width="6" height="9" fill="#5f7794" opacity="0.64"/><rect x="74" y="366" width="6" height="9" fill="#5f7794" opacity="0.59"/><rect x="103" y="366" width="6" height="9" fill="#5f7794" opacity="0.37"/><rect x="-12" y="398" width="6" height="9" fill="#5f7794" opacity="0.56"/><rect x="17" y="398" width="6" height="9" fill="#5f7794" opacity="0.64"/><rect x="74" y="398" width="6" height="9" fill="#5f7794" opacity="0.37"/><rect x="103" y="398" width="6" height="9" fill="#5f7794" opacity="0.44"/><rect x="-12" y="431" width="6" height="9" fill="#5f7794" opacity="0.64"/><rect x="46" y="431" width="6" height="9" fill="#5f7794" opacity="0.37"/><rect x="-12" y="463" width="6" height="9" fill="#5f7794" opacity="0.59"/><rect x="17" y="463" width="6" height="9" fill="#5f7794" opacity="0.37"/><rect x="46" y="463" width="6" height="9" fill="#5f7794" opacity="0.44"/><rect x="132" y="463" width="6" height="9" fill="#5f7794" opacity="0.66"/><rect x="-12" y="496" width="6" height="9" fill="#5f7794" opacity="0.37"/><rect x="17" y="496" width="6" height="9" fill="#5f7794" opacity="0.44"/><rect x="46" y="496" width="6" height="9" fill="#5f7794" opacity="0.75"/><rect x="74" y="496" width="6" height="9" fill="#5f7794" opacity="0.53"/><rect x="132" y="496" width="6" height="9" fill="#5f7794" opacity="0.36"/><rect x="17" y="528" width="6" height="9" fill="#5f7794" opacity="0.75"/><rect x="74" y="528" width="6" height="9" fill="#5f7794" opacity="0.66"/><rect x="132" y="528" width="6" height="9" fill="#5f7794" opacity="0.59"/><rect x="-12" y="560" width="6" height="9" fill="#5f7794" opacity="0.75"/><rect x="147" y="441" width="124" height="459" fill="#171e2e" opacity="0.92"/><rect x="186" y="453" width="6" height="9" fill="#5f7794" opacity="0.64"/><rect x="217" y="453" width="6" height="9" fill="#5f7794" opacity="0.76"/><rect x="248" y="453" width="6" height="9" fill="#5f7794" opacity="0.44"/><rect x="155" y="488" width="6" height="9" fill="#5f7794" opacity="0.64"/><rect x="186" y="488" width="6" height="9" fill="#5f7794" opacity="0.76"/><rect x="248" y="488" width="6" height="9" fill="#5f7794" opacity="0.56"/><rect x="186" y="523" width="6" height="9" fill="#5f7794" opacity="0.44"/><rect x="217" y="523" width="6" height="9" fill="#5f7794" opacity="0.56"/><rect x="155" y="558" width="6" height="9" fill="#5f7794" opacity="0.44"/><rect x="186" y="558" width="6" height="9" fill="#5f7794" opacity="0.56"/><rect x="265" y="161" width="156" height="739" fill="#33415c" opacity="0.92"/><rect x="273" y="173" width="6" height="9" fill="#5f7794" opacity="0.67"/><rect x="336" y="173" width="6" height="9" fill="#5f7794" opacity="0.76"/><rect x="305" y="206" width="6" height="9" fill="#5f7794" opacity="0.76"/><rect x="273" y="238" width="6" height="9" fill="#5f7794" opacity="0.76"/><rect x="305" y="238" width="6" height="9" fill="#5f7794" opacity="0.44"/><rect x="367" y="238" width="6" height="9" fill="#5f7794" opacity="0.64"/><rect x="305" y="270" width="6" height="9" fill="#5f7794" opacity="0.56"/><rect x="336" y="270" width="6" height="9" fill="#5f7794" opacity="0.64"/><rect x="305" y="302" width="6" height="9" fill="#5f7794" opacity="0.64"/><rect x="336" y="302" width="6" height="9" fill="#5f7794" opacity="0.59"/><rect x="367" y="302" width="6" height="9" fill="#5f7794" opacity="0.37"/><rect x="398" y="302" width="6" height="9" fill="#5f7794" opacity="0.44"/><rect x="273" y="335" width="6" height="9" fill="#5f7794" opacity="0.64"/><rect x="273" y="367" width="6" height="9" fill="#5f7794" opacity="0.59"/><rect x="305" y="367" width="6" height="9" fill="#5f7794" opacity="0.37"/><rect x="336" y="367" width="6" height="9" fill="#5f7794" opacity="0.44"/><rect x="398" y="367" width="6" height="9" fill="#5f7794" opacity="0.53"/><rect x="305" y="399" width="6" height="9" fill="#5f7794" opacity="0.44"/><rect x="336" y="399" width="6" height="9" fill="#5f7794" opacity="0.75"/><rect x="398" y="399" width="6" height="9" fill="#5f7794" opacity="0.66"/><rect x="336" y="432" width="6" height="9" fill="#5f7794" opacity="0.53"/><rect x="367" y="432" width="6" height="9" fill="#5f7794" opacity="0.66"/><rect x="305" y="464" width="6" height="9" fill="#5f7794" opacity="0.53"/><rect x="367" y="464" width="6" height="9" fill="#5f7794" opacity="0.36"/><rect x="398" y="464" width="6" height="9" fill="#5f7794" opacity="0.59"/><rect x="273" y="496" width="6" height="9" fill="#5f7794" opacity="0.53"/><rect x="305" y="496" width="6" height="9" fill="#5f7794" opacity="0.66"/><rect x="336" y="496" width="6" height="9" fill="#5f7794" opacity="0.36"/><rect x="336" y="528" width="6" height="9" fill="#5f7794" opacity="0.59"/><rect x="398" y="528" width="6" height="9" fill="#5f7794" opacity="0.41"/><rect x="273" y="561" width="6" height="9" fill="#5f7794" opacity="0.36"/><rect x="305" y="561" width="6" height="9" fill="#5f7794" opacity="0.59"/><rect x="367" y="561" width="6" height="9" fill="#5f7794" opacity="0.41"/><rect x="415" y="177" width="189" height="723" fill="#171e2e" opacity="0.92"/><rect x="423" y="189" width="6" height="9" fill="#5f7794" opacity="0.67"/><rect x="450" y="189" width="6" height="9" fill="#5f7794" opacity="0.64"/><rect x="477" y="189" width="6" height="9" fill="#5f7794" opacity="0.76"/><rect x="559" y="189" width="6" height="9" fill="#5f7794" opacity="0.64"/><rect x="477" y="220" width="6" height="9" fill="#5f7794" opacity="0.44"/><rect x="532" y="220" width="6" height="9" fill="#5f7794" opacity="0.64"/><rect x="559" y="220" width="6" height="9" fill="#5f7794" opacity="0.59"/><rect x="586" y="220" width="6" height="9" fill="#5f7794" opacity="0.37"/><rect x="423" y="251" width="6" height="9" fill="#5f7794" opacity="0.76"/><rect x="450" y="251" width="6" height="9" fill="#5f7794" opacity="0.44"/><rect x="505" y="251" width="6" height="9" fill="#5f7794" opacity="0.64"/><rect x="559" y="251" width="6" height="9" fill="#5f7794" opacity="0.37"/><rect x="586" y="251" width="6" height="9" fill="#5f7794" opacity="0.44"/><rect x="423" y="282" width="6" height="9" fill="#5f7794" opacity="0.44"/><rect x="450" y="282" width="6" height="9" fill="#5f7794" opacity="0.56"/><rect x="586" y="282" width="6" height="9" fill="#5f7794" opacity="0.75"/><rect x="477" y="313" width="6" height="9" fill="#5f7794" opacity="0.59"/><rect x="505" y="313" width="6" height="9" fill="#5f7794" opacity="0.37"/><rect x="450" y="344" width="6" height="9" fill="#5f7794" opacity="0.59"/><rect x="477" y="344" width="6" height="9" fill="#5f7794" opacity="0.37"/><rect x="532" y="344" width="6" height="9" fill="#5f7794" opacity="0.75"/><rect x="423" y="375" width="6" height="9" fill="#5f7794" opacity="0.59"/><rect x="450" y="375" width="6" height="9" fill="#5f7794" opacity="0.37"/><rect x="477" y="375" width="6" height="9" fill="#5f7794" opacity="0.44"/><rect x="505" y="375" width="6" height="9" fill="#5f7794" opacity="0.75"/><rect x="559" y="375" width="6" height="9" fill="#5f7794" opacity="0.66"/><rect x="586" y="375" width="6" height="9" fill="#5f7794" opacity="0.36"/><rect x="423" y="406" width="6" height="9" fill="#5f7794" opacity="0.37"/><rect x="450" y="406" width="6" height="9" fill="#5f7794" opacity="0.44"/><rect x="532" y="406" width="6" height="9" fill="#5f7794" opacity="0.66"/><rect x="586" y="406" width="6" height="9" fill="#5f7794" opacity="0.59"/><rect x="450" y="437" width="6" height="9" fill="#5f7794" opacity="0.75"/><rect x="477" y="437" width="6" height="9" fill="#5f7794" opacity="0.53"/><rect x="532" y="437" width="6" height="9" fill="#5f7794" opacity="0.36"/><rect x="559" y="437" width="6" height="9" fill="#5f7794" opacity="0.59"/><rect x="586" y="437" width="6" height="9" fill="#5f7794" opacity="0.83"/><rect x="423" y="469" width="6" height="9" fill="#5f7794" opacity="0.75"/><rect x="450" y="469" width="6" height="9" fill="#5f7794" opacity="0.53"/><rect x="532" y="469" width="6" height="9" fill="#5f7794" opacity="0.59"/><rect x="423" y="500" width="6" height="9" fill="#5f7794" opacity="0.53"/><rect x="477" y="500" width="6" height="9" fill="#5f7794" opacity="0.36"/><rect x="532" y="500" width="6" height="9" fill="#5f7794" opacity="0.83"/><rect x="586" y="500" width="6" height="9" fill="#5f7794" opacity="0.43"/><rect x="505" y="531" width="6" height="9" fill="#5f7794" opacity="0.83"/><rect x="477" y="562" width="6" height="9" fill="#5f7794" opacity="0.83"/><rect x="532" y="562" width="6" height="9" fill="#5f7794" opacity="0.43"/><rect x="599" y="254" width="107" height="646" fill="#33415c" opacity="0.92"/><rect x="607" y="266" width="6" height="9" fill="#5f7794" opacity="0.67"/><rect x="660" y="266" width="6" height="9" fill="#5f7794" opacity="0.76"/><rect x="687" y="298" width="6" height="9" fill="#5f7794" opacity="0.56"/><rect x="660" y="331" width="6" height="9" fill="#5f7794" opacity="0.56"/><rect x="607" y="364" width="6" height="9" fill="#5f7794" opacity="0.44"/><rect x="660" y="364" width="6" height="9" fill="#5f7794" opacity="0.64"/><rect x="687" y="364" width="6" height="9" fill="#5f7794" opacity="0.59"/><rect x="607" y="397" width="6" height="9" fill="#5f7794" opacity="0.56"/><rect x="660" y="397" width="6" height="9" fill="#5f7794" opacity="0.59"/><rect x="687" y="397" width="6" height="9" fill="#5f7794" opacity="0.37"/><rect x="607" y="429" width="6" height="9" fill="#5f7794" opacity="0.64"/><rect x="634" y="429" width="6" height="9" fill="#5f7794" opacity="0.59"/><rect x="660" y="429" width="6" height="9" fill="#5f7794" opacity="0.37"/><rect x="634" y="462" width="6" height="9" fill="#5f7794" opacity="0.37"/><rect x="660" y="462" width="6" height="9" fill="#5f7794" opacity="0.44"/><rect x="687" y="462" width="6" height="9" fill="#5f7794" opacity="0.75"/><rect x="607" y="495" width="6" height="9" fill="#5f7794" opacity="0.37"/><rect x="634" y="495" width="6" height="9" fill="#5f7794" opacity="0.44"/><rect x="660" y="495" width="6" height="9" fill="#5f7794" opacity="0.75"/><rect x="687" y="495" width="6" height="9" fill="#5f7794" opacity="0.53"/><rect x="607" y="527" width="6" height="9" fill="#5f7794" opacity="0.44"/><rect x="634" y="527" width="6" height="9" fill="#5f7794" opacity="0.75"/><rect x="660" y="527" width="6" height="9" fill="#5f7794" opacity="0.53"/><rect x="607" y="560" width="6" height="9" fill="#5f7794" opacity="0.75"/><rect x="634" y="560" width="6" height="9" fill="#5f7794" opacity="0.53"/><rect x="700" y="333" width="117" height="567" fill="#171e2e" opacity="0.92"/><rect x="737" y="345" width="6" height="9" fill="#5f7794" opacity="0.64"/><rect x="766" y="345" width="6" height="9" fill="#5f7794" opacity="0.76"/><rect x="795" y="345" width="6" height="9" fill="#5f7794" opacity="0.44"/><rect x="708" y="376" width="6" height="9" fill="#5f7794" opacity="0.64"/><rect x="737" y="407" width="6" height="9" fill="#5f7794" opacity="0.44"/><rect x="766" y="407" width="6" height="9" fill="#5f7794" opacity="0.56"/><rect x="737" y="438" width="6" height="9" fill="#5f7794" opacity="0.56"/><rect x="737" y="469" width="6" height="9" fill="#5f7794" opacity="0.64"/><rect x="708" y="500" width="6" height="9" fill="#5f7794" opacity="0.64"/><rect x="795" y="500" width="6" height="9" fill="#5f7794" opacity="0.44"/><rect x="737" y="531" width="6" height="9" fill="#5f7794" opacity="0.37"/><rect x="795" y="531" width="6" height="9" fill="#5f7794" opacity="0.75"/><rect x="737" y="562" width="6" height="9" fill="#5f7794" opacity="0.44"/><rect x="766" y="562" width="6" height="9" fill="#5f7794" opacity="0.75"/><rect x="811" y="320" width="206" height="580" fill="#33415c" opacity="0.92"/><rect x="848" y="332" width="6" height="9" fill="#5f7794" opacity="0.64"/><rect x="907" y="332" width="6" height="9" fill="#5f7794" opacity="0.44"/><rect x="937" y="332" width="6" height="9" fill="#5f7794" opacity="0.56"/><rect x="966" y="332" width="6" height="9" fill="#5f7794" opacity="0.64"/><rect x="819" y="365" width="6" height="9" fill="#5f7794" opacity="0.64"/><rect x="907" y="365" width="6" height="9" fill="#5f7794" opacity="0.56"/><rect x="937" y="365" width="6" height="9" fill="#5f7794" opacity="0.64"/><rect x="878" y="397" width="6" height="9" fill="#5f7794" opacity="0.56"/><rect x="907" y="397" width="6" height="9" fill="#5f7794" opacity="0.64"/><rect x="966" y="397" width="6" height="9" fill="#5f7794" opacity="0.37"/><rect x="848" y="430" width="6" height="9" fill="#5f7794" opacity="0.56"/><rect x="878" y="430" width="6" height="9" fill="#5f7794" opacity="0.64"/><rect x="907" y="430" width="6" height="9" fill="#5f7794" opacity="0.59"/><rect x="966" y="430" width="6" height="9" fill="#5f7794" opacity="0.44"/><rect x="819" y="463" width="6" height="9" fill="#5f7794" opacity="0.56"/><rect x="966" y="463" width="6" height="9" fill="#5f7794" opacity="0.75"/><rect x="848" y="495" width="6" height="9" fill="#5f7794" opacity="0.59"/><rect x="937" y="495" width="6" height="9" fill="#5f7794" opacity="0.75"/><rect x="966" y="495" width="6" height="9" fill="#5f7794" opacity="0.53"/><rect x="996" y="495" width="6" height="9" fill="#5f7794" opacity="0.66"/><rect x="819" y="528" width="6" height="9" fill="#5f7794" opacity="0.59"/><rect x="907" y="528" width="6" height="9" fill="#5f7794" opacity="0.75"/><rect x="937" y="528" width="6" height="9" fill="#5f7794" opacity="0.53"/><rect x="996" y="528" width="6" height="9" fill="#5f7794" opacity="0.36"/><rect x="819" y="560" width="6" height="9" fill="#5f7794" opacity="0.37"/><rect x="848" y="560" width="6" height="9" fill="#5f7794" opacity="0.44"/><rect x="878" y="560" width="6" height="9" fill="#5f7794" opacity="0.75"/><rect x="907" y="560" width="6" height="9" fill="#5f7794" opacity="0.53"/><rect x="937" y="560" width="6" height="9" fill="#5f7794" opacity="0.66"/><rect x="1011" y="211" width="200" height="689" fill="#171e2e" opacity="0.92"/><rect x="1048" y="223" width="6" height="9" fill="#5f7794" opacity="0.64"/><rect x="1076" y="223" width="6" height="9" fill="#5f7794" opacity="0.76"/><rect x="1105" y="223" width="6" height="9" fill="#5f7794" opacity="0.44"/><rect x="1134" y="223" width="6" height="9" fill="#5f7794" opacity="0.56"/><rect x="1162" y="223" width="6" height="9" fill="#5f7794" opacity="0.64"/><rect x="1191" y="223" width="6" height="9" fill="#5f7794" opacity="0.59"/><rect x="1019" y="254" width="6" height="9" fill="#5f7794" opacity="0.64"/><rect x="1048" y="254" width="6" height="9" fill="#5f7794" opacity="0.76"/><rect x="1162" y="254" width="6" height="9" fill="#5f7794" opacity="0.59"/><rect x="1076" y="285" width="6" height="9" fill="#5f7794" opacity="0.56"/><rect x="1105" y="285" width="6" height="9" fill="#5f7794" opacity="0.64"/><rect x="1134" y="285" width="6" height="9" fill="#5f7794" opacity="0.59"/><rect x="1162" y="285" width="6" height="9" fill="#5f7794" opacity="0.37"/><rect x="1048" y="316" width="6" height="9" fill="#5f7794" opacity="0.56"/><rect x="1105" y="316" width="6" height="9" fill="#5f7794" opacity="0.59"/><rect x="1134" y="316" width="6" height="9" fill="#5f7794" opacity="0.37"/><rect x="1162" y="316" width="6" height="9" fill="#5f7794" opacity="0.44"/><rect x="1019" y="377" width="6" height="9" fill="#5f7794" opacity="0.64"/><rect x="1048" y="377" width="6" height="9" fill="#5f7794" opacity="0.59"/><rect x="1076" y="377" width="6" height="9" fill="#5f7794" opacity="0.37"/><rect x="1162" y="377" width="6" height="9" fill="#5f7794" opacity="0.53"/><rect x="1019" y="408" width="6" height="9" fill="#5f7794" opacity="0.59"/><rect x="1105" y="408" width="6" height="9" fill="#5f7794" opacity="0.75"/><rect x="1134" y="408" width="6" height="9" fill="#5f7794" opacity="0.53"/><rect x="1162" y="408" width="6" height="9" fill="#5f7794" opacity="0.66"/><rect x="1191" y="408" width="6" height="9" fill="#5f7794" opacity="0.36"/><rect x="1019" y="439" width="6" height="9" fill="#5f7794" opacity="0.37"/><rect x="1076" y="439" width="6" height="9" fill="#5f7794" opacity="0.75"/><rect x="1134" y="439" width="6" height="9" fill="#5f7794" opacity="0.66"/><rect x="1105" y="470" width="6" height="9" fill="#5f7794" opacity="0.66"/><rect x="1134" y="470" width="6" height="9" fill="#5f7794" opacity="0.36"/><rect x="1191" y="470" width="6" height="9" fill="#5f7794" opacity="0.83"/><rect x="1019" y="500" width="6" height="9" fill="#5f7794" opacity="0.75"/><rect x="1134" y="500" width="6" height="9" fill="#5f7794" opacity="0.59"/><rect x="1191" y="500" width="6" height="9" fill="#5f7794" opacity="0.41"/><rect x="1048" y="531" width="6" height="9" fill="#5f7794" opacity="0.66"/><rect x="1076" y="531" width="6" height="9" fill="#5f7794" opacity="0.36"/><rect x="1105" y="531" width="6" height="9" fill="#5f7794" opacity="0.59"/><rect x="1134" y="531" width="6" height="9" fill="#5f7794" opacity="0.83"/><rect x="1191" y="531" width="6" height="9" fill="#5f7794" opacity="0.43"/><rect x="1019" y="562" width="6" height="9" fill="#5f7794" opacity="0.66"/><rect x="1048" y="562" width="6" height="9" fill="#5f7794" opacity="0.36"/><rect x="1076" y="562" width="6" height="9" fill="#5f7794" opacity="0.59"/><rect x="1134" y="562" width="6" height="9" fill="#5f7794" opacity="0.41"/><rect x="1162" y="562" width="6" height="9" fill="#5f7794" opacity="0.43"/><rect x="1191" y="562" width="6" height="9" fill="#5f7794" opacity="0.42"/><rect x="0" y="580.8560836805627" width="1200" height="319.14391631943727" fill="url(#water)" opacity="0.25"/>
<rect width="1200" height="900" fill="url(#vig)"/>
<text x="48" y="846" font-family="Georgia, serif" font-size="46" fill="#fff" opacity="0.92" letter-spacing="-1">The Camden Loft</text>
<text x="50" y="804" font-family="Georgia, serif" font-size="20" fill="#c9a24b" opacity="0.9" letter-spacing="3">KASSORA</text>
</svg>