<svg xmlns="http://www.w3.org/2000/svg" width="1200" height="900" viewBox="0 0 1200 900">
<defs>
<linearGradient id="sky" x1="0" y1="0" x2="0" y2="1">
<stop offset="0" stop-color="#9fb4c9"/><stop offset="0.55" stop-color="#5f7794"/><stop offset="1" stop-color="#171e2e"/>
</linearGradient>
<radialGradient id="sun" cx="0.5" cy="0.5" r="0.5">
<stop offset="0" stop-color="#fff" stop-opacity="0.95"/><stop offset="0.4" stop-color="#5f7794" stop-opacity="0.7"/><stop offset="1" stop-color="#5f7794" stop-opacity="0"/>
</radialGradient>
<linearGradient id="water" x1="0" y1="0" x2="0" y2="1">
<stop offset="0" stop-color="#fff" stop-opacity="0.5"/><stop offset="1" stop-color="#fff" stop-opacity="0"/>
</linearGradient>
<linearGradient id="vig" x1="0" y1="0" x2="0" y2="1">
<stop offset="0" stop-color="#000" stop-opacity="0"/><stop offset="1" stop-color="#000" stop-opacity="0.45"/>
</linearGradient>
</defs>
<rect width="1200" height="900" fill="url(#sky)"/>
<circle cx="272" cy="222" r="108" fill="url(#sun)" opacity="0.9"/><rect x="-20" y="440" width="97" height="460" fill="#33415c" opacity="0.92"/><rect x="53" y="452" width="6" height="9" fill="#5f7794" opacity="0.75"/><rect x="20" y="487" width="6" height="9" fill="#5f7794" opacity="0.75"/><rect x="-12" y="522" width="6" height="9" fill="#5f7794" opacity="0.75"/><rect x="20" y="522" width="6" height="9" fill="#5f7794" opacity="0.53"/><rect x="20" y="557" width="6" height="9" fill="#5f7794" opacity="0.66"/><rect x="53" y="557" width="6" height="9" fill="#5f7794" opacity="0.36"/><rect x="71" y="160" width="126" height="740" fill="#171e2e" opacity="0.92"/><rect x="79" y="172" width="6" height="9" fill="#5f7794" opacity="0.37"/><rect x="143" y="172" width="6" height="9" fill="#5f7794" opacity="0.75"/><rect x="174" y="172" width="6" height="9" fill="#5f7794" opacity="0.53"/><rect x="79" y="205" width="6" height="9" fill="#5f7794" opacity="0.44"/><rect x="111" y="205" width="6" height="9" fill="#5f7794" opacity="0.75"/><rect x="143" y="205" width="6" height="9" fill="#5f7794" opacity="0.53"/><rect x="174" y="237" width="6" height="9" fill="#5f7794" opacity="0.36"/><rect x="79" y="269" width="6" height="9" fill="#5f7794" opacity="0.53"/><rect x="111" y="269" width="6" height="9" fill="#5f7794" opacity="0.66"/><rect x="143" y="269" width="6" height="9" fill="#5f7794" opacity="0.36"/><rect x="174" y="269" width="6" height="9" fill="#5f7794" opacity="0.59"/><rect x="143" y="301" width="6" height="9" fill="#5f7794" opacity="0.59"/><rect x="111" y="334" width="6" height="9" fill="#5f7794" opacity="0.59"/><rect x="79" y="366" width="6" height="9" fill="#5f7794" opacity="0.59"/><rect x="143" y="366" width="6" height="9" fill="#5f7794" opacity="0.41"/><rect x="79" y="398" width="6" height="9" fill="#5f7794" opacity="0.83"/><rect x="111" y="398" width="6" height="9" fill="#5f7794" opacity="0.41"/><rect x="143" y="398" width="6" height="9" fill="#5f7794" opacity="0.43"/><rect x="174" y="398" width="6" height="9" fill="#5f7794" opacity="0.42"/><rect x="111" y="431" width="6" height="9" fill="#5f7794" opacity="0.43"/><rect x="143" y="431" width="6" height="9" fill="#5f7794" opacity="0.42"/><rect x="79" y="463" width="6" height="9" fill="#5f7794" opacity="0.43"/><rect x="174" y="463" width="6" height="9" fill="#5f7794" opacity="0.42"/><rect x="111" y="495" width="6" height="9" fill="#5f7794" opacity="0.83"/><rect x="174" y="527" width="6" height="9" fill="#5f7794" opacity="0.80"/><rect x="79" y="560" width="6" height="9" fill="#5f7794" opacity="0.42"/><rect x="111" y="560" width="6" height="9" fill="#5f7794" opacity="0.65"/><rect x="143" y="560" width="6" height="9" fill="#5f7794" opacity="0.80"/><rect x="192" y="176" width="138" height="724" fill="#33415c" opacity="0.92"/><rect x="227" y="188" width="6" height="9" fill="#5f7794" opacity="0.44"/><rect x="310" y="188" width="6" height="9" fill="#5f7794" opacity="0.66"/><rect x="283" y="219" width="6" height="9" fill="#5f7794" opacity="0.66"/><rect x="310" y="219" width="6" height="9" fill="#5f7794" opacity="0.36"/><rect x="200" y="250" width="6" height="9" fill="#5f7794" opacity="0.75"/><rect x="227" y="250" width="6" height="9" fill="#5f7794" opacity="0.53"/><rect x="255" y="250" width="6" height="9" fill="#5f7794" opacity="0.66"/><rect x="310" y="250" width="6" height="9" fill="#5f7794" opacity="0.59"/><rect x="310" y="281" width="6" height="9" fill="#5f7794" opacity="0.83"/><rect x="200" y="312" width="6" height="9" fill="#5f7794" opacity="0.66"/><rect x="255" y="312" width="6" height="9" fill="#5f7794" opacity="0.59"/><rect x="283" y="312" width="6" height="9" fill="#5f7794" opacity="0.83"/><rect x="200" y="343" width="6" height="9" fill="#5f7794" opacity="0.36"/><rect x="227" y="343" width="6" height="9" fill="#5f7794" opacity="0.59"/><rect x="283" y="343" width="6" height="9" fill="#5f7794" opacity="0.41"/><rect x="310" y="343" width="6" height="9" fill="#5f7794" opacity="0.43"/><rect x="227" y="374" width="6" height="9" fill="#5f7794" opacity="0.83"/><rect x="255" y="374" width="6" height="9" fill="#5f7794" opacity="0.41"/><rect x="310" y="374" width="6" height="9" fill="#5f7794" opacity="0.42"/><rect x="255" y="405" width="6" height="9" fill="#5f7794" opacity="0.43"/><rect x="255" y="437" width="6" height="9" fill="#5f7794" opacity="0.42"/><rect x="310" y="437" width="6" height="9" fill="#5f7794" opacity="0.42"/><rect x="200" y="468" width="6" height="9" fill="#5f7794" opacity="0.43"/><rect x="227" y="468" width="6" height="9" fill="#5f7794" opacity="0.42"/><rect x="283" y="468" width="6" height="9" fill="#5f7794" opacity="0.42"/><rect x="310" y="468" width="6" height="9" fill="#5f7794" opacity="0.65"/><rect x="255" y="499" width="6" height="9" fill="#5f7794" opacity="0.42"/><rect x="255" y="530" width="6" height="9" fill="#5f7794" opacity="0.65"/><rect x="283" y="530" width="6" height="9" fill="#5f7794" opacity="0.80"/><rect x="310" y="530" width="6" height="9" fill="#5f7794" opacity="0.50"/><rect x="200" y="561" width="6" height="9" fill="#5f7794" opacity="0.42"/><rect x="227" y="561" width="6" height="9" fill="#5f7794" opacity="0.65"/><rect x="283" y="561" width="6" height="9" fill="#5f7794" opacity="0.50"/><rect x="310" y="561" width="6" height="9" fill="#5f7794" opacity="0.54"/><rect x="324" y="253" width="108" height="647" fill="#171e2e" opacity="0.92"/><rect x="385" y="265" width="6" height="9" fill="#5f7794" opacity="0.75"/><rect x="385" y="297" width="6" height="9" fill="#5f7794" opacity="0.53"/><rect x="412" y="297" width="6" height="9" fill="#5f7794" opacity="0.66"/><rect x="332" y="330" width="6" height="9" fill="#5f7794" opacity="0.75"/><rect x="359" y="330" width="6" height="9" fill="#5f7794" opacity="0.53"/><rect x="412" y="330" width="6" height="9" fill="#5f7794" opacity="0.36"/><rect x="359" y="363" width="6" height="9" fill="#5f7794" opacity="0.66"/><rect x="332" y="428" width="6" height="9" fill="#5f7794" opacity="0.36"/><rect x="359" y="428" width="6" height="9" fill="#5f7794" opacity="0.59"/><rect x="385" y="428" width="6" height="9" fill="#5f7794" opacity="0.83"/><rect x="412" y="428" width="6" height="9" fill="#5f7794" opacity="0.41"/><rect x="359" y="461" width="6" height="9" fill="#5f7794" opacity="0.83"/><rect x="385" y="461" width="6" height="9" fill="#5f7794" opacity="0.41"/><rect x="412" y="461" width="6" height="9" fill="#5f7794" opacity="0.43"/><rect x="332" y="494" width="6" height="9" fill="#5f7794" opacity="0.83"/><rect x="359" y="494" width="6" height="9" fill="#5f7794" opacity="0.41"/><rect x="385" y="526" width="6" height="9" fill="#5f7794" opacity="0.42"/><rect x="412" y="526" width="6" height="9" fill="#5f7794" opacity="0.83"/><rect x="332" y="559" width="6" height="9" fill="#5f7794" opacity="0.43"/><rect x="359" y="559" width="6" height="9" fill="#5f7794" opacity="0.42"/><rect x="385" y="559" width="6" height="9" fill="#5f7794" opacity="0.83"/><rect x="412" y="559" width="6" height="9" fill="#5f7794" opacity="0.42"/><rect x="425" y="333" width="105" height="567" fill="#33415c" opacity="0.92"/><rect x="460" y="345" width="6" height="9" fill="#5f7794" opacity="0.44"/><rect x="486" y="345" width="6" height="9" fill="#5f7794" opacity="0.75"/><rect x="433" y="375" width="6" height="9" fill="#5f7794" opacity="0.44"/><rect x="460" y="375" width="6" height="9" fill="#5f7794" opacity="0.75"/><rect x="486" y="375" width="6" height="9" fill="#5f7794" opacity="0.53"/><rect x="433" y="406" width="6" height="9" fill="#5f7794" opacity="0.75"/><rect x="512" y="406" width="6" height="9" fill="#5f7794" opacity="0.36"/><rect x="433" y="437" width="6" height="9" fill="#5f7794" opacity="0.53"/><rect x="460" y="437" width="6" height="9" fill="#5f7794" opacity="0.66"/><rect x="486" y="437" width="6" height="9" fill="#5f7794" opacity="0.36"/><rect x="512" y="437" width="6" height="9" fill="#5f7794" opacity="0.59"/><rect x="512" y="468" width="6" height="9" fill="#5f7794" opacity="0.83"/><rect x="433" y="499" width="6" height="9" fill="#5f7794" opacity="0.36"/><rect x="486" y="530" width="6" height="9" fill="#5f7794" opacity="0.41"/><rect x="512" y="530" width="6" height="9" fill="#5f7794" opacity="0.43"/><rect x="460" y="561" width="6" height="9" fill="#5f7794" opacity="0.41"/><rect x="486" y="561" width="6" height="9" fill="#5f7794" opacity="0.43"/><rect x="512" y="561" width="6" height="9" fill="#5f7794" opacity="0.42"/><rect x="525" y="319" width="121" height="581" fill="#171e2e" opacity="0.92"/><rect x="624" y="331" width="6" height="9" fill="#5f7794" opacity="0.53"/><rect x="533" y="364" width="6" height="9" fill="#5f7794" opacity="0.44"/><rect x="563" y="364" width="6" height="9" fill="#5f7794" opacity="0.75"/><rect x="533" y="396" width="6" height="9" fill="#5f7794" opacity="0.75"/><rect x="563" y="396" width="6" height="9" fill="#5f7794" opacity="0.53"/><rect x="533" y="429" width="6" height="9" fill="#5f7794" opacity="0.53"/><rect x="563" y="429" width="6" height="9" fill="#5f7794" opacity="0.66"/><rect x="593" y="429" width="6" height="9" fill="#5f7794" opacity="0.36"/><rect x="563" y="462" width="6" height="9" fill="#5f7794" opacity="0.36"/><rect x="624" y="462" width="6" height="9" fill="#5f7794" opacity="0.83"/><rect x="563" y="494" width="6" height="9" fill="#5f7794" opacity="0.59"/><rect x="593" y="494" width="6" height="9" fill="#5f7794" opacity="0.83"/><rect x="533" y="527" width="6" height="9" fill="#5f7794" opacity="0.59"/><rect x="563" y="527" width="6" height="9" fill="#5f7794" opacity="0.83"/><rect x="593" y="527" width="6" height="9" fill="#5f7794" opacity="0.41"/><rect x="593" y="559" width="6" height="9" fill="#5f7794" opacity="0.43"/><rect x="640" y="210" width="181" height="690" fill="#33415c" opacity="0.92"/><rect x="648" y="222" width="6" height="9" fill="#5f7794" opacity="0.37"/><rect x="678" y="222" width="6" height="9" fill="#5f7794" opacity="0.44"/><rect x="709" y="222" width="6" height="9" fill="#5f7794" opacity="0.75"/><rect x="739" y="222" width="6" height="9" fill="#5f7794" opacity="0.53"/><rect x="648" y="253" width="6" height="9" fill="#5f7794" opacity="0.44"/><rect x="799" y="253" width="6" height="9" fill="#5f7794" opacity="0.59"/><rect x="648" y="284" width="6" height="9" fill="#5f7794" opacity="0.75"/><rect x="678" y="284" width="6" height="9" fill="#5f7794" opacity="0.53"/><rect x="709" y="284" width="6" height="9" fill="#5f7794" opacity="0.66"/><rect x="769" y="284" width="6" height="9" fill="#5f7794" opacity="0.59"/><rect x="799" y="284" width="6" height="9" fill="#5f7794" opacity="0.83"/><rect x="648" y="315" width="6" height="9" fill="#5f7794" opacity="0.53"/><rect x="739" y="315" width="6" height="9" fill="#5f7794" opacity="0.59"/><rect x="648" y="345" width="6" height="9" fill="#5f7794" opacity="0.66"/><rect x="678" y="345" width="6" height="9" fill="#5f7794" opacity="0.36"/><rect x="709" y="345" width="6" height="9" fill="#5f7794" opacity="0.59"/><rect x="769" y="345" width="6" height="9" fill="#5f7794" opacity="0.41"/><rect x="678" y="376" width="6" height="9" fill="#5f7794" opacity="0.59"/><rect x="709" y="376" width="6" height="9" fill="#5f7794" opacity="0.83"/><rect x="739" y="376" width="6" height="9" fill="#5f7794" opacity="0.41"/><rect x="648" y="407" width="6" height="9" fill="#5f7794" opacity="0.59"/><rect x="709" y="407" width="6" height="9" fill="#5f7794" opacity="0.41"/><rect x="739" y="407" width="6" height="9" fill="#5f7794" opacity="0.43"/><rect x="769" y="407" width="6" height="9" fill="#5f7794" opacity="0.42"/><rect x="799" y="407" width="6" height="9" fill="#5f7794" opacity="0.83"/><rect x="648" y="438" width="6" height="9" fill="#5f7794" opacity="0.83"/><rect x="678" y="438" width="6" height="9" fill="#5f7794" opacity="0.41"/><rect x="709" y="438" width="6" height="9" fill="#5f7794" opacity="0.43"/><rect x="739" y="438" width="6" height="9" fill="#5f7794" opacity="0.42"/><rect x="769" y="438" width="6" height="9" fill="#5f7794" opacity="0.83"/><rect x="648" y="469" width="6" height="9" fill="#5f7794" opacity="0.41"/><rect x="678" y="469" width="6" height="9" fill="#5f7794" opacity="0.43"/><rect x="709" y="469" width="6" height="9" fill="#5f7794" opacity="0.42"/><rect x="739" y="469" width="6" height="9" fill="#5f7794" opacity="0.83"/><rect x="648" y="499" width="6" height="9" fill="#5f7794" opacity="0.43"/><rect x="769" y="499" width="6" height="9" fill="#5f7794" opacity="0.65"/><rect x="799" y="499" width="6" height="9" fill="#5f7794" opacity="0.80"/><rect x="739" y="530" width="6" height="9" fill="#5f7794" opacity="0.65"/><rect x="769" y="530" width="6" height="9" fill="#5f7794" opacity="0.80"/><rect x="678" y="561" width="6" height="9" fill="#5f7794" opacity="0.42"/><rect x="799" y="561" width="6" height="9" fill="#5f7794" opacity="0.54"/><rect x="815" y="172" width="155" height="728" fill="#171e2e" opacity="0.92"/><rect x="916" y="184" width="6" height="9" fill="#5f7794" opacity="0.53"/><rect x="947" y="184" width="6" height="9" fill="#5f7794" opacity="0.66"/><rect x="854" y="215" width="6" height="9" fill="#5f7794" opacity="0.75"/><rect x="823" y="247" width="6" height="9" fill="#5f7794" opacity="0.75"/><rect x="947" y="247" width="6" height="9" fill="#5f7794" opacity="0.59"/><rect x="854" y="278" width="6" height="9" fill="#5f7794" opacity="0.66"/><rect x="885" y="278" width="6" height="9" fill="#5f7794" opacity="0.36"/><rect x="823" y="309" width="6" height="9" fill="#5f7794" opacity="0.66"/><rect x="854" y="309" width="6" height="9" fill="#5f7794" opacity="0.36"/><rect x="916" y="309" width="6" height="9" fill="#5f7794" opacity="0.83"/><rect x="947" y="309" width="6" height="9" fill="#5f7794" opacity="0.41"/><rect x="854" y="341" width="6" height="9" fill="#5f7794" opacity="0.59"/><rect x="916" y="341" width="6" height="9" fill="#5f7794" opacity="0.41"/><rect x="823" y="372" width="6" height="9" fill="#5f7794" opacity="0.59"/><rect x="854" y="372" width="6" height="9" fill="#5f7794" opacity="0.83"/><rect x="885" y="372" width="6" height="9" fill="#5f7794" opacity="0.41"/><rect x="916" y="372" width="6" height="9" fill="#5f7794" opacity="0.43"/><rect x="823" y="435" width="6" height="9" fill="#5f7794" opacity="0.41"/><rect x="885" y="435" width="6" height="9" fill="#5f7794" opacity="0.42"/><rect x="916" y="435" width="6" height="9" fill="#5f7794" opacity="0.83"/><rect x="885" y="466" width="6" height="9" fill="#5f7794" opacity="0.83"/><rect x="947" y="466" width="6" height="9" fill="#5f7794" opacity="0.65"/><rect x="823" y="498" width="6" height="9" fill="#5f7794" opacity="0.42"/><rect x="854" y="498" width="6" height="9" fill="#5f7794" opacity="0.83"/><rect x="885" y="498" width="6" height="9" fill="#5f7794" opacity="0.42"/><rect x="916" y="498" width="6" height="9" fill="#5f7794" opacity="0.65"/><rect x="947" y="498" width="6" height="9" fill="#5f7794" opacity="0.80"/><rect x="823" y="529" width="6" height="9" fill="#5f7794" opacity="0.83"/><rect x="854" y="529" width="6" height="9" fill="#5f7794" opacity="0.42"/><rect x="885" y="529" width="6" height="9" fill="#5f7794" opacity="0.65"/><rect x="916" y="529" width="6" height="9" fill="#5f7794" opacity="0.80"/><rect x="854" y="560" width="6" height="9" fill="#5f7794" opacity="0.65"/><rect x="964" y="372" width="156" height="528" fill="#33415c" opacity="0.92"/><rect x="972" y="384" width="6" height="9" fill="#5f7794" opacity="0.37"/><rect x="1003" y="384" width="6" height="9" fill="#5f7794" opacity="0.44"/><rect x="1034" y="384" width="6" height="9" fill="#5f7794" opacity="0.75"/><rect x="1065" y="384" width="6" height="9" fill="#5f7794" opacity="0.53"/><rect x="1096" y="384" width="6" height="9" fill="#5f7794" opacity="0.66"/><rect x="972" y="419" width="6" height="9" fill="#5f7794" opacity="0.44"/><rect x="1003" y="419" width="6" height="9" fill="#5f7794" opacity="0.75"/><rect x="1034" y="419" width="6" height="9" fill="#5f7794" opacity="0.53"/><rect x="1065" y="419" width="6" height="9" fill="#5f7794" opacity="0.66"/><rect x="1003" y="453" width="6" height="9" fill="#5f7794" opacity="0.53"/><rect x="972" y="488" width="6" height="9" fill="#5f7794" opacity="0.53"/><rect x="1003" y="488" width="6" height="9" fill="#5f7794" opacity="0.66"/><rect x="1003" y="523" width="6" height="9" fill="#5f7794" opacity="0.36"/><rect x="1034" y="523" width="6" height="9" fill="#5f7794" opacity="0.59"/><rect x="1065" y="523" width="6" height="9" fill="#5f7794" opacity="0.83"/><rect x="1096" y="523" width="6" height="9" fill="#5f7794" opacity="0.41"/><rect x="972" y="557" width="6" height="9" fill="#5f7794" opacity="0.36"/><rect x="1034" y="557" width="6" height="9" fill="#5f7794" opacity="0.83"/><rect x="1065" y="557" width="6" height="9" fill="#5f7794" opacity="0.41"/><rect x="1096" y="557" width="6" height="9" fill="#5f7794" opacity="0.43"/><rect x="0" y="579.879850543577" width="1200" height="320.12014945642295" fill="url(#water)" opacity="0.25"/>
<rect width="1200" height="900" fill="url(#vig)"/>
<text x="48" y="846" font-family="Georgia, serif" font-size="46" fill="#fff" opacity="0.92" letter-spacing="-1">The Camden Loft</text>
<text x="50" y="804" font-family="Georgia, serif" font-size="20" fill="#c9a24b" opacity="0.9" letter-spacing="3">KASSORA</text>
</svg>