<svg xmlns="http://www.w3.org/2000/svg" width="1200" height="900" viewBox="0 0 1200 900">
<defs>
<linearGradient id="sky" x1="0" y1="0" x2="0" y2="1">
<stop offset="0" stop-color="#9fb4c9"/><stop offset="0.55" stop-color="#5f7794"/><stop offset="1" stop-color="#171e2e"/>
</linearGradient>
<radialGradient id="sun" cx="0.5" cy="0.5" r="0.5">
<stop offset="0" stop-color="#fff" stop-opacity="0.95"/><stop offset="0.4" stop-color="#5f7794" stop-opacity="0.7"/><stop offset="1" stop-color="#5f7794" stop-opacity="0"/>
</radialGradient>
<linearGradient id="water" x1="0" y1="0" x2="0" y2="1">
<stop offset="0" stop-color="#fff" stop-opacity="0.5"/><stop offset="1" stop-color="#fff" stop-opacity="0"/>
</linearGradient>
<linearGradient id="vig" x1="0" y1="0" x2="0" y2="1">
<stop offset="0" stop-color="#000" stop-opacity="0"/><stop offset="1" stop-color="#000" stop-opacity="0.45"/>
</linearGradient>
</defs>
<rect width="1200" height="900" fill="url(#sky)"/>
<circle cx="334" cy="278" r="108" fill="url(#sun)" opacity="0.9"/><rect x="-20" y="422" width="119" height="478" fill="#33415c" opacity="0.92"/><rect x="18" y="434" width="6" height="9" fill="#5f7794" opacity="0.65"/><rect x="47" y="434" width="6" height="9" fill="#5f7794" opacity="0.80"/><rect x="18" y="467" width="6" height="9" fill="#5f7794" opacity="0.80"/><rect x="47" y="467" width="6" height="9" fill="#5f7794" opacity="0.50"/><rect x="77" y="467" width="6" height="9" fill="#5f7794" opacity="0.54"/><rect x="-12" y="500" width="6" height="9" fill="#5f7794" opacity="0.80"/><rect x="18" y="500" width="6" height="9" fill="#5f7794" opacity="0.50"/><rect x="47" y="500" width="6" height="9" fill="#5f7794" opacity="0.54"/><rect x="-12" y="533" width="6" height="9" fill="#5f7794" opacity="0.50"/><rect x="18" y="533" width="6" height="9" fill="#5f7794" opacity="0.54"/><rect x="77" y="533" width="6" height="9" fill="#5f7794" opacity="0.82"/><rect x="18" y="566" width="6" height="9" fill="#5f7794" opacity="0.48"/><rect x="47" y="566" width="6" height="9" fill="#5f7794" opacity="0.82"/><rect x="77" y="566" width="6" height="9" fill="#5f7794" opacity="0.83"/><rect x="93" y="166" width="137" height="734" fill="#171e2e" opacity="0.92"/><rect x="101" y="178" width="6" height="9" fill="#5f7794" opacity="0.42"/><rect x="155" y="178" width="6" height="9" fill="#5f7794" opacity="0.80"/><rect x="183" y="178" width="6" height="9" fill="#5f7794" opacity="0.50"/><rect x="128" y="208" width="6" height="9" fill="#5f7794" opacity="0.80"/><rect x="155" y="208" width="6" height="9" fill="#5f7794" opacity="0.50"/><rect x="101" y="238" width="6" height="9" fill="#5f7794" opacity="0.80"/><rect x="128" y="238" width="6" height="9" fill="#5f7794" opacity="0.50"/><rect x="155" y="238" width="6" height="9" fill="#5f7794" opacity="0.54"/><rect x="210" y="238" width="6" height="9" fill="#5f7794" opacity="0.82"/><rect x="101" y="268" width="6" height="9" fill="#5f7794" opacity="0.50"/><rect x="155" y="268" width="6" height="9" fill="#5f7794" opacity="0.48"/><rect x="155" y="298" width="6" height="9" fill="#5f7794" opacity="0.82"/><rect x="183" y="298" width="6" height="9" fill="#5f7794" opacity="0.83"/><rect x="210" y="298" width="6" height="9" fill="#5f7794" opacity="0.77"/><rect x="101" y="328" width="6" height="9" fill="#5f7794" opacity="0.48"/><rect x="101" y="358" width="6" height="9" fill="#5f7794" opacity="0.82"/><rect x="128" y="358" width="6" height="9" fill="#5f7794" opacity="0.83"/><rect x="155" y="358" width="6" height="9" fill="#5f7794" opacity="0.77"/><rect x="183" y="358" width="6" height="9" fill="#5f7794" opacity="0.68"/><rect x="210" y="358" width="6" height="9" fill="#5f7794" opacity="0.47"/><rect x="101" y="389" width="6" height="9" fill="#5f7794" opacity="0.83"/><rect x="155" y="389" width="6" height="9" fill="#5f7794" opacity="0.68"/><rect x="183" y="389" width="6" height="9" fill="#5f7794" opacity="0.47"/><rect x="128" y="419" width="6" height="9" fill="#5f7794" opacity="0.68"/><rect x="183" y="419" width="6" height="9" fill="#5f7794" opacity="0.69"/><rect x="155" y="449" width="6" height="9" fill="#5f7794" opacity="0.69"/><rect x="128" y="479" width="6" height="9" fill="#5f7794" opacity="0.69"/><rect x="155" y="479" width="6" height="9" fill="#5f7794" opacity="0.68"/><rect x="210" y="479" width="6" height="9" fill="#5f7794" opacity="0.59"/><rect x="101" y="509" width="6" height="9" fill="#5f7794" opacity="0.69"/><rect x="155" y="509" width="6" height="9" fill="#5f7794" opacity="0.78"/><rect x="183" y="509" width="6" height="9" fill="#5f7794" opacity="0.59"/><rect x="155" y="539" width="6" height="9" fill="#5f7794" opacity="0.59"/><rect x="183" y="539" width="6" height="9" fill="#5f7794" opacity="0.75"/><rect x="210" y="539" width="6" height="9" fill="#5f7794" opacity="0.55"/><rect x="101" y="569" width="6" height="9" fill="#5f7794" opacity="0.78"/><rect x="128" y="569" width="6" height="9" fill="#5f7794" opacity="0.59"/><rect x="223" y="315" width="204" height="585" fill="#33415c" opacity="0.92"/><rect x="260" y="327" width="6" height="9" fill="#5f7794" opacity="0.65"/><rect x="289" y="327" width="6" height="9" fill="#5f7794" opacity="0.80"/><rect x="348" y="327" width="6" height="9" fill="#5f7794" opacity="0.54"/><rect x="231" y="358" width="6" height="9" fill="#5f7794" opacity="0.65"/><rect x="289" y="358" width="6" height="9" fill="#5f7794" opacity="0.50"/><rect x="319" y="358" width="6" height="9" fill="#5f7794" opacity="0.54"/><rect x="289" y="388" width="6" height="9" fill="#5f7794" opacity="0.54"/><rect x="319" y="388" width="6" height="9" fill="#5f7794" opacity="0.48"/><rect x="348" y="388" width="6" height="9" fill="#5f7794" opacity="0.82"/><rect x="377" y="388" width="6" height="9" fill="#5f7794" opacity="0.83"/><rect x="406" y="388" width="6" height="9" fill="#5f7794" opacity="0.77"/><rect x="231" y="418" width="6" height="9" fill="#5f7794" opacity="0.50"/><rect x="260" y="418" width="6" height="9" fill="#5f7794" opacity="0.54"/><rect x="260" y="448" width="6" height="9" fill="#5f7794" opacity="0.48"/><rect x="289" y="448" width="6" height="9" fill="#5f7794" opacity="0.82"/><rect x="319" y="448" width="6" height="9" fill="#5f7794" opacity="0.83"/><rect x="377" y="448" width="6" height="9" fill="#5f7794" opacity="0.68"/><rect x="231" y="478" width="6" height="9" fill="#5f7794" opacity="0.48"/><rect x="289" y="478" width="6" height="9" fill="#5f7794" opacity="0.83"/><rect x="319" y="478" width="6" height="9" fill="#5f7794" opacity="0.77"/><rect x="377" y="478" width="6" height="9" fill="#5f7794" opacity="0.47"/><rect x="231" y="509" width="6" height="9" fill="#5f7794" opacity="0.82"/><rect x="319" y="509" width="6" height="9" fill="#5f7794" opacity="0.68"/><rect x="348" y="509" width="6" height="9" fill="#5f7794" opacity="0.47"/><rect x="231" y="539" width="6" height="9" fill="#5f7794" opacity="0.83"/><rect x="289" y="539" width="6" height="9" fill="#5f7794" opacity="0.68"/><rect x="348" y="539" width="6" height="9" fill="#5f7794" opacity="0.69"/><rect x="377" y="539" width="6" height="9" fill="#5f7794" opacity="0.68"/><rect x="406" y="539" width="6" height="9" fill="#5f7794" opacity="0.78"/><rect x="260" y="569" width="6" height="9" fill="#5f7794" opacity="0.68"/><rect x="289" y="569" width="6" height="9" fill="#5f7794" opacity="0.47"/><rect x="319" y="569" width="6" height="9" fill="#5f7794" opacity="0.69"/><rect x="406" y="569" width="6" height="9" fill="#5f7794" opacity="0.59"/><rect x="421" y="323" width="174" height="577" fill="#171e2e" opacity="0.92"/><rect x="429" y="335" width="6" height="9" fill="#5f7794" opacity="0.42"/><rect x="458" y="335" width="6" height="9" fill="#5f7794" opacity="0.65"/><rect x="487" y="335" width="6" height="9" fill="#5f7794" opacity="0.80"/><rect x="545" y="335" width="6" height="9" fill="#5f7794" opacity="0.54"/><rect x="458" y="368" width="6" height="9" fill="#5f7794" opacity="0.80"/><rect x="487" y="368" width="6" height="9" fill="#5f7794" opacity="0.50"/><rect x="516" y="401" width="6" height="9" fill="#5f7794" opacity="0.48"/><rect x="545" y="401" width="6" height="9" fill="#5f7794" opacity="0.82"/><rect x="487" y="434" width="6" height="9" fill="#5f7794" opacity="0.48"/><rect x="516" y="434" width="6" height="9" fill="#5f7794" opacity="0.82"/><rect x="574" y="434" width="6" height="9" fill="#5f7794" opacity="0.77"/><rect x="429" y="467" width="6" height="9" fill="#5f7794" opacity="0.54"/><rect x="458" y="467" width="6" height="9" fill="#5f7794" opacity="0.48"/><rect x="487" y="467" width="6" height="9" fill="#5f7794" opacity="0.82"/><rect x="516" y="467" width="6" height="9" fill="#5f7794" opacity="0.83"/><rect x="545" y="467" width="6" height="9" fill="#5f7794" opacity="0.77"/><rect x="429" y="500" width="6" height="9" fill="#5f7794" opacity="0.48"/><rect x="458" y="500" width="6" height="9" fill="#5f7794" opacity="0.82"/><rect x="487" y="500" width="6" height="9" fill="#5f7794" opacity="0.83"/><rect x="574" y="500" width="6" height="9" fill="#5f7794" opacity="0.47"/><rect x="487" y="533" width="6" height="9" fill="#5f7794" opacity="0.77"/><rect x="516" y="533" width="6" height="9" fill="#5f7794" opacity="0.68"/><rect x="574" y="533" width="6" height="9" fill="#5f7794" opacity="0.69"/><rect x="429" y="566" width="6" height="9" fill="#5f7794" opacity="0.83"/><rect x="458" y="566" width="6" height="9" fill="#5f7794" opacity="0.77"/><rect x="487" y="566" width="6" height="9" fill="#5f7794" opacity="0.68"/><rect x="574" y="566" width="6" height="9" fill="#5f7794" opacity="0.68"/><rect x="589" y="399" width="175" height="501" fill="#33415c" opacity="0.92"/><rect x="597" y="411" width="6" height="9" fill="#5f7794" opacity="0.42"/><rect x="685" y="411" width="6" height="9" fill="#5f7794" opacity="0.50"/><rect x="743" y="411" width="6" height="9" fill="#5f7794" opacity="0.48"/><rect x="626" y="442" width="6" height="9" fill="#5f7794" opacity="0.80"/><rect x="685" y="442" width="6" height="9" fill="#5f7794" opacity="0.54"/><rect x="714" y="442" width="6" height="9" fill="#5f7794" opacity="0.48"/><rect x="597" y="474" width="6" height="9" fill="#5f7794" opacity="0.80"/><rect x="626" y="474" width="6" height="9" fill="#5f7794" opacity="0.50"/><rect x="685" y="474" width="6" height="9" fill="#5f7794" opacity="0.48"/><rect x="714" y="474" width="6" height="9" fill="#5f7794" opacity="0.82"/><rect x="743" y="474" width="6" height="9" fill="#5f7794" opacity="0.83"/><rect x="626" y="505" width="6" height="9" fill="#5f7794" opacity="0.54"/><rect x="655" y="505" width="6" height="9" fill="#5f7794" opacity="0.48"/><rect x="685" y="505" width="6" height="9" fill="#5f7794" opacity="0.82"/><rect x="655" y="536" width="6" height="9" fill="#5f7794" opacity="0.82"/><rect x="685" y="536" width="6" height="9" fill="#5f7794" opacity="0.83"/><rect x="714" y="536" width="6" height="9" fill="#5f7794" opacity="0.77"/><rect x="743" y="536" width="6" height="9" fill="#5f7794" opacity="0.68"/><rect x="597" y="568" width="6" height="9" fill="#5f7794" opacity="0.48"/><rect x="626" y="568" width="6" height="9" fill="#5f7794" opacity="0.82"/><rect x="655" y="568" width="6" height="9" fill="#5f7794" opacity="0.83"/><rect x="685" y="568" width="6" height="9" fill="#5f7794" opacity="0.77"/><rect x="714" y="568" width="6" height="9" fill="#5f7794" opacity="0.68"/><rect x="758" y="401" width="189" height="499" fill="#171e2e" opacity="0.92"/><rect x="820" y="413" width="6" height="9" fill="#5f7794" opacity="0.80"/><rect x="847" y="413" width="6" height="9" fill="#5f7794" opacity="0.50"/><rect x="928" y="413" width="6" height="9" fill="#5f7794" opacity="0.82"/><rect x="820" y="444" width="6" height="9" fill="#5f7794" opacity="0.50"/><rect x="928" y="444" width="6" height="9" fill="#5f7794" opacity="0.83"/><rect x="766" y="475" width="6" height="9" fill="#5f7794" opacity="0.80"/><rect x="820" y="475" width="6" height="9" fill="#5f7794" opacity="0.54"/><rect x="928" y="475" width="6" height="9" fill="#5f7794" opacity="0.77"/><rect x="793" y="506" width="6" height="9" fill="#5f7794" opacity="0.54"/><rect x="874" y="506" width="6" height="9" fill="#5f7794" opacity="0.83"/><rect x="766" y="537" width="6" height="9" fill="#5f7794" opacity="0.54"/><rect x="820" y="537" width="6" height="9" fill="#5f7794" opacity="0.82"/><rect x="874" y="537" width="6" height="9" fill="#5f7794" opacity="0.77"/><rect x="901" y="537" width="6" height="9" fill="#5f7794" opacity="0.68"/><rect x="928" y="537" width="6" height="9" fill="#5f7794" opacity="0.47"/><rect x="766" y="568" width="6" height="9" fill="#5f7794" opacity="0.48"/><rect x="820" y="568" width="6" height="9" fill="#5f7794" opacity="0.83"/><rect x="847" y="568" width="6" height="9" fill="#5f7794" opacity="0.77"/><rect x="901" y="568" width="6" height="9" fill="#5f7794" opacity="0.47"/><rect x="941" y="181" width="110" height="719" fill="#33415c" opacity="0.92"/><rect x="1032" y="193" width="6" height="9" fill="#5f7794" opacity="0.50"/><rect x="949" y="224" width="6" height="9" fill="#5f7794" opacity="0.65"/><rect x="1004" y="224" width="6" height="9" fill="#5f7794" opacity="0.50"/><rect x="1032" y="224" width="6" height="9" fill="#5f7794" opacity="0.54"/><rect x="977" y="256" width="6" height="9" fill="#5f7794" opacity="0.50"/><rect x="949" y="287" width="6" height="9" fill="#5f7794" opacity="0.50"/><rect x="1004" y="287" width="6" height="9" fill="#5f7794" opacity="0.48"/><rect x="949" y="318" width="6" height="9" fill="#5f7794" opacity="0.54"/><rect x="977" y="318" width="6" height="9" fill="#5f7794" opacity="0.48"/><rect x="949" y="349" width="6" height="9" fill="#5f7794" opacity="0.48"/><rect x="977" y="349" width="6" height="9" fill="#5f7794" opacity="0.82"/><rect x="1004" y="349" width="6" height="9" fill="#5f7794" opacity="0.83"/><rect x="1032" y="349" width="6" height="9" fill="#5f7794" opacity="0.77"/><rect x="949" y="381" width="6" height="9" fill="#5f7794" opacity="0.82"/><rect x="977" y="381" width="6" height="9" fill="#5f7794" opacity="0.83"/><rect x="1004" y="381" width="6" height="9" fill="#5f7794" opacity="0.77"/><rect x="949" y="412" width="6" height="9" fill="#5f7794" opacity="0.83"/><rect x="977" y="412" width="6" height="9" fill="#5f7794" opacity="0.77"/><rect x="1004" y="443" width="6" height="9" fill="#5f7794" opacity="0.47"/><rect x="1032" y="443" width="6" height="9" fill="#5f7794" opacity="0.69"/><rect x="977" y="474" width="6" height="9" fill="#5f7794" opacity="0.47"/><rect x="1004" y="474" width="6" height="9" fill="#5f7794" opacity="0.69"/><rect x="1032" y="506" width="6" height="9" fill="#5f7794" opacity="0.78"/><rect x="1004" y="537" width="6" height="9" fill="#5f7794" opacity="0.78"/><rect x="949" y="568" width="6" height="9" fill="#5f7794" opacity="0.68"/><rect x="1046" y="188" width="152" height="712" fill="#171e2e" opacity="0.92"/><rect x="1145" y="200" width="6" height="9" fill="#5f7794" opacity="0.50"/><rect x="1175" y="200" width="6" height="9" fill="#5f7794" opacity="0.54"/><rect x="1115" y="230" width="6" height="9" fill="#5f7794" opacity="0.50"/><rect x="1175" y="230" width="6" height="9" fill="#5f7794" opacity="0.48"/><rect x="1054" y="261" width="6" height="9" fill="#5f7794" opacity="0.80"/><rect x="1084" y="292" width="6" height="9" fill="#5f7794" opacity="0.54"/><rect x="1115" y="292" width="6" height="9" fill="#5f7794" opacity="0.48"/><rect x="1145" y="292" width="6" height="9" fill="#5f7794" opacity="0.82"/><rect x="1084" y="323" width="6" height="9" fill="#5f7794" opacity="0.48"/><rect x="1175" y="323" width="6" height="9" fill="#5f7794" opacity="0.77"/><rect x="1054" y="353" width="6" height="9" fill="#5f7794" opacity="0.48"/><rect x="1084" y="353" width="6" height="9" fill="#5f7794" opacity="0.82"/><rect x="1145" y="353" width="6" height="9" fill="#5f7794" opacity="0.77"/><rect x="1175" y="384" width="6" height="9" fill="#5f7794" opacity="0.47"/><rect x="1054" y="415" width="6" height="9" fill="#5f7794" opacity="0.83"/><rect x="1084" y="415" width="6" height="9" fill="#5f7794" opacity="0.77"/><rect x="1054" y="446" width="6" height="9" fill="#5f7794" opacity="0.77"/><rect x="1115" y="446" width="6" height="9" fill="#5f7794" opacity="0.47"/><rect x="1145" y="446" width="6" height="9" fill="#5f7794" opacity="0.69"/><rect x="1175" y="446" width="6" height="9" fill="#5f7794" opacity="0.68"/><rect x="1054" y="476" width="6" height="9" fill="#5f7794" opacity="0.68"/><rect x="1084" y="476" width="6" height="9" fill="#5f7794" opacity="0.47"/><rect x="1115" y="476" width="6" height="9" fill="#5f7794" opacity="0.69"/><rect x="1145" y="476" width="6" height="9" fill="#5f7794" opacity="0.68"/><rect x="1054" y="507" width="6" height="9" fill="#5f7794" opacity="0.47"/><rect x="1084" y="507" width="6" height="9" fill="#5f7794" opacity="0.69"/><rect x="1145" y="507" width="6" height="9" fill="#5f7794" opacity="0.78"/><rect x="1175" y="507" width="6" height="9" fill="#5f7794" opacity="0.59"/><rect x="1175" y="569" width="6" height="9" fill="#5f7794" opacity="0.55"/><rect x="0" y="587.3944851230408" width="1200" height="312.6055148769592" fill="url(#water)" opacity="0.25"/>
<rect width="1200" height="900" fill="url(#vig)"/>
<text x="48" y="846" font-family="Georgia, serif" font-size="46" fill="#fff" opacity="0.92" letter-spacing="-1">The Belgravia Townhouse</text>
<text x="50" y="804" font-family="Georgia, serif" font-size="20" fill="#c9a24b" opacity="0.9" letter-spacing="3">KASSORA</text>
</svg>