<svg xmlns="http://www.w3.org/2000/svg" width="1200" height="900" viewBox="0 0 1200 900">
<defs>
<linearGradient id="sky" x1="0" y1="0" x2="0" y2="1">
<stop offset="0" stop-color="#9fb4c9"/><stop offset="0.55" stop-color="#5f7794"/><stop offset="1" stop-color="#171e2e"/>
</linearGradient>
<radialGradient id="sun" cx="0.5" cy="0.5" r="0.5">
<stop offset="0" stop-color="#fff" stop-opacity="0.95"/><stop offset="0.4" stop-color="#5f7794" stop-opacity="0.7"/><stop offset="1" stop-color="#5f7794" stop-opacity="0"/>
</radialGradient>
<linearGradient id="water" x1="0" y1="0" x2="0" y2="1">
<stop offset="0" stop-color="#fff" stop-opacity="0.5"/><stop offset="1" stop-color="#fff" stop-opacity="0"/>
</linearGradient>
<linearGradient id="vig" x1="0" y1="0" x2="0" y2="1">
<stop offset="0" stop-color="#000" stop-opacity="0"/><stop offset="1" stop-color="#000" stop-opacity="0.45"/>
</linearGradient>
</defs>
<rect width="1200" height="900" fill="url(#sky)"/>
<circle cx="936" cy="311" r="108" fill="url(#sun)" opacity="0.9"/><rect x="-20" y="148" width="206" height="752" fill="#33415c" opacity="0.92"/><rect x="-12" y="160" width="6" height="9" fill="#5f7794" opacity="0.83"/><rect x="17" y="160" width="6" height="9" fill="#5f7794" opacity="0.77"/><rect x="47" y="160" width="6" height="9" fill="#5f7794" opacity="0.68"/><rect x="106" y="160" width="6" height="9" fill="#5f7794" opacity="0.69"/><rect x="135" y="160" width="6" height="9" fill="#5f7794" opacity="0.68"/><rect x="165" y="160" width="6" height="9" fill="#5f7794" opacity="0.78"/><rect x="-12" y="190" width="6" height="9" fill="#5f7794" opacity="0.77"/><rect x="47" y="190" width="6" height="9" fill="#5f7794" opacity="0.47"/><rect x="76" y="190" width="6" height="9" fill="#5f7794" opacity="0.69"/><rect x="106" y="190" width="6" height="9" fill="#5f7794" opacity="0.68"/><rect x="135" y="190" width="6" height="9" fill="#5f7794" opacity="0.78"/><rect x="-12" y="220" width="6" height="9" fill="#5f7794" opacity="0.68"/><rect x="76" y="220" width="6" height="9" fill="#5f7794" opacity="0.68"/><rect x="106" y="220" width="6" height="9" fill="#5f7794" opacity="0.78"/><rect x="165" y="220" width="6" height="9" fill="#5f7794" opacity="0.75"/><rect x="-12" y="250" width="6" height="9" fill="#5f7794" opacity="0.47"/><rect x="17" y="250" width="6" height="9" fill="#5f7794" opacity="0.69"/><rect x="47" y="250" width="6" height="9" fill="#5f7794" opacity="0.68"/><rect x="106" y="250" width="6" height="9" fill="#5f7794" opacity="0.59"/><rect x="135" y="250" width="6" height="9" fill="#5f7794" opacity="0.75"/><rect x="165" y="250" width="6" height="9" fill="#5f7794" opacity="0.55"/><rect x="-12" y="280" width="6" height="9" fill="#5f7794" opacity="0.69"/><rect x="17" y="280" width="6" height="9" fill="#5f7794" opacity="0.68"/><rect x="47" y="280" width="6" height="9" fill="#5f7794" opacity="0.78"/><rect x="106" y="280" width="6" height="9" fill="#5f7794" opacity="0.75"/><rect x="135" y="280" width="6" height="9" fill="#5f7794" opacity="0.55"/><rect x="165" y="280" width="6" height="9" fill="#5f7794" opacity="0.71"/><rect x="-12" y="310" width="6" height="9" fill="#5f7794" opacity="0.68"/><rect x="47" y="310" width="6" height="9" fill="#5f7794" opacity="0.59"/><rect x="76" y="310" width="6" height="9" fill="#5f7794" opacity="0.75"/><rect x="135" y="310" width="6" height="9" fill="#5f7794" opacity="0.71"/><rect x="17" y="340" width="6" height="9" fill="#5f7794" opacity="0.59"/><rect x="106" y="340" width="6" height="9" fill="#5f7794" opacity="0.71"/><rect x="135" y="371" width="6" height="9" fill="#5f7794" opacity="0.62"/><rect x="165" y="371" width="6" height="9" fill="#5f7794" opacity="0.74"/><rect x="-12" y="401" width="6" height="9" fill="#5f7794" opacity="0.75"/><rect x="17" y="401" width="6" height="9" fill="#5f7794" opacity="0.55"/><rect x="76" y="401" width="6" height="9" fill="#5f7794" opacity="0.37"/><rect x="106" y="401" width="6" height="9" fill="#5f7794" opacity="0.62"/><rect x="135" y="401" width="6" height="9" fill="#5f7794" opacity="0.74"/><rect x="17" y="431" width="6" height="9" fill="#5f7794" opacity="0.71"/><rect x="47" y="431" width="6" height="9" fill="#5f7794" opacity="0.37"/><rect x="76" y="431" width="6" height="9" fill="#5f7794" opacity="0.62"/><rect x="135" y="431" width="6" height="9" fill="#5f7794" opacity="0.58"/><rect x="165" y="431" width="6" height="9" fill="#5f7794" opacity="0.70"/><rect x="106" y="461" width="6" height="9" fill="#5f7794" opacity="0.58"/><rect x="135" y="461" width="6" height="9" fill="#5f7794" opacity="0.70"/><rect x="-12" y="491" width="6" height="9" fill="#5f7794" opacity="0.37"/><rect x="17" y="491" width="6" height="9" fill="#5f7794" opacity="0.62"/><rect x="47" y="491" width="6" height="9" fill="#5f7794" opacity="0.74"/><rect x="76" y="491" width="6" height="9" fill="#5f7794" opacity="0.58"/><rect x="106" y="491" width="6" height="9" fill="#5f7794" opacity="0.70"/><rect x="135" y="491" width="6" height="9" fill="#5f7794" opacity="0.57"/><rect x="76" y="521" width="6" height="9" fill="#5f7794" opacity="0.70"/><rect x="135" y="521" width="6" height="9" fill="#5f7794" opacity="0.68"/><rect x="47" y="551" width="6" height="9" fill="#5f7794" opacity="0.70"/><rect x="135" y="551" width="6" height="9" fill="#5f7794" opacity="0.61"/><rect x="165" y="551" width="6" height="9" fill="#5f7794" opacity="0.47"/><rect x="180" y="297" width="131" height="603" fill="#171e2e" opacity="0.92"/><rect x="293" y="309" width="6" height="9" fill="#5f7794" opacity="0.69"/><rect x="188" y="339" width="6" height="9" fill="#5f7794" opacity="0.77"/><rect x="215" y="339" width="6" height="9" fill="#5f7794" opacity="0.68"/><rect x="241" y="339" width="6" height="9" fill="#5f7794" opacity="0.47"/><rect x="267" y="339" width="6" height="9" fill="#5f7794" opacity="0.69"/><rect x="293" y="339" width="6" height="9" fill="#5f7794" opacity="0.68"/><rect x="267" y="370" width="6" height="9" fill="#5f7794" opacity="0.68"/><rect x="241" y="400" width="6" height="9" fill="#5f7794" opacity="0.68"/><rect x="215" y="430" width="6" height="9" fill="#5f7794" opacity="0.68"/><rect x="267" y="430" width="6" height="9" fill="#5f7794" opacity="0.59"/><rect x="188" y="460" width="6" height="9" fill="#5f7794" opacity="0.68"/><rect x="215" y="460" width="6" height="9" fill="#5f7794" opacity="0.78"/><rect x="241" y="460" width="6" height="9" fill="#5f7794" opacity="0.59"/><rect x="267" y="460" width="6" height="9" fill="#5f7794" opacity="0.75"/><rect x="293" y="460" width="6" height="9" fill="#5f7794" opacity="0.55"/><rect x="241" y="491" width="6" height="9" fill="#5f7794" opacity="0.75"/><rect x="267" y="491" width="6" height="9" fill="#5f7794" opacity="0.55"/><rect x="215" y="521" width="6" height="9" fill="#5f7794" opacity="0.75"/><rect x="293" y="521" width="6" height="9" fill="#5f7794" opacity="0.37"/><rect x="188" y="551" width="6" height="9" fill="#5f7794" opacity="0.75"/><rect x="241" y="551" width="6" height="9" fill="#5f7794" opacity="0.71"/><rect x="306" y="305" width="195" height="595" fill="#33415c" opacity="0.92"/><rect x="341" y="317" width="6" height="9" fill="#5f7794" opacity="0.77"/><rect x="369" y="317" width="6" height="9" fill="#5f7794" opacity="0.68"/><rect x="397" y="317" width="6" height="9" fill="#5f7794" opacity="0.47"/><rect x="453" y="317" width="6" height="9" fill="#5f7794" opacity="0.68"/><rect x="480" y="317" width="6" height="9" fill="#5f7794" opacity="0.78"/><rect x="453" y="350" width="6" height="9" fill="#5f7794" opacity="0.78"/><rect x="480" y="350" width="6" height="9" fill="#5f7794" opacity="0.59"/><rect x="341" y="383" width="6" height="9" fill="#5f7794" opacity="0.47"/><rect x="397" y="383" width="6" height="9" fill="#5f7794" opacity="0.68"/><rect x="425" y="383" width="6" height="9" fill="#5f7794" opacity="0.78"/><rect x="314" y="416" width="6" height="9" fill="#5f7794" opacity="0.47"/><rect x="341" y="416" width="6" height="9" fill="#5f7794" opacity="0.69"/><rect x="369" y="416" width="6" height="9" fill="#5f7794" opacity="0.68"/><rect x="425" y="416" width="6" height="9" fill="#5f7794" opacity="0.59"/><rect x="453" y="416" width="6" height="9" fill="#5f7794" opacity="0.75"/><rect x="480" y="416" width="6" height="9" fill="#5f7794" opacity="0.55"/><rect x="369" y="449" width="6" height="9" fill="#5f7794" opacity="0.78"/><rect x="397" y="449" width="6" height="9" fill="#5f7794" opacity="0.59"/><rect x="453" y="449" width="6" height="9" fill="#5f7794" opacity="0.55"/><rect x="480" y="449" width="6" height="9" fill="#5f7794" opacity="0.71"/><rect x="397" y="482" width="6" height="9" fill="#5f7794" opacity="0.75"/><rect x="480" y="482" width="6" height="9" fill="#5f7794" opacity="0.37"/><rect x="314" y="515" width="6" height="9" fill="#5f7794" opacity="0.78"/><rect x="397" y="515" width="6" height="9" fill="#5f7794" opacity="0.55"/><rect x="453" y="515" width="6" height="9" fill="#5f7794" opacity="0.37"/><rect x="341" y="548" width="6" height="9" fill="#5f7794" opacity="0.75"/><rect x="369" y="548" width="6" height="9" fill="#5f7794" opacity="0.55"/><rect x="425" y="548" width="6" height="9" fill="#5f7794" opacity="0.37"/><rect x="453" y="548" width="6" height="9" fill="#5f7794" opacity="0.62"/><rect x="480" y="548" width="6" height="9" fill="#5f7794" opacity="0.74"/><rect x="494" y="381" width="147" height="519" fill="#171e2e" opacity="0.92"/><rect x="502" y="393" width="6" height="9" fill="#5f7794" opacity="0.83"/><rect x="532" y="393" width="6" height="9" fill="#5f7794" opacity="0.77"/><rect x="561" y="393" width="6" height="9" fill="#5f7794" opacity="0.68"/><rect x="620" y="393" width="6" height="9" fill="#5f7794" opacity="0.69"/><rect x="502" y="424" width="6" height="9" fill="#5f7794" opacity="0.77"/><rect x="561" y="424" width="6" height="9" fill="#5f7794" opacity="0.47"/><rect x="532" y="487" width="6" height="9" fill="#5f7794" opacity="0.69"/><rect x="561" y="487" width="6" height="9" fill="#5f7794" opacity="0.68"/><rect x="590" y="487" width="6" height="9" fill="#5f7794" opacity="0.78"/><rect x="620" y="487" width="6" height="9" fill="#5f7794" opacity="0.59"/><rect x="502" y="518" width="6" height="9" fill="#5f7794" opacity="0.69"/><rect x="561" y="518" width="6" height="9" fill="#5f7794" opacity="0.78"/><rect x="590" y="518" width="6" height="9" fill="#5f7794" opacity="0.59"/><rect x="620" y="518" width="6" height="9" fill="#5f7794" opacity="0.75"/><rect x="502" y="550" width="6" height="9" fill="#5f7794" opacity="0.68"/><rect x="532" y="550" width="6" height="9" fill="#5f7794" opacity="0.78"/><rect x="561" y="550" width="6" height="9" fill="#5f7794" opacity="0.59"/><rect x="635" y="383" width="162" height="517" fill="#33415c" opacity="0.92"/><rect x="670" y="395" width="6" height="9" fill="#5f7794" opacity="0.77"/><rect x="751" y="395" width="6" height="9" fill="#5f7794" opacity="0.69"/><rect x="643" y="426" width="6" height="9" fill="#5f7794" opacity="0.77"/><rect x="670" y="426" width="6" height="9" fill="#5f7794" opacity="0.68"/><rect x="697" y="426" width="6" height="9" fill="#5f7794" opacity="0.47"/><rect x="724" y="426" width="6" height="9" fill="#5f7794" opacity="0.69"/><rect x="751" y="426" width="6" height="9" fill="#5f7794" opacity="0.68"/><rect x="643" y="457" width="6" height="9" fill="#5f7794" opacity="0.68"/><rect x="751" y="457" width="6" height="9" fill="#5f7794" opacity="0.78"/><rect x="778" y="457" width="6" height="9" fill="#5f7794" opacity="0.59"/><rect x="670" y="488" width="6" height="9" fill="#5f7794" opacity="0.69"/><rect x="778" y="488" width="6" height="9" fill="#5f7794" opacity="0.75"/><rect x="643" y="519" width="6" height="9" fill="#5f7794" opacity="0.69"/><rect x="724" y="519" width="6" height="9" fill="#5f7794" opacity="0.59"/><rect x="751" y="519" width="6" height="9" fill="#5f7794" opacity="0.75"/><rect x="778" y="519" width="6" height="9" fill="#5f7794" opacity="0.55"/><rect x="697" y="550" width="6" height="9" fill="#5f7794" opacity="0.59"/><rect x="724" y="550" width="6" height="9" fill="#5f7794" opacity="0.75"/><rect x="751" y="550" width="6" height="9" fill="#5f7794" opacity="0.55"/><rect x="778" y="550" width="6" height="9" fill="#5f7794" opacity="0.71"/><rect x="791" y="163" width="178" height="737" fill="#171e2e" opacity="0.92"/><rect x="799" y="175" width="6" height="9" fill="#5f7794" opacity="0.83"/><rect x="829" y="175" width="6" height="9" fill="#5f7794" opacity="0.77"/><rect x="859" y="175" width="6" height="9" fill="#5f7794" opacity="0.68"/><rect x="947" y="175" width="6" height="9" fill="#5f7794" opacity="0.68"/><rect x="829" y="206" width="6" height="9" fill="#5f7794" opacity="0.68"/><rect x="859" y="206" width="6" height="9" fill="#5f7794" opacity="0.47"/><rect x="888" y="206" width="6" height="9" fill="#5f7794" opacity="0.69"/><rect x="947" y="206" width="6" height="9" fill="#5f7794" opacity="0.78"/><rect x="859" y="238" width="6" height="9" fill="#5f7794" opacity="0.69"/><rect x="918" y="238" width="6" height="9" fill="#5f7794" opacity="0.78"/><rect x="799" y="269" width="6" height="9" fill="#5f7794" opacity="0.47"/><rect x="859" y="269" width="6" height="9" fill="#5f7794" opacity="0.68"/><rect x="888" y="269" width="6" height="9" fill="#5f7794" opacity="0.78"/><rect x="947" y="269" width="6" height="9" fill="#5f7794" opacity="0.75"/><rect x="829" y="300" width="6" height="9" fill="#5f7794" opacity="0.68"/><rect x="859" y="300" width="6" height="9" fill="#5f7794" opacity="0.78"/><rect x="888" y="300" width="6" height="9" fill="#5f7794" opacity="0.59"/><rect x="947" y="300" width="6" height="9" fill="#5f7794" opacity="0.55"/><rect x="799" y="331" width="6" height="9" fill="#5f7794" opacity="0.68"/><rect x="888" y="331" width="6" height="9" fill="#5f7794" opacity="0.75"/><rect x="799" y="363" width="6" height="9" fill="#5f7794" opacity="0.78"/><rect x="859" y="363" width="6" height="9" fill="#5f7794" opacity="0.75"/><rect x="888" y="363" width="6" height="9" fill="#5f7794" opacity="0.55"/><rect x="918" y="363" width="6" height="9" fill="#5f7794" opacity="0.71"/><rect x="859" y="394" width="6" height="9" fill="#5f7794" opacity="0.55"/><rect x="888" y="394" width="6" height="9" fill="#5f7794" opacity="0.71"/><rect x="947" y="394" width="6" height="9" fill="#5f7794" opacity="0.62"/><rect x="829" y="425" width="6" height="9" fill="#5f7794" opacity="0.55"/><rect x="859" y="425" width="6" height="9" fill="#5f7794" opacity="0.71"/><rect x="888" y="425" width="6" height="9" fill="#5f7794" opacity="0.37"/><rect x="918" y="425" width="6" height="9" fill="#5f7794" opacity="0.62"/><rect x="829" y="456" width="6" height="9" fill="#5f7794" opacity="0.71"/><rect x="829" y="488" width="6" height="9" fill="#5f7794" opacity="0.37"/><rect x="859" y="488" width="6" height="9" fill="#5f7794" opacity="0.62"/><rect x="888" y="488" width="6" height="9" fill="#5f7794" opacity="0.74"/><rect x="947" y="488" width="6" height="9" fill="#5f7794" opacity="0.70"/><rect x="829" y="519" width="6" height="9" fill="#5f7794" opacity="0.62"/><rect x="918" y="519" width="6" height="9" fill="#5f7794" opacity="0.70"/><rect x="829" y="550" width="6" height="9" fill="#5f7794" opacity="0.74"/><rect x="859" y="550" width="6" height="9" fill="#5f7794" opacity="0.58"/><rect x="888" y="550" width="6" height="9" fill="#5f7794" opacity="0.70"/><rect x="947" y="550" width="6" height="9" fill="#5f7794" opacity="0.68"/><rect x="963" y="170" width="159" height="730" fill="#33415c" opacity="0.92"/><rect x="997" y="182" width="6" height="9" fill="#5f7794" opacity="0.77"/><rect x="1024" y="182" width="6" height="9" fill="#5f7794" opacity="0.68"/><rect x="1050" y="182" width="6" height="9" fill="#5f7794" opacity="0.47"/><rect x="1103" y="182" width="6" height="9" fill="#5f7794" opacity="0.68"/><rect x="997" y="212" width="6" height="9" fill="#5f7794" opacity="0.68"/><rect x="1077" y="212" width="6" height="9" fill="#5f7794" opacity="0.68"/><rect x="997" y="243" width="6" height="9" fill="#5f7794" opacity="0.47"/><rect x="1024" y="243" width="6" height="9" fill="#5f7794" opacity="0.69"/><rect x="1050" y="243" width="6" height="9" fill="#5f7794" opacity="0.68"/><rect x="1103" y="243" width="6" height="9" fill="#5f7794" opacity="0.59"/><rect x="971" y="274" width="6" height="9" fill="#5f7794" opacity="0.47"/><rect x="1024" y="274" width="6" height="9" fill="#5f7794" opacity="0.68"/><rect x="1050" y="274" width="6" height="9" fill="#5f7794" opacity="0.78"/><rect x="1077" y="274" width="6" height="9" fill="#5f7794" opacity="0.59"/><rect x="971" y="305" width="6" height="9" fill="#5f7794" opacity="0.69"/><rect x="997" y="305" width="6" height="9" fill="#5f7794" opacity="0.68"/><rect x="1050" y="305" width="6" height="9" fill="#5f7794" opacity="0.59"/><rect x="1077" y="305" width="6" height="9" fill="#5f7794" opacity="0.75"/><rect x="1103" y="305" width="6" height="9" fill="#5f7794" opacity="0.55"/><rect x="997" y="335" width="6" height="9" fill="#5f7794" opacity="0.78"/><rect x="1024" y="335" width="6" height="9" fill="#5f7794" opacity="0.59"/><rect x="1050" y="335" width="6" height="9" fill="#5f7794" opacity="0.75"/><rect x="1077" y="335" width="6" height="9" fill="#5f7794" opacity="0.55"/><rect x="1103" y="335" width="6" height="9" fill="#5f7794" opacity="0.71"/><rect x="971" y="366" width="6" height="9" fill="#5f7794" opacity="0.78"/><rect x="997" y="366" width="6" height="9" fill="#5f7794" opacity="0.59"/><rect x="1024" y="366" width="6" height="9" fill="#5f7794" opacity="0.75"/><rect x="1050" y="366" width="6" height="9" fill="#5f7794" opacity="0.55"/><rect x="1077" y="366" width="6" height="9" fill="#5f7794" opacity="0.71"/><rect x="997" y="397" width="6" height="9" fill="#5f7794" opacity="0.75"/><rect x="1103" y="397" width="6" height="9" fill="#5f7794" opacity="0.62"/><rect x="971" y="428" width="6" height="9" fill="#5f7794" opacity="0.75"/><rect x="1077" y="428" width="6" height="9" fill="#5f7794" opacity="0.62"/><rect x="1103" y="428" width="6" height="9" fill="#5f7794" opacity="0.74"/><rect x="1024" y="458" width="6" height="9" fill="#5f7794" opacity="0.37"/><rect x="997" y="489" width="6" height="9" fill="#5f7794" opacity="0.37"/><rect x="1103" y="489" width="6" height="9" fill="#5f7794" opacity="0.70"/><rect x="1024" y="520" width="6" height="9" fill="#5f7794" opacity="0.74"/><rect x="1050" y="520" width="6" height="9" fill="#5f7794" opacity="0.58"/><rect x="997" y="551" width="6" height="9" fill="#5f7794" opacity="0.74"/><rect x="1024" y="551" width="6" height="9" fill="#5f7794" opacity="0.58"/><rect x="1077" y="551" width="6" height="9" fill="#5f7794" opacity="0.57"/><rect x="1103" y="551" width="6" height="9" fill="#5f7794" opacity="0.68"/><rect x="1116" y="298" width="127" height="602" fill="#171e2e" opacity="0.92"/><rect x="1156" y="310" width="6" height="9" fill="#5f7794" opacity="0.77"/><rect x="1187" y="341" width="6" height="9" fill="#5f7794" opacity="0.47"/><rect x="1219" y="341" width="6" height="9" fill="#5f7794" opacity="0.69"/><rect x="1156" y="371" width="6" height="9" fill="#5f7794" opacity="0.47"/><rect x="1187" y="371" width="6" height="9" fill="#5f7794" opacity="0.69"/><rect x="1187" y="401" width="6" height="9" fill="#5f7794" opacity="0.68"/><rect x="1124" y="431" width="6" height="9" fill="#5f7794" opacity="0.69"/><rect x="1156" y="431" width="6" height="9" fill="#5f7794" opacity="0.68"/><rect x="1187" y="431" width="6" height="9" fill="#5f7794" opacity="0.78"/><rect x="1219" y="431" width="6" height="9" fill="#5f7794" opacity="0.59"/><rect x="1124" y="491" width="6" height="9" fill="#5f7794" opacity="0.78"/><rect x="1156" y="491" width="6" height="9" fill="#5f7794" opacity="0.59"/><rect x="1219" y="491" width="6" height="9" fill="#5f7794" opacity="0.55"/><rect x="1124" y="521" width="6" height="9" fill="#5f7794" opacity="0.59"/><rect x="1219" y="521" width="6" height="9" fill="#5f7794" opacity="0.71"/><rect x="1124" y="551" width="6" height="9" fill="#5f7794" opacity="0.75"/><rect x="1156" y="551" width="6" height="9" fill="#5f7794" opacity="0.55"/><rect x="1187" y="551" width="6" height="9" fill="#5f7794" opacity="0.71"/><rect x="1219" y="551" width="6" height="9" fill="#5f7794" opacity="0.37"/><rect x="0" y="569.3444742496504" width="1200" height="330.6555257503496" fill="url(#water)" opacity="0.25"/>
<rect width="1200" height="900" fill="url(#vig)"/>
<text x="48" y="846" font-family="Georgia, serif" font-size="46" fill="#fff" opacity="0.92" letter-spacing="-1">The Belgravia Townhouse</text>
<text x="50" y="804" font-family="Georgia, serif" font-size="20" fill="#c9a24b" opacity="0.9" letter-spacing="3">KASSORA</text>
</svg>