<svg xmlns="http://www.w3.org/2000/svg" width="1200" height="900" viewBox="0 0 1200 900">
<defs>
<linearGradient id="sky" x1="0" y1="0" x2="0" y2="1">
<stop offset="0" stop-color="#9fb4c9"/><stop offset="0.55" stop-color="#5f7794"/><stop offset="1" stop-color="#171e2e"/>
</linearGradient>
<radialGradient id="sun" cx="0.5" cy="0.5" r="0.5">
<stop offset="0" stop-color="#fff" stop-opacity="0.95"/><stop offset="0.4" stop-color="#5f7794" stop-opacity="0.7"/><stop offset="1" stop-color="#5f7794" stop-opacity="0"/>
</radialGradient>
<linearGradient id="water" x1="0" y1="0" x2="0" y2="1">
<stop offset="0" stop-color="#fff" stop-opacity="0.5"/><stop offset="1" stop-color="#fff" stop-opacity="0"/>
</linearGradient>
<linearGradient id="vig" x1="0" y1="0" x2="0" y2="1">
<stop offset="0" stop-color="#000" stop-opacity="0"/><stop offset="1" stop-color="#000" stop-opacity="0.45"/>
</linearGradient>
</defs>
<rect width="1200" height="900" fill="url(#sky)"/>
<circle cx="584" cy="306" r="108" fill="url(#sun)" opacity="0.9"/><rect x="-20" y="278" width="113" height="622" fill="#33415c" opacity="0.92"/><rect x="-12" y="290" width="6" height="9" fill="#5f7794" opacity="0.59"/><rect x="16" y="290" width="6" height="9" fill="#5f7794" opacity="0.75"/><rect x="73" y="290" width="6" height="9" fill="#5f7794" opacity="0.71"/><rect x="-12" y="321" width="6" height="9" fill="#5f7794" opacity="0.75"/><rect x="16" y="321" width="6" height="9" fill="#5f7794" opacity="0.55"/><rect x="73" y="321" width="6" height="9" fill="#5f7794" opacity="0.37"/><rect x="73" y="351" width="6" height="9" fill="#5f7794" opacity="0.62"/><rect x="44" y="381" width="6" height="9" fill="#5f7794" opacity="0.62"/><rect x="73" y="381" width="6" height="9" fill="#5f7794" opacity="0.74"/><rect x="-12" y="411" width="6" height="9" fill="#5f7794" opacity="0.37"/><rect x="44" y="411" width="6" height="9" fill="#5f7794" opacity="0.74"/><rect x="73" y="411" width="6" height="9" fill="#5f7794" opacity="0.58"/><rect x="-12" y="442" width="6" height="9" fill="#5f7794" opacity="0.62"/><rect x="44" y="442" width="6" height="9" fill="#5f7794" opacity="0.58"/><rect x="-12" y="502" width="6" height="9" fill="#5f7794" opacity="0.58"/><rect x="16" y="502" width="6" height="9" fill="#5f7794" opacity="0.70"/><rect x="73" y="502" width="6" height="9" fill="#5f7794" opacity="0.68"/><rect x="-12" y="532" width="6" height="9" fill="#5f7794" opacity="0.70"/><rect x="16" y="532" width="6" height="9" fill="#5f7794" opacity="0.57"/><rect x="44" y="532" width="6" height="9" fill="#5f7794" opacity="0.68"/><rect x="87" y="286" width="131" height="614" fill="#171e2e" opacity="0.92"/><rect x="121" y="298" width="6" height="9" fill="#5f7794" opacity="0.75"/><rect x="147" y="298" width="6" height="9" fill="#5f7794" opacity="0.55"/><rect x="173" y="298" width="6" height="9" fill="#5f7794" opacity="0.71"/><rect x="200" y="298" width="6" height="9" fill="#5f7794" opacity="0.37"/><rect x="95" y="331" width="6" height="9" fill="#5f7794" opacity="0.75"/><rect x="147" y="331" width="6" height="9" fill="#5f7794" opacity="0.71"/><rect x="121" y="364" width="6" height="9" fill="#5f7794" opacity="0.71"/><rect x="95" y="397" width="6" height="9" fill="#5f7794" opacity="0.71"/><rect x="121" y="397" width="6" height="9" fill="#5f7794" opacity="0.37"/><rect x="147" y="397" width="6" height="9" fill="#5f7794" opacity="0.62"/><rect x="200" y="397" width="6" height="9" fill="#5f7794" opacity="0.58"/><rect x="121" y="430" width="6" height="9" fill="#5f7794" opacity="0.62"/><rect x="147" y="430" width="6" height="9" fill="#5f7794" opacity="0.74"/><rect x="173" y="430" width="6" height="9" fill="#5f7794" opacity="0.58"/><rect x="200" y="430" width="6" height="9" fill="#5f7794" opacity="0.70"/><rect x="95" y="463" width="6" height="9" fill="#5f7794" opacity="0.62"/><rect x="121" y="463" width="6" height="9" fill="#5f7794" opacity="0.74"/><rect x="147" y="463" width="6" height="9" fill="#5f7794" opacity="0.58"/><rect x="200" y="497" width="6" height="9" fill="#5f7794" opacity="0.68"/><rect x="147" y="530" width="6" height="9" fill="#5f7794" opacity="0.57"/><rect x="173" y="530" width="6" height="9" fill="#5f7794" opacity="0.68"/><rect x="212" y="362" width="136" height="538" fill="#33415c" opacity="0.92"/><rect x="220" y="405" width="6" height="9" fill="#5f7794" opacity="0.75"/><rect x="247" y="405" width="6" height="9" fill="#5f7794" opacity="0.55"/><rect x="274" y="405" width="6" height="9" fill="#5f7794" opacity="0.71"/><rect x="329" y="405" width="6" height="9" fill="#5f7794" opacity="0.62"/><rect x="301" y="437" width="6" height="9" fill="#5f7794" opacity="0.62"/><rect x="329" y="437" width="6" height="9" fill="#5f7794" opacity="0.74"/><rect x="247" y="468" width="6" height="9" fill="#5f7794" opacity="0.37"/><rect x="247" y="500" width="6" height="9" fill="#5f7794" opacity="0.62"/><rect x="220" y="531" width="6" height="9" fill="#5f7794" opacity="0.62"/><rect x="301" y="531" width="6" height="9" fill="#5f7794" opacity="0.70"/><rect x="342" y="364" width="110" height="536" fill="#171e2e" opacity="0.92"/><rect x="432" y="376" width="6" height="9" fill="#5f7794" opacity="0.71"/><rect x="350" y="407" width="6" height="9" fill="#5f7794" opacity="0.75"/><rect x="377" y="438" width="6" height="9" fill="#5f7794" opacity="0.71"/><rect x="350" y="469" width="6" height="9" fill="#5f7794" opacity="0.71"/><rect x="405" y="469" width="6" height="9" fill="#5f7794" opacity="0.62"/><rect x="432" y="469" width="6" height="9" fill="#5f7794" opacity="0.74"/><rect x="377" y="500" width="6" height="9" fill="#5f7794" opacity="0.62"/><rect x="432" y="500" width="6" height="9" fill="#5f7794" opacity="0.58"/><rect x="377" y="531" width="6" height="9" fill="#5f7794" opacity="0.74"/><rect x="405" y="531" width="6" height="9" fill="#5f7794" opacity="0.58"/><rect x="432" y="531" width="6" height="9" fill="#5f7794" opacity="0.70"/><rect x="446" y="144" width="94" height="756" fill="#33415c" opacity="0.92"/><rect x="454" y="156" width="6" height="9" fill="#5f7794" opacity="0.59"/><rect x="454" y="188" width="6" height="9" fill="#5f7794" opacity="0.75"/><rect x="485" y="188" width="6" height="9" fill="#5f7794" opacity="0.55"/><rect x="454" y="250" width="6" height="9" fill="#5f7794" opacity="0.71"/><rect x="485" y="250" width="6" height="9" fill="#5f7794" opacity="0.37"/><rect x="517" y="250" width="6" height="9" fill="#5f7794" opacity="0.62"/><rect x="454" y="281" width="6" height="9" fill="#5f7794" opacity="0.37"/><rect x="517" y="281" width="6" height="9" fill="#5f7794" opacity="0.74"/><rect x="485" y="313" width="6" height="9" fill="#5f7794" opacity="0.74"/><rect x="517" y="344" width="6" height="9" fill="#5f7794" opacity="0.70"/><rect x="454" y="375" width="6" height="9" fill="#5f7794" opacity="0.58"/><rect x="485" y="406" width="6" height="9" fill="#5f7794" opacity="0.57"/><rect x="517" y="406" width="6" height="9" fill="#5f7794" opacity="0.68"/><rect x="517" y="438" width="6" height="9" fill="#5f7794" opacity="0.61"/><rect x="517" y="469" width="6" height="9" fill="#5f7794" opacity="0.47"/><rect x="517" y="500" width="6" height="9" fill="#5f7794" opacity="0.60"/><rect x="454" y="531" width="6" height="9" fill="#5f7794" opacity="0.47"/><rect x="534" y="151" width="77" height="749" fill="#171e2e" opacity="0.92"/><rect x="542" y="224" width="6" height="9" fill="#5f7794" opacity="0.55"/><rect x="542" y="255" width="6" height="9" fill="#5f7794" opacity="0.71"/><rect x="581" y="255" width="6" height="9" fill="#5f7794" opacity="0.37"/><rect x="581" y="286" width="6" height="9" fill="#5f7794" opacity="0.62"/><rect x="542" y="317" width="6" height="9" fill="#5f7794" opacity="0.62"/><rect x="581" y="347" width="6" height="9" fill="#5f7794" opacity="0.58"/><rect x="542" y="378" width="6" height="9" fill="#5f7794" opacity="0.58"/><rect x="581" y="378" width="6" height="9" fill="#5f7794" opacity="0.70"/><rect x="542" y="409" width="6" height="9" fill="#5f7794" opacity="0.70"/><rect x="581" y="409" width="6" height="9" fill="#5f7794" opacity="0.57"/><rect x="542" y="440" width="6" height="9" fill="#5f7794" opacity="0.57"/><rect x="542" y="470" width="6" height="9" fill="#5f7794" opacity="0.68"/><rect x="581" y="532" width="6" height="9" fill="#5f7794" opacity="0.60"/><rect x="605" y="280" width="88" height="620" fill="#33415c" opacity="0.92"/><rect x="613" y="292" width="6" height="9" fill="#5f7794" opacity="0.59"/><rect x="672" y="292" width="6" height="9" fill="#5f7794" opacity="0.55"/><rect x="672" y="322" width="6" height="9" fill="#5f7794" opacity="0.71"/><rect x="642" y="352" width="6" height="9" fill="#5f7794" opacity="0.71"/><rect x="672" y="352" width="6" height="9" fill="#5f7794" opacity="0.37"/><rect x="613" y="382" width="6" height="9" fill="#5f7794" opacity="0.71"/><rect x="642" y="382" width="6" height="9" fill="#5f7794" opacity="0.37"/><rect x="613" y="412" width="6" height="9" fill="#5f7794" opacity="0.37"/><rect x="642" y="412" width="6" height="9" fill="#5f7794" opacity="0.62"/><rect x="613" y="472" width="6" height="9" fill="#5f7794" opacity="0.74"/><rect x="672" y="472" width="6" height="9" fill="#5f7794" opacity="0.70"/><rect x="613" y="502" width="6" height="9" fill="#5f7794" opacity="0.58"/><rect x="642" y="502" width="6" height="9" fill="#5f7794" opacity="0.70"/><rect x="672" y="502" width="6" height="9" fill="#5f7794" opacity="0.57"/><rect x="672" y="532" width="6" height="9" fill="#5f7794" opacity="0.68"/><rect x="687" y="336" width="91" height="564" fill="#171e2e" opacity="0.92"/><rect x="695" y="348" width="6" height="9" fill="#5f7794" opacity="0.59"/><rect x="726" y="348" width="6" height="9" fill="#5f7794" opacity="0.75"/><rect x="756" y="348" width="6" height="9" fill="#5f7794" opacity="0.55"/><rect x="756" y="409" width="6" height="9" fill="#5f7794" opacity="0.37"/><rect x="695" y="440" width="6" height="9" fill="#5f7794" opacity="0.71"/><rect x="726" y="440" width="6" height="9" fill="#5f7794" opacity="0.37"/><rect x="756" y="440" width="6" height="9" fill="#5f7794" opacity="0.62"/><rect x="726" y="471" width="6" height="9" fill="#5f7794" opacity="0.62"/><rect x="695" y="501" width="6" height="9" fill="#5f7794" opacity="0.62"/><rect x="726" y="501" width="6" height="9" fill="#5f7794" opacity="0.74"/><rect x="726" y="532" width="6" height="9" fill="#5f7794" opacity="0.58"/><rect x="773" y="383" width="114" height="517" fill="#33415c" opacity="0.92"/><rect x="838" y="395" width="6" height="9" fill="#5f7794" opacity="0.55"/><rect x="781" y="428" width="6" height="9" fill="#5f7794" opacity="0.75"/><rect x="809" y="428" width="6" height="9" fill="#5f7794" opacity="0.55"/><rect x="838" y="428" width="6" height="9" fill="#5f7794" opacity="0.71"/><rect x="781" y="462" width="6" height="9" fill="#5f7794" opacity="0.55"/><rect x="809" y="462" width="6" height="9" fill="#5f7794" opacity="0.71"/><rect x="838" y="462" width="6" height="9" fill="#5f7794" opacity="0.37"/><rect x="866" y="462" width="6" height="9" fill="#5f7794" opacity="0.62"/><rect x="781" y="495" width="6" height="9" fill="#5f7794" opacity="0.71"/><rect x="838" y="495" width="6" height="9" fill="#5f7794" opacity="0.62"/><rect x="866" y="495" width="6" height="9" fill="#5f7794" opacity="0.74"/><rect x="809" y="529" width="6" height="9" fill="#5f7794" opacity="0.62"/><rect x="866" y="529" width="6" height="9" fill="#5f7794" opacity="0.58"/><rect x="881" y="395" width="151" height="505" fill="#171e2e" opacity="0.92"/><rect x="919" y="407" width="6" height="9" fill="#5f7794" opacity="0.75"/><rect x="949" y="407" width="6" height="9" fill="#5f7794" opacity="0.55"/><rect x="979" y="407" width="6" height="9" fill="#5f7794" opacity="0.71"/><rect x="919" y="438" width="6" height="9" fill="#5f7794" opacity="0.55"/><rect x="949" y="438" width="6" height="9" fill="#5f7794" opacity="0.71"/><rect x="979" y="438" width="6" height="9" fill="#5f7794" opacity="0.37"/><rect x="1009" y="438" width="6" height="9" fill="#5f7794" opacity="0.62"/><rect x="919" y="469" width="6" height="9" fill="#5f7794" opacity="0.71"/><rect x="949" y="469" width="6" height="9" fill="#5f7794" opacity="0.37"/><rect x="979" y="469" width="6" height="9" fill="#5f7794" opacity="0.62"/><rect x="889" y="500" width="6" height="9" fill="#5f7794" opacity="0.71"/><rect x="919" y="500" width="6" height="9" fill="#5f7794" opacity="0.37"/><rect x="949" y="500" width="6" height="9" fill="#5f7794" opacity="0.62"/><rect x="1009" y="500" width="6" height="9" fill="#5f7794" opacity="0.58"/><rect x="889" y="531" width="6" height="9" fill="#5f7794" opacity="0.37"/><rect x="919" y="531" width="6" height="9" fill="#5f7794" opacity="0.62"/><rect x="949" y="531" width="6" height="9" fill="#5f7794" opacity="0.74"/><rect x="979" y="531" width="6" height="9" fill="#5f7794" opacity="0.58"/><rect x="1026" y="217" width="97" height="683" fill="#33415c" opacity="0.92"/><rect x="1098" y="229" width="6" height="9" fill="#5f7794" opacity="0.55"/><rect x="1066" y="259" width="6" height="9" fill="#5f7794" opacity="0.55"/><rect x="1098" y="259" width="6" height="9" fill="#5f7794" opacity="0.71"/><rect x="1034" y="289" width="6" height="9" fill="#5f7794" opacity="0.55"/><rect x="1066" y="289" width="6" height="9" fill="#5f7794" opacity="0.71"/><rect x="1098" y="289" width="6" height="9" fill="#5f7794" opacity="0.37"/><rect x="1034" y="320" width="6" height="9" fill="#5f7794" opacity="0.71"/><rect x="1098" y="320" width="6" height="9" fill="#5f7794" opacity="0.62"/><rect x="1034" y="350" width="6" height="9" fill="#5f7794" opacity="0.37"/><rect x="1066" y="350" width="6" height="9" fill="#5f7794" opacity="0.62"/><rect x="1098" y="350" width="6" height="9" fill="#5f7794" opacity="0.74"/><rect x="1034" y="380" width="6" height="9" fill="#5f7794" opacity="0.62"/><rect x="1066" y="380" width="6" height="9" fill="#5f7794" opacity="0.74"/><rect x="1098" y="380" width="6" height="9" fill="#5f7794" opacity="0.58"/><rect x="1034" y="411" width="6" height="9" fill="#5f7794" opacity="0.74"/><rect x="1098" y="441" width="6" height="9" fill="#5f7794" opacity="0.57"/><rect x="1034" y="472" width="6" height="9" fill="#5f7794" opacity="0.70"/><rect x="1098" y="472" width="6" height="9" fill="#5f7794" opacity="0.68"/><rect x="1066" y="502" width="6" height="9" fill="#5f7794" opacity="0.68"/><rect x="1034" y="532" width="6" height="9" fill="#5f7794" opacity="0.68"/><rect x="1066" y="532" width="6" height="9" fill="#5f7794" opacity="0.61"/><rect x="1098" y="532" width="6" height="9" fill="#5f7794" opacity="0.47"/><rect x="0" y="550.5547970242915" width="1200" height="349.4452029757085" fill="url(#water)" opacity="0.25"/>
<rect width="1200" height="900" fill="url(#vig)"/>
<text x="48" y="846" font-family="Georgia, serif" font-size="46" fill="#fff" opacity="0.92" letter-spacing="-1">The Belgravia Townhouse</text>
<text x="50" y="804" font-family="Georgia, serif" font-size="20" fill="#c9a24b" opacity="0.9" letter-spacing="3">KASSORA</text>
</svg>