<svg xmlns="http://www.w3.org/2000/svg" width="1200" height="900" viewBox="0 0 1200 900">
<defs>
<linearGradient id="sky" x1="0" y1="0" x2="0" y2="1">
<stop offset="0" stop-color="#f3b7a1"/><stop offset="0.55" stop-color="#e98b6f"/><stop offset="1" stop-color="#2b2140"/>
</linearGradient>
<radialGradient id="sun" cx="0.5" cy="0.5" r="0.5">
<stop offset="0" stop-color="#fff" stop-opacity="0.95"/><stop offset="0.4" stop-color="#e98b6f" stop-opacity="0.7"/><stop offset="1" stop-color="#e98b6f" stop-opacity="0"/>
</radialGradient>
<linearGradient id="water" x1="0" y1="0" x2="0" y2="1">
<stop offset="0" stop-color="#fff" stop-opacity="0.5"/><stop offset="1" stop-color="#fff" stop-opacity="0"/>
</linearGradient>
<linearGradient id="vig" x1="0" y1="0" x2="0" y2="1">
<stop offset="0" stop-color="#000" stop-opacity="0"/><stop offset="1" stop-color="#000" stop-opacity="0.45"/>
</linearGradient>
</defs>
<rect width="1200" height="900" fill="url(#sky)"/>
<circle cx="566" cy="273" r="108" fill="url(#sun)" opacity="0.9"/><rect x="-20" y="293" width="111" height="607" fill="#7a4a63" opacity="0.92"/><rect x="-12" y="305" width="6" height="9" fill="#e98b6f" opacity="0.58"/><rect x="16" y="305" width="6" height="9" fill="#e98b6f" opacity="0.63"/><rect x="43" y="305" width="6" height="9" fill="#e98b6f" opacity="0.59"/><rect x="71" y="305" width="6" height="9" fill="#e98b6f" opacity="0.75"/><rect x="-12" y="338" width="6" height="9" fill="#e98b6f" opacity="0.63"/><rect x="16" y="338" width="6" height="9" fill="#e98b6f" opacity="0.59"/><rect x="16" y="371" width="6" height="9" fill="#e98b6f" opacity="0.75"/><rect x="43" y="371" width="6" height="9" fill="#e98b6f" opacity="0.46"/><rect x="-12" y="437" width="6" height="9" fill="#e98b6f" opacity="0.46"/><rect x="16" y="437" width="6" height="9" fill="#e98b6f" opacity="0.59"/><rect x="71" y="437" width="6" height="9" fill="#e98b6f" opacity="0.73"/><rect x="-12" y="470" width="6" height="9" fill="#e98b6f" opacity="0.59"/><rect x="16" y="470" width="6" height="9" fill="#e98b6f" opacity="0.64"/><rect x="71" y="503" width="6" height="9" fill="#e98b6f" opacity="0.68"/><rect x="-12" y="536" width="6" height="9" fill="#e98b6f" opacity="0.73"/><rect x="16" y="536" width="6" height="9" fill="#e98b6f" opacity="0.38"/><rect x="85" y="199" width="137" height="701" fill="#2b2140" opacity="0.92"/><rect x="175" y="211" width="6" height="9" fill="#e98b6f" opacity="0.75"/><rect x="93" y="243" width="6" height="9" fill="#e98b6f" opacity="0.63"/><rect x="120" y="243" width="6" height="9" fill="#e98b6f" opacity="0.59"/><rect x="148" y="243" width="6" height="9" fill="#e98b6f" opacity="0.75"/><rect x="175" y="243" width="6" height="9" fill="#e98b6f" opacity="0.46"/><rect x="120" y="276" width="6" height="9" fill="#e98b6f" opacity="0.75"/><rect x="175" y="276" width="6" height="9" fill="#e98b6f" opacity="0.59"/><rect x="203" y="276" width="6" height="9" fill="#e98b6f" opacity="0.64"/><rect x="120" y="308" width="6" height="9" fill="#e98b6f" opacity="0.46"/><rect x="203" y="308" width="6" height="9" fill="#e98b6f" opacity="0.73"/><rect x="120" y="341" width="6" height="9" fill="#e98b6f" opacity="0.59"/><rect x="148" y="341" width="6" height="9" fill="#e98b6f" opacity="0.64"/><rect x="175" y="341" width="6" height="9" fill="#e98b6f" opacity="0.73"/><rect x="93" y="374" width="6" height="9" fill="#e98b6f" opacity="0.59"/><rect x="120" y="374" width="6" height="9" fill="#e98b6f" opacity="0.64"/><rect x="148" y="374" width="6" height="9" fill="#e98b6f" opacity="0.73"/><rect x="175" y="374" width="6" height="9" fill="#e98b6f" opacity="0.38"/><rect x="93" y="406" width="6" height="9" fill="#e98b6f" opacity="0.64"/><rect x="120" y="406" width="6" height="9" fill="#e98b6f" opacity="0.73"/><rect x="175" y="406" width="6" height="9" fill="#e98b6f" opacity="0.68"/><rect x="203" y="406" width="6" height="9" fill="#e98b6f" opacity="0.69"/><rect x="93" y="439" width="6" height="9" fill="#e98b6f" opacity="0.73"/><rect x="148" y="439" width="6" height="9" fill="#e98b6f" opacity="0.68"/><rect x="120" y="504" width="6" height="9" fill="#e98b6f" opacity="0.69"/><rect x="148" y="504" width="6" height="9" fill="#e98b6f" opacity="0.66"/><rect x="203" y="504" width="6" height="9" fill="#e98b6f" opacity="0.41"/><rect x="93" y="536" width="6" height="9" fill="#e98b6f" opacity="0.69"/><rect x="148" y="536" width="6" height="9" fill="#e98b6f" opacity="0.48"/><rect x="175" y="536" width="6" height="9" fill="#e98b6f" opacity="0.41"/><rect x="203" y="536" width="6" height="9" fill="#e98b6f" opacity="0.76"/><rect x="216" y="178" width="121" height="722" fill="#7a4a63" opacity="0.92"/><rect x="224" y="190" width="6" height="9" fill="#e98b6f" opacity="0.58"/><rect x="285" y="190" width="6" height="9" fill="#e98b6f" opacity="0.59"/><rect x="315" y="190" width="6" height="9" fill="#e98b6f" opacity="0.75"/><rect x="224" y="253" width="6" height="9" fill="#e98b6f" opacity="0.59"/><rect x="254" y="253" width="6" height="9" fill="#e98b6f" opacity="0.75"/><rect x="285" y="253" width="6" height="9" fill="#e98b6f" opacity="0.46"/><rect x="315" y="253" width="6" height="9" fill="#e98b6f" opacity="0.59"/><rect x="224" y="285" width="6" height="9" fill="#e98b6f" opacity="0.75"/><rect x="315" y="316" width="6" height="9" fill="#e98b6f" opacity="0.73"/><rect x="224" y="348" width="6" height="9" fill="#e98b6f" opacity="0.59"/><rect x="285" y="348" width="6" height="9" fill="#e98b6f" opacity="0.73"/><rect x="224" y="380" width="6" height="9" fill="#e98b6f" opacity="0.64"/><rect x="254" y="380" width="6" height="9" fill="#e98b6f" opacity="0.73"/><rect x="285" y="380" width="6" height="9" fill="#e98b6f" opacity="0.38"/><rect x="315" y="380" width="6" height="9" fill="#e98b6f" opacity="0.68"/><rect x="224" y="411" width="6" height="9" fill="#e98b6f" opacity="0.73"/><rect x="315" y="411" width="6" height="9" fill="#e98b6f" opacity="0.69"/><rect x="285" y="443" width="6" height="9" fill="#e98b6f" opacity="0.69"/><rect x="224" y="474" width="6" height="9" fill="#e98b6f" opacity="0.68"/><rect x="254" y="474" width="6" height="9" fill="#e98b6f" opacity="0.69"/><rect x="315" y="474" width="6" height="9" fill="#e98b6f" opacity="0.48"/><rect x="285" y="537" width="6" height="9" fill="#e98b6f" opacity="0.41"/><rect x="315" y="537" width="6" height="9" fill="#e98b6f" opacity="0.76"/><rect x="331" y="194" width="127" height="706" fill="#2b2140" opacity="0.92"/><rect x="402" y="237" width="6" height="9" fill="#e98b6f" opacity="0.75"/><rect x="434" y="237" width="6" height="9" fill="#e98b6f" opacity="0.46"/><rect x="339" y="297" width="6" height="9" fill="#e98b6f" opacity="0.75"/><rect x="402" y="297" width="6" height="9" fill="#e98b6f" opacity="0.59"/><rect x="371" y="327" width="6" height="9" fill="#e98b6f" opacity="0.59"/><rect x="402" y="327" width="6" height="9" fill="#e98b6f" opacity="0.64"/><rect x="434" y="327" width="6" height="9" fill="#e98b6f" opacity="0.73"/><rect x="434" y="358" width="6" height="9" fill="#e98b6f" opacity="0.38"/><rect x="371" y="418" width="6" height="9" fill="#e98b6f" opacity="0.38"/><rect x="339" y="448" width="6" height="9" fill="#e98b6f" opacity="0.38"/><rect x="402" y="448" width="6" height="9" fill="#e98b6f" opacity="0.69"/><rect x="434" y="448" width="6" height="9" fill="#e98b6f" opacity="0.66"/><rect x="339" y="478" width="6" height="9" fill="#e98b6f" opacity="0.68"/><rect x="339" y="509" width="6" height="9" fill="#e98b6f" opacity="0.69"/><rect x="371" y="509" width="6" height="9" fill="#e98b6f" opacity="0.66"/><rect x="339" y="539" width="6" height="9" fill="#e98b6f" opacity="0.66"/><rect x="371" y="539" width="6" height="9" fill="#e98b6f" opacity="0.48"/><rect x="402" y="539" width="6" height="9" fill="#e98b6f" opacity="0.41"/><rect x="434" y="539" width="6" height="9" fill="#e98b6f" opacity="0.76"/><rect x="452" y="292" width="97" height="608" fill="#7a4a63" opacity="0.92"/><rect x="460" y="304" width="6" height="9" fill="#e98b6f" opacity="0.58"/><rect x="492" y="304" width="6" height="9" fill="#e98b6f" opacity="0.63"/><rect x="460" y="337" width="6" height="9" fill="#e98b6f" opacity="0.63"/><rect x="492" y="337" width="6" height="9" fill="#e98b6f" opacity="0.59"/><rect x="524" y="337" width="6" height="9" fill="#e98b6f" opacity="0.75"/><rect x="492" y="371" width="6" height="9" fill="#e98b6f" opacity="0.75"/><rect x="524" y="437" width="6" height="9" fill="#e98b6f" opacity="0.64"/><rect x="460" y="470" width="6" height="9" fill="#e98b6f" opacity="0.59"/><rect x="492" y="470" width="6" height="9" fill="#e98b6f" opacity="0.64"/><rect x="492" y="503" width="6" height="9" fill="#e98b6f" opacity="0.73"/><rect x="524" y="503" width="6" height="9" fill="#e98b6f" opacity="0.38"/><rect x="460" y="536" width="6" height="9" fill="#e98b6f" opacity="0.73"/><rect x="492" y="536" width="6" height="9" fill="#e98b6f" opacity="0.38"/><rect x="543" y="294" width="90" height="606" fill="#2b2140" opacity="0.92"/><rect x="610" y="306" width="6" height="9" fill="#e98b6f" opacity="0.59"/><rect x="610" y="339" width="6" height="9" fill="#e98b6f" opacity="0.75"/><rect x="581" y="372" width="6" height="9" fill="#e98b6f" opacity="0.75"/><rect x="610" y="372" width="6" height="9" fill="#e98b6f" opacity="0.46"/><rect x="581" y="405" width="6" height="9" fill="#e98b6f" opacity="0.46"/><rect x="610" y="437" width="6" height="9" fill="#e98b6f" opacity="0.64"/><rect x="551" y="470" width="6" height="9" fill="#e98b6f" opacity="0.59"/><rect x="581" y="470" width="6" height="9" fill="#e98b6f" opacity="0.64"/><rect x="551" y="503" width="6" height="9" fill="#e98b6f" opacity="0.64"/><rect x="581" y="536" width="6" height="9" fill="#e98b6f" opacity="0.38"/><rect x="610" y="536" width="6" height="9" fill="#e98b6f" opacity="0.68"/><rect x="626" y="372" width="129" height="528" fill="#7a4a63" opacity="0.92"/><rect x="634" y="384" width="6" height="9" fill="#e98b6f" opacity="0.58"/><rect x="666" y="384" width="6" height="9" fill="#e98b6f" opacity="0.63"/><rect x="699" y="384" width="6" height="9" fill="#e98b6f" opacity="0.59"/><rect x="731" y="384" width="6" height="9" fill="#e98b6f" opacity="0.75"/><rect x="634" y="415" width="6" height="9" fill="#e98b6f" opacity="0.63"/><rect x="666" y="415" width="6" height="9" fill="#e98b6f" opacity="0.59"/><rect x="699" y="415" width="6" height="9" fill="#e98b6f" opacity="0.75"/><rect x="731" y="415" width="6" height="9" fill="#e98b6f" opacity="0.46"/><rect x="634" y="446" width="6" height="9" fill="#e98b6f" opacity="0.59"/><rect x="699" y="446" width="6" height="9" fill="#e98b6f" opacity="0.46"/><rect x="731" y="446" width="6" height="9" fill="#e98b6f" opacity="0.59"/><rect x="634" y="477" width="6" height="9" fill="#e98b6f" opacity="0.75"/><rect x="731" y="477" width="6" height="9" fill="#e98b6f" opacity="0.64"/><rect x="666" y="507" width="6" height="9" fill="#e98b6f" opacity="0.59"/><rect x="731" y="507" width="6" height="9" fill="#e98b6f" opacity="0.73"/><rect x="634" y="538" width="6" height="9" fill="#e98b6f" opacity="0.59"/><rect x="699" y="538" width="6" height="9" fill="#e98b6f" opacity="0.73"/><rect x="731" y="538" width="6" height="9" fill="#e98b6f" opacity="0.38"/><rect x="749" y="385" width="135" height="515" fill="#2b2140" opacity="0.92"/><rect x="811" y="397" width="6" height="9" fill="#e98b6f" opacity="0.59"/><rect x="757" y="431" width="6" height="9" fill="#e98b6f" opacity="0.63"/><rect x="811" y="431" width="6" height="9" fill="#e98b6f" opacity="0.75"/><rect x="838" y="431" width="6" height="9" fill="#e98b6f" opacity="0.46"/><rect x="865" y="431" width="6" height="9" fill="#e98b6f" opacity="0.59"/><rect x="757" y="466" width="6" height="9" fill="#e98b6f" opacity="0.59"/><rect x="811" y="466" width="6" height="9" fill="#e98b6f" opacity="0.46"/><rect x="757" y="500" width="6" height="9" fill="#e98b6f" opacity="0.75"/><rect x="811" y="500" width="6" height="9" fill="#e98b6f" opacity="0.59"/><rect x="838" y="500" width="6" height="9" fill="#e98b6f" opacity="0.64"/><rect x="865" y="500" width="6" height="9" fill="#e98b6f" opacity="0.73"/><rect x="757" y="535" width="6" height="9" fill="#e98b6f" opacity="0.46"/><rect x="784" y="535" width="6" height="9" fill="#e98b6f" opacity="0.59"/><rect x="838" y="535" width="6" height="9" fill="#e98b6f" opacity="0.73"/><rect x="865" y="535" width="6" height="9" fill="#e98b6f" opacity="0.38"/><rect x="878" y="408" width="78" height="492" fill="#7a4a63" opacity="0.92"/><rect x="886" y="420" width="6" height="9" fill="#e98b6f" opacity="0.58"/><rect x="886" y="457" width="6" height="9" fill="#e98b6f" opacity="0.63"/><rect x="886" y="494" width="6" height="9" fill="#e98b6f" opacity="0.59"/><rect x="950" y="234" width="132" height="666" fill="#2b2140" opacity="0.92"/><rect x="958" y="246" width="6" height="9" fill="#e98b6f" opacity="0.58"/><rect x="985" y="246" width="6" height="9" fill="#e98b6f" opacity="0.63"/><rect x="1011" y="246" width="6" height="9" fill="#e98b6f" opacity="0.59"/><rect x="1038" y="246" width="6" height="9" fill="#e98b6f" opacity="0.75"/><rect x="1064" y="246" width="6" height="9" fill="#e98b6f" opacity="0.46"/><rect x="958" y="278" width="6" height="9" fill="#e98b6f" opacity="0.63"/><rect x="985" y="278" width="6" height="9" fill="#e98b6f" opacity="0.59"/><rect x="1038" y="278" width="6" height="9" fill="#e98b6f" opacity="0.46"/><rect x="958" y="310" width="6" height="9" fill="#e98b6f" opacity="0.59"/><rect x="1011" y="310" width="6" height="9" fill="#e98b6f" opacity="0.46"/><rect x="1038" y="310" width="6" height="9" fill="#e98b6f" opacity="0.59"/><rect x="958" y="343" width="6" height="9" fill="#e98b6f" opacity="0.75"/><rect x="1038" y="343" width="6" height="9" fill="#e98b6f" opacity="0.64"/><rect x="1064" y="343" width="6" height="9" fill="#e98b6f" opacity="0.73"/><rect x="958" y="375" width="6" height="9" fill="#e98b6f" opacity="0.46"/><rect x="985" y="375" width="6" height="9" fill="#e98b6f" opacity="0.59"/><rect x="1011" y="375" width="6" height="9" fill="#e98b6f" opacity="0.64"/><rect x="1064" y="375" width="6" height="9" fill="#e98b6f" opacity="0.38"/><rect x="958" y="407" width="6" height="9" fill="#e98b6f" opacity="0.59"/><rect x="985" y="407" width="6" height="9" fill="#e98b6f" opacity="0.64"/><rect x="1011" y="407" width="6" height="9" fill="#e98b6f" opacity="0.73"/><rect x="1038" y="407" width="6" height="9" fill="#e98b6f" opacity="0.38"/><rect x="1064" y="407" width="6" height="9" fill="#e98b6f" opacity="0.68"/><rect x="985" y="440" width="6" height="9" fill="#e98b6f" opacity="0.73"/><rect x="1011" y="472" width="6" height="9" fill="#e98b6f" opacity="0.68"/><rect x="1064" y="472" width="6" height="9" fill="#e98b6f" opacity="0.66"/><rect x="958" y="504" width="6" height="9" fill="#e98b6f" opacity="0.38"/><rect x="985" y="504" width="6" height="9" fill="#e98b6f" opacity="0.68"/><rect x="1011" y="504" width="6" height="9" fill="#e98b6f" opacity="0.69"/><rect x="1038" y="504" width="6" height="9" fill="#e98b6f" opacity="0.66"/><rect x="985" y="537" width="6" height="9" fill="#e98b6f" opacity="0.69"/><rect x="1064" y="537" width="6" height="9" fill="#e98b6f" opacity="0.41"/><rect x="1076" y="135" width="96" height="765" fill="#7a4a63" opacity="0.92"/><rect x="1084" y="147" width="6" height="9" fill="#e98b6f" opacity="0.58"/><rect x="1148" y="147" width="6" height="9" fill="#e98b6f" opacity="0.59"/><rect x="1084" y="177" width="6" height="9" fill="#e98b6f" opacity="0.63"/><rect x="1116" y="177" width="6" height="9" fill="#e98b6f" opacity="0.59"/><rect x="1084" y="208" width="6" height="9" fill="#e98b6f" opacity="0.59"/><rect x="1116" y="208" width="6" height="9" fill="#e98b6f" opacity="0.75"/><rect x="1084" y="238" width="6" height="9" fill="#e98b6f" opacity="0.75"/><rect x="1116" y="238" width="6" height="9" fill="#e98b6f" opacity="0.46"/><rect x="1148" y="238" width="6" height="9" fill="#e98b6f" opacity="0.59"/><rect x="1084" y="268" width="6" height="9" fill="#e98b6f" opacity="0.46"/><rect x="1116" y="268" width="6" height="9" fill="#e98b6f" opacity="0.59"/><rect x="1084" y="298" width="6" height="9" fill="#e98b6f" opacity="0.59"/><rect x="1148" y="298" width="6" height="9" fill="#e98b6f" opacity="0.73"/><rect x="1084" y="328" width="6" height="9" fill="#e98b6f" opacity="0.64"/><rect x="1116" y="328" width="6" height="9" fill="#e98b6f" opacity="0.73"/><rect x="1084" y="358" width="6" height="9" fill="#e98b6f" opacity="0.73"/><rect x="1116" y="358" width="6" height="9" fill="#e98b6f" opacity="0.38"/><rect x="1148" y="358" width="6" height="9" fill="#e98b6f" opacity="0.68"/><rect x="1084" y="388" width="6" height="9" fill="#e98b6f" opacity="0.38"/><rect x="1116" y="388" width="6" height="9" fill="#e98b6f" opacity="0.68"/><rect x="1148" y="388" width="6" height="9" fill="#e98b6f" opacity="0.69"/><rect x="1084" y="418" width="6" height="9" fill="#e98b6f" opacity="0.68"/><rect x="1116" y="418" width="6" height="9" fill="#e98b6f" opacity="0.69"/><rect x="1084" y="449" width="6" height="9" fill="#e98b6f" opacity="0.69"/><rect x="1116" y="449" width="6" height="9" fill="#e98b6f" opacity="0.66"/><rect x="1148" y="449" width="6" height="9" fill="#e98b6f" opacity="0.48"/><rect x="1148" y="479" width="6" height="9" fill="#e98b6f" opacity="0.41"/><rect x="1084" y="509" width="6" height="9" fill="#e98b6f" opacity="0.48"/><rect x="1148" y="509" width="6" height="9" fill="#e98b6f" opacity="0.76"/><rect x="1084" y="539" width="6" height="9" fill="#e98b6f" opacity="0.41"/><rect x="1116" y="539" width="6" height="9" fill="#e98b6f" opacity="0.76"/><rect x="1148" y="539" width="6" height="9" fill="#e98b6f" opacity="0.44"/><rect x="0" y="557.0573109092095" width="1200" height="342.9426890907905" fill="url(#water)" opacity="0.25"/>
<rect width="1200" height="900" fill="url(#vig)"/>
<text x="48" y="846" font-family="Georgia, serif" font-size="46" fill="#fff" opacity="0.92" letter-spacing="-1">A Cinematic Walkthrough</text>
<text x="50" y="804" font-family="Georgia, serif" font-size="20" fill="#c9a24b" opacity="0.9" letter-spacing="3">KASSORA</text>
</svg>